<?xml version="1.0" encoding="UTF-8"?>
<svg xmlns="http://www.w3.org/2000/svg" xmlns:xlink="http://www.w3.org/1999/xlink" version="1.2" >
<font id="Pixel Arial 11">
<font-face  font-family="Pixel Arial 11" units-per-em="1000" ascent="1125" descent="-250" font-style="normal" font-weight="400" font-stretch="normal" cap-height="750" x-height="500" underline-position="-133" underline-thickness="20" />
<missing-glyph  horiz-adv-x="500" d="M63 0 L63 1125 L438 1125 L438 0 L63 0 Z M125 63 L375 63 L375 1063 L125 1063 L125 63 Z " />
<glyph glyph-name="space" unicode="&#x20;" horiz-adv-x="375" d="" />
<glyph glyph-name="exclam" unicode="&#x21;" horiz-adv-x="250" d="M0 1000 L125 1000 L125 250 L0 250 L0 1000 Z M0 125 L125 125 L125 0 L0 0 L0 125 Z " />
<glyph glyph-name="quotedbl" unicode="&#x22;" horiz-adv-x="500" d="M0 1000 L125 1000 L125 625 L0 625 L0 1000 Z M250 1000 L375 1000 L375 625 L250 625 L250 1000 Z " />
<glyph glyph-name="numbersign" unicode="&#x23;" horiz-adv-x="750" d="M0 750 L625 750 L625 625 L0 625 L0 750 Z M250 1000 L375 1000 L375 750 L250 750 L250 1000 Z M500 1000 L625 1000 L625 750 L500 750 L500 1000 Z M125 625 L250 625 L250 375 L125 375 L125 625 Z M0 375 L500 375 L500 250 L0 250 L0 375 Z M375 625 L500 625 L500 375 L375 375 L375 625 Z M250 250 L375 250 L375 0 L250 0 L250 250 Z M0 250 L125 250 L125 0 L0 0 L0 250 Z M500 375 L625 375 L625 250 L500 250 L500 375 Z " />
<glyph glyph-name="dollar" unicode="&#x24;" horiz-adv-x="750" d="M125 1000 L500 1000 L500 875 L125 875 L125 1000 Z M0 875 L135 875 L135 625 L0 625 L0 875 Z M500 875 L625 875 L625 750 L500 750 L500 875 Z M125 625 L500 625 L500 500 L125 500 L125 625 Z M495 500 L625 500 L625 125 L495 125 L495 500 Z M125 125 L500 125 L500 0 L125 0 L125 125 Z M0 250 L125 250 L125 125 L0 125 L0 250 Z M250 0 L375 0 L375 -125 L250 -125 L250 0 Z M250 500 L375 500 L375 125 L250 125 L250 500 Z M250 875 L375 875 L375 625 L250 625 L250 875 Z " />
<glyph glyph-name="percent" unicode="&#x25;" horiz-adv-x="1250" d="M125 1000 L375 1000 L375 875 L125 875 L125 1000 Z M0 875 L130 875 L130 625 L0 625 L0 875 Z M125 625 L375 625 L375 500 L125 500 L125 625 Z M370 875 L500 875 L500 625 L370 625 L370 875 Z M250 125 L375 125 L375 0 L250 0 L250 125 Z M375 375 L500 375 L500 125 L375 125 L375 375 Z M500 625 L625 625 L625 375 L500 375 L500 625 Z M625 875 L750 875 L750 625 L625 625 L625 875 Z M750 1000 L875 1000 L875 875 L750 875 L750 1000 Z M625 375 L755 375 L755 125 L625 125 L625 375 Z M750 125 L1000 125 L1000 0 L750 0 L750 125 Z M995 375 L1125 375 L1125 125 L995 125 L995 375 Z M750 500 L1000 500 L1000 375 L750 375 L750 500 Z " />
<glyph glyph-name="ampersand" unicode="&#x26;" horiz-adv-x="875" d="M500 130 L500 370 L375 370 L375 495 L250 495 L250 370 L125 370 L125 130 L500 130 Z M250 870 L250 630 L500 630 L500 870 L250 870 Z M125 875 L250 875 L250 1000 L500 1000 L500 875 L625 875 L625 625 L500 625 L500 375 L750 375 L750 250 L625 250 L625 125 L750 125 L750 0 L625 0 L625 125 L500 125 L500 0 L125 0 L125 125 L0 125 L0 375 L125 375 L125 500 L250 500 L250 625 L125 625 L125 875 Z " />
<glyph glyph-name="quotesingle" unicode="&#x27;" horiz-adv-x="250" d="M0 1000 L125 1000 L125 625 L0 625 L0 1000 Z " />
<glyph glyph-name="parenleft" unicode="&#x28;" horiz-adv-x="500" d="M250 1000 L375 1000 L375 875 L250 875 L250 1000 Z M125 875 L250 875 L250 750 L125 750 L125 875 Z M0 750 L125 750 L125 0 L0 0 L0 750 Z M125 0 L250 0 L250 -125 L125 -125 L125 0 Z M250 -125 L375 -125 L375 -250 L250 -250 L250 -125 Z " />
<glyph glyph-name="parenright" unicode="&#x29;" horiz-adv-x="500" d="M125 1000 L0 1000 L0 875 L125 875 L125 1000 Z M250 875 L125 875 L125 750 L250 750 L250 875 Z M375 750 L250 750 L250 0 L375 0 L375 750 Z M250 0 L125 0 L125 -125 L250 -125 L250 0 Z M125 -125 L0 -125 L0 -250 L125 -250 L125 -125 Z " />
<glyph glyph-name="asterisk" unicode="&#x2a;" horiz-adv-x="500" d="M125 1000 L250 1000 L250 875 L125 875 L125 1000 Z M0 875 L375 875 L375 750 L0 750 L0 875 Z M125 750 L250 750 L250 625 L125 625 L125 750 Z M0 625 L125 625 L125 500 L0 500 L0 625 Z M250 625 L375 625 L375 500 L250 500 L250 625 Z " />
<glyph glyph-name="plus" unicode="&#x2b;" horiz-adv-x="750" d="M250 750 L375 750 L375 500 L250 500 L250 750 Z M0 500 L625 500 L625 375 L0 375 L0 500 Z M250 375 L375 375 L375 125 L250 125 L250 375 Z " />
<glyph glyph-name="comma" unicode="&#x2c;" horiz-adv-x="250" d="M0 125 L125 125 L125 -250 L0 -250 L0 125 Z " />
<glyph glyph-name="&amp;#x2d;" unicode="&#x2d;" horiz-adv-x="500" d="M0 375 L375 375 L375 250 L0 250 L0 375 Z " />
<glyph glyph-name="&amp;#x2010;" unicode="&#x2010;" horiz-adv-x="500" d="M0 375 L375 375 L375 250 L0 250 L0 375 Z " />
<glyph glyph-name="period" unicode="&#x2e;" horiz-adv-x="250" d="M0 125 L125 125 L125 0 L0 0 L0 125 Z " />
<glyph glyph-name="slash" unicode="&#x2f;" horiz-adv-x="500" d="M0 250 L125 250 L125 0 L0 0 L0 250 Z M125 750 L250 750 L250 250 L125 250 L125 750 Z M250 1000 L375 1000 L375 750 L250 750 L250 1000 Z " />
<glyph glyph-name="zero" unicode="0" horiz-adv-x="750" d="M0 875 L130 875 L130 125 L0 125 L0 875 Z M125 125 L500 125 L500 0 L125 0 L125 125 Z M495 875 L625 875 L625 125 L495 125 L495 875 Z M125 1000 L500 1000 L500 875 L125 875 L125 1000 Z " />
<glyph glyph-name="one" unicode="1" horiz-adv-x="625" d="M0 750 L125 750 L125 625 L0 625 L0 750 Z M125 875 L250 875 L250 750 L125 750 L125 875 Z M250 1000 L375 1000 L375 0 L250 0 L250 1000 Z " />
<glyph glyph-name="two" unicode="2" horiz-adv-x="751" d="M375 500 L500 500 L500 375 L375 375 L375 500 Z M0 125 L625 125 L625 0 L0 0 L0 125 Z M500 875 L625 875 L625 500 L500 500 L500 875 Z M125 1000 L500 1000 L500 875 L125 875 L125 1000 Z M250 375 L375 375 L375 250 L250 250 L250 375 Z M125 250 L250 250 L250 125 L125 125 L125 250 Z M0 875 L125 875 L125 750 L0 750 L0 875 Z " />
<glyph glyph-name="three" unicode="3" horiz-adv-x="750" d="M0 875 L125 875 L125 750 L0 750 L0 875 Z M125 625 L500 625 L500 500 L125 500 L125 625 Z M500 875 L625 875 L625 625 L500 625 L500 875 Z M125 1000 L500 1000 L500 875 L125 875 L125 1000 Z M500 500 L625 500 L625 125 L500 125 L500 500 Z M125 125 L500 125 L500 0 L125 0 L125 125 Z M0 250 L125 250 L125 125 L0 125 L0 250 Z " />
<glyph glyph-name="four" unicode="4" horiz-adv-x="750" d="M255 750 L255 500 L130 500 L130 375 L375 375 L375 750 L255 750 Z M125 750 L250 750 L250 875 L375 875 L375 1000 L500 1000 L500 375 L625 375 L625 250 L500 250 L500 0 L375 0 L375 250 L0 250 L0 500 L125 500 L125 750 Z " />
<glyph glyph-name="five" unicode="5" horiz-adv-x="750" d="M0 250 L125 250 L125 125 L0 125 L0 250 Z M125 125 L500 125 L500 0 L125 0 L125 125 Z M500 500 L625 500 L625 125 L500 125 L500 500 Z M0 625 L500 625 L500 500 L0 500 L0 625 Z M0 750 L125 750 L125 625 L0 625 L0 750 Z M125 875 L250 875 L250 750 L125 750 L125 875 Z M125 1000 L625 1000 L625 875 L125 875 L125 1000 Z " />
<glyph glyph-name="six" unicode="6" horiz-adv-x="750" d="M0 875 L125 875 L125 125 L0 125 L0 875 Z M120 125 L505 125 L505 0 L120 0 L120 125 Z M500 875 L625 875 L625 750 L500 750 L500 875 Z M125 1000 L500 1000 L500 875 L125 875 L125 1000 Z M500 500 L625 500 L625 125 L500 125 L500 500 Z M125 625 L505 625 L505 500 L125 500 L125 625 Z " />
<glyph glyph-name="seven" unicode="7" horiz-adv-x="750" d="M0 1000 L625 1000 L625 875 L0 875 L0 1000 Z M375 875 L500 875 L500 625 L375 625 L375 875 Z M250 625 L375 625 L375 375 L250 375 L250 625 Z M125 375 L250 375 L250 0 L125 0 L125 375 Z " />
<glyph glyph-name="eight" unicode="8" horiz-adv-x="750" d="M0 875 L125 875 L125 625 L0 625 L0 875 Z M125 130 L500 130 L500 0 L125 0 L125 130 Z M500 875 L625 875 L625 625 L500 625 L500 875 Z M125 1000 L500 1000 L500 870 L125 870 L125 1000 Z M125 630 L500 630 L500 495 L125 495 L125 630 Z M0 500 L125 500 L125 125 L0 125 L0 500 Z M500 500 L625 500 L625 125 L500 125 L500 500 Z " />
<glyph glyph-name="nine" unicode="9" horiz-adv-x="750" d="M0 875 L125 875 L125 500 L0 500 L0 875 Z M125 130 L500 130 L500 0 L125 0 L125 130 Z M500 875 L625 875 L625 125 L500 125 L500 875 Z M125 1000 L500 1000 L500 870 L125 870 L125 1000 Z M125 505 L500 505 L500 370 L125 370 L125 505 Z M0 250 L125 250 L125 125 L0 125 L0 250 Z " />
<glyph glyph-name="colon" unicode="&#x3a;" horiz-adv-x="250" d="M0 750 L125 750 L125 625 L0 625 L0 750 Z M0 125 L125 125 L125 0 L0 0 L0 125 Z " />
<glyph glyph-name="semicolon" unicode="&#x3b;" horiz-adv-x="250" d="M0 750 L125 750 L125 625 L0 625 L0 750 Z M0 125 L125 125 L125 -250 L0 -250 L0 125 Z " />
<glyph glyph-name="less" unicode="&#x3c;" horiz-adv-x="750" d="M0 500 L125 500 L125 375 L0 375 L0 500 Z M125 375 L500 375 L500 250 L125 250 L125 375 Z M500 250 L625 250 L625 125 L500 125 L500 250 Z M125 625 L500 625 L500 500 L125 500 L125 625 Z M500 750 L625 750 L625 625 L500 625 L500 750 Z " />
<glyph glyph-name="equal" unicode="&#x3d;" horiz-adv-x="750" d="M0 625 L625 625 L625 500 L0 500 L0 625 Z M0 375 L625 375 L625 250 L0 250 L0 375 Z " />
<glyph glyph-name="greater" unicode="&#x3e;" horiz-adv-x="750" d="M625 500 L500 500 L500 375 L625 375 L625 500 Z M500 375 L125 375 L125 250 L500 250 L500 375 Z M125 250 L0 250 L0 125 L125 125 L125 250 Z M500 625 L125 625 L125 500 L500 500 L500 625 Z M125 750 L0 750 L0 625 L125 625 L125 750 Z " />
<glyph glyph-name="question" unicode="&#x3f;" horiz-adv-x="750" d="M0 875 L125 875 L125 750 L0 750 L0 875 Z M125 1000 L500 1000 L500 875 L125 875 L125 1000 Z M500 875 L625 875 L625 625 L500 625 L500 875 Z M375 625 L500 625 L500 500 L375 500 L375 625 Z M250 500 L375 500 L375 250 L250 250 L250 500 Z M250 125 L375 125 L375 0 L250 0 L250 125 Z " />
<glyph glyph-name="at" unicode="&#x40;" horiz-adv-x="1375" d="M0 625 L125 625 L125 0 L0 0 L0 625 Z M250 -125 L1125 -125 L1125 -250 L250 -250 L250 -125 Z M1125 0 L1250 0 L1250 -125 L1125 -125 L1125 0 Z M250 500 L380 500 L380 125 L250 125 L250 500 Z M375 125 L625 125 L625 0 L375 0 L375 125 Z M620 250 L750 250 L750 125 L620 125 L620 250 Z M745 625 L875 625 L875 0 L745 0 L745 625 Z M375 625 L505 625 L505 500 L375 500 L375 625 Z M500 750 L750 750 L750 625 L500 625 L500 750 Z M875 750 L1005 750 L1005 500 L875 500 L875 750 Z M1000 875 L1125 875 L1125 750 L1000 750 L1000 875 Z M1120 750 L1250 750 L1250 250 L1120 250 L1120 750 Z M995 250 L1125 250 L1125 125 L995 125 L995 250 Z M125 0 L250 0 L250 -125 L125 -125 L125 0 Z M875 125 L1000 125 L1000 0 L875 0 L875 125 Z M125 875 L250 875 L250 625 L125 625 L125 875 Z M250 875 L375 875 L375 750 L250 750 L250 875 Z M375 1000 L1000 1000 L1000 875 L375 875 L375 1000 Z " />
<glyph glyph-name="A" unicode="A" horiz-adv-x="1000" d="M0 250 L125 250 L125 0 L0 0 L0 250 Z M125 500 L255 500 L255 250 L125 250 L125 500 Z M250 875 L380 875 L380 500 L250 500 L250 875 Z M375 1000 L500 1000 L500 875 L375 875 L375 1000 Z M495 875 L625 875 L625 500 L495 500 L495 875 Z M620 500 L750 500 L750 250 L620 250 L620 500 Z M750 250 L875 250 L875 0 L750 0 L750 250 Z M250 375 L625 375 L625 250 L250 250 L250 375 Z " />
<glyph glyph-name="B" unicode="B" horiz-adv-x="875" d="M0 1000 L125 1000 L125 0 L0 0 L0 1000 Z M125 1000 L625 1000 L625 875 L125 875 L125 1000 Z M620 875 L750 875 L750 125 L620 125 L620 875 Z M125 125 L625 125 L625 0 L125 0 L125 125 Z M125 625 L625 625 L625 500 L125 500 L125 625 Z " />
<glyph glyph-name="C" unicode="C" horiz-adv-x="875" d="M250 125 L625 125 L625 0 L250 0 L250 125 Z M125 250 L250 250 L250 125 L125 125 L125 250 Z M0 750 L125 750 L125 250 L0 250 L0 750 Z M125 875 L250 875 L250 750 L125 750 L125 875 Z M250 1000 L625 1000 L625 875 L250 875 L250 1000 Z M625 875 L750 875 L750 750 L625 750 L625 875 Z M625 250 L750 250 L750 125 L625 125 L625 250 Z " />
<glyph glyph-name="D" unicode="D" horiz-adv-x="875" d="M0 1000 L125 1000 L125 0 L0 0 L0 1000 Z M125 1000 L500 1000 L500 875 L125 875 L125 1000 Z M495 875 L625 875 L625 750 L495 750 L495 875 Z M620 750 L750 750 L750 250 L620 250 L620 750 Z M495 250 L625 250 L625 125 L495 125 L495 250 Z M125 125 L500 125 L500 0 L125 0 L125 125 Z " />
<glyph glyph-name="E" unicode="E" horiz-adv-x="750" d="M0 1000 L125 1000 L125 0 L0 0 L0 1000 Z M125 125 L625 125 L625 0 L125 0 L125 125 Z M125 1000 L625 1000 L625 875 L125 875 L125 1000 Z M125 625 L625 625 L625 500 L125 500 L125 625 Z " />
<glyph glyph-name="F" unicode="F" horiz-adv-x="750" d="M0 1000 L125 1000 L125 0 L0 0 L0 1000 Z M125 1000 L625 1000 L625 875 L125 875 L125 1000 Z M125 625 L500 625 L500 500 L125 500 L125 625 Z " />
<glyph glyph-name="G" unicode="G" horiz-adv-x="1000" d="M250 125 L625 125 L625 0 L250 0 L250 125 Z M125 250 L250 250 L250 125 L125 125 L125 250 Z M0 750 L125 750 L125 250 L0 250 L0 750 Z M125 875 L250 875 L250 750 L125 750 L125 875 Z M250 1000 L625 1000 L625 875 L250 875 L250 1000 Z M625 875 L750 875 L750 750 L625 750 L625 875 Z M625 250 L750 250 L750 125 L625 125 L625 250 Z M750 750 L875 750 L875 625 L750 625 L750 750 Z M750 375 L875 375 L875 250 L750 250 L750 375 Z M750 500 L875 500 L875 375 L750 375 L750 500 Z M500 500 L750 500 L750 375 L500 375 L500 500 Z " />
<glyph glyph-name="H" unicode="H" horiz-adv-x="875" d="M0 1000 L125 1000 L125 0 L0 0 L0 1000 Z M125 625 L625 625 L625 500 L125 500 L125 625 Z M625 1000 L750 1000 L750 0 L625 0 L625 1000 Z " />
<glyph glyph-name="I" unicode="I" horiz-adv-x="250" d="M0 1000 L125 1000 L125 0 L0 0 L0 1000 Z " />
<glyph glyph-name="J" unicode="J" horiz-adv-x="625" d="M0 375 L125 375 L125 125 L0 125 L0 375 Z M125 125 L375 125 L375 0 L125 0 L125 125 Z M375 1000 L500 1000 L500 125 L375 125 L375 1000 Z " />
<glyph glyph-name="K" unicode="K" horiz-adv-x="875" d="M625 125 L750 125 L750 0 L625 0 L625 125 L500 125 L500 375 L375 375 L375 500 L250 500 L250 375 L125 375 L125 0 L0 0 L0 1000 L125 1000 L125 500 L250 500 L250 625 L375 625 L375 750 L500 750 L500 875 L625 875 L625 1000 L750 1000 L750 875 L625 875 L625 750 L500 750 L500 375 L625 375 L625 125 Z " />
<glyph glyph-name="L" unicode="L" horiz-adv-x="750" d="M0 1000 L125 1000 L125 0 L0 0 L0 1000 Z M125 125 L625 125 L625 0 L125 0 L125 125 Z " />
<glyph glyph-name="M" unicode="M" horiz-adv-x="1000" d="M0 1000 L125 1000 L125 0 L0 0 L0 1000 Z M125 875 L250 875 L250 625 L125 625 L125 875 Z M250 625 L375 625 L375 250 L250 250 L250 625 Z M375 250 L500 250 L500 0 L375 0 L375 250 Z M500 625 L625 625 L625 250 L500 250 L500 625 Z M625 875 L750 875 L750 625 L625 625 L625 875 Z M750 1000 L875 1000 L875 0 L750 0 L750 1000 Z " />
<glyph glyph-name="N" unicode="N" horiz-adv-x="875" d="M0 1000 L125 1000 L125 0 L0 0 L0 1000 Z M125 875 L250 875 L250 750 L125 750 L125 875 Z M250 750 L375 750 L375 500 L250 500 L250 750 Z M375 500 L500 500 L500 250 L375 250 L375 500 Z M500 250 L625 250 L625 125 L500 125 L500 250 Z M625 1000 L750 1000 L750 0 L625 0 L625 1000 Z " />
<glyph glyph-name="O" unicode="O" horiz-adv-x="1000" d="M0 750 L130 750 L130 250 L0 250 L0 750 Z M125 875 L255 875 L255 750 L125 750 L125 875 Z M125 250 L255 250 L255 125 L125 125 L125 250 Z M250 125 L625 125 L625 0 L250 0 L250 125 Z M620 250 L750 250 L750 125 L620 125 L620 250 Z M745 750 L875 750 L875 250 L745 250 L745 750 Z M620 875 L750 875 L750 750 L620 750 L620 875 Z M250 1000 L625 1000 L625 875 L250 875 L250 1000 Z " />
<glyph glyph-name="P" unicode="P" horiz-adv-x="750" d="M0 1000 L125 1000 L125 0 L0 0 L0 1000 Z M125 1000 L500 1000 L500 875 L125 875 L125 1000 Z M495 875 L625 875 L625 500 L495 500 L495 875 Z M125 500 L500 500 L500 375 L125 375 L125 500 Z " />
<glyph glyph-name="Q" unicode="Q" horiz-adv-x="1000" d="M0 750 L130 750 L130 250 L0 250 L0 750 Z M125 875 L255 875 L255 750 L125 750 L125 875 Z M125 250 L255 250 L255 125 L125 125 L125 250 Z M250 125 L625 125 L625 0 L250 0 L250 125 Z M620 250 L750 250 L750 125 L620 125 L620 250 Z M745 750 L875 750 L875 250 L745 250 L745 750 Z M620 875 L750 875 L750 750 L620 750 L620 875 Z M250 1000 L625 1000 L625 875 L250 875 L250 1000 Z M750 125 L875 125 L875 0 L750 0 L750 125 Z M375 375 L625 375 L625 250 L375 250 L375 375 Z " />
<glyph glyph-name="R" unicode="R" horiz-adv-x="875" d="M0 1000 L125 1000 L125 0 L0 0 L0 1000 Z M125 1000 L625 1000 L625 875 L125 875 L125 1000 Z M620 875 L750 875 L750 625 L620 625 L620 875 Z M125 625 L625 625 L625 500 L125 500 L125 625 Z M375 500 L500 500 L500 375 L375 375 L375 500 Z M500 375 L625 375 L625 125 L500 125 L500 375 Z M625 125 L750 125 L750 0 L625 0 L625 125 Z " />
<glyph glyph-name="S" unicode="S" horiz-adv-x="875" d="M0 875 L125 875 L125 625 L0 625 L0 875 Z M125 1000 L625 1000 L625 875 L125 875 L125 1000 Z M625 875 L750 875 L750 750 L625 750 L625 875 Z M125 625 L375 625 L375 500 L125 500 L125 625 Z M375 500 L625 500 L625 375 L375 375 L375 500 Z M625 375 L750 375 L750 125 L625 125 L625 375 Z M0 250 L125 250 L125 125 L0 125 L0 250 Z M125 125 L625 125 L625 0 L125 0 L125 125 Z " />
<glyph glyph-name="T" unicode="T" horiz-adv-x="750" d="M0 1000 L625 1000 L625 875 L0 875 L0 1000 Z M250 875 L375 875 L375 0 L250 0 L250 875 Z " />
<glyph glyph-name="U" unicode="U" horiz-adv-x="875" d="M0 1000 L125 1000 L125 125 L0 125 L0 1000 Z M125 125 L625 125 L625 0 L125 0 L125 125 Z M625 1000 L750 1000 L750 125 L625 125 L625 1000 Z " />
<glyph glyph-name="V" unicode="V" horiz-adv-x="1000" d="M0 1000 L125 1000 L125 750 L0 750 L0 1000 Z M125 750 L250 750 L250 500 L125 500 L125 750 Z M250 500 L375 500 L375 250 L250 250 L250 500 Z M375 250 L500 250 L500 0 L375 0 L375 250 Z M500 500 L625 500 L625 250 L500 250 L500 500 Z M625 750 L750 750 L750 500 L625 500 L625 750 Z M750 1000 L875 1000 L875 750 L750 750 L750 1000 Z " />
<glyph glyph-name="W" unicode="W" horiz-adv-x="1250" d="M-125 1000 L0 1000 L0 750 L-125 750 L-125 1000 Z M0 750 L125 750 L125 250 L0 250 L0 750 Z M125 250 L250 250 L250 0 L125 0 L125 250 Z M250 500 L375 500 L375 250 L250 250 L250 500 Z M375 875 L500 875 L500 500 L375 500 L375 875 Z M500 1000 L625 1000 L625 875 L500 875 L500 1000 Z M625 875 L750 875 L750 500 L625 500 L625 875 Z M750 500 L875 500 L875 250 L750 250 L750 500 Z M875 250 L1000 250 L1000 0 L875 0 L875 250 Z M1000 750 L1125 750 L1125 250 L1000 250 L1000 750 Z M1125 1000 L1250 1000 L1250 750 L1125 750 L1125 1000 Z " />
<glyph glyph-name="X" unicode="X" horiz-adv-x="875" d="M0 1000 L125 1000 L125 875 L0 875 L0 1000 Z M125 875 L250 875 L250 625 L125 625 L125 875 Z M250 625 L500 625 L500 375 L250 375 L250 625 Z M125 375 L250 375 L250 125 L125 125 L125 375 Z M0 125 L125 125 L125 0 L0 0 L0 125 Z M500 375 L625 375 L625 125 L500 125 L500 375 Z M625 125 L750 125 L750 0 L625 0 L625 125 Z M500 875 L625 875 L625 625 L500 625 L500 875 Z M625 1000 L750 1000 L750 875 L625 875 L625 1000 Z " />
<glyph glyph-name="Y" unicode="Y" horiz-adv-x="1000" d="M0 1000 L125 1000 L125 875 L0 875 L0 1000 Z M125 875 L250 875 L250 625 L125 625 L125 875 Z M250 625 L375 625 L375 500 L250 500 L250 625 Z M375 500 L500 500 L500 0 L375 0 L375 500 Z M500 625 L625 625 L625 500 L500 500 L500 625 Z M625 875 L750 875 L750 625 L625 625 L625 875 Z M750 1000 L875 1000 L875 875 L750 875 L750 1000 Z " />
<glyph glyph-name="Z" unicode="Z" horiz-adv-x="875" d="M0 125 L750 125 L750 0 L0 0 L0 125 Z M125 250 L250 250 L250 125 L125 125 L125 250 Z M250 500 L375 500 L375 250 L250 250 L250 500 Z M375 750 L500 750 L500 500 L375 500 L375 750 Z M500 875 L625 875 L625 750 L500 750 L500 875 Z M125 1000 L750 1000 L750 875 L125 875 L125 1000 Z " />
<glyph glyph-name="bracketleft" unicode="&#x5b;" horiz-adv-x="375" d="M125 -125 L250 -125 L250 -250 L0 -250 L0 1000 L250 1000 L250 875 L125 875 L125 -125 Z " />
<glyph glyph-name="backslash" unicode="&#x5c;" horiz-adv-x="500" d="M0 1000 L125 1000 L125 750 L0 750 L0 1000 Z M125 750 L250 750 L250 250 L125 250 L125 750 Z M250 250 L375 250 L375 0 L250 0 L250 250 Z " />
<glyph glyph-name="bracketright" unicode="&#x5d;" horiz-adv-x="375" d="M125 -125 L0 -125 L0 -250 L250 -250 L250 1000 L0 1000 L0 875 L125 875 L125 -125 Z " />
<glyph glyph-name="asciicircum" unicode="&#x5e;" horiz-adv-x="750" d="M250 1000 L375 1000 L375 875 L250 875 L250 1000 Z M125 875 L250 875 L250 625 L125 625 L125 875 Z M0 625 L125 625 L125 500 L0 500 L0 625 Z M375 875 L500 875 L500 625 L375 625 L375 875 Z M500 625 L625 625 L625 500 L500 500 L500 625 Z " />
<glyph glyph-name="underscore" unicode="&#x5f;" horiz-adv-x="875" d="M0 -125 L750 -125 L750 -250 L0 -250 L0 -125 Z " />
<glyph glyph-name="grave" unicode="&#x60;" horiz-adv-x="500" d="M0 1000 L125 1000 L125 875 L0 875 L0 1000 Z M125 875 L250 875 L250 750 L125 750 L125 875 Z " />
<glyph glyph-name="a" unicode="a" horiz-adv-x="750" d="M0 375 L125 375 L125 125 L0 125 L0 375 Z M125 130 L375 130 L375 0 L125 0 L125 130 Z M375 250 L500 250 L500 125 L375 125 L375 250 Z M500 625 L625 625 L625 0 L500 0 L500 625 Z M125 505 L500 505 L500 370 L125 370 L125 505 Z M0 625 L125 625 L125 500 L0 500 L0 625 Z M125 750 L500 750 L500 620 L125 620 L125 750 Z " />
<glyph glyph-name="b" unicode="b" horiz-adv-x="750" d="M0 1000 L125 1000 L125 0 L0 0 L0 1000 Z M125 250 L255 250 L255 125 L125 125 L125 250 Z M250 125 L500 125 L500 0 L250 0 L250 125 Z M495 625 L625 625 L625 125 L495 125 L495 625 Z M250 750 L500 750 L500 625 L250 625 L250 750 Z M125 625 L255 625 L255 500 L125 500 L125 625 Z " />
<glyph glyph-name="c" unicode="c" horiz-adv-x="750" d="M0 625 L125 625 L125 125 L0 125 L0 625 Z M125 125 L500 125 L500 0 L125 0 L125 125 Z M500 250 L625 250 L625 125 L500 125 L500 250 Z M125 750 L500 750 L500 625 L125 625 L125 750 Z M500 625 L625 625 L625 500 L500 500 L500 625 Z " />
<glyph glyph-name="d" unicode="d" horiz-adv-x="750" d="M625 1000 L500 1000 L500 0 L625 0 L625 1000 Z M500 250 L370 250 L370 125 L500 125 L500 250 Z M375 125 L125 125 L125 0 L375 0 L375 125 Z M130 625 L0 625 L0 125 L130 125 L130 625 Z M375 750 L125 750 L125 625 L375 625 L375 750 Z M500 625 L370 625 L370 500 L500 500 L500 625 Z " />
<glyph glyph-name="e" unicode="e" horiz-adv-x="750" d="M0 625 L125 625 L125 125 L0 125 L0 625 Z M125 125 L500 125 L500 0 L125 0 L125 125 Z M500 250 L625 250 L625 125 L500 125 L500 250 Z M125 750 L500 750 L500 620 L125 620 L125 750 Z M500 625 L625 625 L625 500 L500 500 L500 625 Z M125 500 L625 500 L625 375 L125 375 L125 500 Z " />
<glyph glyph-name="f" unicode="f" horiz-adv-x="500" d="M125 875 L250 875 L250 0 L125 0 L125 875 Z M250 1000 L375 1000 L375 875 L250 875 L250 1000 Z M0 750 L375 750 L375 625 L0 625 L0 750 Z " />
<glyph glyph-name="g" unicode="g" horiz-adv-x="750" d="M0 625 L125 625 L125 125 L0 125 L0 625 Z M125 130 L375 130 L375 0 L125 0 L125 130 Z M375 250 L500 250 L500 125 L375 125 L375 250 Z M125 750 L375 750 L375 620 L125 620 L125 750 Z M375 625 L500 625 L500 500 L375 500 L375 625 Z M500 750 L625 750 L625 -125 L500 -125 L500 750 Z M0 -125 L500 -125 L500 -250 L0 -250 L0 -125 Z " />
<glyph glyph-name="h" unicode="h" horiz-adv-x="750" d="M0 1000 L125 1000 L125 0 L0 0 L0 1000 Z M125 625 L250 625 L250 500 L125 500 L125 625 Z M250 750 L500 750 L500 625 L250 625 L250 750 Z M500 625 L625 625 L625 0 L500 0 L500 625 Z " />
<glyph glyph-name="i" unicode="i" horiz-adv-x="250" d="M0 750 L125 750 L125 0 L0 0 L0 750 Z M0 1000 L125 1000 L125 875 L0 875 L0 1000 Z " />
<glyph glyph-name="j" unicode="j" horiz-adv-x="250" d="M0 750 L125 750 L125 -125 L0 -125 L0 750 Z M0 1000 L125 1000 L125 875 L0 875 L0 1000 Z M-125 -125 L0 -125 L0 -250 L-125 -250 L-125 -125 Z " />
<glyph glyph-name="k" unicode="k" horiz-adv-x="625" d="M0 1000 L125 1000 L125 0 L0 0 L0 1000 Z M125 500 L250 500 L250 375 L125 375 L125 500 Z M250 375 L375 375 L375 125 L250 125 L250 375 Z M375 125 L500 125 L500 0 L375 0 L375 125 Z M250 625 L375 625 L375 500 L250 500 L250 625 Z M375 750 L500 750 L500 625 L375 625 L375 750 Z " />
<glyph glyph-name="l" unicode="l" horiz-adv-x="250" d="M0 1000 L125 1000 L125 0 L0 0 L0 1000 Z " />
<glyph glyph-name="m" unicode="m" horiz-adv-x="1000" d="M0 750 L125 750 L125 0 L0 0 L0 750 Z M125 625 L250 625 L250 500 L125 500 L125 625 Z M250 750 L750 750 L750 625 L250 625 L250 750 Z M750 625 L875 625 L875 0 L750 0 L750 625 Z M375 625 L500 625 L500 0 L375 0 L375 625 Z " />
<glyph glyph-name="n" unicode="n" horiz-adv-x="750" d="M0 750 L125 750 L125 0 L0 0 L0 750 Z M125 750 L500 750 L500 625 L125 625 L125 750 Z M500 625 L625 625 L625 0 L500 0 L500 625 Z " />
<glyph glyph-name="o" unicode="o" horiz-adv-x="750" d="M0 625 L125 625 L125 125 L0 125 L0 625 Z M125 130 L500 130 L500 0 L125 0 L125 130 Z M500 625 L625 625 L625 125 L500 125 L500 625 Z M125 750 L500 750 L500 620 L125 620 L125 750 Z " />
<glyph glyph-name="p" unicode="p" horiz-adv-x="750" d="M625 625 L500 625 L500 125 L625 125 L625 625 Z M500 130 L250 130 L250 0 L500 0 L500 130 Z M250 250 L125 250 L125 125 L250 125 L250 250 Z M500 750 L250 750 L250 620 L500 620 L500 750 Z M250 625 L125 625 L125 500 L250 500 L250 625 Z M125 750 L0 750 L0 -250 L125 -250 L125 750 Z " />
<glyph glyph-name="q" unicode="q" horiz-adv-x="750" d="M0 625 L125 625 L125 125 L0 125 L0 625 Z M125 130 L375 130 L375 0 L125 0 L125 130 Z M375 250 L500 250 L500 125 L375 125 L375 250 Z M125 750 L375 750 L375 620 L125 620 L125 750 Z M375 625 L500 625 L500 500 L375 500 L375 625 Z M500 750 L625 750 L625 -250 L500 -250 L500 750 Z " />
<glyph glyph-name="r" unicode="r" horiz-adv-x="500" d="M0 750 L125 750 L125 0 L0 0 L0 750 Z M125 625 L250 625 L250 500 L125 500 L125 625 Z M250 750 L375 750 L375 625 L250 625 L250 750 Z " />
<glyph glyph-name="s" unicode="s" horiz-adv-x="750" d="M0 250 L125 250 L125 125 L0 125 L0 250 Z M125 125 L500 125 L500 0 L125 0 L125 125 Z M500 250 L625 250 L625 125 L500 125 L500 250 Z M375 375 L500 375 L500 250 L375 250 L375 375 Z M125 500 L375 500 L375 375 L125 375 L125 500 Z M0 625 L125 625 L125 500 L0 500 L0 625 Z M125 750 L500 750 L500 625 L125 625 L125 750 Z M500 625 L625 625 L625 500 L500 500 L500 625 Z " />
<glyph glyph-name="t" unicode="t" horiz-adv-x="375" d="M0 1000 L125 1000 L125 0 L0 0 L0 1000 Z M125 125 L250 125 L250 0 L125 0 L125 125 Z M-125 750 L250 750 L250 625 L-125 625 L-125 750 Z " />
<glyph glyph-name="u" unicode="u" horiz-adv-x="750" d="M0 750 L125 750 L125 125 L0 125 L0 750 Z M125 125 L375 125 L375 0 L125 0 L125 125 Z M375 250 L500 250 L500 125 L375 125 L375 250 Z M500 750 L625 750 L625 0 L500 0 L500 750 Z " />
<glyph glyph-name="v" unicode="v" horiz-adv-x="750" d="M0 750 L125 750 L125 500 L0 500 L0 750 Z M125 500 L250 500 L250 250 L125 250 L125 500 Z M250 250 L375 250 L375 0 L250 0 L250 250 Z M375 500 L500 500 L500 250 L375 250 L375 500 Z M500 750 L625 750 L625 500 L500 500 L500 750 Z " />
<glyph glyph-name="w" unicode="w" horiz-adv-x="1250" d="M0 750 L125 750 L125 500 L0 500 L0 750 Z M125 500 L250 500 L250 250 L125 250 L125 500 Z M250 250 L375 250 L375 0 L250 0 L250 250 Z M375 625 L500 625 L500 250 L375 250 L375 625 Z M500 750 L625 750 L625 625 L500 625 L500 750 Z M625 625 L750 625 L750 250 L625 250 L625 625 Z M750 250 L875 250 L875 0 L750 0 L750 250 Z M875 500 L1000 500 L1000 250 L875 250 L875 500 Z M1000 750 L1125 750 L1125 500 L1000 500 L1000 750 Z " />
<glyph glyph-name="x" unicode="x" horiz-adv-x="750" d="M0 750 L125 750 L125 625 L0 625 L0 750 Z M125 625 L250 625 L250 500 L125 500 L125 625 Z M250 500 L375 500 L375 250 L250 250 L250 500 Z M125 250 L250 250 L250 125 L125 125 L125 250 Z M0 125 L125 125 L125 0 L0 0 L0 125 Z M375 625 L500 625 L500 500 L375 500 L375 625 Z M500 750 L625 750 L625 625 L500 625 L500 750 Z M375 250 L500 250 L500 125 L375 125 L375 250 Z M500 125 L625 125 L625 0 L500 0 L500 125 Z " />
<glyph glyph-name="y" unicode="y" horiz-adv-x="750" d="M0 750 L125 750 L125 500 L0 500 L0 750 Z M125 500 L250 500 L250 250 L125 250 L125 500 Z M250 250 L375 250 L375 -125 L250 -125 L250 250 Z M125 -125 L250 -125 L250 -250 L125 -250 L125 -125 Z M375 500 L500 500 L500 250 L375 250 L375 500 Z M500 750 L625 750 L625 500 L500 500 L500 750 Z " />
<glyph glyph-name="z" unicode="z" horiz-adv-x="750" d="M0 750 L625 750 L625 625 L0 625 L0 750 Z M0 125 L625 125 L625 0 L0 0 L0 125 Z M125 250 L250 250 L250 125 L125 125 L125 250 Z M250 500 L375 500 L375 250 L250 250 L250 500 Z M375 625 L500 625 L500 500 L375 500 L375 625 Z " />
<glyph glyph-name="braceleft" unicode="&#x7b;" horiz-adv-x="500" d="M250 1000 L375 1000 L375 875 L250 875 L250 1000 Z M125 875 L250 875 L250 500 L125 500 L125 875 Z M0 500 L125 500 L125 375 L0 375 L0 500 Z M125 375 L250 375 L250 -125 L125 -125 L125 375 Z M250 -125 L375 -125 L375 -250 L250 -250 L250 -125 Z " />
<glyph glyph-name="bar" unicode="&#x7c;" horiz-adv-x="250" d="M0 1000 L125 1000 L125 -250 L0 -250 L0 1000 Z " />
<glyph glyph-name="braceright" unicode="&#x7d;" horiz-adv-x="500" d="M125 1000 L0 1000 L0 875 L125 875 L125 1000 Z M250 875 L125 875 L125 500 L250 500 L250 875 Z M375 500 L250 500 L250 375 L375 375 L375 500 Z M250 375 L125 375 L125 -125 L250 -125 L250 375 Z M125 -125 L0 -125 L0 -250 L125 -250 L125 -125 Z " />
<glyph glyph-name="asciitilde" unicode="&#x7e;" horiz-adv-x="750" d="M0 625 L125 625 L125 375 L0 375 L0 625 Z M125 625 L375 625 L375 500 L125 500 L125 625 Z M250 500 L500 500 L500 375 L250 375 L250 500 Z M500 625 L625 625 L625 500 L500 500 L500 625 Z " />
<glyph glyph-name="exclamdown" unicode="&#xa1;" horiz-adv-x="1250" d="M130 125 L500 125 L500 750 L130 750 L130 125 Z M0 125 L0 750 L125 750 L125 875 L1125 875 L1125 750 L625 750 L625 500 L1000 500 L1000 375 L625 375 L625 125 L1125 125 L1125 0 L125 0 L125 125 L0 125 Z " />
<glyph glyph-name="cent" unicode="&#xa2;" horiz-adv-x="625" d="M375 750 L375 625 L500 625 L500 500 L125 500 L125 250 L500 250 L500 125 L375 125 L375 0 L250 0 L250 125 L125 125 L125 250 L0 250 L0 500 L125 500 L125 625 L250 625 L250 750 L375 750 Z " />
<glyph glyph-name="sterling" unicode="&#xa3;" horiz-adv-x="750" d="M500 250 L625 250 L625 125 L500 125 L500 0 L0 0 L0 750 L125 750 L125 875 L375 875 L375 750 L500 750 L500 625 L375 625 L375 750 L125 750 L125 500 L375 500 L375 375 L125 375 L125 125 L500 125 L500 250 Z " />
<glyph glyph-name="currency" unicode="&#xa4;" horiz-adv-x="250" d="M0 0 L0 875 L125 875 L125 0 L0 0 Z M-125 1125 L0 1125 L0 1000 L-125 1000 L-125 1125 Z M125 1125 L250 1125 L250 1000 L125 1000 L125 1125 Z " />
<glyph glyph-name="yen" unicode="&#xa5;" horiz-adv-x="1250" d="M130 125 L495 125 L495 249 L130 249 L130 125 Z M500 0 L124 0 L124 124 L0 124 L0 250 L125 250 L125 375 L500 375 L500 500 L125 500 L125 625 L500 625 L500 500 L624 500 L624 625 L1001 625 L1001 500 L1125 500 L1125 250 L630 250 L630 125 L1000 125 L1000 0 L625 0 L625 125 L500 125 L500 0 Z M630 500 L630 375 L995 375 L995 500 L630 500 Z " />
<glyph glyph-name="brokenbar" unicode="&#xa6;" horiz-adv-x="375" d="" />
<glyph glyph-name="section" unicode="&#xa7;" horiz-adv-x="500" d="M130 500 L130 375 L245 375 L245 500 L130 500 Z M0 0 L0 125 L250 125 L250 250 L125 250 L125 375 L0 375 L0 500 L125 500 L125 625 L0 625 L0 750 L125 750 L125 875 L375 875 L375 750 L125 750 L125 625 L250 625 L250 500 L375 500 L375 375 L250 375 L250 250 L375 250 L375 125 L250 125 L250 0 L0 0 Z " />
<glyph glyph-name="dieresis" unicode="&#xa8;" horiz-adv-x="625" d="M125 875 L250 875 L250 750 L125 750 L125 875 Z M375 875 L500 875 L500 750 L375 750 L375 875 Z " />
<glyph glyph-name="copyright" unicode="&#xa9;" horiz-adv-x="1000" d="M750 124 L750 0 L125 0 L125 124 L0 124 L0 750 L125 750 L125 875 L750 875 L750 750 L875 750 L875 124 L750 124 Z M745 749 L130 749 L130 125 L745 125 L745 749 Z M250 625 L625 625 L625 500 L375 500 L375 375 L625 375 L625 250 L250 250 L250 625 Z " />
<glyph glyph-name="ordfeminine" unicode="&#xaa;" horiz-adv-x="750" d="M500 500 L625 500 L625 375 L500 375 L500 250 L375 250 L375 375 L500 375 L500 500 L375 500 L375 625 L500 625 L500 500 Z M125 500 L250 500 L250 375 L125 375 L125 250 L0 250 L0 375 L125 375 L125 500 L0 500 L0 625 L125 625 L125 500 Z " />
<glyph glyph-name="guillemotleft" unicode="&#xab;" horiz-adv-x="375" d="M250 750 L250 625 L125 625 L125 501 L250 501 L250 376 L0 376 L0 625 L125 625 L125 750 L250 750 Z " />
<glyph glyph-name="logicalnot" unicode="&#xac;" horiz-adv-x="1250" d="M630 500 L630 375 L995 375 L995 500 L630 500 Z M495 125 L495 500 L130 500 L130 125 L495 125 Z M125 0 L125 125 L0 125 L0 500 L125 500 L125 625 L500 625 L500 500 L625 500 L625 625 L1000 625 L1000 500 L1125 500 L1125 250 L625 250 L625 125 L1000 125 L1000 0 L625 0 L625 125 L500 125 L500 0 L125 0 Z " />
<glyph glyph-name="registered" unicode="&#xae;" horiz-adv-x="1000" d="M750 124 L750 0 L125 0 L125 124 L0 124 L0 750 L125 750 L125 875 L750 875 L750 750 L875 750 L875 124 L750 124 Z M745 749 L130 749 L130 125 L745 125 L745 749 Z M625 250 L500 250 L500 375 L375 375 L375 250 L250 250 L250 625 L625 625 L625 500 L500 500 L500 375 L625 375 L625 250 Z " />
<glyph glyph-name="degree" unicode="&#xb0;" horiz-adv-x="500" d="M130 623 L245 623 L245 748 L130 748 L130 623 Z M125 748 L125 873 L250 873 L250 748 L375 748 L375 623 L250 623 L250 498 L125 498 L125 623 L0 623 L0 748 L125 748 Z " />
<glyph glyph-name="plusminus" unicode="&#xb1;" horiz-adv-x="750" d="M500 125 L375 125 L375 0 L125 0 L125 -250 L0 -250 L0 625 L125 625 L125 125 L375 125 L375 625 L500 625 L500 125 L625 125 L625 0 L500 0 L500 125 Z " />
<glyph glyph-name="twosuperior" unicode="&#xb2;" horiz-adv-x="750" d="M500 250 L500 125 L625 125 L625 0 L375 0 L375 250 L499 250 L499 749 L125 749 L125 250 L250 250 L250 0 L0 0 L0 125 L125 125 L125 250 L0 250 L0 750 L125 750 L125 875 L499 875 L499 750 L625 750 L625 250 L500 250 Z " />
<glyph glyph-name="threesuperior" unicode="&#xb3;" horiz-adv-x="750" d="M374 750 L624 750 L624 625 L499 625 L499 501 L374 501 L374 251 L250 251 L250 2 L125 2 L125 251 L0 251 L0 376 L125 376 L125 251 L250 251 L250 501 L374 501 L374 750 Z " />
<glyph glyph-name="acute" unicode="&#xb4;" horiz-adv-x="500" d="M125 750 L250 750 L250 875 L375 875 L375 1000 L250 1000 L250 875 L125 875 L125 750 Z " />
<glyph glyph-name="paragraph" unicode="&#xb6;" horiz-adv-x="750" d="M500 500 L500 750 L375 750 L375 500 L500 500 Z M130 500 L250 500 L250 750 L130 750 L130 500 Z M0 750 L125 750 L125 875 L625 875 L625 0 L500 0 L500 375 L375 375 L375 0 L250 0 L250 375 L125 375 L125 500 L0 500 L0 750 Z " />
<glyph glyph-name="cedilla" unicode="&#xb8;" horiz-adv-x="375" d="" />
<glyph glyph-name="onesuperior" unicode="&#xb9;" horiz-adv-x="500" d="M0 -125 L125 -125 L125 875 L250 875 L250 1000 L375 1000 L375 875 L250 875 L250 -125 L125 -125 L125 -250 L0 -250 L0 -125 Z " />
<glyph glyph-name="ordmasculine" unicode="&#xba;" horiz-adv-x="750" d="M0 125 L125 125 L125 0 L0 0 L0 125 Z M250 125 L375 125 L375 0 L250 0 L250 125 Z M500 125 L625 125 L625 0 L500 0 L500 125 Z " />
<glyph glyph-name="guillemotright" unicode="&#xbb;" horiz-adv-x="375" d="M0 376 L0 501 L125 501 L125 625 L0 625 L0 750 L250 750 L250 501 L125 501 L125 376 L0 376 Z " />
<glyph glyph-name="onequarter" unicode="&#xbc;" horiz-adv-x="750" d="M255 625 L255 376 L130 376 L130 251 L495 251 L495 376 L370 376 L370 625 L255 625 Z M375 875 L375 625 L500 625 L500 376 L625 376 L625 126 L0 126 L0 376 L125 376 L125 625 L250 625 L250 875 L375 875 Z " />
<glyph glyph-name="onehalf" unicode="&#xbd;" horiz-adv-x="750" d="M499 750 L624 750 L624 625 L499 625 L499 501 L374 501 L374 625 L125 625 L125 501 L0 501 L0 625 L125 625 L125 750 L374 750 L374 625 L499 625 L499 750 Z M499 251 L499 126 L374 126 L374 251 L125 251 L125 126 L0 126 L0 251 L125 251 L125 376 L374 376 L374 251 L499 251 L499 376 L624 376 L624 251 L499 251 Z " />
<glyph glyph-name="threequarters" unicode="&#xbe;" horiz-adv-x="750" d="M369 251 L369 376 L495 376 L495 501 L370 501 L370 625 L255 625 L255 501 L130 501 L130 376 L254 376 L254 251 L369 251 Z M250 126 L250 251 L125 251 L125 376 L0 376 L0 501 L125 501 L125 625 L250 625 L250 750 L375 750 L375 625 L500 625 L500 501 L624 501 L624 376 L500 376 L500 251 L375 251 L375 126 L250 126 Z " />
<glyph glyph-name="questiondown" unicode="&#xbf;" horiz-adv-x="750" d="M500 1000 L625 1000 L625 875 L500 875 L500 750 L375 750 L375 875 L250 875 L250 750 L125 750 L125 875 L250 875 L250 1000 L375 1000 L375 875 L500 875 L500 1000 Z M125 495 L125 130 L500 130 L500 495 L125 495 Z M500 625 L500 500 L625 500 L625 125 L500 125 L500 0 L125 0 L125 125 L0 125 L0 500 L125 500 L125 625 L500 625 Z " />
<glyph glyph-name="Agrave" unicode="&#xc0;" horiz-adv-x="1000" d="M250 1125 L375 1125 L375 1000 L250 1000 L250 1125 Z M500 1125 L625 1125 L625 1000 L500 1000 L500 1125 Z M375 500 L250 500 L250 625 L125 625 L125 752 L250 752 L250 625 L375 625 L375 500 Z M625 752 L750 752 L750 625 L625 625 L625 500 L500 500 L500 625 L625 625 L625 752 Z M375 0 L375 500 L500 500 L500 0 L375 0 Z M0 875 L125 875 L125 752 L0 752 L0 875 Z M750 875 L875 875 L875 752 L750 752 L750 875 Z " />
<glyph glyph-name="Aacute" unicode="&#xc1;" horiz-adv-x="875" d="M0 250 L125 250 L125 125 L625 125 L625 375 L125 375 L125 500 L0 500 L0 750 L125 750 L125 875 L625 875 L625 750 L750 750 L750 625 L625 625 L625 750 L125 750 L125 500 L625 500 L625 375 L750 375 L750 125 L625 125 L625 0 L125 0 L125 125 L0 125 L0 250 Z M250 1125 L500 1125 L500 1250 L625 1250 L625 1125 L500 1125 L500 1000 L250 1000 L250 1125 L125 1125 L125 1250 L250 1250 L250 1125 Z " />
<glyph glyph-name="Acircumflex" unicode="&#xc2;" horiz-adv-x="500" d="M0 750 L375 750 L375 625 L0 625 L0 750 Z " />
<glyph glyph-name="Atilde" unicode="&#xc3;" horiz-adv-x="625" d="M125 370 L125 130 L375 130 L375 370 L125 370 Z M375 500 L375 375 L500 375 L500 125 L375 125 L375 0 L125 0 L125 125 L0 125 L0 375 L125 375 L125 500 L375 500 Z " />
<glyph glyph-name="Adieresis" unicode="&#xc4;" horiz-adv-x="875" d="M125 1125 L250 1125 L250 1000 L125 1000 L125 1125 Z M500 1125 L625 1125 L625 1000 L500 1000 L500 1125 Z M125 745 L125 500 L625 500 L625 745 L125 745 Z M625 875 L625 750 L750 750 L750 0 L625 0 L625 375 L125 375 L125 0 L0 0 L0 750 L125 750 L125 875 L625 875 Z " />
<glyph glyph-name="Aring" unicode="&#xc5;" horiz-adv-x="875" d="M125 745 L125 500 L625 500 L625 745 L125 745 Z M255 1000 L495 1000 L495 1125 L255 1125 L255 1000 Z M250 1125 L250 1250 L500 1250 L500 1125 L625 1125 L625 1000 L500 1000 L500 875 L625 875 L625 750 L750 750 L750 0 L625 0 L625 375 L125 375 L125 0 L0 0 L0 750 L125 750 L125 875 L250 875 L250 1000 L125 1000 L125 1125 L250 1125 Z " />
<glyph glyph-name="AE" unicode="&#xc6;" horiz-adv-x="750" d="M500 875 L500 750 L625 750 L625 125 L500 125 L500 0 L125 0 L125 125 L0 125 L0 750 L125 750 L125 875 L500 875 Z M380 505 L380 380 L250 380 L250 255 L125 255 L125 130 L500 130 L500 505 L380 505 Z M245 505 L375 505 L375 630 L500 630 L500 745 L125 745 L125 380 L245 380 L245 505 Z " />
<glyph glyph-name="Ccedilla" unicode="&#xc7;" horiz-adv-x="875" d="M125 -250 L125 -125 L375 -125 L375 0 L125 0 L125 125 L0 125 L0 750 L125 750 L125 875 L625 875 L625 750 L750 750 L750 625 L625 625 L625 750 L125 750 L125 125 L625 125 L625 250 L750 250 L750 125 L625 125 L625 0 L500 0 L500 -125 L375 -125 L375 -250 L125 -250 Z " />
<glyph glyph-name="Egrave" unicode="&#xc8;" horiz-adv-x="500" d="M125 2 L125 376 L250 376 L250 2 L125 2 Z M125 875 L250 875 L250 501 L125 501 L125 875 Z " />
<glyph glyph-name="Eacute" unicode="&#xc9;" horiz-adv-x="875" d="M250 1000 L375 1000 L375 1125 L500 1125 L500 1250 L375 1250 L375 1125 L250 1125 L250 1000 Z M750 750 L125 750 L125 500 L625 500 L625 375 L125 375 L125 125 L750 125 L750 0 L0 0 L0 875 L750 875 L750 750 Z " />
<glyph glyph-name="Ecircumflex" unicode="&#xca;" horiz-adv-x="500" d="M0 -250 L0 -125 L250 -125 L250 0 L125 0 L125 125 L250 125 L250 0 L376 0 L376 -125 L250 -125 L250 -250 L0 -250 Z " />
<glyph glyph-name="Edieresis" unicode="&#xcb;" horiz-adv-x="625" d="M500 500 L125 500 L125 375 L375 375 L375 250 L500 250 L500 125 L375 125 L375 0 L0 0 L0 125 L375 125 L375 250 L125 250 L125 375 L0 375 L0 500 L125 500 L125 625 L500 625 L500 500 Z M250 875 L375 875 L375 1000 L500 1000 L500 875 L375 875 L375 750 L250 750 L250 875 L125 875 L125 1000 L250 1000 L250 875 Z " />
<glyph glyph-name="Igrave" unicode="&#xcc;" horiz-adv-x="750" d="M250 750 L375 750 L375 875 L500 875 L500 1000 L375 1000 L375 875 L250 875 L250 750 Z M125 -250 L125 -125 L500 -125 L500 0 L125 0 L125 125 L0 125 L0 625 L125 625 L125 125 L500 125 L500 625 L625 625 L625 -125 L500 -125 L500 -250 L125 -250 Z " />
<glyph glyph-name="Iacute" unicode="&#xcd;" horiz-adv-x="1000" d="M750 125 L750 0 L125 0 L125 374 L0 374 L0 499 L125 499 L125 875 L750 875 L750 750 L875 750 L875 125 L750 125 Z M745 750 L250 750 L250 499 L375 499 L375 374 L250 374 L250 125 L745 125 L745 750 Z " />
<glyph glyph-name="Icircumflex" unicode="&#xce;" horiz-adv-x="750" d="M500 125 L500 0 L124 0 L124 125 L0 125 L0 374 L124 374 L124 500 L250 500 L250 624 L0 624 L0 749 L250 749 L250 873 L374 873 L374 749 L625 749 L625 624 L501 624 L501 500 L625 500 L625 125 L500 125 Z M495 125 L495 500 L255 500 L255 374 L130 374 L130 125 L495 125 Z " />
<glyph glyph-name="Idieresis" unicode="&#xcf;" horiz-adv-x="1000" d="M375 1000 L500 1000 L500 1125 L625 1125 L625 1250 L500 1250 L500 1125 L375 1125 L375 1000 Z M375 500 L250 500 L250 625 L125 625 L125 752 L250 752 L250 625 L375 625 L375 500 Z M625 752 L750 752 L750 625 L625 625 L625 500 L500 500 L500 625 L625 625 L625 752 Z M375 0 L375 500 L500 500 L500 0 L375 0 Z M0 875 L125 875 L125 752 L0 752 L0 875 Z M750 875 L875 875 L875 752 L750 752 L750 875 Z " />
<glyph glyph-name="Eth" unicode="&#xd0;" horiz-adv-x="750" d="M625 500 L375 500 L375 375 L625 375 L625 250 L250 250 L250 125 L125 125 L125 250 L0 250 L0 375 L250 375 L250 500 L0 500 L0 625 L375 625 L375 750 L500 750 L500 625 L625 625 L625 500 Z " />
<glyph glyph-name="Ntilde" unicode="&#xd1;" horiz-adv-x="875" d="M500 1250 L625 1250 L625 1125 L500 1125 L500 1000 L375 1000 L375 1125 L250 1125 L250 1000 L125 1000 L125 1125 L250 1125 L250 1250 L375 1250 L375 1125 L500 1125 L500 1250 Z M375 500 L250 500 L250 625 L125 625 L125 0 L0 0 L0 875 L125 875 L125 750 L250 750 L250 625 L375 625 L375 500 L500 500 L500 375 L625 375 L625 875 L750 875 L750 0 L625 0 L625 250 L500 250 L500 375 L375 375 L375 500 Z " />
<glyph glyph-name="Ograve" unicode="&#xd2;" horiz-adv-x="750" d="M0 750 L125 750 L125 625 L250 625 L250 500 L375 500 L375 625 L500 625 L500 750 L625 750 L625 625 L500 625 L500 500 L375 500 L375 375 L500 375 L500 250 L625 250 L625 125 L500 125 L500 250 L375 250 L375 375 L250 375 L250 250 L125 250 L125 125 L0 125 L0 250 L125 250 L125 375 L250 375 L250 500 L125 500 L125 625 L0 625 L0 750 Z " />
<glyph glyph-name="Oacute" unicode="&#xd3;" horiz-adv-x="625" d="M375 376 L375 250 L125 250 L125 2 L0 2 L0 875 L125 875 L125 625 L374 625 L374 501 L500 501 L500 376 L375 376 Z M370 501 L125 501 L125 376 L370 376 L370 501 Z " />
<glyph glyph-name="Ocircumflex" unicode="&#xd4;" horiz-adv-x="625" d="M376 251 L376 125 L125 125 L125 -123 L0 -123 L0 750 L125 750 L125 500 L376 500 L376 376 L500 376 L500 251 L376 251 Z M370 376 L125 376 L125 251 L370 251 L370 376 Z " />
<glyph glyph-name="Otilde" unicode="&#xd5;" horiz-adv-x="375" d="M125 500 L125 625 L250 625 L250 500 L125 500 L125 375 L250 375 L250 250 L125 250 L125 375 L0 375 L0 500 L125 500 Z " />
<glyph glyph-name="Odieresis" unicode="&#xd6;" horiz-adv-x="875" d="M125 1125 L250 1125 L250 1000 L125 1000 L125 1125 Z M500 1125 L625 1125 L625 1000 L500 1000 L500 1125 Z M125 745 L125 130 L625 130 L625 745 L125 745 Z M625 875 L625 750 L750 750 L750 125 L625 125 L625 0 L125 0 L125 125 L0 125 L0 750 L125 750 L125 875 L625 875 Z " />
<glyph glyph-name="multiply" unicode="&#xd7;" horiz-adv-x="750" d="M625 625 L625 500 L500 500 L500 0 L375 0 L375 500 L250 500 L250 0 L125 0 L125 500 L0 500 L0 625 L625 625 Z " />
<glyph glyph-name="Oslash" unicode="&#xd8;" horiz-adv-x="750" d="M0 125 L250 125 L250 375 L0 375 L0 500 L250 500 L250 750 L375 750 L375 500 L625 500 L625 375 L375 375 L375 125 L625 125 L625 0 L0 0 L0 125 Z " />
<glyph glyph-name="Ugrave" unicode="&#xd9;" horiz-adv-x="500" d="M375 375 L250 375 L250 250 L0 250 L0 375 L250 375 L250 500 L0 500 L0 625 L250 625 L250 750 L0 750 L0 875 L250 875 L250 750 L375 750 L375 625 L250 625 L250 500 L375 500 L375 375 Z " />
<glyph glyph-name="Uacute" unicode="&#xda;" horiz-adv-x="375" d="M250 250 L125 250 L125 625 L0 625 L0 750 L125 750 L125 875 L250 875 L250 250 Z " />
<glyph glyph-name="Ucircumflex" unicode="&#xdb;" horiz-adv-x="625" d="M125 500 L250 500 L250 625 L375 625 L375 750 L125 750 L125 875 L375 875 L375 750 L500 750 L500 625 L375 625 L375 500 L250 500 L250 375 L500 375 L500 250 L0 250 L0 375 L125 375 L125 500 Z M0 750 L125 750 L125 625 L0 625 L0 750 Z " />
<glyph glyph-name="Udieresis" unicode="&#xdc;" horiz-adv-x="875" d="M125 1125 L250 1125 L250 1000 L125 1000 L125 1125 Z M500 1125 L625 1125 L625 1000 L500 1000 L500 1125 Z M625 875 L750 875 L750 125 L625 125 L625 0 L125 0 L125 125 L0 125 L0 875 L125 875 L125 125 L625 125 L625 875 Z " />
<glyph glyph-name="Yacute" unicode="&#xdd;" horiz-adv-x="500" d="M250 875 L375 875 L375 750 L250 750 L250 625 L125 625 L125 500 L250 500 L250 375 L375 375 L375 250 L250 250 L250 375 L125 375 L125 500 L0 500 L0 625 L125 625 L125 750 L250 750 L250 875 Z M0 125 L375 125 L375 0 L0 0 L0 125 Z " />
<glyph glyph-name="Thorn" unicode="&#xde;" horiz-adv-x="750" d="M500 125 L500 0 L124 0 L124 125 L0 125 L0 374 L124 374 L124 500 L250 500 L250 624 L375 624 L375 749 L250 749 L250 873 L374 873 L374 749 L501 749 L501 500 L625 500 L625 125 L500 125 Z M495 125 L495 500 L255 500 L255 374 L130 374 L130 125 L495 125 Z " />
<glyph glyph-name="germandbls" unicode="&#xdf;" horiz-adv-x="750" d="M250 0 L250 125 L500 125 L500 375 L375 375 L375 500 L500 500 L500 750 L250 750 L250 625 L125 625 L125 -125 L0 -125 L0 625 L125 625 L125 750 L250 750 L250 875 L500 875 L500 750 L625 750 L625 500 L500 500 L500 375 L625 375 L625 125 L500 125 L500 0 L250 0 Z " />
<glyph glyph-name="agrave" unicode="&#xe0;" horiz-adv-x="750" d="M375 750 L250 750 L250 875 L125 875 L125 1000 L250 1000 L250 875 L375 875 L375 750 Z M130 125 L500 125 L500 500 L130 500 L130 125 Z M125 500 L125 625 L625 625 L625 0 L125 0 L125 125 L0 125 L0 500 L125 500 Z " />
<glyph glyph-name="aacute" unicode="&#xe1;" horiz-adv-x="750" d="M250 750 L375 750 L375 875 L500 875 L500 1000 L375 1000 L375 875 L250 875 L250 750 Z M130 125 L500 125 L500 500 L130 500 L130 125 Z M125 500 L125 625 L625 625 L625 0 L125 0 L125 125 L0 125 L0 500 L125 500 Z " />
<glyph glyph-name="acircumflex" unicode="&#xe2;" horiz-adv-x="750" d="M130 125 L500 125 L500 500 L130 500 L130 125 Z M125 500 L125 625 L625 625 L625 0 L125 0 L125 125 L0 125 L0 500 L125 500 Z M375 875 L250 875 L250 750 L125 750 L125 875 L250 875 L250 1000 L375 1000 L375 875 L500 875 L500 750 L375 750 L375 875 Z " />
<glyph glyph-name="atilde" unicode="&#xe3;" horiz-adv-x="750" d="M500 1000 L625 1000 L625 875 L500 875 L500 750 L375 750 L375 875 L250 875 L250 750 L125 750 L125 875 L250 875 L250 1000 L375 1000 L375 875 L500 875 L500 1000 Z M130 125 L500 125 L500 500 L130 500 L130 125 Z M125 500 L125 625 L625 625 L625 0 L125 0 L125 125 L0 125 L0 500 L125 500 Z " />
<glyph glyph-name="adieresis" unicode="&#xe4;" horiz-adv-x="750" d="M125 875 L250 875 L250 750 L125 750 L125 875 Z M375 875 L500 875 L500 750 L375 750 L375 875 Z M130 125 L500 125 L500 500 L130 500 L130 125 Z M125 500 L125 625 L625 625 L625 0 L125 0 L125 125 L0 125 L0 500 L125 500 Z " />
<glyph glyph-name="aring" unicode="&#xe5;" horiz-adv-x="750" d="M130 125 L500 125 L500 500 L130 500 L130 125 Z M255 750 L495 750 L495 875 L255 875 L255 750 Z M250 875 L250 1000 L500 1000 L500 875 L625 875 L625 750 L500 750 L500 625 L625 625 L625 0 L125 0 L125 125 L0 125 L0 500 L125 500 L125 625 L250 625 L250 750 L125 750 L125 875 L250 875 Z " />
<glyph glyph-name="ae" unicode="&#xe6;" horiz-adv-x="875" d="M500 1000 L375 1000 L375 1125 L250 1125 L250 1250 L375 1250 L375 1125 L500 1125 L500 1000 Z M125 745 L125 500 L625 500 L625 745 L125 745 Z M625 875 L625 750 L750 750 L750 0 L625 0 L625 375 L125 375 L125 0 L0 0 L0 750 L125 750 L125 875 L625 875 Z " />
<glyph glyph-name="ccedilla" unicode="&#xe7;" horiz-adv-x="750" d="M125 -125 L250 -125 L250 0 L125 0 L125 125 L0 125 L0 500 L125 500 L125 625 L500 625 L500 500 L625 500 L625 375 L500 375 L500 500 L125 500 L125 125 L500 125 L500 250 L625 250 L625 125 L500 125 L500 0 L375 0 L375 -125 L250 -125 L250 -250 L125 -250 L125 -125 Z " />
<glyph glyph-name="egrave" unicode="&#xe8;" horiz-adv-x="750" d="M375 750 L250 750 L250 875 L125 875 L125 1000 L250 1000 L250 875 L375 875 L375 750 Z M125 500 L125 625 L500 625 L500 500 L625 500 L625 250 L125 250 L125 125 L500 125 L500 0 L125 0 L125 125 L0 125 L0 500 L125 500 Z M500 495 L125 495 L125 375 L500 375 L500 495 Z " />
<glyph glyph-name="eacute" unicode="&#xe9;" horiz-adv-x="750" d="M250 750 L375 750 L375 875 L500 875 L500 1000 L375 1000 L375 875 L250 875 L250 750 Z M125 500 L125 625 L500 625 L500 500 L625 500 L625 250 L125 250 L125 125 L500 125 L500 0 L125 0 L125 125 L0 125 L0 500 L125 500 Z M500 495 L125 495 L125 375 L500 375 L500 495 Z " />
<glyph glyph-name="ecircumflex" unicode="&#xea;" horiz-adv-x="750" d="M125 500 L125 625 L500 625 L500 500 L625 500 L625 250 L125 250 L125 125 L500 125 L500 0 L125 0 L125 125 L0 125 L0 500 L125 500 Z M500 495 L125 495 L125 375 L500 375 L500 495 Z M375 875 L250 875 L250 750 L125 750 L125 875 L250 875 L250 1000 L375 1000 L375 875 L500 875 L500 750 L375 750 L375 875 Z " />
<glyph glyph-name="edieresis" unicode="&#xeb;" horiz-adv-x="750" d="M0 875 L125 875 L125 750 L0 750 L0 875 Z M375 875 L500 875 L500 750 L375 750 L375 875 Z M125 500 L125 625 L500 625 L500 500 L625 500 L625 250 L125 250 L125 125 L500 125 L500 0 L125 0 L125 125 L0 125 L0 500 L125 500 Z M500 495 L125 495 L125 375 L500 375 L500 495 Z " />
<glyph glyph-name="igrave" unicode="&#xec;" horiz-adv-x="250" d="M0 0 L0 625 L125 625 L125 0 L0 0 Z M125 750 L0 750 L0 875 L-125 875 L-125 1000 L0 1000 L0 875 L125 875 L125 750 Z " />
<glyph glyph-name="iacute" unicode="&#xed;" horiz-adv-x="250" d="M0 0 L0 625 L125 625 L125 0 L0 0 Z M0 750 L125 750 L125 875 L250 875 L250 1000 L125 1000 L125 875 L0 875 L0 750 Z " />
<glyph glyph-name="icircumflex" unicode="&#xee;" horiz-adv-x="250" d="M0 0 L0 625 L125 625 L125 0 L0 0 Z M250 750 L125 750 L125 875 L0 875 L0 750 L-125 750 L-125 875 L0 875 L0 1000 L125 1000 L125 875 L250 875 L250 750 Z " />
<glyph glyph-name="idieresis" unicode="&#xef;" horiz-adv-x="250" d="M0 0 L0 625 L125 625 L125 0 L0 0 Z M-125 875 L0 875 L0 750 L-125 750 L-125 875 Z M125 875 L250 875 L250 750 L125 750 L125 875 Z " />
<glyph glyph-name="eth" unicode="&#xf0;" horiz-adv-x="750" d="M130 250 L245 250 L245 375 L130 375 L130 250 Z M496 250 L496 375 L378 375 L378 250 L496 250 Z M500 375 L625 375 L625 250 L500 250 L500 125 L375 125 L375 250 L250 250 L250 125 L125 125 L125 250 L0 250 L0 375 L125 375 L125 500 L250 500 L250 375 L375 375 L375 500 L500 500 L500 375 Z " />
<glyph glyph-name="ntilde" unicode="&#xf1;" horiz-adv-x="750" d="M375 1000 L500 1000 L500 875 L375 875 L375 750 L250 750 L250 875 L125 875 L125 750 L0 750 L0 875 L125 875 L125 1000 L250 1000 L250 875 L375 875 L375 1000 Z M0 625 L500 625 L500 500 L625 500 L625 0 L500 0 L500 500 L125 500 L125 0 L0 0 L0 625 Z " />
<glyph glyph-name="ograve" unicode="&#xf2;" horiz-adv-x="750" d="M375 750 L250 750 L250 875 L125 875 L125 1000 L250 1000 L250 875 L375 875 L375 750 Z M125 495 L125 130 L500 130 L500 495 L125 495 Z M500 625 L500 500 L625 500 L625 125 L500 125 L500 0 L125 0 L125 125 L0 125 L0 500 L125 500 L125 625 L500 625 Z " />
<glyph glyph-name="oacute" unicode="&#xf3;" horiz-adv-x="750" d="M250 750 L375 750 L375 875 L500 875 L500 1000 L375 1000 L375 875 L250 875 L250 750 Z M125 495 L125 130 L500 130 L500 495 L125 495 Z M500 625 L500 500 L625 500 L625 125 L500 125 L500 0 L125 0 L125 125 L0 125 L0 500 L125 500 L125 625 L500 625 Z " />
<glyph glyph-name="ocircumflex" unicode="&#xf4;" horiz-adv-x="750" d="M125 495 L125 130 L500 130 L500 495 L125 495 Z M500 625 L500 500 L625 500 L625 125 L500 125 L500 0 L125 0 L125 125 L0 125 L0 500 L125 500 L125 625 L500 625 Z M375 875 L250 875 L250 750 L125 750 L125 875 L250 875 L250 1000 L375 1000 L375 875 L500 875 L500 750 L375 750 L375 875 Z " />
<glyph glyph-name="otilde" unicode="&#xf5;" horiz-adv-x="750" d="M500 1000 L625 1000 L625 875 L500 875 L500 750 L375 750 L375 875 L250 875 L250 750 L125 750 L125 875 L250 875 L250 1000 L375 1000 L375 875 L500 875 L500 1000 Z M125 495 L125 130 L500 130 L500 495 L125 495 Z M500 625 L500 500 L625 500 L625 125 L500 125 L500 0 L125 0 L125 125 L0 125 L0 500 L125 500 L125 625 L500 625 Z " />
<glyph glyph-name="odieresis" unicode="&#xf6;" horiz-adv-x="750" d="M125 875 L250 875 L250 750 L125 750 L125 875 Z M375 875 L500 875 L500 750 L375 750 L375 875 Z M125 495 L125 130 L500 130 L500 495 L125 495 Z M500 625 L500 500 L625 500 L625 125 L500 125 L500 0 L125 0 L125 125 L0 125 L0 500 L125 500 L125 625 L500 625 Z " />
<glyph glyph-name="divide" unicode="&#xf7;" horiz-adv-x="875" d="M250 1000 L375 1000 L375 1125 L500 1125 L500 1250 L375 1250 L375 1125 L250 1125 L250 1000 Z M125 745 L125 500 L625 500 L625 745 L125 745 Z M625 875 L625 750 L750 750 L750 0 L625 0 L625 375 L125 375 L125 0 L0 0 L0 750 L125 750 L125 875 L625 875 Z " />
<glyph glyph-name="oslash" unicode="&#xf8;" horiz-adv-x="875" d="M500 1250 L625 1250 L625 1125 L500 1125 L500 1000 L375 1000 L375 1125 L250 1125 L250 1000 L125 1000 L125 1125 L250 1125 L250 1250 L375 1250 L375 1125 L500 1125 L500 1250 Z M125 745 L125 500 L625 500 L625 745 L125 745 Z M625 875 L625 750 L750 750 L750 0 L625 0 L625 375 L125 375 L125 0 L0 0 L0 750 L125 750 L125 875 L625 875 Z " />
<glyph glyph-name="ugrave" unicode="&#xf9;" horiz-adv-x="750" d="M375 750 L250 750 L250 875 L125 875 L125 1000 L250 1000 L250 875 L375 875 L375 750 Z M500 625 L625 625 L625 0 L125 0 L125 125 L0 125 L0 625 L125 625 L125 125 L500 125 L500 625 Z " />
<glyph glyph-name="uacute" unicode="&#xfa;" horiz-adv-x="750" d="M250 750 L375 750 L375 875 L500 875 L500 1000 L375 1000 L375 875 L250 875 L250 750 Z M500 625 L625 625 L625 0 L125 0 L125 125 L0 125 L0 625 L125 625 L125 125 L500 125 L500 625 Z " />
<glyph glyph-name="ucircumflex" unicode="&#xfb;" horiz-adv-x="750" d="M500 625 L625 625 L625 0 L125 0 L125 125 L0 125 L0 625 L125 625 L125 125 L500 125 L500 625 Z M375 875 L250 875 L250 750 L125 750 L125 875 L250 875 L250 1000 L375 1000 L375 875 L500 875 L500 750 L375 750 L375 875 Z " />
<glyph glyph-name="udieresis" unicode="&#xfc;" horiz-adv-x="750" d="M125 875 L250 875 L250 750 L125 750 L125 875 Z M375 875 L500 875 L500 750 L375 750 L375 875 Z M500 625 L625 625 L625 0 L125 0 L125 125 L0 125 L0 625 L125 625 L125 125 L500 125 L500 625 Z " />
<glyph glyph-name="yacute" unicode="&#xfd;" horiz-adv-x="500" d="M125 875 L125 750 L250 750 L250 625 L375 625 L375 500 L250 500 L250 375 L125 375 L125 250 L0 250 L0 375 L125 375 L125 500 L250 500 L250 625 L125 625 L125 750 L0 750 L0 875 L125 875 Z M375 125 L375 0 L0 0 L0 125 L375 125 Z " />
<glyph glyph-name="thorn" unicode="&#xfe;" horiz-adv-x="750" d="M625 625 L500 625 L500 750 L250 750 L250 625 L375 625 L375 500 L500 500 L500 375 L375 375 L375 250 L250 250 L250 125 L500 125 L500 250 L625 250 L625 0 L0 0 L0 125 L125 125 L125 250 L250 250 L250 375 L375 375 L375 500 L250 500 L250 625 L125 625 L125 750 L0 750 L0 875 L625 875 L625 625 Z " />
<glyph glyph-name="ydieresis" unicode="&#xff;" horiz-adv-x="875" d="M500 1000 L375 1000 L375 1125 L250 1125 L250 1250 L375 1250 L375 1125 L500 1125 L500 1000 Z M750 750 L125 750 L125 500 L625 500 L625 375 L125 375 L125 125 L750 125 L750 0 L0 0 L0 875 L750 875 L750 750 Z " />
<glyph glyph-name="Cacute" unicode="&#x106;" horiz-adv-x="375" d="M125 501 L250 501 L250 376 L125 376 L125 501 Z " />
<glyph glyph-name="cacute" unicode="&#x107;" horiz-adv-x="500" d="M130 250 L245 250 L245 375 L130 375 L130 250 Z M125 375 L125 500 L250 500 L250 375 L375 375 L375 250 L250 250 L250 125 L125 125 L125 250 L0 250 L0 375 L125 375 Z " />
<glyph glyph-name="Ccaron" unicode="&#x10c;" horiz-adv-x="625" d="M375 875 L500 875 L500 750 L375 750 L375 625 L250 625 L250 750 L125 750 L125 625 L0 625 L0 750 L125 750 L125 875 L250 875 L250 750 L375 750 L375 875 Z " />
<glyph glyph-name="ccaron" unicode="&#x10d;" horiz-adv-x="500" d="M0 250 L125 250 L125 0 L250 0 L250 125 L374 125 L374 0 L250 0 L250 -126 L125 -126 L125 0 L0 0 L0 250 Z " />
<glyph glyph-name="dslash" unicode="&#x111;" horiz-adv-x="625" d="M250 875 L250 750 L375 750 L375 875 L250 875 Z M500 875 L500 750 L375 750 L375 625 L250 625 L250 750 L125 750 L125 875 L500 875 Z " />
<glyph glyph-name="Gbreve" unicode="&#x11e;" horiz-adv-x="750" d="M375 875 L375 750 L249 750 L250 501 L624 501 L624 2 L497 2 L497 376 L249 376 L249 2 L125 2 L125 376 L0 376 L0 501 L125 501 L125 750 L249 750 L249 875 L375 875 Z M500 875 L625 875 L625 750 L500 750 L500 875 Z " />
<glyph glyph-name="gbreve" unicode="&#x11f;" horiz-adv-x="750" d="M625 875 L625 0 L499 0 L499 376 L249 376 L249 0 L125 0 L125 376 L0 376 L0 501 L125 501 L125 750 L250 750 L250 875 L625 875 Z M255 750 L255 501 L500 501 L500 750 L255 750 Z " />
<glyph glyph-name="Idot" unicode="&#x130;" horiz-adv-x="3000" d="M1750 375 L2375 375 L2375 0 L2250 0 L2250 250 L2125 250 L2125 0 L2000 0 L2000 250 L1875 250 L1875 0 L1750 0 L1750 375 Z M1500 375 L1625 375 L1625 0 L1500 0 L1500 375 Z M1000 375 L1375 375 L1375 0 L1250 0 L1250 250 L1125 250 L1125 0 L1000 0 L1000 375 Z M750 375 L875 375 L875 0 L750 0 L750 375 Z M0 375 L625 375 L625 0 L500 0 L500 250 L375 250 L375 0 L250 0 L250 250 L125 250 L125 0 L0 0 L0 375 Z M2875 0 L2500 0 L2500 375 L2625 375 L2625 125 L2875 125 L2875 0 Z " />
<glyph glyph-name="dotlessi" unicode="&#x131;" horiz-adv-x="1250" d="M375 250 L375 0 L250 0 L250 250 L125 250 L125 625 L0 625 L0 750 L125 750 L125 875 L250 875 L250 250 L375 250 L375 500 L500 500 L500 750 L625 750 L625 1000 L750 1000 L750 750 L625 750 L625 500 L750 500 L750 375 L625 375 L625 500 L500 500 L500 250 L375 250 Z M750 250 L875 250 L875 375 L1000 375 L1000 500 L750 500 L750 625 L1000 625 L1000 500 L1125 500 L1125 375 L1000 375 L1000 250 L875 250 L875 125 L1125 125 L1125 0 L625 0 L625 125 L750 125 L750 250 Z " />
<glyph glyph-name="Lslash" unicode="&#x141;" horiz-adv-x="750" d="" />
<glyph glyph-name="lslash" unicode="&#x142;" horiz-adv-x="750" d="" />
<glyph glyph-name="OE" unicode="&#x152;" horiz-adv-x="375" d="M125 500 L250 500 L250 375 L125 375 L125 250 L0 250 L0 375 L125 375 L125 500 L0 500 L0 625 L125 625 L125 500 Z " />
<glyph glyph-name="oe" unicode="&#x153;" horiz-adv-x="500" d="M374 501 L250 501 L250 376 L374 376 L374 251 L250 251 L250 2 L121 2 L121 251 L0 251 L0 376 L121 376 L121 501 L0 501 L0 625 L121 625 L121 875 L250 875 L250 625 L374 625 L374 501 Z " />
<glyph glyph-name="Scedilla" unicode="&#x15e;" horiz-adv-x="250" d="M0 0 L0 375 L125 375 L125 0 L0 0 Z " />
<glyph glyph-name="scedilla" unicode="&#x15f;" horiz-adv-x="750" d="M250 875 L250 750 L500 750 L500 875 L250 875 Z M625 875 L625 750 L500 750 L500 625 L250 625 L250 750 L125 750 L125 875 L625 875 Z " />
<glyph glyph-name="Scaron" unicode="&#x160;" horiz-adv-x="625" d="" />
<glyph glyph-name="scaron" unicode="&#x161;" horiz-adv-x="625" d="" />
<glyph glyph-name="Ydieresis" unicode="&#x178;" horiz-adv-x="250" d="M0 0 L0 875 L125 875 L125 0 L0 0 Z M0 1000 L125 1000 L125 1125 L250 1125 L250 1250 L125 1250 L125 1125 L0 1125 L0 1000 Z " />
<glyph glyph-name="Zcaron" unicode="&#x17d;" horiz-adv-x="375" d="" />
<glyph glyph-name="zcaron" unicode="&#x17e;" horiz-adv-x="375" d="" />
<glyph glyph-name="florin" unicode="&#x192;" horiz-adv-x="625" d="M0 500 L500 500 L500 375 L0 375 L0 500 Z " />
<glyph glyph-name="circumflex" unicode="&#x2c6;" horiz-adv-x="1250" d="M750 370 L750 250 L875 250 L875 370 L750 370 Z M1125 250 L1125 125 L1000 125 L1000 0 L875 0 L875 125 L625 125 L625 375 L750 375 L750 500 L875 500 L875 625 L1000 625 L1000 250 L1125 250 Z M375 250 L375 0 L250 0 L250 250 L375 250 L375 500 L500 500 L500 750 L625 750 L625 1000 L750 1000 L750 750 L625 750 L625 500 L500 500 L500 250 L375 250 Z M250 250 L250 875 L125 875 L125 750 L0 750 L0 625 L125 625 L125 250 L250 250 Z " />
<glyph glyph-name="caron" unicode="&#x2c7;" horiz-adv-x="750" d="M250 875 L375 875 L375 1000 L500 1000 L500 875 L375 875 L375 750 L250 750 L250 875 L125 875 L125 1000 L250 1000 L250 875 Z M500 500 L500 375 L375 375 L375 250 L250 250 L250 125 L625 125 L625 0 L0 0 L0 125 L125 125 L125 250 L250 250 L250 375 L375 375 L375 500 L0 500 L0 625 L625 625 L625 500 L500 500 Z " />
<glyph glyph-name="&amp;#xaf;" unicode="&#xaf;" horiz-adv-x="375" d="" />
<glyph glyph-name="&amp;#x2c9;" unicode="&#x2c9;" horiz-adv-x="375" d="" />
<glyph glyph-name="breve" unicode="&#x2d8;" horiz-adv-x="875" d="M250 125 L750 125 L750 0 L125 0 L125 375 L0 375 L0 500 L125 500 L125 875 L250 875 L250 625 L375 625 L375 501 L250 501 L250 125 Z " />
<glyph glyph-name="dotaccent" unicode="&#x2d9;" horiz-adv-x="500" d="M250 625 L374 625 L374 501 L250 501 L250 2 L125 2 L125 376 L0 376 L0 501 L125 501 L125 875 L250 875 L250 625 Z " />
<glyph glyph-name="ring" unicode="&#x2da;" horiz-adv-x="375" d="" />
<glyph glyph-name="ogonek" unicode="&#x2db;" horiz-adv-x="1000" d="M375 1125 L500 1125 L500 1250 L625 1250 L625 1125 L500 1125 L500 1000 L375 1000 L375 1125 L250 1125 L250 1250 L375 1250 L375 1125 Z M875 875 L875 750 L750 750 L750 625 L625 625 L625 500 L500 500 L500 375 L375 375 L375 250 L250 250 L250 125 L875 125 L875 0 L0 0 L0 125 L125 125 L125 250 L250 250 L250 375 L375 375 L375 500 L500 500 L500 625 L625 625 L625 750 L0 750 L0 875 L875 875 Z " />
<glyph glyph-name="tilde" unicode="&#x2dc;" horiz-adv-x="1375" d="M375 375 L250 375 L250 250 L0 250 L0 375 L250 375 L250 500 L0 500 L0 625 L250 625 L250 750 L0 750 L0 875 L250 875 L250 750 L375 750 L375 625 L250 625 L250 500 L375 500 L375 375 Z M500 250 L500 0 L375 0 L375 250 L500 250 L500 500 L625 500 L625 750 L750 750 L750 1000 L875 1000 L875 750 L750 750 L750 500 L625 500 L625 250 L500 250 Z M875 370 L875 250 L1000 250 L1000 370 L875 370 Z M1250 250 L1250 125 L1125 125 L1125 0 L1000 0 L1000 125 L750 125 L750 375 L875 375 L875 500 L1000 500 L1000 625 L1125 625 L1125 250 L1250 250 Z " />
<glyph glyph-name="hungarumlaut" unicode="&#x2dd;" horiz-adv-x="375" d="" />
<glyph glyph-name="&amp;#x394;" unicode="&#x394;" horiz-adv-x="625" d="M250 500 L250 625 L125 625 L125 500 L0 500 L0 625 L125 625 L125 875 L250 875 L250 625 L375 625 L375 875 L500 875 L500 625 L375 625 L375 500 L250 500 Z " />
<glyph glyph-name="&amp;#x2206;" unicode="&#x2206;" horiz-adv-x="625" d="M250 500 L250 625 L125 625 L125 500 L0 500 L0 625 L125 625 L125 875 L250 875 L250 625 L375 625 L375 875 L500 875 L500 625 L375 625 L375 500 L250 500 Z " />
<glyph glyph-name="&amp;#x3a9;" unicode="&#x3a9;" horiz-adv-x="375" d="" />
<glyph glyph-name="&amp;#x2126;" unicode="&#x2126;" horiz-adv-x="375" d="" />
<glyph glyph-name="&amp;#xb5;" unicode="&#xb5;" horiz-adv-x="625" d="M370 125 L370 250 L130 250 L130 125 L370 125 Z M130 500 L130 375 L370 375 L370 500 L130 500 Z M375 625 L375 500 L500 500 L500 125 L375 125 L375 0 L125 0 L125 125 L0 125 L0 500 L125 500 L125 625 L375 625 Z " />
<glyph glyph-name="&amp;#x3bc;" unicode="&#x3bc;" horiz-adv-x="625" d="M370 125 L370 250 L130 250 L130 125 L370 125 Z M130 500 L130 375 L370 375 L370 500 L130 500 Z M375 625 L375 500 L500 500 L500 125 L375 125 L375 0 L125 0 L125 125 L0 125 L0 500 L125 500 L125 625 L375 625 Z " />
<glyph glyph-name="pi" unicode="&#x3c0;" horiz-adv-x="750" d="M375 1000 L500 1000 L500 875 L375 875 L375 625 L500 625 L500 500 L375 500 L375 0 L250 0 L250 -125 L125 -125 L125 0 L250 0 L250 500 L125 500 L125 625 L250 625 L250 875 L375 875 L375 1000 Z " />
<glyph glyph-name="endash" unicode="&#x2013;" horiz-adv-x="500" d="M125 501 L250 501 L250 376 L125 376 L125 501 Z " />
<glyph glyph-name="emdash" unicode="&#x2014;" horiz-adv-x="375" d="M-125 -250 L-125 -125 L0 -125 L0 125 L125 125 L125 -125 L0 -125 L0 -250 L-125 -250 Z " />
<glyph glyph-name="quoteleft" unicode="&#x2018;" horiz-adv-x="875" d="M125 745 L125 500 L625 500 L625 745 L125 745 Z M625 875 L625 750 L750 750 L750 0 L625 0 L625 375 L125 375 L125 0 L0 0 L0 750 L125 750 L125 875 L625 875 Z M500 1125 L250 1125 L250 1000 L125 1000 L125 1125 L250 1125 L250 1250 L500 1250 L500 1125 L625 1125 L625 1000 L500 1000 L500 1125 Z " />
<glyph glyph-name="quoteright" unicode="&#x2019;" horiz-adv-x="875" d="M500 1125 L250 1125 L250 1000 L125 1000 L125 1125 L250 1125 L250 1250 L500 1250 L500 1125 L625 1125 L625 1000 L500 1000 L500 1125 Z M750 750 L125 750 L125 500 L625 500 L625 375 L125 375 L125 125 L750 125 L750 0 L0 0 L0 875 L750 875 L750 750 Z " />
<glyph glyph-name="quotesinglbase" unicode="&#x201a;" horiz-adv-x="875" d="M500 1000 L375 1000 L375 1125 L250 1125 L250 1250 L375 1250 L375 1125 L500 1125 L500 1000 Z M625 875 L750 875 L750 125 L625 125 L625 0 L125 0 L125 125 L0 125 L0 875 L125 875 L125 125 L625 125 L625 875 Z " />
<glyph glyph-name="quotedblleft" unicode="&#x201c;" horiz-adv-x="500" d="M125 -250 L125 -125 L0 -125 L0 -250 L-125 -250 L-125 -125 L0 -125 L0 125 L125 125 L125 -125 L250 -125 L250 125 L375 125 L375 -125 L250 -125 L250 -250 L125 -250 Z " />
<glyph glyph-name="quotedblright" unicode="&#x201d;" horiz-adv-x="1250" d="M130 625 L245 625 L245 750 L130 750 L130 625 Z M125 750 L125 875 L250 875 L250 750 L375 750 L375 625 L250 625 L250 500 L125 500 L125 625 L0 625 L0 750 L125 750 Z M0 0 L0 125 L125 125 L125 250 L250 250 L250 375 L375 375 L375 500 L500 500 L500 625 L625 625 L625 750 L750 750 L750 875 L875 875 L875 750 L750 750 L750 625 L625 625 L625 500 L500 500 L500 375 L375 375 L375 250 L250 250 L250 125 L125 125 L125 0 L0 0 Z M630 125 L745 125 L745 250 L630 250 L630 125 Z M996 125 L996 250 L878 250 L878 125 L996 125 Z M1000 250 L1125 250 L1125 125 L1000 125 L1000 0 L875 0 L875 125 L750 125 L750 0 L625 0 L625 125 L500 125 L500 250 L625 250 L625 375 L750 375 L750 250 L875 250 L875 375 L1000 375 L1000 250 Z " />
<glyph glyph-name="quotedblbase" unicode="&#x201e;" horiz-adv-x="625" d="M375 625 L375 750 L250 750 L250 625 L375 625 Z M125 625 L125 750 L250 750 L250 875 L375 875 L375 750 L500 750 L500 625 L125 625 Z " />
<glyph glyph-name="dagger" unicode="&#x2020;" horiz-adv-x="500" d="M375 625 L375 500 L250 500 L250 125 L125 125 L125 500 L0 500 L0 625 L125 625 L125 750 L250 750 L250 625 L375 625 Z " />
<glyph glyph-name="daggerdbl" unicode="&#x2021;" horiz-adv-x="875" d="M250 1000 L375 1000 L375 1125 L500 1125 L500 1250 L375 1250 L375 1125 L250 1125 L250 1000 Z M625 875 L750 875 L750 125 L625 125 L625 0 L125 0 L125 125 L0 125 L0 875 L125 875 L125 125 L625 125 L625 875 Z " />
<glyph glyph-name="bullet" unicode="&#x2022;" horiz-adv-x="500" d="M375 500 L375 375 L250 375 L250 250 L125 250 L125 375 L0 375 L0 500 L125 500 L125 625 L250 625 L250 500 L375 500 Z " />
<glyph glyph-name="ellipsis" unicode="&#x2026;" horiz-adv-x="750" d="M0 501 L624 501 L624 376 L0 376 L0 501 Z M250 126 L250 251 L374 251 L374 126 L250 126 Z M374 750 L374 625 L250 625 L250 750 L374 750 Z " />
<glyph glyph-name="perthousand" unicode="&#x2030;" horiz-adv-x="625" d="M375 875 L500 875 L500 750 L375 750 L375 625 L250 625 L250 750 L125 750 L125 625 L0 625 L0 750 L125 750 L125 875 L250 875 L250 750 L375 750 L375 875 Z " />
<glyph glyph-name="guilsinglleft" unicode="&#x2039;" horiz-adv-x="250" d="M0 0 L0 875 L125 875 L125 0 L0 0 Z M125 1000 L0 1000 L0 1125 L-125 1125 L-125 1250 L0 1250 L0 1125 L125 1125 L125 1000 Z " />
<glyph glyph-name="guilsinglright" unicode="&#x203a;" horiz-adv-x="875" d="M375 1000 L500 1000 L500 1125 L625 1125 L625 1250 L500 1250 L500 1125 L375 1125 L375 1000 Z M125 745 L125 130 L625 130 L625 745 L125 745 Z M625 875 L625 750 L750 750 L750 125 L625 125 L625 0 L125 0 L125 125 L0 125 L0 750 L125 750 L125 875 L625 875 Z " />
<glyph glyph-name="fraction" unicode="&#x2044;" horiz-adv-x="250" d="M0 0 L0 875 L125 875 L125 0 L0 0 Z M250 1000 L125 1000 L125 1125 L0 1125 L0 1000 L-125 1000 L-125 1125 L0 1125 L0 1250 L125 1250 L125 1125 L250 1125 L250 1000 Z " />
<glyph glyph-name="franc" unicode="&#x20a3;" horiz-adv-x="625" d="M125 250 L125 0 L0 0 L0 250 L125 250 L125 500 L250 500 L250 750 L375 750 L375 1000 L500 1000 L500 750 L375 750 L375 500 L250 500 L250 250 L125 250 Z " />
<glyph glyph-name="trademark" unicode="&#x2122;" horiz-adv-x="1125" d="M750 875 L875 875 L875 750 L1000 750 L1000 500 L875 500 L875 750 L750 750 L750 500 L625 500 L625 750 L500 750 L500 500 L375 500 L375 750 L250 750 L250 500 L125 500 L125 750 L0 750 L0 875 L375 875 L375 750 L500 750 L500 875 L625 875 L625 750 L750 750 L750 875 Z " />
<glyph glyph-name="partialdiff" unicode="&#x2202;" horiz-adv-x="750" d="M375 875 L375 750 L250 750 L250 875 L375 875 Z M250 500 L250 375 L125 375 L125 125 L500 125 L500 250 L625 250 L625 125 L500 125 L500 0 L125 0 L125 125 L0 125 L0 375 L125 375 L125 500 L250 500 L250 625 L375 625 L375 500 L250 500 Z " />
<glyph glyph-name="product" unicode="&#x220f;" horiz-adv-x="750" d="M0 500 L625 500 L625 125 L500 125 L500 375 L0 375 L0 500 Z " />
<glyph glyph-name="summation" unicode="&#x2211;" horiz-adv-x="500" d="M125 875 L250 875 L250 750 L125 750 L125 875 Z M125 0 L125 625 L250 625 L250 0 L125 0 Z " />
<glyph glyph-name="&amp;#xad;" unicode="&#xad;" horiz-adv-x="750" d="M625 875 L625 750 L500 750 L500 0 L375 0 L375 750 L250 750 L250 0 L125 0 L125 750 L0 750 L0 875 L625 875 Z " />
<glyph glyph-name="&amp;#x2212;" unicode="&#x2212;" horiz-adv-x="750" d="M625 875 L625 750 L500 750 L500 0 L375 0 L375 750 L250 750 L250 0 L125 0 L125 750 L0 750 L0 875 L625 875 Z " />
<glyph glyph-name="&amp;#xb7;" unicode="&#xb7;" horiz-adv-x="875" d="M625 875 L750 875 L750 125 L625 125 L625 0 L125 0 L125 125 L0 125 L0 875 L125 875 L125 125 L625 125 L625 875 Z M500 1125 L250 1125 L250 1000 L125 1000 L125 1125 L250 1125 L250 1250 L500 1250 L500 1125 L625 1125 L625 1000 L500 1000 L500 1125 Z " />
<glyph glyph-name="&amp;#x2219;" unicode="&#x2219;" horiz-adv-x="875" d="M625 875 L750 875 L750 125 L625 125 L625 0 L125 0 L125 125 L0 125 L0 875 L125 875 L125 125 L625 125 L625 875 Z M500 1125 L250 1125 L250 1000 L125 1000 L125 1125 L250 1125 L250 1250 L500 1250 L500 1125 L625 1125 L625 1000 L500 1000 L500 1125 Z " />
<glyph glyph-name="radical" unicode="&#x221a;" horiz-adv-x="500" d="M0 500 L375 500 L375 375 L0 375 L0 500 Z " />
<glyph glyph-name="infinity" unicode="&#x221e;" horiz-adv-x="750" d="M625 875 L625 625 L500 625 L500 500 L625 500 L625 375 L375 375 L375 250 L625 250 L625 125 L375 125 L375 0 L251 0 L251 125 L0 125 L0 250 L251 250 L251 375 L0 375 L0 500 L125 500 L125 625 L0 625 L0 875 L125 875 L125 625 L251 625 L251 500 L375 500 L375 625 L500 625 L500 875 L625 875 Z " />
<glyph glyph-name="integral" unicode="&#x222b;" horiz-adv-x="750" d="M125 500 L125 625 L250 625 L250 500 L125 500 L125 375 L250 375 L250 250 L125 250 L125 375 L0 375 L0 500 L125 500 Z M500 500 L500 625 L625 625 L625 500 L500 500 L500 375 L625 375 L625 250 L500 250 L500 375 L375 375 L375 500 L500 500 Z " />
<glyph glyph-name="&amp;#x2248;" unicode="&#x2248;" horiz-adv-x="625" d="M250 875 L250 750 L375 750 L375 875 L500 875 L500 750 L375 750 L375 500 L250 500 L250 750 L125 750 L125 500 L0 500 L0 750 L125 750 L125 875 L250 875 Z " />
<glyph glyph-name="&amp;#x22f2;" unicode="&#x22f2;" horiz-adv-x="625" d="M250 875 L250 750 L375 750 L375 875 L500 875 L500 750 L375 750 L375 500 L250 500 L250 750 L125 750 L125 500 L0 500 L0 750 L125 750 L125 875 L250 875 Z " />
<glyph glyph-name="notequal" unicode="&#x2260;" horiz-adv-x="1250" d="M130 750 L130 500 L500 500 L500 750 L130 750 Z M1125 750 L625 750 L625 500 L1000 500 L1000 375 L625 375 L625 125 L1125 125 L1125 0 L500 0 L500 375 L125 375 L125 0 L0 0 L0 750 L125 750 L125 875 L1125 875 L1125 750 Z " />
<glyph glyph-name="lessequal" unicode="&#x2264;" horiz-adv-x="750" d="M0 0 L0 125 L625 125 L625 0 L0 0 Z M130 375 L501 375 L501 750 L130 750 L130 375 Z M125 750 L125 875 L626 875 L626 250 L125 250 L125 375 L0 375 L0 750 L125 750 Z " />
<glyph glyph-name="greaterequal" unicode="&#x2265;" horiz-adv-x="750" d="M0 0 L0 125 L625 125 L625 0 L0 0 Z M125 745 L125 380 L501 380 L501 745 L125 745 Z M501 875 L501 750 L626 750 L626 375 L501 375 L501 250 L125 250 L125 375 L0 375 L0 750 L125 750 L125 875 L501 875 Z " />
<glyph glyph-name="lozenge" unicode="&#x25ca;" horiz-adv-x="875" d="M125 1125 L250 1125 L250 1000 L125 1000 L125 1125 Z M500 1125 L625 1125 L625 1000 L500 1000 L500 1125 Z M750 750 L125 750 L125 500 L625 500 L625 375 L125 375 L125 125 L750 125 L750 0 L0 0 L0 875 L750 875 L750 750 Z " />
<glyph glyph-name="fi" unicode="&#xf001;" horiz-adv-x="875" d="M125 745 L125 130 L625 130 L625 745 L125 745 Z M625 875 L625 750 L750 750 L750 125 L625 125 L625 0 L125 0 L125 125 L0 125 L0 750 L125 750 L125 875 L625 875 Z M500 1125 L250 1125 L250 1000 L125 1000 L125 1125 L250 1125 L250 1250 L500 1250 L500 1125 L625 1125 L625 1000 L500 1000 L500 1125 Z " />
<glyph glyph-name="fl" unicode="&#xf002;" horiz-adv-x="875" d="M500 1000 L375 1000 L375 1125 L250 1125 L250 1250 L375 1250 L375 1125 L500 1125 L500 1000 Z M125 745 L125 130 L625 130 L625 745 L125 745 Z M625 875 L625 750 L750 750 L750 125 L625 125 L625 0 L125 0 L125 125 L0 125 L0 750 L125 750 L125 875 L625 875 Z " />
<glyph glyph-name="apple" unicode="&#xf000;" horiz-adv-x="625" d="M0 500 L500 500 L500 375 L0 375 L0 500 Z " />
<glyph glyph-name="nbspace" unicode="&#xa0;" horiz-adv-x="750" d="M125 875 L250 875 L250 750 L125 750 L125 875 Z M375 875 L500 875 L500 750 L375 750 L375 875 Z M125 -250 L125 -125 L500 -125 L500 0 L125 0 L125 125 L0 125 L0 625 L125 625 L125 125 L500 125 L500 625 L625 625 L625 -125 L500 -125 L500 -250 L125 -250 Z " />
</font>
</svg>
