<?xml version="1.0" encoding="UTF-8"?>
<svg xmlns="http://www.w3.org/2000/svg" xmlns:xlink="http://www.w3.org/1999/xlink" version="1.2" >
<font id="GAMECUBEN DualSet">
<font-face  font-family="GAMECUBEN" units-per-em="1000" ascent="1050" descent="-85" font-style="normal" font-weight="400" font-stretch="normal" cap-height="750" x-height="500" underline-position="-133" underline-thickness="20" />
<missing-glyph  horiz-adv-x="500" d="M63 0 L63 800 L438 800 L438 0 L63 0 Z M125 63 L375 63 L375 738 L125 738 L125 63 Z " />
<glyph glyph-name="space" unicode="&#x20;" horiz-adv-x="414" d="" />
<glyph glyph-name="exclam" unicode="&#x21;" horiz-adv-x="465" d="M0 140 L233 140 L233 0 L0 0 L0 140 Z M0 800 L233 800 L233 221 L0 221 L0 800 Z " />
<glyph glyph-name="quotedbl" unicode="&#x22;" horiz-adv-x="426" d="M79 640 L0 640 L0 800 L79 800 L79 640 Z M189 640 L110 640 L110 800 L189 800 L189 640 Z " />
<glyph glyph-name="numbersign" unicode="&#x23;" horiz-adv-x="737" d="M79 106 L93 219 L7 220 L7 336 L107 336 L123 460 L40 460 L40 577 L138 577 L146 680 L245 680 L237 577 L336 577 L344 680 L442 680 L434 577 L520 577 L520 460 L419 460 L403 336 L486 336 L486 220 L390 219 L376 106 L277 106 L291 219 L192 219 L178 106 L79 106 Z M222 460 L206 336 L305 336 L321 460 L222 460 Z " />
<glyph glyph-name="dollar" unicode="&#x24;" horiz-adv-x="603" d="M173 173 L173 350 Q96 397 64 430 Q8 488 8 566 Q8 715 173 731 L173 800 L212 800 L212 731 Q304 731 342 683 Q375 640 375 547 L255 547 Q255 628 212 636 L212 472 Q305 415 326 395 Q386 338 386 253 Q386 78 212 78 L212 0 L173 0 L173 78 Q72 78 33 130 Q0 175 0 278 L126 278 Q126 232 132 213 Q142 178 173 173 Z M173 497 L173 636 Q134 623 134 574 Q134 529 173 497 Z M212 325 L212 173 Q259 183 259 241 Q259 290 212 325 Z " />
<glyph glyph-name="percent" unicode="&#x25;" horiz-adv-x="982" d="M157 393 Q65 393 29 448 Q0 492 0 589 Q0 687 29 735 Q65 796 157 796 Q248 796 284 734 Q313 687 313 589 Q313 493 284 448 Q248 393 157 393 Z M157 480 Q197 480 207 524 Q210 538 210 601 Q210 651 205 669 Q193 709 157 709 Q121 709 110 670 Q103 647 103 601 Q103 542 106 523 Q114 480 157 480 Z M586 800 L268 0 L186 0 L505 800 L586 800 Z M623 14 Q531 14 495 68 Q466 112 466 210 Q466 308 494 355 Q531 416 623 416 Q713 416 750 355 Q779 307 779 210 Q779 114 750 69 Q713 14 623 14 Z M623 100 Q663 100 673 145 Q676 159 676 222 Q676 271 671 290 Q659 330 623 330 Q587 330 576 291 Q569 267 569 222 Q569 162 572 144 Q580 100 623 100 Z " />
<glyph glyph-name="ampersand" unicode="&#x26;" horiz-adv-x="900" d="M539 13 L492 74 Q416 0 277 0 Q151 0 80 54 Q0 114 0 235 Q0 357 152 456 Q112 508 94 542 Q66 595 66 650 Q66 725 150 767 Q217 800 300 800 Q372 800 426 769 Q496 728 496 649 Q496 582 455 528 Q437 505 364 441 L486 282 Q503 345 503 436 L634 436 Q634 352 628 306 Q617 227 582 172 L698 13 L539 13 Z M398 167 L240 360 Q162 300 162 235 Q162 180 193 148 Q224 116 280 116 Q359 116 398 167 Z M271 530 Q348 579 348 636 Q348 703 282 703 Q255 703 235 685.5 Q215 668 215 642 Q215 611 232 582 Q242 563 271 530 Z " />
<glyph glyph-name="quotesingle" unicode="&#x27;" horiz-adv-x="316" d="M79 640 L0 640 L0 800 L79 800 L79 640 Z " />
<glyph glyph-name="parenleft" unicode="&#x28;" horiz-adv-x="393" d="M97 800 L169 800 Q142 686 130 616 Q109 501 109 406 Q109 293 130 186 Q146 112 169 0 L97 0 L53 132 Q0 298 0 407 Q0 518 55 687 Q69 731 97 800 Z " />
<glyph glyph-name="parenright" unicode="&#x29;" horiz-adv-x="392" d="M72 1 L0 1 Q27 115 39 185 Q60 300 60 394 Q60 508 38 614 Q23 688 0 801 L72 801 L116 668 Q169 503 169 393 Q169 283 114 114 Q100 70 72 1 Z " />
<glyph glyph-name="asterisk" unicode="&#x2a;" horiz-adv-x="694" d="M375 661 L320 632 L304 655 L361 681 L308 706 L322 729 L374 703 L374 758 L401 758 L401 703 L453 730 L468 708 L415 682 L468 654 L454 632 L402 660 L402 601 L375 601 L375 661 Z " />
<glyph glyph-name="plus" unicode="&#x2b;" horiz-adv-x="682" d="M339 418 L339 490 L384 490 L384 418 L452 418 L452 378 L384 378 L384 307 L339 307 L339 378 L270 378 L270 418 L339 418 Z " />
<glyph glyph-name="comma" unicode="&#x2c;" horiz-adv-x="392" d="M56 -72 L81 69 L162 69 L115 -72 L56 -72 Z " />
<glyph glyph-name="&amp;#x2d;" unicode="&#x2d;" horiz-adv-x="1680" d="M1800 1050 L1800 965 L1455 965 L1455 1050 L1800 1050 Z " />
<glyph glyph-name="&amp;#x2010;" unicode="&#x2010;" horiz-adv-x="1680" d="M1800 1050 L1800 965 L1455 965 L1455 1050 L1800 1050 Z " />
<glyph glyph-name="period" unicode="&#x2e;" horiz-adv-x="393" d="M50 100 L162 100 L162 1 L50 1 L50 100 Z " />
<glyph glyph-name="slash" unicode="&#x2f;" horiz-adv-x="541" d="M101 0 L0 0 L232 800 L332 800 L101 0 Z " />
<glyph glyph-name="zero" unicode="0" horiz-adv-x="1014" d="M0 614 Q0 720 37.5 760 Q75 800 179 800 L606 800 Q711 800 748 760 Q785 720 785 614 L785 184 Q785 79 747.5 39.5 Q710 0 606 0 L179 0 Q75 0 37.5 39.5 Q0 79 0 184 L0 614 Z M164 140 L621 140 L621 666 L164 666 L164 140 Z M324 438 Q324 470 355 470 L428 470 Q459 470 459 438 L459 364 Q459 332 428 332 L355 332 Q324 332 324 364 L324 438 Z " />
<glyph glyph-name="one" unicode="1" horiz-adv-x="562" d="M166 0 L166 669 L0 669 L0 800 L330 800 L330 0 L166 0 Z " />
<glyph glyph-name="two" unicode="2" horiz-adv-x="920" d="M732 0 L51 0 Q36 2 26 10 Q1 30 0 79 Q-1 121 22 150 Q36 168 100 213 L571 546 L571 666 L75 666 L75 800 L551 800 Q657 800 694 767.5 Q731 735 731 629 L731 578 Q731 521 714 490 Q702 469 631 419 L238 140 L732 140 L732 0 Z " />
<glyph glyph-name="three" unicode="3" horiz-adv-x="935" d="M711 250 L711 168 Q711 69 665 32 Q624 0 522 0 L6 0 L6 140 L471 140 Q514 140 530 154 Q546 168 546 211 L546 268 Q546 311 530 325 Q514 339 471 339 L205 339 L205 478 L441 478 Q486 478 501 492 Q516 506 516 539 L516 579 Q516 638 501 652 Q486 666 441 666 L0 665 L0 800 L503 800 Q601 800 637 772 Q680 740 680 646 L680 559 Q680 429 568 408 Q701 390 711 250 Z " />
<glyph glyph-name="four" unicode="4" horiz-adv-x="884" d="M460 0 L460 172 L0 172 L0 305 L368 800 L608 800 L608 305 L662 305 L662 172 L608 172 L608 0 L460 0 Z M460 305 L460 695 L166 305 L460 305 Z " />
<glyph glyph-name="five" unicode="5" horiz-adv-x="920" d="M78 800 L668 800 L668 665 L145 665 L145 476 L565 476 Q706 476 717 373 Q715 262 717 101 Q718 7 565 0 L0 0 L0 138 L577 138 L577 340 L2 340 L2 702 Q2 793 78 800 Z " />
<glyph glyph-name="six" unicode="6" horiz-adv-x="908" d="M143 138 L576 138 L576 340 L143 340 L143 138 Z M0 103 L1 701 Q1 793 80 800 L365 800 L365 671 L143 671 L144 476 L607 476 Q708 476 716 372 Q715 262 716 101 Q717 7 607 0 L121 0 Q0 7 0 103 Z " />
<glyph glyph-name="seven" unicode="7" horiz-adv-x="903" d="M0 800 L705 800 L705 675 L295 0 L96 0 L518 672 L0 672 L0 800 Z " />
<glyph glyph-name="eight" unicode="8" horiz-adv-x="1020" d="M599 800 Q698 800 735 772 Q778 740 778 646 L778 559 Q778 487 738 451 Q705 422 628 408 Q796 389 796 251 L796 168 Q796 69 749 32 Q708 0 605 0 L189 0 Q87 0 46 32 Q0 69 0 168 L0 251 Q0 389 166 408 Q90 423 56 452 Q16 487 16 559 L16 646 Q16 740 60 772 Q96 800 195 800 L599 800 Z M556 341 L239 341 Q194 341 179 326.5 Q164 312 164 269 L164 211 Q164 167 179 153.5 Q194 140 239 140 L556 140 Q600 140 615 154 Q630 168 630 211 L630 269 Q630 312 615 326.5 Q600 341 556 341 Z M539 666 L257 666 Q212 666 196.5 651.5 Q181 637 181 578 L181 539 Q181 497 197 483 Q213 469 257 469 L539 469 Q582 469 598 483 Q614 497 614 539 L614 578 Q614 638 598.5 652 Q583 666 539 666 Z " />
<glyph glyph-name="nine" unicode="9" horiz-adv-x="945" d="M573 662 L140 662 L140 460 L573 460 L573 662 Z M716 697 L715 99 Q715 7 636 0 L11 0 L11 129 L573 129 L572 324 L109 324 Q8 324 0 428 Q1 538 0 699 Q-1 793 109 800 L574 800 Q716 793 716 697 Z " />
<glyph glyph-name="colon" unicode="&#x3a;" horiz-adv-x="404" d="M0 800 L190 800 L190 591 L0 591 L0 800 Z M190 209 L190 0 L0 0 L0 209 L190 209 Z " />
<glyph glyph-name="semicolon" unicode="&#x3b;" horiz-adv-x="437" d="M0 0 L53 305 L229 304 L128 0 L0 0 Z M212 628 L53 628 L53 800 L212 800 L212 628 Z " />
<glyph glyph-name="less" unicode="&#x3c;" horiz-adv-x="693" d="M204 398 L474 280 L474 200 L110 363 L110 435 L474 600 L474 520 L204 398 Z " />
<glyph glyph-name="equal" unicode="&#x3d;" horiz-adv-x="902" d="M681 515 L681 438 L457 438 L457 515 L681 515 Z M681 379 L681 302 L457 302 L457 379 L681 379 Z " />
<glyph glyph-name="greater" unicode="&#x3e;" horiz-adv-x="741" d="M445 402 L175 520 L174 600 L539 437 L539 365 L174 200 L175 280 L445 402 Z " />
<glyph glyph-name="question" unicode="&#x3f;" horiz-adv-x="799" d="M370 210 L202 210 L202 322 Q202 355 230 394 Q244 414 290 466 Q376 563 376 610 Q376 689 282 689 Q225 689 206 652 Q194 630 194 577 L0 577 Q0 673 36 717 Q103 800 305 800 Q416 800 495 766 Q601 719 601 622 Q601 520 486 427 Q476 420 406 360 Q370 324 370 288 L370 210 Z M386 0 L190 0 L190 130 L386 130 L386 0 Z " />
<glyph glyph-name="at" unicode="&#x40;" horiz-adv-x="797" d="M473 445 L444 273 Q444 263 455 263 Q482 263 500 303 Q515 336 515 366 Q515 454 452 492 Q411 517 359 517 Q285 517 233 465.5 Q181 414 181 340 Q181 265 233 213 Q285 161 359 161 Q433 161 484 213 L537 213 Q508 170 460 145 Q412 120 359 120 Q267 120 203.5 184 Q140 248 140 340 Q140 432 203.5 495 Q267 558 359 558 Q459 558 513 494 Q556 443 556 382 Q556 322 523 273 Q485 217 428 217 Q394 217 388 251 L386 251 Q360 217 318 217 Q281 217 261 251 Q244 279 244 319 Q244 373 271 410 Q302 452 354 452 Q398 452 412 418 L419 445 L473 445 Z M361 411 Q331 411 315 376 Q303 349 303 315 Q303 263 336 263 Q399 263 399 366 Q399 411 361 411 Z " />
<glyph glyph-name="A" unicode="A" horiz-adv-x="1341" d="M917 0 L590 581 L359 169 L590 169 L590 0 L0 0 L72 118 L480 800 L699 800 L1154 0 L917 0 Z " />
<glyph glyph-name="B" unicode="B" horiz-adv-x="1168" d="M938 317 L938 104 Q938 7 853 0 L0 0 L0 800 L853 800 Q933 800 939 692 L938 490 Q945 411 852 405 Q932 409 938 317 Z M210 506 L710 506 Q740 506 740 553 L740 586 Q740 632 710 632 L210 632 L210 506 Z M210 177 L710 177 Q740 177 740 224 L740 257 Q740 304 710 304 L210 304 L210 177 Z " />
<glyph glyph-name="C" unicode="C" horiz-adv-x="1142" d="M739 629 L195 629 L195 167 L741 167 L741 336 L937 336 L938 117 Q947 44 865 15 Q830 2 781 0 Q653 -1 116 0 Q8 0 0 116 Q2 262 0 705 Q0 793 152 800 L782 800 Q925 800 936 705 L936 484 L739 484 L739 629 Z " />
<glyph glyph-name="D" unicode="D" horiz-adv-x="1254" d="M680 0 L0 0 L0 800 L680 800 Q901 800 989 601 Q1026 519 1033 403 Q1026 285 989 202 Q901 0 680 0 Z M843 401 Q838 469 817 518 Q765 635 635 635 L198 635 L198 164 L634 164 Q764 164 817 282 Q838 332 843 401 Z " />
<glyph glyph-name="E" unicode="E" horiz-adv-x="1030" d="M848 0 L848 176 L208 176 L208 319 L584 319 L584 493 L207 493 L207 636 L850 636 L850 800 L0 800 L0 0 L848 0 Z " />
<glyph glyph-name="F" unicode="F" horiz-adv-x="999" d="M208 0 L208 319 L584 319 L584 493 L207 493 L207 636 L850 636 L850 800 L0 800 L0 0 L208 0 Z " />
<glyph glyph-name="G" unicode="G" horiz-adv-x="1162" d="M467 485 L467 336 L759 336 L759 167 L195 167 L195 630 L955 630 L955 800 L152 800 Q0 793 0 705 L0 116 Q8 0 116 0 L815 0 Q955 8 955 116 L954 485 L467 485 Z " />
<glyph glyph-name="H" unicode="H" horiz-adv-x="1208" d="M777 300 L777 0 L976 0 L976 800 L777 800 L777 500 L200 500 L200 800 L0 800 L0 0 L200 0 L200 300 L777 300 Z " />
<glyph glyph-name="I" unicode="I" horiz-adv-x="465" d="M0 800 L233 800 L233 0 L0 0 L0 800 Z " />
<glyph glyph-name="J" unicode="J" horiz-adv-x="1065" d="M639 800 L639 167 L196 167 L196 336 L0 336 L0 104 Q0 7 85 0 Q210 -1 719 0 Q826 0 834 116 L834 800 L639 800 Z " />
<glyph glyph-name="K" unicode="K" horiz-adv-x="1157" d="M200 290 L316 366 L688 0 L973 0 L486 479 L956 800 L627 800 L200 529 L200 800 L0 800 L0 0 L200 0 L200 290 Z " />
<glyph glyph-name="L" unicode="L" horiz-adv-x="982" d="M208 800 L208 176 L848 176 L848 0 L0 0 L0 800 L208 800 Z " />
<glyph glyph-name="M" unicode="M" horiz-adv-x="1316" d="M222 0 L222 413 L459 0 L616 0 L864 423 L864 0 L1086 0 L1086 800 L886 800 L538 275 L218 800 L0 800 L0 0 L222 0 Z " />
<glyph glyph-name="N" unicode="N" horiz-adv-x="1260" d="M827 0 L1030 0 L1030 800 L827 800 L827 286 L199 800 L0 800 L0 0 L199 0 L200 529 L827 0 Z " />
<glyph glyph-name="O" unicode="O" horiz-adv-x="1166" d="M937 113 Q937 8 792 0 Q664 -1 116 0 Q8 0 0 116 Q2 262 0 705 Q0 793 152 800 L792 800 Q926 800 936 709 L937 113 Z M739 168 L739 629 L195 629 L195 168 L739 168 Z " />
<glyph glyph-name="P" unicode="P" horiz-adv-x="1111" d="M209 506 L709 506 Q739 506 739 553 L739 586 Q739 633 709 633 L209 633 L209 506 Z M209 314 L209 0 L1 0 L0 800 L852 800 Q931 800 937 692 L937 400 Q937 321 851 315 L209 314 Z " />
<glyph glyph-name="Q" unicode="Q" horiz-adv-x="1047" d="M861 -85 L768 5 L123 5 Q11 5 3 120 Q5 266 3 708 Q3 795 161 802 L825 802 Q964 802 975 711 L975 118 Q975 107 971 91 L1155 -85 L861 -85 Z M770 283 L770 632 L206 632 L206 172 L592 172 L465 295 L758 295 L770 283 Z " />
<glyph glyph-name="R" unicode="R" horiz-adv-x="1227" d="M209 506 L709 506 Q739 506 739 553 L739 586 Q739 633 709 633 L209 633 L209 506 Z M419 315 L209 314 L209 0 L1 0 L0 800 L852 800 Q931 800 937 692 L937 400 Q937 321 851 315 L704 315 L1023 0 L739 0 L419 315 Z " />
<glyph glyph-name="S" unicode="S" horiz-adv-x="1143" d="M807 0 L0 0 L0 167 L739 167 L739 313 L153 313 Q1 321 1 415 L1 705 Q1 793 153 800 L938 800 L938 629 L196 629 L196 482 L806 482 Q928 482 937 398 L937 98 Q928 0 807 0 Z " />
<glyph glyph-name="T" unicode="T" horiz-adv-x="1149" d="M366 637 L366 0 L599 0 L599 637 L976 637 L976 800 L0 800 L0 637 L366 637 Z " />
<glyph glyph-name="U" unicode="U" horiz-adv-x="1143" d="M0 800 L200 800 L200 172 L709 172 L709 800 L913 800 L913 126 Q913 9 787 0 L119 0 Q9 0 0 124 L0 800 Z " />
<glyph glyph-name="V" unicode="V" horiz-adv-x="1302" d="M459 0 L616 0 L1119 800 L886 800 L538 275 L218 800 L0 800 L459 0 Z " />
<glyph glyph-name="W" unicode="W" horiz-adv-x="1451" d="M1011 800 L931 387 L694 800 L537 800 L289 377 L222 800 L0 800 L118 0 L318 0 L616 525 L885 0 L1103 0 L1232 800 L1011 800 Z " />
<glyph glyph-name="X" unicode="X" horiz-adv-x="1326" d="M1132 800 L801 800 L566 566 L331 800 L0 800 L401 400 L0 0 L330 0 L566 235 L801 0 L1132 0 L731 400 L1132 800 Z " />
<glyph glyph-name="Y" unicode="Y" horiz-adv-x="1300" d="M449 0 L450 351 L0 800 L331 800 L566 566 L800 800 L1132 800 L682 351 L683 0 L449 0 Z " />
<glyph glyph-name="Z" unicode="Z" horiz-adv-x="1006" d="M0 172 L0 0 L804 0 L804 172 L287 172 L804 639 L804 800 L0 800 L0 637 L531 638 L0 172 Z " />
<glyph glyph-name="bracketleft" unicode="&#x5b;" horiz-adv-x="420" d="M10 0 L10 800 L203 800 L203 721 L111 721 L111 79 L203 79 L203 0 L10 0 Z " />
<glyph glyph-name="backslash" unicode="&#x5c;" horiz-adv-x="540" d="M332 0 L231 0 L0 800 L100 800 L332 0 Z " />
<glyph glyph-name="bracketright" unicode="&#x5d;" horiz-adv-x="425" d="M194 800 L194 0 L0 0 L0 79 L93 79 L93 721 L0 721 L0 800 L194 800 Z " />
<glyph glyph-name="asciicircum" unicode="&#x5e;" horiz-adv-x="977" d="M359 502 L264 502 L399 678 L496 678 L631 502 L537 502 L448 626 L359 502 Z " />
<glyph glyph-name="underscore" unicode="&#x5f;" horiz-adv-x="4938" d="M1368 823 L1368 -3 L3562 -3 L3562 823 L1368 823 Z " />
<glyph glyph-name="grave" unicode="&#x60;" horiz-adv-x="414" d="" />
<glyph glyph-name="a" unicode="a" horiz-adv-x="861" d="M0 0 L150 0 L327 561 L503 0 L653 0 L402 800 L252 800 L0 0 Z " />
<glyph glyph-name="b" unicode="b" horiz-adv-x="769" d="M318 0 L0 0 L0 800 L319 800 Q408 800 462 761 Q531 712 531 593 Q531 513 507 474 Q481 429 415 416 Q454 410 477 393 Q494 380 514 349 Q545 301 545 212 Q545 81 448 30 Q390 0 318 0 Z M146 689 L146 473 L301 473 Q344 473 366.5 502 Q389 531 389 575 Q389 631 362 660 Q335 689 292 689 L146 689 Z M146 350 L146 113 L282 113 Q344 113 371.5 141.5 Q399 170 399 236 Q399 350 287 350 L146 350 Z " />
<glyph glyph-name="c" unicode="c" horiz-adv-x="752" d="M128 288 Q128 216 155.5 172.5 Q183 129 227 129 L572 129 L572 0 L174 0 Q102 0 51 71.5 Q0 143 0 245 L0 556 Q0 657 51 728.5 Q102 800 174 800 L572 800 L572 667 L233 667 Q188 667 158 624 Q128 581 128 510 L128 288 Z " />
<glyph glyph-name="d" unicode="d" horiz-adv-x="842" d="M444 800 Q517 800 567.5 732 Q618 664 618 564 L618 244 Q618 143 567 71.5 Q516 0 444 0 L0 0 L0 799 L444 800 Z M155 686 L156 112 L356 112 Q399 112 430 163.5 Q461 215 461 288 L461 518 Q461 590 430.5 638 Q400 686 356 686 L155 686 Z " />
<glyph glyph-name="e" unicode="e" horiz-adv-x="763" d="M128 346 L128 288 Q128 216 155.5 172.5 Q183 129 227 129 L572 129 L572 0 L174 0 Q102 0 51 71.5 Q0 143 0 244 L0 565 Q0 665 50.5 732.5 Q101 800 174 800 L572 800 L571 667 L233 667 Q187 667 159 630 Q128 589 128 519 L128 464 L572 464 L572 346 L128 346 Z " />
<glyph glyph-name="f" unicode="f" horiz-adv-x="742" d="M0 0 L0 556 Q0 657 51 728.5 Q102 800 174 800 L572 800 L572 667 L233 667 Q187 667 159 630 Q128 590 128 520 L128 465 L445 465 L445 346 L128 347 L128 0 L0 0 Z " />
<glyph glyph-name="g" unicode="g" horiz-adv-x="790" d="M324 344 L324 466 L572 466 L572 0 L174 0 Q102 0 51 71.5 Q0 143 0 245 L0 556 Q0 657 51 728.5 Q102 800 174 800 L572 800 L572 667 L233 667 Q188 667 158 624 Q128 581 128 510 L128 288 Q128 216 155.5 172.5 Q183 129 227 129 L438 129 L438 344 L324 344 Z " />
<glyph glyph-name="h" unicode="h" horiz-adv-x="801" d="M425 329 L425 0 L569 0 L569 800 L425 800 L425 471 L144 471 L143 800 L0 800 L0 0 L143 0 L143 329 L425 329 Z " />
<glyph glyph-name="i" unicode="i" horiz-adv-x="375" d="M0 0 L143 0 L143 800 L0 800 L0 0 Z " />
<glyph glyph-name="j" unicode="j" horiz-adv-x="824" d="M593 800 L593 244 Q593 143 542 71.5 Q491 0 419 0 L0 0 L0 133 L339 133 Q383 133 413.5 176 Q444 219 444 290 L444 800 L593 800 Z " />
<glyph glyph-name="k" unicode="k" horiz-adv-x="812" d="M143 276 L143 0 L0 3 L0 800 L143 797 L143 525 L417 800 L619 800 L220 401 L619 2 L416 2 L143 276 Z " />
<glyph glyph-name="l" unicode="l" horiz-adv-x="731" d="M565 143 L143 143 L143 800 L0 800 L0 0 L565 0 L565 143 Z " />
<glyph glyph-name="m" unicode="m" horiz-adv-x="1168" d="M178 800 L0 800 L0 0 L150 0 L150 519 L398 0 L532 0 L786 519 L786 0 L936 0 L936 800 L758 800 L467 222 L178 800 Z " />
<glyph glyph-name="n" unicode="n" horiz-adv-x="828" d="M0 0 L0 800 L178 800 L440 360 L440 800 L595 800 L596 0 L440 0 L150 519 L150 0 L0 0 Z " />
<glyph glyph-name="o" unicode="o" horiz-adv-x="804" d="M579 245 Q579 144 527.5 72 Q476 0 404 0 L175 0 Q102 0 51 72 Q0 144 0 245 L0 555 Q0 657 51 728.5 Q102 800 175 800 L404 800 Q476 800 527.5 728.5 Q579 657 579 555 L579 245 Z M450 509 Q450 581 420 624 Q390 667 345 667 L234 667 Q189 667 158.5 624 Q128 581 128 509 L128 289 Q128 217 155.5 173 Q183 129 227 129 L339 129 Q384 129 417 173.5 Q450 218 450 289 L450 509 Z " />
<glyph glyph-name="p" unicode="p" horiz-adv-x="713" d="M0 0 L0 800 L302 800 Q515 800 515 561 Q515 326 292 326 L144 326 L144 0 L0 0 Z M144 677 L144 449 L296 449 Q335 449 359 484 Q381 516 381 556 Q381 677 287 677 L144 677 Z " />
<glyph glyph-name="q" unicode="q" horiz-adv-x="944" d="M474 21 Q440 0 404 0 L175 0 Q102 0 51 72 Q0 144 0 245 L0 555 Q0 657 51 728.5 Q102 800 175 800 L404 800 Q476 800 527 728.5 Q578 657 578 555 L578 245 Q578 183 557 129 L742 129 L742 0 L524 0 Q516 0 508 3 Q489 8 474 21 Z M450 509 Q450 581 420 624 Q390 667 345 667 L234 667 Q189 667 158.5 624 Q128 581 128 509 L128 289 Q128 217 155.5 173 Q183 129 227 129 L339 129 Q384 129 417 174 Q450 219 450 289 L450 509 Z " />
<glyph glyph-name="r" unicode="r" horiz-adv-x="769" d="M410 0 L270 327 L144 327 L144 2 L0 2 L0 800 L301 800 Q513 800 513 562 Q513 469 475 411 Q450 373 404 349 L553 0 L410 0 Z M144 677 L144 450 L295 450 Q334 450 358 485 Q380 516 380 557 Q380 677 286 677 L144 677 Z " />
<glyph glyph-name="s" unicode="s" horiz-adv-x="711" d="M338 610 Q335 633 328 648 Q316 672 306 679 Q288 692 242 692 Q159 692 159 610 Q159 580 188 538.5 Q217 497 258 473 L415 377 Q500 308 500 206 Q500 141 477 101 Q457 65 411 38 Q348 0 231 0 Q0 0 0 215 L0 252 L156 252 Q156 159 173 140 Q195 116 244 116 Q295 116 315 139.5 Q335 163 335 204 Q335 254 238 323 Q166 367 95 412 Q10 484 10 582 Q10 800 265 800 Q483 800 490 610 L338 610 Z " />
<glyph glyph-name="t" unicode="t" horiz-adv-x="791" d="M365 0 L222 0 L222 657 L0 657 L0 800 L597 800 L597 657 L365 657 L365 0 Z " />
<glyph glyph-name="u" unicode="u" horiz-adv-x="824" d="M339 133 Q383 133 413.5 176 Q444 219 444 290 L444 800 L593 800 L593 244 Q593 143 542 71.5 Q491 0 419 0 L339 133 Z M419 0 L174 0 Q102 0 51 71.5 Q0 143 0 244 L0 800 L149 800 L149 290 Q149 219 179.5 176 Q210 133 254 133 L339 133 L419 0 Z " />
<glyph glyph-name="v" unicode="v" horiz-adv-x="861" d="M653 800 L503 800 L326 239 L150 800 L0 800 L252 0 L402 0 L653 800 Z " />
<glyph glyph-name="w" unicode="w" horiz-adv-x="1222" d="M507 335 L613 0 L763 0 L1015 800 L865 800 L684 218 L563 573 L457 573 L334 216 L150 800 L0 800 L252 0 L402 0 L507 335 Z " />
<glyph glyph-name="x" unicode="x" horiz-adv-x="803" d="M377 387 L579 0 L417 0 L296 230 L176 0 L15 0 L217 388 L0 799 L162 799 L297 540 L433 800 L594 800 L377 385 L377 387 Z " />
<glyph glyph-name="y" unicode="y" horiz-adv-x="793" d="M379 1 L379 387 L594 800 L433 800 L297 540 L162 799 L0 799 L217 387 L217 0 L379 1 Z " />
<glyph glyph-name="z" unicode="z" horiz-adv-x="790" d="M0 800 L582 800 L582 624 L188 154 L582 154 L582 0 L0 0 L0 154 L409 652 L0 652 L0 800 Z " />
<glyph glyph-name="braceleft" unicode="&#x7b;" horiz-adv-x="468" d="M75 541 L75 681 Q75 741 98.5 770.5 Q122 800 181 800 L248 800 L248 728 Q176 728 176 627 L176 525 Q176 475 163 451 Q146 420 101 410 Q176 398 176 285 L176 172 Q176 72 248 72 L248 0 L189 0 Q121 0 96 35 Q75 64 75 135 L75 278 Q75 369 0 369 L0 448 Q75 448 75 541 Z " />
<glyph glyph-name="bar" unicode="&#x7c;" horiz-adv-x="320" d="M0 0 L0 800 L89 800 L89 0 L0 0 Z " />
<glyph glyph-name="braceright" unicode="&#x7d;" horiz-adv-x="465" d="M174 681 L174 541 Q174 448 248 448 L248 369 Q174 369 174 278 L174 135 Q174 65 152 35 Q127 0 59 0 L0 0 L0 72 Q72 72 72 172 L72 285 Q72 397 147 408 Q103 419 86 450 Q72 475 72 525 L72 627 Q72 728 0 728 L0 800 L68 800 Q126 800 151 769 Q174 742 174 681 Z " />
<glyph glyph-name="asciitilde" unicode="&#x7e;" horiz-adv-x="906" d="M614 647 L346 800 L0 602 L0 205 L346 0 L693 205 L693 602 L507 489 L346 589 L190 494 L190 303 L346 214 L507 303 L507 370 L585 416 L585 260 L346 120 L105 263 L105 539 L346 678 L507 582 L614 647 Z " />
<glyph glyph-name="brokenbar" unicode="&#xa6;" horiz-adv-x="320" d="M0 0 L0 800 L89 800 L89 0 L0 0 Z " />
</font>
</svg>
