<?xml version="1.0" encoding="UTF-8"?>
<svg xmlns="http://www.w3.org/2000/svg" xmlns:xlink="http://www.w3.org/1999/xlink" version="1.2" >
<font id="Minecraft">
<font-face  font-family="Minecraft" units-per-em="1024" ascent="768" descent="-256" font-style="normal" font-weight="500" font-stretch="normal" cap-height="768" x-height="512" underline-position="-128" underline-thickness="51" />
<missing-glyph  horiz-adv-x="374" d="M34 0 L34 682 L306 682 L306 0 L34 0 Z M68 34 L272 34 L272 648 L68 648 L68 34 Z " />
<glyph glyph-name="space" unicode="&#x20;" horiz-adv-x="320" d="" />
<glyph glyph-name="exclam" unicode="&#x21;" horiz-adv-x="192" d="M64 0 L0 0 L0 64 L0 128 L64 128 L128 128 L128 64 L128 0 L64 0 Z M64 192 L0 192 L0 256 L0 320 L0 384 L0 448 L0 512 L0 576 L0 640 L0 704 L0 768 L64 768 L128 768 L128 704 L128 640 L128 576 L128 512 L128 448 L128 384 L128 320 L128 256 L128 192 L64 192 Z " />
<glyph glyph-name="quotedbl" unicode="&#x22;" horiz-adv-x="576" d="M320 384 L256 384 L256 448 L256 512 L320 512 L384 512 L384 448 L384 384 L320 384 Z M64 384 L0 384 L0 448 L0 512 L64 512 L128 512 L128 448 L128 384 L64 384 Z M384 512 L384 576 L384 640 L384 704 L384 768 L448 768 L512 768 L512 704 L512 640 L512 576 L512 512 L448 512 L384 512 Z M256 512 L192 512 L128 512 L128 576 L128 640 L128 704 L128 768 L192 768 L256 768 L256 704 L256 640 L256 576 L256 512 Z " />
<glyph glyph-name="numbersign" unicode="&#x23;" horiz-adv-x="704" d="M448 0 L384 0 L384 64 L384 128 L384 192 L320 192 L256 192 L256 128 L256 64 L256 0 L192 0 L128 0 L128 64 L128 128 L128 192 L64 192 L0 192 L0 256 L0 320 L64 320 L128 320 L128 384 L128 448 L64 448 L0 448 L0 512 L0 576 L64 576 L128 576 L128 640 L128 704 L128 768 L192 768 L256 768 L256 704 L256 640 L256 576 L320 576 L384 576 L384 640 L384 704 L384 768 L448 768 L512 768 L512 704 L512 640 L512 576 L576 576 L640 576 L640 512 L640 448 L576 448 L512 448 L512 384 L512 320 L576 320 L640 320 L640 256 L640 192 L576 192 L512 192 L512 128 L512 64 L512 0 L448 0 Z M320 320 L384 320 L384 384 L384 448 L320 448 L256 448 L256 384 L256 320 L320 320 Z " />
<glyph glyph-name="dollar" unicode="&#x24;" horiz-adv-x="576" d="M320 -128 L256 -128 L256 -64 L256 0 L192 0 L128 0 L64 0 L0 0 L0 64 L0 128 L64 128 L128 128 L192 128 L256 128 L256 192 L256 256 L320 256 L384 256 L384 192 L384 128 L448 128 L512 128 L512 64 L512 0 L448 0 L384 0 L384 -64 L384 -128 L320 -128 Z M256 256 L192 256 L128 256 L128 320 L128 384 L192 384 L256 384 L256 320 L256 256 Z M128 384 L64 384 L0 384 L0 448 L0 512 L64 512 L128 512 L128 448 L128 384 Z M448 512 L384 512 L320 512 L256 512 L192 512 L128 512 L128 576 L128 640 L192 640 L256 640 L256 704 L256 768 L320 768 L384 768 L384 704 L384 640 L448 640 L512 640 L512 576 L512 512 L448 512 Z " />
<glyph glyph-name="percent" unicode="&#x25;" horiz-adv-x="896" d="M192 0 L192 64 L256 64 L256 0 L192 0 Z M704 64 L768 64 L768 0 L704 0 L640 0 L640 64 L704 64 Z M768 64 L768 128 L768 192 L768 256 L768 320 L832 320 L832 256 L832 192 L832 128 L832 64 L768 64 Z M640 64 L576 64 L576 128 L576 192 L576 256 L576 320 L640 320 L640 256 L640 192 L640 128 L640 64 Z M256 64 L256 128 L256 192 L320 192 L320 128 L320 64 L256 64 Z M320 192 L320 256 L384 256 L384 192 L320 192 Z M384 256 L384 320 L384 384 L448 384 L448 320 L448 256 L384 256 Z M768 320 L704 320 L640 320 L640 384 L704 384 L768 384 L768 320 Z M448 384 L448 448 L512 448 L512 384 L448 384 Z M192 448 L256 448 L256 384 L192 384 L128 384 L128 448 L192 448 Z M512 448 L512 512 L512 576 L576 576 L576 512 L576 448 L512 448 Z M256 448 L256 512 L256 576 L256 640 L256 704 L320 704 L320 640 L320 576 L320 512 L320 448 L256 448 Z M128 448 L64 448 L64 512 L64 576 L64 640 L64 704 L128 704 L128 640 L128 576 L128 512 L128 448 Z M576 576 L576 640 L640 640 L640 576 L576 576 Z M640 640 L640 704 L640 768 L704 768 L704 704 L704 640 L640 640 Z M256 704 L192 704 L128 704 L128 768 L192 768 L256 768 L256 704 Z " />
<glyph glyph-name="ampersand" unicode="&#x26;" horiz-adv-x="704" d="M576 0 L512 0 L512 64 L512 128 L576 128 L640 128 L640 64 L640 0 L576 0 Z M320 0 L256 0 L192 0 L128 0 L128 64 L128 128 L192 128 L256 128 L320 128 L384 128 L384 64 L384 0 L320 0 Z M512 128 L448 128 L384 128 L384 192 L384 256 L384 320 L384 384 L448 384 L512 384 L512 320 L512 256 L512 192 L512 128 Z M128 128 L64 128 L0 128 L0 192 L0 256 L0 320 L0 384 L64 384 L128 384 L128 320 L128 256 L128 192 L128 128 Z M512 384 L512 448 L512 512 L576 512 L640 512 L640 448 L640 384 L576 384 L512 384 Z M384 384 L320 384 L256 384 L192 384 L128 384 L128 448 L128 512 L128 576 L128 640 L192 640 L256 640 L256 576 L256 512 L320 512 L384 512 L384 448 L384 384 Z M512 512 L448 512 L384 512 L384 576 L384 640 L448 640 L512 640 L512 576 L512 512 Z M384 640 L320 640 L256 640 L256 704 L256 768 L320 768 L384 768 L384 704 L384 640 Z " />
<glyph glyph-name="quotesingle" unicode="&#x27;" horiz-adv-x="192" d="M64 512 L0 512 L0 576 L0 640 L0 704 L0 768 L64 768 L128 768 L128 704 L128 640 L128 576 L128 512 L64 512 Z " />
<glyph glyph-name="parenleft" unicode="&#x28;" horiz-adv-x="448" d="M320 0 L256 0 L192 0 L128 0 L128 64 L128 128 L192 128 L256 128 L320 128 L384 128 L384 64 L384 0 L320 0 Z M128 128 L64 128 L0 128 L0 192 L0 256 L0 320 L0 384 L0 448 L0 512 L0 576 L0 640 L64 640 L128 640 L128 576 L128 512 L128 448 L128 384 L128 320 L128 256 L128 192 L128 128 Z M320 640 L256 640 L192 640 L128 640 L128 704 L128 768 L192 768 L256 768 L320 768 L384 768 L384 704 L384 640 L320 640 Z " />
<glyph glyph-name="parenright" unicode="&#x29;" horiz-adv-x="448" d="M192 0 L128 0 L64 0 L0 0 L0 64 L0 128 L64 128 L128 128 L192 128 L256 128 L256 64 L256 0 L192 0 Z M256 128 L256 192 L256 256 L256 320 L256 384 L256 448 L256 512 L256 576 L256 640 L320 640 L384 640 L384 576 L384 512 L384 448 L384 384 L384 320 L384 256 L384 192 L384 128 L320 128 L256 128 Z M256 640 L192 640 L128 640 L64 640 L0 640 L0 704 L0 768 L64 768 L128 768 L192 768 L256 768 L256 704 L256 640 Z " />
<glyph glyph-name="asterisk" unicode="&#x2a;" horiz-adv-x="448" d="M320 384 L256 384 L256 448 L256 512 L192 512 L128 512 L128 448 L128 384 L64 384 L0 384 L0 448 L0 512 L64 512 L64 576 L64 640 L0 640 L0 704 L0 768 L64 768 L128 768 L128 704 L128 640 L192 640 L256 640 L256 704 L256 768 L320 768 L384 768 L384 704 L384 640 L320 640 L320 576 L320 512 L384 512 L384 448 L384 384 L320 384 Z " />
<glyph glyph-name="plus" unicode="&#x2b;" horiz-adv-x="640" d="M320 128 L256 128 L256 192 L256 256 L256 320 L192 320 L128 320 L64 320 L64 384 L64 448 L128 448 L192 448 L256 448 L256 512 L256 576 L256 640 L320 640 L384 640 L384 576 L384 512 L384 448 L448 448 L512 448 L576 448 L576 384 L576 320 L512 320 L448 320 L384 320 L384 256 L384 192 L384 128 L320 128 Z " />
<glyph glyph-name="comma" unicode="&#x2c;" horiz-adv-x="192" d="M0 -128 L0 -64 L64 -64 L64 -128 L0 -128 Z M64 -64 L64 0 L0 0 L0 64 L0 128 L64 128 L128 128 L128 64 L128 0 L128 -64 L64 -64 Z " />
<glyph glyph-name="hyphen" unicode="&#x2d;" horiz-adv-x="384" d="M256 192 L192 192 L128 192 L64 192 L0 192 L0 256 L0 320 L64 320 L128 320 L192 320 L256 320 L320 320 L320 256 L320 192 L256 192 Z " />
<glyph glyph-name="period" unicode="&#x2e;" horiz-adv-x="192" d="M64 0 L0 0 L0 64 L0 128 L64 128 L128 128 L128 64 L128 0 L64 0 Z " />
<glyph glyph-name="slash" unicode="&#x2f;" horiz-adv-x="576" d="M0 0 L0 64 L64 64 L64 0 L0 0 Z M64 64 L64 128 L64 192 L128 192 L128 128 L128 64 L64 64 Z M128 192 L128 256 L192 256 L192 192 L128 192 Z M192 256 L192 320 L192 384 L256 384 L256 320 L256 256 L192 256 Z M256 384 L256 448 L320 448 L320 384 L256 384 Z M320 448 L320 512 L320 576 L384 576 L384 512 L384 448 L320 448 Z M384 576 L384 640 L448 640 L448 576 L384 576 Z M448 640 L448 704 L448 768 L512 768 L512 704 L512 640 L448 640 Z " />
<glyph glyph-name="zero" unicode="0" horiz-adv-x="576" d="M320 0 L256 0 L192 0 L128 0 L128 64 L128 128 L192 128 L256 128 L320 128 L384 128 L384 64 L384 0 L320 0 Z M384 128 L384 192 L384 256 L384 320 L384 384 L384 448 L320 448 L320 384 L320 320 L256 320 L192 320 L192 256 L192 192 L128 192 L128 128 L64 128 L0 128 L0 192 L0 256 L0 320 L0 384 L0 448 L0 512 L0 576 L0 640 L64 640 L128 640 L128 576 L128 512 L128 448 L128 384 L128 320 L192 320 L192 384 L192 448 L256 448 L320 448 L320 512 L320 576 L384 576 L384 640 L448 640 L512 640 L512 576 L512 512 L512 448 L512 384 L512 320 L512 256 L512 192 L512 128 L448 128 L384 128 Z M384 640 L320 640 L256 640 L192 640 L128 640 L128 704 L128 768 L192 768 L256 768 L320 768 L384 768 L384 704 L384 640 Z " />
<glyph glyph-name="one" unicode="1" horiz-adv-x="448" d="M320 0 L256 0 L192 0 L128 0 L64 0 L0 0 L0 64 L0 128 L64 128 L128 128 L128 192 L128 256 L128 320 L128 384 L128 448 L128 512 L64 512 L0 512 L0 576 L0 640 L64 640 L128 640 L128 704 L128 768 L192 768 L256 768 L256 704 L256 640 L256 576 L256 512 L256 448 L256 384 L256 320 L256 256 L256 192 L256 128 L320 128 L384 128 L384 64 L384 0 L320 0 Z " />
<glyph glyph-name="two" unicode="2" horiz-adv-x="576" d="M448 0 L384 0 L320 0 L256 0 L192 0 L128 0 L64 0 L0 0 L0 64 L0 128 L0 192 L0 256 L64 256 L128 256 L128 192 L128 128 L192 128 L256 128 L320 128 L384 128 L448 128 L512 128 L512 64 L512 0 L448 0 Z M128 256 L128 320 L128 384 L192 384 L256 384 L256 320 L256 256 L192 256 L128 256 Z M256 384 L256 448 L256 512 L320 512 L384 512 L384 448 L384 384 L320 384 L256 384 Z M384 512 L384 576 L384 640 L448 640 L512 640 L512 576 L512 512 L448 512 L384 512 Z M64 512 L0 512 L0 576 L0 640 L64 640 L128 640 L128 576 L128 512 L64 512 Z M384 640 L320 640 L256 640 L192 640 L128 640 L128 704 L128 768 L192 768 L256 768 L320 768 L384 768 L384 704 L384 640 Z " />
<glyph glyph-name="three" unicode="3" horiz-adv-x="576" d="M320 0 L256 0 L192 0 L128 0 L128 64 L128 128 L192 128 L256 128 L320 128 L384 128 L384 64 L384 0 L320 0 Z M384 128 L384 192 L384 256 L384 320 L448 320 L512 320 L512 256 L512 192 L512 128 L448 128 L384 128 Z M128 128 L64 128 L0 128 L0 192 L0 256 L64 256 L128 256 L128 192 L128 128 Z M384 320 L320 320 L256 320 L256 384 L256 448 L320 448 L384 448 L384 384 L384 320 Z M384 448 L384 512 L384 576 L384 640 L448 640 L512 640 L512 576 L512 512 L512 448 L448 448 L384 448 Z M64 512 L0 512 L0 576 L0 640 L64 640 L128 640 L128 576 L128 512 L64 512 Z M384 640 L320 640 L256 640 L192 640 L128 640 L128 704 L128 768 L192 768 L256 768 L320 768 L384 768 L384 704 L384 640 Z " />
<glyph glyph-name="four" unicode="4" horiz-adv-x="640" d="M448 0 L384 0 L384 64 L384 128 L320 128 L256 128 L192 128 L128 128 L64 128 L0 128 L0 192 L0 256 L0 320 L0 384 L64 384 L128 384 L128 448 L128 512 L192 512 L256 512 L256 576 L256 640 L320 640 L384 640 L384 704 L384 768 L448 768 L512 768 L512 704 L512 640 L512 576 L512 512 L512 448 L512 384 L512 320 L512 256 L576 256 L576 192 L576 128 L512 128 L512 64 L512 0 L448 0 Z M320 256 L384 256 L384 320 L384 384 L384 448 L384 512 L320 512 L256 512 L256 448 L256 384 L192 384 L128 384 L128 320 L128 256 L192 256 L256 256 L320 256 Z " />
<glyph glyph-name="five" unicode="5" horiz-adv-x="704" d="M448 0 L384 0 L320 0 L256 0 L192 0 L128 0 L64 0 L64 64 L64 128 L128 128 L192 128 L256 128 L320 128 L384 128 L448 128 L512 128 L512 64 L512 0 L448 0 Z M512 128 L512 192 L512 256 L576 256 L640 256 L640 192 L640 128 L576 128 L512 128 Z M64 128 L0 128 L0 192 L0 256 L64 256 L64 192 L64 128 Z M512 256 L448 256 L384 256 L320 256 L256 256 L192 256 L128 256 L128 320 L128 384 L192 384 L256 384 L320 384 L384 384 L448 384 L512 384 L512 320 L512 256 Z M128 384 L64 384 L0 384 L0 448 L0 512 L0 576 L0 640 L0 704 L0 768 L64 768 L128 768 L192 768 L256 768 L320 768 L384 768 L448 768 L512 768 L512 704 L512 640 L448 640 L384 640 L320 640 L256 640 L192 640 L128 640 L128 576 L128 512 L128 448 L128 384 Z " />
<glyph glyph-name="six" unicode="6" horiz-adv-x="640" d="M384 0 L320 0 L256 0 L192 0 L128 0 L128 64 L128 128 L192 128 L256 128 L320 128 L384 128 L448 128 L448 64 L448 0 L384 0 Z M448 128 L448 192 L448 256 L512 256 L576 256 L576 192 L576 128 L512 128 L448 128 Z M128 128 L64 128 L0 128 L0 192 L0 256 L0 320 L0 384 L0 448 L0 512 L64 512 L128 512 L128 448 L128 384 L192 384 L256 384 L320 384 L384 384 L448 384 L448 320 L448 256 L384 256 L320 256 L256 256 L192 256 L128 256 L128 192 L128 128 Z M128 512 L128 576 L128 640 L192 640 L256 640 L256 576 L256 512 L192 512 L128 512 Z M448 640 L384 640 L320 640 L256 640 L256 704 L256 768 L320 768 L384 768 L448 768 L512 768 L512 704 L512 640 L448 640 Z " />
<glyph glyph-name="seven" unicode="7" horiz-adv-x="576" d="M192 0 L128 0 L128 64 L128 128 L128 192 L128 256 L128 320 L128 384 L192 384 L256 384 L256 320 L256 256 L256 192 L256 128 L256 64 L256 0 L192 0 Z M256 384 L256 448 L256 512 L320 512 L384 512 L384 448 L384 384 L320 384 L256 384 Z M384 512 L384 576 L384 640 L320 640 L256 640 L192 640 L128 640 L128 576 L128 512 L64 512 L0 512 L0 576 L0 640 L0 704 L0 768 L64 768 L128 768 L192 768 L256 768 L320 768 L384 768 L448 768 L512 768 L512 704 L512 640 L512 576 L512 512 L448 512 L384 512 Z " />
<glyph glyph-name="eight" unicode="8" horiz-adv-x="576" d="M320 0 L256 0 L192 0 L128 0 L128 64 L128 128 L192 128 L256 128 L320 128 L384 128 L384 64 L384 0 L320 0 Z M384 128 L384 192 L384 256 L384 320 L448 320 L512 320 L512 256 L512 192 L512 128 L448 128 L384 128 Z M128 128 L64 128 L0 128 L0 192 L0 256 L0 320 L64 320 L128 320 L128 256 L128 192 L128 128 Z M384 320 L320 320 L256 320 L192 320 L128 320 L128 384 L128 448 L192 448 L256 448 L320 448 L384 448 L384 384 L384 320 Z M384 448 L384 512 L384 576 L384 640 L448 640 L512 640 L512 576 L512 512 L512 448 L448 448 L384 448 Z M128 448 L64 448 L0 448 L0 512 L0 576 L0 640 L64 640 L128 640 L128 576 L128 512 L128 448 Z M384 640 L320 640 L256 640 L192 640 L128 640 L128 704 L128 768 L192 768 L256 768 L320 768 L384 768 L384 704 L384 640 Z " />
<glyph glyph-name="nine" unicode="9" horiz-adv-x="576" d="M320 0 L256 0 L192 0 L128 0 L128 64 L128 128 L192 128 L256 128 L320 128 L384 128 L384 64 L384 0 L320 0 Z M384 128 L384 192 L384 256 L320 256 L256 256 L192 256 L128 256 L128 320 L128 384 L192 384 L256 384 L320 384 L384 384 L384 448 L384 512 L384 576 L384 640 L448 640 L512 640 L512 576 L512 512 L512 448 L512 384 L512 320 L512 256 L512 192 L512 128 L448 128 L384 128 Z M128 384 L64 384 L0 384 L0 448 L0 512 L0 576 L0 640 L64 640 L128 640 L128 576 L128 512 L128 448 L128 384 Z M384 640 L320 640 L256 640 L192 640 L128 640 L128 704 L128 768 L192 768 L256 768 L320 768 L384 768 L384 704 L384 640 Z " />
<glyph glyph-name="colon" unicode="&#x3a;" horiz-adv-x="256" d="M128 0 L64 0 L64 64 L64 128 L128 128 L192 128 L192 64 L192 0 L128 0 Z M128 448 L64 448 L64 512 L64 576 L128 576 L192 576 L192 512 L192 448 L128 448 Z " />
<glyph glyph-name="semicolon" unicode="&#x3b;" horiz-adv-x="256" d="M64 -128 L64 -64 L128 -64 L128 -128 L64 -128 Z M128 -64 L128 0 L64 0 L64 64 L64 128 L128 128 L192 128 L192 64 L192 0 L192 -64 L128 -64 Z M128 448 L64 448 L64 512 L64 576 L128 576 L192 576 L192 512 L192 448 L128 448 Z " />
<glyph glyph-name="less" unicode="&#x3c;" horiz-adv-x="448" d="M320 128 L256 128 L256 192 L256 256 L320 256 L384 256 L384 192 L384 128 L320 128 Z M256 256 L192 256 L128 256 L128 320 L192 320 L256 320 L256 256 Z M128 320 L64 320 L0 320 L0 384 L0 448 L64 448 L128 448 L128 384 L128 320 Z M192 512 L256 512 L256 448 L192 448 L128 448 L128 512 L192 512 Z M256 512 L256 576 L256 640 L320 640 L384 640 L384 576 L384 512 L320 512 L256 512 Z " />
<glyph glyph-name="equal" unicode="&#x3d;" horiz-adv-x="576" d="M448 192 L384 192 L320 192 L256 192 L192 192 L128 192 L64 192 L0 192 L0 256 L0 320 L64 320 L128 320 L192 320 L256 320 L320 320 L384 320 L448 320 L512 320 L512 256 L512 192 L448 192 Z M448 448 L384 448 L320 448 L256 448 L192 448 L128 448 L64 448 L0 448 L0 512 L0 576 L64 576 L128 576 L192 576 L256 576 L320 576 L384 576 L448 576 L512 576 L512 512 L512 448 L448 448 Z " />
<glyph glyph-name="greater" unicode="&#x3e;" horiz-adv-x="448" d="M64 128 L0 128 L0 192 L0 256 L64 256 L128 256 L128 192 L128 128 L64 128 Z M192 320 L256 320 L256 256 L192 256 L128 256 L128 320 L192 320 Z M256 320 L256 384 L256 448 L320 448 L384 448 L384 384 L384 320 L320 320 L256 320 Z M256 448 L192 448 L128 448 L128 512 L192 512 L256 512 L256 448 Z M128 512 L64 512 L0 512 L0 576 L0 640 L64 640 L128 640 L128 576 L128 512 Z " />
<glyph glyph-name="question" unicode="&#x3f;" horiz-adv-x="576" d="M192 0 L128 0 L128 64 L128 128 L192 128 L256 128 L256 64 L256 0 L192 0 Z M192 192 L128 192 L128 256 L128 320 L192 320 L256 320 L256 256 L256 192 L192 192 Z M256 320 L256 384 L256 448 L320 448 L384 448 L384 384 L384 320 L320 320 L256 320 Z M384 448 L384 512 L384 576 L384 640 L448 640 L512 640 L512 576 L512 512 L512 448 L448 448 L384 448 Z M64 512 L0 512 L0 576 L0 640 L64 640 L128 640 L128 576 L128 512 L64 512 Z M384 640 L320 640 L256 640 L192 640 L128 640 L128 704 L128 768 L192 768 L256 768 L320 768 L384 768 L384 704 L384 640 Z " />
<glyph glyph-name="at" unicode="&#x40;" horiz-adv-x="960" d="M704 -192 L640 -192 L576 -192 L512 -192 L448 -192 L384 -192 L320 -192 L256 -192 L192 -192 L128 -192 L128 -128 L64 -128 L64 -64 L0 -64 L0 0 L0 64 L0 128 L0 192 L0 256 L0 320 L0 384 L0 448 L0 512 L0 576 L0 640 L64 640 L64 704 L128 704 L128 768 L192 768 L256 768 L320 768 L384 768 L448 768 L512 768 L576 768 L640 768 L704 768 L768 768 L768 704 L832 704 L832 640 L896 640 L896 576 L896 512 L896 448 L896 384 L896 320 L896 256 L896 192 L896 128 L896 64 L832 64 L768 64 L768 0 L704 0 L640 0 L576 0 L512 0 L448 0 L384 0 L320 0 L256 0 L256 64 L256 128 L256 192 L256 256 L256 320 L256 384 L320 384 L384 384 L384 448 L384 512 L448 512 L512 512 L576 512 L640 512 L704 512 L704 448 L704 384 L704 320 L704 256 L704 192 L704 128 L768 128 L768 192 L768 256 L768 320 L768 384 L768 448 L768 512 L768 576 L768 640 L704 640 L640 640 L576 640 L512 640 L448 640 L384 640 L320 640 L256 640 L192 640 L128 640 L128 576 L128 512 L128 448 L128 384 L128 320 L128 256 L128 192 L128 128 L128 64 L128 0 L128 -64 L192 -64 L256 -64 L320 -64 L384 -64 L448 -64 L512 -64 L576 -64 L640 -64 L704 -64 L768 -64 L768 0 L832 0 L896 0 L896 -64 L832 -64 L832 -128 L768 -128 L768 -192 L704 -192 Z M512 128 L576 128 L576 192 L576 256 L576 320 L576 384 L512 384 L448 384 L384 384 L384 320 L384 256 L384 192 L384 128 L448 128 L512 128 Z " />
<glyph glyph-name="A" unicode="A" horiz-adv-x="640" d="M512 0 L448 0 L448 64 L448 128 L448 192 L448 256 L448 320 L448 384 L384 384 L320 384 L256 384 L192 384 L128 384 L128 320 L128 256 L128 192 L128 128 L128 64 L128 0 L64 0 L0 0 L0 64 L0 128 L0 192 L0 256 L0 320 L0 384 L0 448 L0 512 L0 576 L0 640 L64 640 L128 640 L128 576 L128 512 L192 512 L256 512 L320 512 L384 512 L448 512 L448 576 L448 640 L512 640 L576 640 L576 576 L576 512 L576 448 L576 384 L576 320 L576 256 L576 192 L576 128 L576 64 L576 0 L512 0 Z M448 640 L384 640 L320 640 L256 640 L192 640 L128 640 L128 704 L128 768 L192 768 L256 768 L320 768 L384 768 L448 768 L448 704 L448 640 Z " />
<glyph glyph-name="B" unicode="B" horiz-adv-x="704" d="M448 0 L384 0 L320 0 L256 0 L192 0 L128 0 L64 0 L0 0 L0 64 L0 128 L0 192 L0 256 L0 320 L0 384 L0 448 L0 512 L0 576 L0 640 L0 704 L0 768 L64 768 L128 768 L192 768 L256 768 L320 768 L384 768 L448 768 L512 768 L512 704 L512 640 L576 640 L640 640 L640 576 L640 512 L640 448 L576 448 L512 448 L512 512 L512 576 L512 640 L448 640 L384 640 L320 640 L256 640 L192 640 L128 640 L128 576 L128 512 L128 448 L192 448 L256 448 L320 448 L384 448 L448 448 L512 448 L512 384 L512 320 L576 320 L640 320 L640 256 L640 192 L640 128 L576 128 L512 128 L512 192 L512 256 L512 320 L448 320 L384 320 L320 320 L256 320 L192 320 L128 320 L128 256 L128 192 L128 128 L192 128 L256 128 L320 128 L384 128 L448 128 L512 128 L512 64 L512 0 L448 0 Z " />
<glyph glyph-name="C" unicode="C" horiz-adv-x="768" d="M576 0 L512 0 L448 0 L384 0 L320 0 L256 0 L192 0 L128 0 L128 64 L128 128 L192 128 L256 128 L320 128 L384 128 L448 128 L512 128 L576 128 L576 192 L576 256 L640 256 L704 256 L704 192 L704 128 L640 128 L640 64 L640 0 L576 0 Z M128 128 L64 128 L0 128 L0 192 L0 256 L0 320 L0 384 L0 448 L0 512 L0 576 L0 640 L64 640 L128 640 L128 576 L128 512 L128 448 L128 384 L128 320 L128 256 L128 192 L128 128 Z M640 512 L576 512 L576 576 L576 640 L512 640 L448 640 L384 640 L320 640 L256 640 L192 640 L128 640 L128 704 L128 768 L192 768 L256 768 L320 768 L384 768 L448 768 L512 768 L576 768 L640 768 L640 704 L640 640 L704 640 L704 576 L704 512 L640 512 Z " />
<glyph glyph-name="D" unicode="D" horiz-adv-x="704" d="M448 0 L384 0 L320 0 L256 0 L192 0 L128 0 L64 0 L0 0 L0 64 L0 128 L0 192 L0 256 L0 320 L0 384 L0 448 L0 512 L0 576 L0 640 L0 704 L0 768 L64 768 L128 768 L192 768 L256 768 L320 768 L384 768 L448 768 L512 768 L512 704 L512 640 L576 640 L640 640 L640 576 L640 512 L640 448 L640 384 L640 320 L640 256 L640 192 L640 128 L576 128 L512 128 L512 192 L512 256 L512 320 L512 384 L512 448 L512 512 L512 576 L512 640 L448 640 L384 640 L320 640 L256 640 L192 640 L128 640 L128 576 L128 512 L128 448 L128 384 L128 320 L128 256 L128 192 L128 128 L192 128 L256 128 L320 128 L384 128 L448 128 L512 128 L512 64 L512 0 L448 0 Z " />
<glyph glyph-name="E" unicode="E" horiz-adv-x="704" d="M576 0 L512 0 L448 0 L384 0 L320 0 L256 0 L192 0 L128 0 L64 0 L0 0 L0 64 L0 128 L0 192 L0 256 L0 320 L0 384 L0 448 L0 512 L0 576 L0 640 L0 704 L0 768 L64 768 L128 768 L192 768 L256 768 L320 768 L384 768 L448 768 L512 768 L576 768 L640 768 L640 704 L640 640 L576 640 L512 640 L448 640 L384 640 L320 640 L256 640 L192 640 L128 640 L128 576 L128 512 L192 512 L256 512 L320 512 L320 448 L320 384 L256 384 L192 384 L128 384 L128 320 L128 256 L128 192 L128 128 L192 128 L256 128 L320 128 L384 128 L448 128 L512 128 L576 128 L640 128 L640 64 L640 0 L576 0 Z " />
<glyph glyph-name="F" unicode="F" horiz-adv-x="640" d="M64 0 L0 0 L0 64 L0 128 L0 192 L0 256 L0 320 L0 384 L0 448 L0 512 L0 576 L0 640 L0 704 L0 768 L64 768 L128 768 L192 768 L256 768 L320 768 L384 768 L448 768 L512 768 L576 768 L576 704 L576 640 L512 640 L448 640 L384 640 L320 640 L256 640 L192 640 L128 640 L128 576 L128 512 L192 512 L256 512 L320 512 L384 512 L384 448 L384 384 L320 384 L256 384 L192 384 L128 384 L128 320 L128 256 L128 192 L128 128 L128 64 L128 0 L64 0 Z " />
<glyph glyph-name="G" unicode="G" horiz-adv-x="768" d="M512 0 L448 0 L384 0 L320 0 L256 0 L192 0 L128 0 L128 64 L128 128 L192 128 L256 128 L320 128 L384 128 L448 128 L512 128 L576 128 L576 64 L576 0 L512 0 Z M576 128 L576 192 L576 256 L576 320 L576 384 L512 384 L448 384 L448 448 L448 512 L512 512 L576 512 L640 512 L704 512 L704 448 L704 384 L704 320 L704 256 L704 192 L704 128 L640 128 L576 128 Z M128 128 L64 128 L0 128 L0 192 L0 256 L0 320 L0 384 L0 448 L0 512 L0 576 L0 640 L64 640 L128 640 L128 576 L128 512 L128 448 L128 384 L128 320 L128 256 L128 192 L128 128 Z M640 640 L576 640 L512 640 L448 640 L384 640 L320 640 L256 640 L192 640 L128 640 L128 704 L128 768 L192 768 L256 768 L320 768 L384 768 L448 768 L512 768 L576 768 L640 768 L704 768 L704 704 L704 640 L640 640 Z " />
<glyph glyph-name="H" unicode="H" horiz-adv-x="704" d="M576 0 L512 0 L512 64 L512 128 L512 192 L512 256 L512 320 L448 320 L384 320 L320 320 L256 320 L192 320 L128 320 L128 256 L128 192 L128 128 L128 64 L128 0 L64 0 L0 0 L0 64 L0 128 L0 192 L0 256 L0 320 L0 384 L0 448 L0 512 L0 576 L0 640 L0 704 L0 768 L64 768 L128 768 L128 704 L128 640 L128 576 L128 512 L128 448 L192 448 L256 448 L320 448 L384 448 L448 448 L512 448 L512 512 L512 576 L512 640 L512 704 L512 768 L576 768 L640 768 L640 704 L640 640 L640 576 L640 512 L640 448 L640 384 L640 320 L640 256 L640 192 L640 128 L640 64 L640 0 L576 0 Z " />
<glyph glyph-name="I" unicode="I" horiz-adv-x="384" d="M256 0 L192 0 L128 0 L64 0 L64 64 L64 128 L128 128 L128 192 L128 256 L128 320 L128 384 L128 448 L128 512 L128 576 L128 640 L64 640 L64 704 L64 768 L128 768 L192 768 L256 768 L320 768 L320 704 L320 640 L256 640 L256 576 L256 512 L256 448 L256 384 L256 320 L256 256 L256 192 L256 128 L320 128 L320 64 L320 0 L256 0 Z " />
<glyph glyph-name="J" unicode="J" horiz-adv-x="512" d="M256 0 L192 0 L128 0 L128 64 L128 128 L192 128 L256 128 L320 128 L320 64 L320 0 L256 0 Z M320 128 L320 192 L320 256 L320 320 L320 384 L320 448 L320 512 L320 576 L320 640 L320 704 L320 768 L384 768 L448 768 L448 704 L448 640 L448 576 L448 512 L448 448 L448 384 L448 320 L448 256 L448 192 L448 128 L384 128 L320 128 Z M128 128 L64 128 L0 128 L0 192 L0 256 L64 256 L128 256 L128 192 L128 128 Z " />
<glyph glyph-name="K" unicode="K" horiz-adv-x="640" d="M512 0 L448 0 L448 64 L448 128 L448 192 L512 192 L576 192 L576 128 L576 64 L576 0 L512 0 Z M64 0 L0 0 L0 64 L0 128 L0 192 L0 256 L0 320 L0 384 L0 448 L0 512 L0 576 L0 640 L0 704 L0 768 L64 768 L128 768 L128 704 L128 640 L128 576 L128 512 L128 448 L192 448 L256 448 L320 448 L320 384 L320 320 L384 320 L448 320 L448 256 L448 192 L384 192 L320 192 L320 256 L320 320 L256 320 L192 320 L128 320 L128 256 L128 192 L128 128 L128 64 L128 0 L64 0 Z M320 448 L320 512 L320 576 L384 576 L448 576 L448 512 L448 448 L384 448 L320 448 Z M448 576 L448 640 L448 704 L512 704 L576 704 L576 640 L576 576 L512 576 L448 576 Z " />
<glyph glyph-name="L" unicode="L" horiz-adv-x="640" d="M512 0 L448 0 L384 0 L320 0 L256 0 L192 0 L128 0 L64 0 L0 0 L0 64 L0 128 L0 192 L0 256 L0 320 L0 384 L0 448 L0 512 L0 576 L0 640 L0 704 L0 768 L64 768 L128 768 L128 704 L128 640 L128 576 L128 512 L128 448 L128 384 L128 320 L128 256 L128 192 L128 128 L192 128 L256 128 L320 128 L384 128 L448 128 L512 128 L576 128 L576 64 L576 0 L512 0 Z " />
<glyph glyph-name="M" unicode="M" horiz-adv-x="704" d="M576 0 L512 0 L512 64 L512 128 L512 192 L512 256 L512 320 L512 384 L512 448 L512 512 L448 512 L384 512 L384 448 L384 384 L320 384 L256 384 L256 448 L256 512 L320 512 L384 512 L384 576 L384 640 L448 640 L512 640 L512 704 L512 768 L576 768 L640 768 L640 704 L640 640 L640 576 L640 512 L640 448 L640 384 L640 320 L640 256 L640 192 L640 128 L640 64 L640 0 L576 0 Z M64 0 L0 0 L0 64 L0 128 L0 192 L0 256 L0 320 L0 384 L0 448 L0 512 L0 576 L0 640 L0 704 L0 768 L64 768 L128 768 L128 704 L128 640 L192 640 L256 640 L256 576 L256 512 L192 512 L128 512 L128 448 L128 384 L128 320 L128 256 L128 192 L128 128 L128 64 L128 0 L64 0 Z " />
<glyph glyph-name="N" unicode="N" horiz-adv-x="704" d="M576 0 L512 0 L512 64 L512 128 L512 192 L512 256 L512 320 L448 320 L384 320 L384 384 L384 448 L448 448 L512 448 L512 512 L512 576 L512 640 L512 704 L512 768 L576 768 L640 768 L640 704 L640 640 L640 576 L640 512 L640 448 L640 384 L640 320 L640 256 L640 192 L640 128 L640 64 L640 0 L576 0 Z M64 0 L0 0 L0 64 L0 128 L0 192 L0 256 L0 320 L0 384 L0 448 L0 512 L0 576 L0 640 L0 704 L0 768 L64 768 L128 768 L128 704 L192 704 L256 704 L256 640 L256 576 L320 576 L384 576 L384 512 L384 448 L320 448 L256 448 L256 512 L256 576 L192 576 L128 576 L128 512 L128 448 L128 384 L128 320 L128 256 L128 192 L128 128 L128 64 L128 0 L64 0 Z " />
<glyph glyph-name="O" unicode="O" horiz-adv-x="832" d="M576 0 L512 0 L448 0 L384 0 L320 0 L256 0 L192 0 L128 0 L128 64 L128 128 L192 128 L256 128 L320 128 L384 128 L448 128 L512 128 L576 128 L640 128 L640 64 L640 0 L576 0 Z M640 128 L640 192 L640 256 L640 320 L640 384 L640 448 L640 512 L640 576 L640 640 L704 640 L768 640 L768 576 L768 512 L768 448 L768 384 L768 320 L768 256 L768 192 L768 128 L704 128 L640 128 Z M128 128 L64 128 L0 128 L0 192 L0 256 L0 320 L0 384 L0 448 L0 512 L0 576 L0 640 L64 640 L128 640 L128 576 L128 512 L128 448 L128 384 L128 320 L128 256 L128 192 L128 128 Z M640 640 L576 640 L512 640 L448 640 L384 640 L320 640 L256 640 L192 640 L128 640 L128 704 L128 768 L192 768 L256 768 L320 768 L384 768 L448 768 L512 768 L576 768 L640 768 L640 704 L640 640 Z " />
<glyph glyph-name="P" unicode="P" horiz-adv-x="704" d="M64 0 L0 0 L0 64 L0 128 L0 192 L0 256 L0 320 L0 384 L0 448 L0 512 L0 576 L0 640 L0 704 L0 768 L64 768 L128 768 L192 768 L256 768 L320 768 L384 768 L448 768 L512 768 L512 704 L512 640 L576 640 L640 640 L640 576 L640 512 L576 512 L512 512 L512 576 L512 640 L448 640 L384 640 L320 640 L256 640 L192 640 L128 640 L128 576 L128 512 L192 512 L256 512 L320 512 L384 512 L448 512 L512 512 L512 448 L512 384 L448 384 L384 384 L320 384 L256 384 L192 384 L128 384 L128 320 L128 256 L128 192 L128 128 L128 64 L128 0 L64 0 Z " />
<glyph glyph-name="Q" unicode="Q" horiz-adv-x="832" d="M704 64 L768 64 L768 0 L704 0 L640 0 L576 0 L512 0 L448 0 L384 0 L320 0 L256 0 L192 0 L128 0 L128 64 L128 128 L192 128 L256 128 L320 128 L384 128 L384 192 L448 192 L512 192 L512 128 L576 128 L640 128 L640 64 L704 64 Z M640 128 L640 192 L640 256 L640 320 L640 384 L640 448 L640 512 L640 576 L640 640 L704 640 L768 640 L768 576 L768 512 L768 448 L768 384 L768 320 L768 256 L768 192 L768 128 L704 128 L640 128 Z M128 128 L64 128 L0 128 L0 192 L0 256 L0 320 L0 384 L0 448 L0 512 L0 576 L0 640 L64 640 L128 640 L128 576 L128 512 L128 448 L128 384 L128 320 L128 256 L128 192 L128 128 Z M640 640 L576 640 L512 640 L448 640 L384 640 L320 640 L256 640 L192 640 L128 640 L128 704 L128 768 L192 768 L256 768 L320 768 L384 768 L448 768 L512 768 L576 768 L640 768 L640 704 L640 640 Z " />
<glyph glyph-name="R" unicode="R" horiz-adv-x="832" d="M704 0 L640 0 L640 64 L640 128 L704 128 L768 128 L768 64 L768 0 L704 0 Z M64 0 L0 0 L0 64 L0 128 L0 192 L0 256 L0 320 L0 384 L0 448 L0 512 L0 576 L0 640 L0 704 L0 768 L64 768 L128 768 L192 768 L256 768 L320 768 L384 768 L448 768 L512 768 L576 768 L576 704 L576 640 L640 640 L704 640 L704 576 L704 512 L640 512 L576 512 L576 576 L576 640 L512 640 L448 640 L384 640 L320 640 L256 640 L192 640 L128 640 L128 576 L128 512 L192 512 L256 512 L320 512 L384 512 L448 512 L512 512 L576 512 L576 448 L576 384 L512 384 L512 320 L512 256 L576 256 L640 256 L640 192 L640 128 L576 128 L512 128 L512 192 L512 256 L448 256 L384 256 L384 320 L384 384 L320 384 L256 384 L192 384 L128 384 L128 320 L128 256 L128 192 L128 128 L128 64 L128 0 L64 0 Z " />
<glyph glyph-name="S" unicode="S" horiz-adv-x="640" d="M384 0 L320 0 L256 0 L192 0 L128 0 L64 0 L0 0 L0 64 L0 128 L64 128 L128 128 L192 128 L256 128 L320 128 L384 128 L448 128 L448 64 L448 0 L384 0 Z M448 128 L448 192 L448 256 L448 320 L448 384 L512 384 L576 384 L576 320 L576 256 L576 192 L576 128 L512 128 L448 128 Z M448 384 L384 384 L320 384 L256 384 L192 384 L128 384 L128 448 L128 512 L192 512 L256 512 L320 512 L384 512 L448 512 L448 448 L448 384 Z M128 512 L64 512 L0 512 L0 576 L0 640 L64 640 L128 640 L128 576 L128 512 Z M512 640 L448 640 L384 640 L320 640 L256 640 L192 640 L128 640 L128 704 L128 768 L192 768 L256 768 L320 768 L384 768 L448 768 L512 768 L576 768 L576 704 L576 640 L512 640 Z " />
<glyph glyph-name="T" unicode="T" horiz-adv-x="704" d="M320 0 L256 0 L256 64 L256 128 L256 192 L256 256 L256 320 L256 384 L256 448 L256 512 L256 576 L256 640 L192 640 L128 640 L64 640 L0 640 L0 704 L0 768 L64 768 L128 768 L192 768 L256 768 L320 768 L384 768 L448 768 L512 768 L576 768 L640 768 L640 704 L640 640 L576 640 L512 640 L448 640 L384 640 L384 576 L384 512 L384 448 L384 384 L384 320 L384 256 L384 192 L384 128 L384 64 L384 0 L320 0 Z " />
<glyph glyph-name="U" unicode="U" horiz-adv-x="704" d="M448 0 L384 0 L320 0 L256 0 L192 0 L192 64 L192 128 L256 128 L320 128 L384 128 L448 128 L512 128 L512 64 L512 0 L448 0 Z M512 128 L512 192 L512 256 L512 320 L512 384 L512 448 L512 512 L512 576 L512 640 L512 704 L512 768 L576 768 L640 768 L640 704 L640 640 L640 576 L640 512 L640 448 L640 384 L640 320 L640 256 L640 192 L640 128 L576 128 L512 128 Z M192 128 L128 128 L64 128 L64 192 L64 256 L64 320 L64 384 L64 448 L64 512 L64 576 L64 640 L64 704 L64 768 L128 768 L192 768 L192 704 L192 640 L192 576 L192 512 L192 448 L192 384 L192 320 L192 256 L192 192 L192 128 Z " />
<glyph glyph-name="V" unicode="V" horiz-adv-x="704" d="M320 0 L256 0 L256 64 L256 128 L256 192 L256 256 L320 256 L384 256 L384 192 L384 128 L384 64 L384 0 L320 0 Z M384 256 L384 320 L384 384 L384 448 L448 448 L512 448 L512 384 L512 320 L512 256 L448 256 L384 256 Z M256 256 L192 256 L128 256 L128 320 L128 384 L128 448 L192 448 L256 448 L256 384 L256 320 L256 256 Z M512 448 L512 512 L512 576 L512 640 L512 704 L512 768 L576 768 L640 768 L640 704 L640 640 L640 576 L640 512 L640 448 L576 448 L512 448 Z M128 448 L64 448 L0 448 L0 512 L0 576 L0 640 L0 704 L0 768 L64 768 L128 768 L128 704 L128 640 L128 576 L128 512 L128 448 Z " />
<glyph glyph-name="W" unicode="W" horiz-adv-x="704" d="M576 0 L512 0 L512 64 L512 128 L448 128 L384 128 L384 192 L384 256 L448 256 L512 256 L512 320 L512 384 L512 448 L512 512 L512 576 L512 640 L512 704 L512 768 L576 768 L640 768 L640 704 L640 640 L640 576 L640 512 L640 448 L640 384 L640 320 L640 256 L640 192 L640 128 L640 64 L640 0 L576 0 Z M64 0 L0 0 L0 64 L0 128 L0 192 L0 256 L0 320 L0 384 L0 448 L0 512 L0 576 L0 640 L0 704 L0 768 L64 768 L128 768 L128 704 L128 640 L128 576 L128 512 L128 448 L128 384 L128 320 L128 256 L192 256 L256 256 L256 192 L256 128 L192 128 L128 128 L128 64 L128 0 L64 0 Z M384 256 L320 256 L256 256 L256 320 L256 384 L320 384 L384 384 L384 320 L384 256 Z " />
<glyph glyph-name="X" unicode="X" horiz-adv-x="704" d="M576 0 L512 0 L512 64 L512 128 L512 192 L512 256 L576 256 L640 256 L640 192 L640 128 L640 64 L640 0 L576 0 Z M64 0 L0 0 L0 64 L0 128 L0 192 L0 256 L64 256 L128 256 L128 192 L128 128 L128 64 L128 0 L64 0 Z M512 256 L448 256 L384 256 L384 320 L384 384 L448 384 L512 384 L512 320 L512 256 Z M128 256 L128 320 L128 384 L192 384 L256 384 L256 320 L256 256 L192 256 L128 256 Z M384 384 L320 384 L256 384 L256 448 L256 512 L320 512 L384 512 L384 448 L384 384 Z M384 512 L384 576 L384 640 L448 640 L512 640 L512 576 L512 512 L448 512 L384 512 Z M256 512 L192 512 L128 512 L128 576 L128 640 L192 640 L256 640 L256 576 L256 512 Z M512 640 L512 704 L512 768 L576 768 L640 768 L640 704 L640 640 L576 640 L512 640 Z M128 640 L64 640 L0 640 L0 704 L0 768 L64 768 L128 768 L128 704 L128 640 Z " />
<glyph glyph-name="Y" unicode="Y" horiz-adv-x="704" d="M320 0 L256 0 L256 64 L256 128 L256 192 L256 256 L256 320 L256 384 L256 448 L256 512 L320 512 L384 512 L384 448 L384 384 L384 320 L384 256 L384 192 L384 128 L384 64 L384 0 L320 0 Z M384 512 L384 576 L384 640 L448 640 L512 640 L512 576 L512 512 L448 512 L384 512 Z M256 512 L192 512 L128 512 L128 576 L128 640 L192 640 L256 640 L256 576 L256 512 Z M512 640 L512 704 L512 768 L576 768 L640 768 L640 704 L640 640 L576 640 L512 640 Z M128 640 L64 640 L0 640 L0 704 L0 768 L64 768 L128 768 L128 704 L128 640 Z " />
<glyph glyph-name="Z" unicode="Z" horiz-adv-x="704" d="M576 0 L512 0 L448 0 L384 0 L320 0 L256 0 L192 0 L128 0 L64 0 L0 0 L0 64 L0 128 L64 128 L128 128 L128 192 L128 256 L192 256 L256 256 L256 192 L256 128 L320 128 L384 128 L448 128 L512 128 L576 128 L640 128 L640 64 L640 0 L576 0 Z M256 256 L256 320 L256 384 L320 384 L384 384 L384 320 L384 256 L320 256 L256 256 Z M384 384 L384 448 L384 512 L448 512 L512 512 L512 448 L512 384 L448 384 L384 384 Z M512 512 L512 576 L512 640 L448 640 L384 640 L320 640 L256 640 L192 640 L128 640 L64 640 L0 640 L0 704 L0 768 L64 768 L128 768 L192 768 L256 768 L320 768 L384 768 L448 768 L512 768 L576 768 L640 768 L640 704 L640 640 L640 576 L640 512 L576 512 L512 512 Z " />
<glyph glyph-name="bracketleft" unicode="&#x5b;" horiz-adv-x="320" d="M192 -192 L128 -192 L64 -192 L0 -192 L0 -128 L0 -64 L0 0 L0 64 L0 128 L0 192 L0 256 L0 320 L0 384 L0 448 L0 512 L0 576 L0 640 L0 704 L0 768 L64 768 L128 768 L192 768 L256 768 L256 704 L256 640 L192 640 L128 640 L128 576 L128 512 L128 448 L128 384 L128 320 L128 256 L128 192 L128 128 L128 64 L128 0 L128 -64 L192 -64 L256 -64 L256 -128 L256 -192 L192 -192 Z " />
<glyph glyph-name="backslash" unicode="&#x5c;" horiz-adv-x="576" d="M448 0 L448 64 L512 64 L512 0 L448 0 Z M448 64 L384 64 L384 128 L384 192 L448 192 L448 128 L448 64 Z M384 192 L320 192 L320 256 L384 256 L384 192 Z M320 256 L256 256 L256 320 L256 384 L320 384 L320 320 L320 256 Z M256 384 L192 384 L192 448 L256 448 L256 384 Z M192 448 L128 448 L128 512 L128 576 L192 576 L192 512 L192 448 Z M128 576 L64 576 L64 640 L128 640 L128 576 Z M64 640 L0 640 L0 704 L0 768 L64 768 L64 704 L64 640 Z " />
<glyph glyph-name="bracketright" unicode="&#x5d;" horiz-adv-x="320" d="M192 -192 L128 -192 L64 -192 L0 -192 L0 -128 L0 -64 L64 -64 L128 -64 L128 0 L128 64 L128 128 L128 192 L128 256 L128 320 L128 384 L128 448 L128 512 L128 576 L128 640 L64 640 L0 640 L0 704 L0 768 L64 768 L128 768 L192 768 L256 768 L256 704 L256 640 L256 576 L256 512 L256 448 L256 384 L256 320 L256 256 L256 192 L256 128 L256 64 L256 0 L256 -64 L256 -128 L256 -192 L192 -192 Z " />
<glyph glyph-name="asciicircum" unicode="&#x5e;" horiz-adv-x="576" d="M448 384 L448 448 L448 512 L512 512 L512 448 L512 384 L448 384 Z M0 384 L0 448 L0 512 L64 512 L64 448 L64 384 L0 384 Z M448 512 L384 512 L320 512 L320 576 L320 640 L384 640 L448 640 L448 576 L448 512 Z M64 512 L64 576 L64 640 L128 640 L192 640 L192 576 L192 512 L128 512 L64 512 Z M320 640 L256 640 L192 640 L192 704 L192 768 L256 768 L320 768 L320 704 L320 640 Z " />
<glyph glyph-name="underscore" unicode="&#x5f;" horiz-adv-x="640" d="M512 64 L576 64 L576 0 L512 0 L448 0 L384 0 L320 0 L256 0 L192 0 L128 0 L64 0 L0 0 L0 64 L64 64 L128 64 L192 64 L256 64 L320 64 L384 64 L448 64 L512 64 Z " />
<glyph glyph-name="grave" unicode="&#x60;" horiz-adv-x="320" d="M192 576 L192 640 L256 640 L256 576 L192 576 Z M192 640 L128 640 L128 704 L192 704 L192 640 Z M128 704 L64 704 L64 768 L128 768 L128 704 Z " />
<glyph glyph-name="a" unicode="a" horiz-adv-x="640" d="M512 0 L448 0 L384 0 L320 0 L256 0 L192 0 L128 0 L128 64 L128 128 L64 128 L0 128 L0 192 L0 256 L64 256 L128 256 L128 320 L128 384 L192 384 L256 384 L320 384 L384 384 L448 384 L448 448 L512 448 L576 448 L576 384 L576 320 L576 256 L576 192 L576 128 L576 64 L576 0 L512 0 Z M384 128 L448 128 L448 192 L448 256 L384 256 L320 256 L256 256 L192 256 L128 256 L128 192 L128 128 L192 128 L256 128 L320 128 L384 128 Z M448 448 L384 448 L320 448 L256 448 L192 448 L128 448 L64 448 L0 448 L0 512 L0 576 L64 576 L128 576 L192 576 L256 576 L320 576 L384 576 L448 576 L448 512 L448 448 Z " />
<glyph glyph-name="b" unicode="b" horiz-adv-x="704" d="M448 0 L384 0 L320 0 L256 0 L192 0 L128 0 L64 0 L0 0 L0 64 L0 128 L0 192 L0 256 L0 320 L0 384 L0 448 L0 512 L0 576 L0 640 L0 704 L0 768 L64 768 L128 768 L128 704 L128 640 L128 576 L128 512 L128 448 L128 384 L192 384 L256 384 L256 320 L256 256 L192 256 L128 256 L128 192 L128 128 L192 128 L256 128 L320 128 L384 128 L448 128 L512 128 L512 64 L512 0 L448 0 Z M512 128 L512 192 L512 256 L512 320 L512 384 L576 384 L640 384 L640 320 L640 256 L640 192 L640 128 L576 128 L512 128 Z M512 384 L448 384 L384 384 L320 384 L256 384 L256 448 L256 512 L320 512 L384 512 L448 512 L512 512 L512 448 L512 384 Z " />
<glyph glyph-name="c" unicode="c" horiz-adv-x="640" d="M384 0 L320 0 L256 0 L192 0 L128 0 L128 64 L128 128 L192 128 L256 128 L320 128 L384 128 L448 128 L448 64 L448 0 L384 0 Z M448 128 L448 192 L448 256 L512 256 L576 256 L576 192 L576 128 L512 128 L448 128 Z M128 128 L64 128 L0 128 L0 192 L0 256 L0 320 L0 384 L0 448 L64 448 L128 448 L128 384 L128 320 L128 256 L128 192 L128 128 Z M512 320 L448 320 L448 384 L448 448 L512 448 L576 448 L576 384 L576 320 L512 320 Z M448 448 L384 448 L320 448 L256 448 L192 448 L128 448 L128 512 L128 576 L192 576 L256 576 L320 576 L384 576 L448 576 L448 512 L448 448 Z " />
<glyph glyph-name="d" unicode="d" horiz-adv-x="576" d="M448 0 L384 0 L320 0 L256 0 L192 0 L128 0 L64 0 L0 0 L0 64 L0 128 L0 192 L0 256 L0 320 L0 384 L0 448 L64 448 L128 448 L128 512 L128 576 L192 576 L256 576 L320 576 L384 576 L384 640 L384 704 L384 768 L448 768 L512 768 L512 704 L512 640 L512 576 L512 512 L512 448 L512 384 L512 320 L512 256 L512 192 L512 128 L512 64 L512 0 L448 0 Z M320 128 L384 128 L384 192 L384 256 L384 320 L384 384 L384 448 L320 448 L256 448 L192 448 L128 448 L128 384 L128 320 L128 256 L128 192 L128 128 L192 128 L256 128 L320 128 Z " />
<glyph glyph-name="e" unicode="e" horiz-adv-x="576" d="M448 0 L384 0 L320 0 L256 0 L192 0 L128 0 L128 64 L128 128 L192 128 L256 128 L320 128 L384 128 L384 192 L448 192 L512 192 L512 128 L512 64 L512 0 L448 0 Z M128 128 L64 128 L0 128 L0 192 L0 256 L0 320 L0 384 L0 448 L64 448 L128 448 L128 512 L128 576 L192 576 L256 576 L320 576 L384 576 L448 576 L512 576 L512 512 L512 448 L512 384 L512 320 L448 320 L384 320 L384 256 L320 256 L256 256 L192 256 L128 256 L128 192 L128 128 Z M320 384 L384 384 L384 448 L320 448 L256 448 L192 448 L128 448 L128 384 L192 384 L256 384 L320 384 Z " />
<glyph glyph-name="f" unicode="f" horiz-adv-x="576" d="M192 0 L128 0 L128 64 L128 128 L128 192 L128 256 L128 320 L128 384 L128 448 L64 448 L0 448 L0 512 L0 576 L64 576 L128 576 L128 640 L128 704 L128 768 L192 768 L256 768 L320 768 L384 768 L448 768 L448 704 L448 640 L384 640 L320 640 L256 640 L256 576 L320 576 L384 576 L448 576 L512 576 L512 512 L512 448 L448 448 L384 448 L320 448 L256 448 L256 384 L256 320 L256 256 L256 192 L256 128 L256 64 L256 0 L192 0 Z " />
<glyph glyph-name="g" unicode="g" horiz-adv-x="576" d="M320 -256 L256 -256 L192 -256 L128 -256 L128 -192 L128 -128 L192 -128 L256 -128 L320 -128 L384 -128 L384 -192 L384 -256 L320 -256 Z M384 -128 L384 -64 L384 0 L384 64 L384 128 L384 192 L320 192 L256 192 L192 192 L128 192 L128 256 L128 320 L64 320 L0 320 L0 384 L0 448 L64 448 L128 448 L128 512 L128 576 L192 576 L256 576 L320 576 L384 576 L448 576 L512 576 L512 512 L512 448 L512 384 L512 320 L512 256 L512 192 L512 128 L512 64 L512 0 L512 -64 L512 -128 L448 -128 L384 -128 Z M128 -128 L64 -128 L0 -128 L0 -64 L0 0 L64 0 L128 0 L128 -64 L128 -128 Z M320 320 L384 320 L384 384 L384 448 L320 448 L256 448 L192 448 L128 448 L128 384 L128 320 L192 320 L256 320 L320 320 Z " />
<glyph glyph-name="h" unicode="h" horiz-adv-x="576" d="M448 0 L384 0 L384 64 L384 128 L384 192 L384 256 L384 320 L384 384 L448 384 L512 384 L512 320 L512 256 L512 192 L512 128 L512 64 L512 0 L448 0 Z M64 0 L0 0 L0 64 L0 128 L0 192 L0 256 L0 320 L0 384 L0 448 L0 512 L0 576 L0 640 L0 704 L0 768 L64 768 L128 768 L128 704 L128 640 L128 576 L128 512 L128 448 L128 384 L192 384 L256 384 L256 320 L256 256 L192 256 L128 256 L128 192 L128 128 L128 64 L128 0 L64 0 Z M384 384 L320 384 L256 384 L256 448 L256 512 L320 512 L384 512 L384 448 L384 384 Z " />
<glyph glyph-name="i" unicode="i" horiz-adv-x="192" d="M64 0 L0 0 L0 64 L0 128 L0 192 L0 256 L0 320 L0 384 L0 448 L0 512 L0 576 L64 576 L128 576 L128 512 L128 448 L128 384 L128 320 L128 256 L128 192 L128 128 L128 64 L128 0 L64 0 Z M64 640 L0 640 L0 704 L0 768 L64 768 L128 768 L128 704 L128 640 L64 640 Z " />
<glyph glyph-name="j" unicode="j" horiz-adv-x="512" d="M256 -128 L192 -128 L128 -128 L128 -64 L128 0 L192 0 L256 0 L320 0 L320 -64 L320 -128 L256 -128 Z M320 0 L320 64 L320 128 L320 192 L320 256 L320 320 L320 384 L320 448 L384 448 L448 448 L448 384 L448 320 L448 256 L448 192 L448 128 L448 64 L448 0 L384 0 L320 0 Z M128 0 L64 0 L0 0 L0 64 L0 128 L64 128 L128 128 L128 64 L128 0 Z M384 512 L320 512 L320 576 L320 640 L384 640 L448 640 L448 576 L448 512 L384 512 Z " />
<glyph glyph-name="k" unicode="k" horiz-adv-x="576" d="M448 0 L384 0 L384 64 L384 128 L448 128 L512 128 L512 64 L512 0 L448 0 Z M64 0 L0 0 L0 64 L0 128 L0 192 L0 256 L0 320 L0 384 L0 448 L0 512 L0 576 L0 640 L0 704 L0 768 L64 768 L128 768 L128 704 L128 640 L128 576 L128 512 L128 448 L128 384 L192 384 L256 384 L256 320 L256 256 L320 256 L384 256 L384 192 L384 128 L320 128 L256 128 L256 192 L256 256 L192 256 L128 256 L128 192 L128 128 L128 64 L128 0 L64 0 Z M256 384 L256 448 L256 512 L320 512 L384 512 L384 448 L384 384 L320 384 L256 384 Z M384 512 L384 576 L384 640 L448 640 L512 640 L512 576 L512 512 L448 512 L384 512 Z " />
<glyph glyph-name="l" unicode="l" horiz-adv-x="192" d="M64 0 L0 0 L0 64 L0 128 L0 192 L0 256 L0 320 L0 384 L0 448 L0 512 L0 576 L0 640 L0 704 L0 768 L64 768 L128 768 L128 704 L128 640 L128 576 L128 512 L128 448 L128 384 L128 320 L128 256 L128 192 L128 128 L128 64 L128 0 L64 0 Z " />
<glyph glyph-name="m" unicode="m" horiz-adv-x="960" d="M832 0 L768 0 L768 64 L768 128 L768 192 L768 256 L768 320 L768 384 L768 448 L832 448 L896 448 L896 384 L896 320 L896 256 L896 192 L896 128 L896 64 L896 0 L832 0 Z M448 0 L384 0 L384 64 L384 128 L384 192 L384 256 L384 320 L384 384 L384 448 L448 448 L512 448 L512 384 L512 320 L512 256 L512 192 L512 128 L512 64 L512 0 L448 0 Z M64 0 L0 0 L0 64 L0 128 L0 192 L0 256 L0 320 L0 384 L0 448 L0 512 L0 576 L64 576 L128 576 L192 576 L256 576 L320 576 L384 576 L384 512 L384 448 L320 448 L256 448 L192 448 L128 448 L128 384 L128 320 L128 256 L128 192 L128 128 L128 64 L128 0 L64 0 Z M768 448 L704 448 L640 448 L576 448 L512 448 L512 512 L512 576 L576 576 L640 576 L704 576 L768 576 L768 512 L768 448 Z " />
<glyph glyph-name="n" unicode="n" horiz-adv-x="640" d="M512 0 L448 0 L448 64 L448 128 L448 192 L448 256 L448 320 L448 384 L448 448 L512 448 L576 448 L576 384 L576 320 L576 256 L576 192 L576 128 L576 64 L576 0 L512 0 Z M64 0 L0 0 L0 64 L0 128 L0 192 L0 256 L0 320 L0 384 L0 448 L0 512 L0 576 L64 576 L128 576 L192 576 L256 576 L320 576 L384 576 L448 576 L448 512 L448 448 L384 448 L320 448 L256 448 L192 448 L128 448 L128 384 L128 320 L128 256 L128 192 L128 128 L128 64 L128 0 L64 0 Z " />
<glyph glyph-name="o" unicode="o" horiz-adv-x="576" d="M320 0 L256 0 L192 0 L128 0 L128 64 L128 128 L192 128 L256 128 L320 128 L384 128 L384 64 L384 0 L320 0 Z M384 128 L384 192 L384 256 L384 320 L384 384 L384 448 L448 448 L512 448 L512 384 L512 320 L512 256 L512 192 L512 128 L448 128 L384 128 Z M128 128 L64 128 L0 128 L0 192 L0 256 L0 320 L0 384 L0 448 L64 448 L128 448 L128 384 L128 320 L128 256 L128 192 L128 128 Z M384 448 L320 448 L256 448 L192 448 L128 448 L128 512 L128 576 L192 576 L256 576 L320 576 L384 576 L384 512 L384 448 Z " />
<glyph glyph-name="p" unicode="p" horiz-adv-x="640" d="M64 -192 L0 -192 L0 -128 L0 -64 L0 0 L0 64 L0 128 L0 192 L0 256 L0 320 L0 384 L0 448 L0 512 L0 576 L64 576 L128 576 L128 512 L128 448 L192 448 L256 448 L256 384 L256 320 L192 320 L128 320 L128 256 L128 192 L192 192 L256 192 L320 192 L384 192 L448 192 L448 128 L448 64 L384 64 L320 64 L256 64 L192 64 L128 64 L128 0 L128 -64 L128 -128 L128 -192 L64 -192 Z M448 192 L448 256 L448 320 L448 384 L448 448 L512 448 L576 448 L576 384 L576 320 L576 256 L576 192 L512 192 L448 192 Z M448 448 L384 448 L320 448 L256 448 L256 512 L256 576 L320 576 L384 576 L448 576 L448 512 L448 448 Z " />
<glyph glyph-name="q" unicode="q" horiz-adv-x="576" d="M448 -192 L384 -192 L384 -128 L384 -64 L384 0 L320 0 L256 0 L192 0 L128 0 L128 64 L128 128 L64 128 L0 128 L0 192 L0 256 L0 320 L0 384 L0 448 L64 448 L128 448 L128 512 L128 576 L192 576 L256 576 L320 576 L320 512 L384 512 L384 576 L448 576 L512 576 L512 512 L512 448 L512 384 L512 320 L512 256 L512 192 L512 128 L512 64 L512 0 L512 -64 L512 -128 L512 -192 L448 -192 Z M320 128 L384 128 L384 192 L384 256 L384 320 L384 384 L320 384 L320 448 L256 448 L192 448 L128 448 L128 384 L128 320 L128 256 L128 192 L128 128 L192 128 L256 128 L320 128 Z " />
<glyph glyph-name="r" unicode="r" horiz-adv-x="512" d="M384 384 L384 448 L320 448 L256 448 L192 448 L192 384 L128 384 L128 320 L128 256 L128 192 L128 128 L128 64 L128 0 L64 0 L0 0 L0 64 L0 128 L0 192 L0 256 L0 320 L0 384 L0 448 L0 512 L0 576 L64 576 L128 576 L128 512 L192 512 L192 576 L256 576 L320 576 L384 576 L384 512 L448 512 L448 448 L448 384 L384 384 Z " />
<glyph glyph-name="s" unicode="s" horiz-adv-x="512" d="M256 0 L192 0 L128 0 L64 0 L0 0 L0 64 L0 128 L64 128 L128 128 L192 128 L256 128 L320 128 L320 64 L320 0 L256 0 Z M320 128 L320 192 L320 256 L384 256 L448 256 L448 192 L448 128 L384 128 L320 128 Z M320 256 L256 256 L192 256 L128 256 L128 320 L128 384 L192 384 L256 384 L320 384 L320 320 L320 256 Z M128 384 L64 384 L0 384 L0 448 L0 512 L64 512 L128 512 L128 448 L128 384 Z M384 512 L320 512 L256 512 L192 512 L128 512 L128 576 L128 640 L192 640 L256 640 L320 640 L384 640 L448 640 L448 576 L448 512 L384 512 Z " />
<glyph glyph-name="t" unicode="t" horiz-adv-x="384" d="M256 0 L192 0 L192 64 L192 128 L256 128 L320 128 L320 64 L320 0 L256 0 Z M192 128 L128 128 L64 128 L64 192 L64 256 L64 320 L64 384 L64 448 L0 448 L0 512 L0 576 L64 576 L64 640 L64 704 L128 704 L192 704 L192 640 L192 576 L256 576 L256 512 L256 448 L192 448 L192 384 L192 320 L192 256 L192 192 L192 128 Z " />
<glyph glyph-name="u" unicode="u" horiz-adv-x="576" d="M448 0 L384 0 L320 0 L256 0 L192 0 L128 0 L128 64 L128 128 L192 128 L256 128 L320 128 L384 128 L384 192 L384 256 L384 320 L384 384 L384 448 L384 512 L384 576 L448 576 L512 576 L512 512 L512 448 L512 384 L512 320 L512 256 L512 192 L512 128 L512 64 L512 0 L448 0 Z M128 128 L64 128 L0 128 L0 192 L0 256 L0 320 L0 384 L0 448 L0 512 L0 576 L64 576 L128 576 L128 512 L128 448 L128 384 L128 320 L128 256 L128 192 L128 128 Z " />
<glyph glyph-name="v" unicode="v" horiz-adv-x="704" d="M320 0 L256 0 L256 64 L256 128 L320 128 L384 128 L384 64 L384 0 L320 0 Z M384 128 L384 192 L384 256 L448 256 L512 256 L512 192 L512 128 L448 128 L384 128 Z M256 128 L192 128 L128 128 L128 192 L128 256 L192 256 L256 256 L256 192 L256 128 Z M512 256 L512 320 L512 384 L512 448 L576 448 L640 448 L640 384 L640 320 L640 256 L576 256 L512 256 Z M128 256 L64 256 L0 256 L0 320 L0 384 L0 448 L64 448 L128 448 L128 384 L128 320 L128 256 Z " />
<glyph glyph-name="w" unicode="w" horiz-adv-x="768" d="M640 0 L576 0 L512 0 L448 0 L384 0 L320 0 L256 0 L192 0 L128 0 L128 64 L128 128 L192 128 L256 128 L320 128 L320 192 L320 256 L320 320 L384 320 L448 320 L448 256 L448 192 L448 128 L512 128 L576 128 L576 192 L576 256 L576 320 L576 384 L576 448 L576 512 L640 512 L704 512 L704 448 L704 384 L704 320 L704 256 L704 192 L704 128 L704 64 L704 0 L640 0 Z M128 128 L64 128 L0 128 L0 192 L0 256 L0 320 L0 384 L0 448 L0 512 L64 512 L128 512 L128 448 L128 384 L128 320 L128 256 L128 192 L128 128 Z " />
<glyph glyph-name="x" unicode="x" horiz-adv-x="704" d="M576 0 L512 0 L512 64 L512 128 L576 128 L640 128 L640 64 L640 0 L576 0 Z M64 0 L0 0 L0 64 L0 128 L64 128 L128 128 L128 64 L128 0 L64 0 Z M512 128 L448 128 L384 128 L384 192 L384 256 L448 256 L512 256 L512 192 L512 128 Z M128 128 L128 192 L128 256 L192 256 L256 256 L256 192 L256 128 L192 128 L128 128 Z M384 256 L320 256 L256 256 L256 320 L256 384 L320 384 L384 384 L384 320 L384 256 Z M384 384 L384 448 L384 512 L448 512 L512 512 L512 448 L512 384 L448 384 L384 384 Z M256 384 L192 384 L128 384 L128 448 L128 512 L192 512 L256 512 L256 448 L256 384 Z M512 512 L512 576 L512 640 L576 640 L640 640 L640 576 L640 512 L576 512 L512 512 Z M128 512 L64 512 L0 512 L0 576 L0 640 L64 640 L128 640 L128 576 L128 512 Z " />
<glyph glyph-name="y" unicode="y" horiz-adv-x="576" d="M320 -128 L256 -128 L192 -128 L128 -128 L64 -128 L0 -128 L0 -64 L0 0 L64 0 L128 0 L192 0 L256 0 L320 0 L384 0 L384 -64 L384 -128 L320 -128 Z M384 0 L384 64 L384 128 L320 128 L256 128 L192 128 L128 128 L128 192 L128 256 L192 256 L256 256 L320 256 L384 256 L384 320 L384 384 L384 448 L384 512 L384 576 L448 576 L512 576 L512 512 L512 448 L512 384 L512 320 L512 256 L512 192 L512 128 L512 64 L512 0 L448 0 L384 0 Z M128 256 L64 256 L0 256 L0 320 L0 384 L0 448 L0 512 L0 576 L64 576 L128 576 L128 512 L128 448 L128 384 L128 320 L128 256 Z " />
<glyph glyph-name="z" unicode="z" horiz-adv-x="576" d="M448 0 L384 0 L320 0 L256 0 L192 0 L128 0 L64 0 L0 0 L0 64 L0 128 L64 128 L64 192 L64 256 L128 256 L192 256 L192 192 L192 128 L256 128 L320 128 L384 128 L448 128 L512 128 L512 64 L512 0 L448 0 Z M192 256 L192 320 L192 384 L256 384 L320 384 L320 320 L320 256 L256 256 L192 256 Z M320 384 L320 448 L320 512 L256 512 L192 512 L128 512 L64 512 L0 512 L0 576 L0 640 L64 640 L128 640 L192 640 L256 640 L320 640 L384 640 L448 640 L512 640 L512 576 L512 512 L448 512 L448 448 L448 384 L384 384 L320 384 Z " />
<glyph glyph-name="braceleft" unicode="&#x7b;" horiz-adv-x="384" d="M256 -256 L192 -256 L192 -192 L192 -128 L256 -128 L320 -128 L320 -192 L320 -256 L256 -256 Z M192 -128 L128 -128 L64 -128 L64 -64 L64 0 L64 64 L64 128 L64 192 L64 256 L0 256 L0 320 L64 320 L64 384 L64 448 L64 512 L64 576 L64 640 L128 640 L192 640 L192 576 L192 512 L192 448 L192 384 L192 320 L128 320 L128 256 L192 256 L192 192 L192 128 L192 64 L192 0 L192 -64 L192 -128 Z M192 640 L192 704 L192 768 L256 768 L320 768 L320 704 L320 640 L256 640 L192 640 Z " />
<glyph glyph-name="bar" unicode="&#x7c;" horiz-adv-x="192" d="M64 -256 L0 -256 L0 -192 L0 -128 L0 -64 L0 0 L0 64 L0 128 L0 192 L0 256 L0 320 L0 384 L0 448 L0 512 L0 576 L0 640 L0 704 L0 768 L64 768 L128 768 L128 704 L128 640 L128 576 L128 512 L128 448 L128 384 L128 320 L128 256 L128 192 L128 128 L128 64 L128 0 L128 -64 L128 -128 L128 -192 L128 -256 L64 -256 Z " />
<glyph glyph-name="braceright" unicode="&#x7d;" horiz-adv-x="384" d="M64 -256 L0 -256 L0 -192 L0 -128 L64 -128 L128 -128 L128 -192 L128 -256 L64 -256 Z M128 -128 L128 -64 L128 0 L128 64 L128 128 L128 192 L128 256 L192 256 L192 320 L128 320 L128 384 L128 448 L128 512 L128 576 L128 640 L192 640 L256 640 L256 576 L256 512 L256 448 L256 384 L256 320 L320 320 L320 256 L256 256 L256 192 L256 128 L256 64 L256 0 L256 -64 L256 -128 L192 -128 L128 -128 Z M128 640 L64 640 L0 640 L0 704 L0 768 L64 768 L128 768 L128 704 L128 640 Z " />
<glyph glyph-name="asciitilde" unicode="&#x7e;" horiz-adv-x="704" d="M448 384 L512 384 L512 320 L448 320 L384 320 L320 320 L320 384 L384 384 L448 384 Z M64 384 L128 384 L128 320 L64 320 L0 320 L0 384 L64 384 Z M576 448 L640 448 L640 384 L576 384 L512 384 L512 448 L576 448 Z M320 384 L256 384 L192 384 L128 384 L128 448 L192 448 L256 448 L320 448 L320 384 Z " />
<glyph glyph-name="uni00A0" unicode="&#xa0;" horiz-adv-x="320" d="" />
<glyph glyph-name="exclamdown" unicode="&#xa1;" horiz-adv-x="384" d="M256 -192 L192 -192 L128 -192 L64 -192 L64 -128 L128 -128 L128 -64 L128 0 L128 64 L128 128 L128 192 L128 256 L128 320 L192 320 L256 320 L256 256 L256 192 L256 128 L256 64 L256 0 L256 -64 L256 -128 L320 -128 L320 -192 L256 -192 Z M192 384 L128 384 L128 448 L128 512 L192 512 L256 512 L256 448 L256 384 L192 384 Z " />
<glyph glyph-name="cent" unicode="&#xa2;" horiz-adv-x="576" d="M0 -192 L0 -128 L0 -64 L64 -64 L64 -128 L64 -192 L0 -192 Z M64 -64 L64 0 L128 0 L128 -64 L64 -64 Z M320 0 L256 0 L192 0 L128 0 L128 64 L128 128 L64 128 L0 128 L0 192 L0 256 L0 320 L0 384 L0 448 L0 512 L64 512 L128 512 L128 448 L128 384 L128 320 L128 256 L128 192 L192 192 L192 128 L256 128 L320 128 L384 128 L384 64 L384 0 L320 0 Z M384 128 L384 192 L384 256 L448 256 L512 256 L512 192 L512 128 L448 128 L384 128 Z M192 192 L192 256 L192 320 L256 320 L256 256 L256 192 L192 192 Z M256 320 L256 384 L320 384 L320 320 L256 320 Z M448 384 L384 384 L320 384 L320 448 L320 512 L256 512 L192 512 L128 512 L128 576 L128 640 L192 640 L256 640 L320 640 L384 640 L384 576 L384 512 L448 512 L512 512 L512 448 L512 384 L448 384 Z M384 640 L384 704 L384 768 L448 768 L448 704 L448 640 L384 640 Z " />
<glyph glyph-name="sterling" unicode="&#xa3;" horiz-adv-x="576" d="M448 0 L384 0 L320 0 L256 0 L192 0 L128 0 L64 0 L0 0 L0 64 L0 128 L64 128 L64 192 L128 192 L128 256 L128 320 L64 320 L0 320 L0 384 L0 448 L64 448 L64 512 L64 576 L64 640 L128 640 L128 704 L192 704 L192 768 L256 768 L320 768 L384 768 L384 704 L448 704 L448 640 L512 640 L512 576 L512 512 L448 512 L384 512 L384 576 L384 640 L320 640 L256 640 L192 640 L192 576 L192 512 L192 448 L256 448 L320 448 L384 448 L384 384 L384 320 L320 320 L256 320 L256 256 L256 192 L192 192 L192 128 L256 128 L320 128 L384 128 L448 128 L512 128 L512 64 L512 0 L448 0 Z " />
<glyph glyph-name="currency" unicode="&#xa4;" horiz-adv-x="640" d="M512 64 L512 128 L576 128 L576 64 L512 64 Z M0 64 L0 128 L64 128 L64 64 L0 64 Z M512 128 L448 128 L448 192 L512 192 L512 128 Z M320 128 L256 128 L192 128 L192 192 L128 192 L128 128 L64 128 L64 192 L128 192 L128 256 L64 256 L64 320 L64 384 L64 448 L128 448 L128 512 L192 512 L192 576 L256 576 L320 576 L384 576 L384 512 L448 512 L448 448 L512 448 L512 384 L512 320 L512 256 L448 256 L448 192 L384 192 L384 128 L320 128 Z M320 256 L384 256 L384 320 L384 384 L384 448 L320 448 L256 448 L192 448 L192 384 L192 320 L192 256 L256 256 L320 256 Z M448 512 L448 576 L512 576 L512 512 L448 512 Z M128 512 L64 512 L64 576 L128 576 L128 512 Z M512 576 L512 640 L576 640 L576 576 L512 576 Z M64 576 L0 576 L0 640 L64 640 L64 576 Z " />
<glyph glyph-name="yen" unicode="&#xa5;" horiz-adv-x="640" d="M256 -64 L256 0 L256 64 L192 64 L128 64 L64 64 L0 64 L0 128 L0 192 L64 192 L128 192 L192 192 L256 192 L256 256 L192 256 L128 256 L64 256 L0 256 L0 320 L0 384 L64 384 L128 384 L192 384 L192 448 L256 448 L320 448 L384 448 L384 384 L448 384 L512 384 L576 384 L576 320 L576 256 L512 256 L448 256 L384 256 L320 256 L320 192 L384 192 L448 192 L512 192 L576 192 L576 128 L576 64 L512 64 L448 64 L384 64 L320 64 L320 0 L320 -64 L256 -64 Z M384 448 L384 512 L448 512 L448 448 L384 448 Z M192 448 L128 448 L128 512 L192 512 L192 448 Z M448 512 L448 576 L512 576 L512 512 L448 512 Z M128 512 L64 512 L64 576 L128 576 L128 512 Z M512 576 L512 640 L512 704 L576 704 L576 640 L576 576 L512 576 Z M64 576 L0 576 L0 640 L0 704 L64 704 L64 640 L64 576 Z " />
<glyph glyph-name="brokenbar" unicode="&#xa6;" horiz-adv-x="256" d="M128 -256 L64 -256 L64 -192 L64 -128 L64 -64 L64 0 L64 64 L64 128 L64 192 L128 192 L192 192 L192 128 L192 64 L192 0 L192 -64 L192 -128 L192 -192 L192 -256 L128 -256 Z M128 320 L64 320 L64 384 L64 448 L64 512 L64 576 L64 640 L64 704 L64 768 L128 768 L192 768 L192 704 L192 640 L192 576 L192 512 L192 448 L192 384 L192 320 L128 320 Z " />
<glyph glyph-name="section" unicode="&#xa7;" horiz-adv-x="576" d="M384 576 L384 640 L448 640 L448 576 L384 576 Z M320 -128 L384 -128 L384 -192 L320 -192 L256 -192 L192 -192 L192 -128 L256 -128 L320 -128 Z M384 -128 L384 -64 L384 0 L384 64 L448 64 L448 0 L448 -64 L448 -128 L384 -128 Z M192 -128 L128 -128 L128 -64 L192 -64 L192 -128 Z M128 -64 L64 -64 L64 0 L128 0 L128 -64 Z M384 64 L320 64 L320 128 L384 128 L384 64 Z M384 128 L384 192 L448 192 L448 128 L384 128 Z M320 128 L256 128 L192 128 L192 192 L256 192 L320 192 L320 128 Z M448 192 L448 256 L512 256 L512 192 L448 192 Z M192 192 L128 192 L128 256 L192 256 L192 192 Z M448 256 L384 256 L384 320 L448 320 L448 256 Z M128 256 L64 256 L64 320 L64 384 L128 384 L128 320 L128 256 Z M384 320 L320 320 L320 384 L384 384 L384 320 Z M320 384 L256 384 L256 448 L320 448 L320 384 Z M128 384 L128 448 L192 448 L192 384 L128 384 Z M256 448 L192 448 L192 512 L256 512 L256 448 Z M192 512 L128 512 L128 576 L128 640 L192 640 L192 576 L192 512 Z M384 640 L320 640 L256 640 L192 640 L192 704 L256 704 L320 704 L384 704 L384 640 Z " />
<glyph glyph-name="dieresis" unicode="&#xa8;" horiz-adv-x="384" d="M256 640 L192 640 L192 704 L192 768 L256 768 L320 768 L320 704 L320 640 L256 640 Z M64 640 L0 640 L0 704 L0 768 L64 768 L128 768 L128 704 L128 640 L64 640 Z " />
<glyph glyph-name="copyright" unicode="&#xa9;" horiz-adv-x="832" d="M448 448 L448 512 L512 512 L512 448 L448 448 Z M448 64 L512 64 L512 0 L448 0 L384 0 L320 0 L256 0 L256 64 L320 64 L384 64 L448 64 Z M512 64 L512 128 L576 128 L576 64 L512 64 Z M256 64 L192 64 L192 128 L256 128 L256 64 Z M576 128 L576 192 L640 192 L640 128 L576 128 Z M384 192 L448 192 L448 128 L384 128 L320 128 L320 192 L384 192 Z M192 128 L128 128 L128 192 L192 192 L192 128 Z M640 192 L640 256 L704 256 L704 192 L640 192 Z M448 192 L448 256 L512 256 L512 192 L448 192 Z M320 192 L256 192 L256 256 L320 256 L320 192 Z M128 192 L64 192 L64 256 L128 256 L128 192 Z M704 256 L704 320 L704 384 L704 448 L704 512 L768 512 L768 448 L768 384 L768 320 L768 256 L704 256 Z M256 256 L192 256 L192 320 L192 384 L192 448 L256 448 L256 384 L256 320 L256 256 Z M64 256 L0 256 L0 320 L0 384 L0 448 L0 512 L64 512 L64 448 L64 384 L64 320 L64 256 Z M256 448 L256 512 L320 512 L320 448 L256 448 Z M704 512 L640 512 L640 576 L704 576 L704 512 Z M448 512 L384 512 L320 512 L320 576 L384 576 L448 576 L448 512 Z M64 512 L64 576 L128 576 L128 512 L64 512 Z M640 576 L576 576 L576 640 L640 640 L640 576 Z M128 576 L128 640 L192 640 L192 576 L128 576 Z M576 640 L512 640 L512 704 L576 704 L576 640 Z M192 640 L192 704 L256 704 L256 640 L192 640 Z M512 704 L448 704 L384 704 L320 704 L256 704 L256 768 L320 768 L384 768 L448 768 L512 768 L512 704 Z " />
<glyph glyph-name="Euro" unicode="&#x20ac;" horiz-adv-x="640" d="M384 -64 L320 -64 L256 -64 L256 0 L192 0 L192 64 L128 64 L128 128 L64 128 L64 192 L0 192 L0 256 L0 320 L64 320 L64 384 L0 384 L0 448 L0 512 L64 512 L64 576 L64 640 L128 640 L128 704 L192 704 L192 768 L256 768 L320 768 L384 768 L448 768 L448 704 L512 704 L576 704 L576 640 L576 576 L512 576 L448 576 L448 640 L384 640 L320 640 L256 640 L256 576 L192 576 L192 512 L256 512 L320 512 L384 512 L448 512 L512 512 L512 448 L512 384 L448 384 L384 384 L320 384 L256 384 L192 384 L192 320 L256 320 L320 320 L384 320 L448 320 L448 256 L448 192 L384 192 L320 192 L256 192 L192 192 L192 128 L256 128 L256 64 L320 64 L384 64 L448 64 L448 128 L512 128 L512 64 L512 0 L448 0 L448 -64 L384 -64 Z " />
<glyph glyph-name="uni3000" unicode="&#x3000;" horiz-adv-x="1024" d="" />
</font>
</svg>
