<?xml version="1.0" encoding="UTF-8"?>
<svg xmlns="http://www.w3.org/2000/svg" xmlns:xlink="http://www.w3.org/1999/xlink" version="1.2" >
<font id="Press Start 2P">
<font-face  font-family="Press Start 2P" units-per-em="1024" ascent="1024" descent="0" font-style="normal" font-weight="500" font-stretch="normal" cap-height="1024" x-height="768" underline-position="-23" underline-thickness="51" />
<missing-glyph  horiz-adv-x="1024" d="M128 576 L128 1024 L512 1024 L896 1024 L896 576 L896 128 L512 128 L128 128 L128 576 Z M768 704 L768 896 L512 896 L256 896 L256 832 L256 768 L448 768 L640 768 L640 704 L640 640 L512 640 L384 640 L384 576 L384 512 L576 512 L768 512 L768 704 Z M512 320 L512 384 L448 384 L384 384 L384 320 L384 256 L448 256 L512 256 L512 320 Z " />
<glyph glyph-name="space" unicode="&#x20;" horiz-adv-x="1024" d="" />
<glyph glyph-name="exclam" unicode="&#x21;" horiz-adv-x="1024" d="M256 192 L256 256 L384 256 L512 256 L512 192 L512 128 L384 128 L256 128 L256 192 Z M256 704 L256 1024 L448 1024 L640 1024 L640 832 L640 640 L576 640 L512 640 L512 512 L512 384 L384 384 L256 384 L256 704 Z " />
<glyph glyph-name="quotedbl" unicode="&#x22;" horiz-adv-x="1024" d="M512 832 L512 1024 L640 1024 L768 1024 L768 832 L768 640 L640 640 L512 640 L512 832 Z M128 832 L128 1024 L256 1024 L384 1024 L384 832 L384 640 L256 640 L128 640 L128 832 Z " />
<glyph glyph-name="numbersign" unicode="&#x23;" horiz-adv-x="1024" d="M128 960 L128 1024 L256 1024 L384 1024 L384 960 L384 896 L448 896 L512 896 L512 960 L512 1024 L640 1024 L768 1024 L768 960 L768 896 L832 896 L896 896 L896 832 L896 768 L832 768 L768 768 L768 576 L768 384 L832 384 L896 384 L896 320 L896 256 L832 256 L768 256 L768 192 L768 128 L640 128 L512 128 L512 192 L512 256 L448 256 L384 256 L384 192 L384 128 L256 128 L128 128 L128 192 L128 256 L64 256 L0 256 L0 320 L0 384 L64 384 L128 384 L128 576 L128 768 L64 768 L0 768 L0 832 L0 896 L64 896 L128 896 L128 960 Z M512 576 L512 768 L448 768 L384 768 L384 576 L384 384 L448 384 L512 384 L512 576 Z " />
<glyph glyph-name="dollar" unicode="&#x24;" horiz-adv-x="1024" d="M384 960 L384 1024 L448 1024 L512 1024 L512 960 L512 896 L640 896 L768 896 L768 832 L768 768 L640 768 L512 768 L512 704 L512 640 L640 640 L768 640 L768 576 L768 512 L832 512 L896 512 L896 448 L896 384 L832 384 L768 384 L768 320 L768 256 L640 256 L512 256 L512 192 L512 128 L448 128 L384 128 L384 192 L384 256 L192 256 L0 256 L0 320 L0 384 L192 384 L384 384 L384 448 L384 512 L256 512 L128 512 L128 576 L128 640 L64 640 L0 640 L0 704 L0 768 L64 768 L128 768 L128 832 L128 896 L256 896 L384 896 L384 960 Z M384 704 L384 768 L320 768 L256 768 L256 704 L256 640 L320 640 L384 640 L384 704 Z M640 448 L640 512 L576 512 L512 512 L512 448 L512 384 L576 384 L640 384 L640 448 Z " />
<glyph glyph-name="percent" unicode="&#x25;" horiz-adv-x="1024" d="M640 448 L640 512 L768 512 L896 512 L896 384 L896 256 L832 256 L768 256 L768 192 L768 128 L640 128 L512 128 L512 256 L512 384 L576 384 L640 384 L640 448 Z M768 320 L768 384 L704 384 L640 384 L640 320 L640 256 L704 256 L768 256 L768 320 Z M768 960 L768 1024 L832 1024 L896 1024 L896 960 L896 896 L832 896 L768 896 L768 832 L768 768 L704 768 L640 768 L640 704 L640 640 L576 640 L512 640 L512 576 L512 512 L448 512 L384 512 L384 448 L384 384 L320 384 L256 384 L256 320 L256 256 L192 256 L128 256 L128 192 L128 128 L64 128 L0 128 L0 192 L0 256 L64 256 L128 256 L128 320 L128 384 L192 384 L256 384 L256 448 L256 512 L320 512 L384 512 L384 576 L384 640 L448 640 L512 640 L512 704 L512 768 L576 768 L640 768 L640 832 L640 896 L704 896 L768 896 L768 960 Z M128 960 L128 1024 L256 1024 L384 1024 L384 896 L384 768 L320 768 L256 768 L256 704 L256 640 L128 640 L0 640 L0 768 L0 896 L64 896 L128 896 L128 960 Z M256 832 L256 896 L192 896 L128 896 L128 832 L128 768 L192 768 L256 768 L256 832 Z " />
<glyph glyph-name="ampersand" unicode="&#x26;" horiz-adv-x="1024" d="M128 960 L128 1024 L320 1024 L512 1024 L512 960 L512 896 L576 896 L640 896 L640 768 L640 640 L576 640 L512 640 L512 576 L512 512 L576 512 L640 512 L640 448 L640 384 L704 384 L768 384 L768 448 L768 512 L832 512 L896 512 L896 448 L896 384 L832 384 L768 384 L768 320 L768 256 L832 256 L896 256 L896 192 L896 128 L512 128 L128 128 L128 192 L128 256 L64 256 L0 256 L0 384 L0 512 L64 512 L128 512 L128 576 L128 640 L64 640 L0 640 L0 768 L0 896 L64 896 L128 896 L128 960 Z M384 768 L384 896 L320 896 L256 896 L256 768 L256 640 L320 640 L384 640 L384 768 Z M384 448 L384 512 L320 512 L256 512 L256 384 L256 256 L384 256 L512 256 L512 320 L512 384 L448 384 L384 384 L384 448 Z " />
<glyph glyph-name="quotesingle" unicode="&#x27;" horiz-adv-x="1024" d="M256 832 L256 1024 L384 1024 L512 1024 L512 832 L512 640 L384 640 L256 640 L256 832 Z " />
<glyph glyph-name="parenleft" unicode="&#x28;" horiz-adv-x="1024" d="M512 960 L512 1024 L640 1024 L768 1024 L768 960 L768 896 L704 896 L640 896 L640 832 L640 768 L576 768 L512 768 L512 576 L512 384 L576 384 L640 384 L640 320 L640 256 L704 256 L768 256 L768 192 L768 128 L640 128 L512 128 L512 192 L512 256 L448 256 L384 256 L384 320 L384 384 L320 384 L256 384 L256 576 L256 768 L320 768 L384 768 L384 832 L384 896 L448 896 L512 896 L512 960 Z " />
<glyph glyph-name="parenright" unicode="&#x29;" horiz-adv-x="1024" d="M128 960 L128 1024 L256 1024 L384 1024 L384 960 L384 896 L448 896 L512 896 L512 832 L512 768 L576 768 L640 768 L640 576 L640 384 L576 384 L512 384 L512 320 L512 256 L448 256 L384 256 L384 192 L384 128 L256 128 L128 128 L128 192 L128 256 L192 256 L256 256 L256 320 L256 384 L320 384 L384 384 L384 576 L384 768 L320 768 L256 768 L256 832 L256 896 L192 896 L128 896 L128 960 Z " />
<glyph glyph-name="asterisk" unicode="&#x2a;" horiz-adv-x="1024" d="M128 832 L128 896 L256 896 L384 896 L384 832 L384 768 L448 768 L512 768 L512 832 L512 896 L640 896 L768 896 L768 832 L768 768 L704 768 L640 768 L640 704 L640 640 L768 640 L896 640 L896 576 L896 512 L768 512 L640 512 L640 448 L640 384 L704 384 L768 384 L768 320 L768 256 L640 256 L512 256 L512 320 L512 384 L448 384 L384 384 L384 320 L384 256 L256 256 L128 256 L128 320 L128 384 L192 384 L256 384 L256 448 L256 512 L128 512 L0 512 L0 576 L0 640 L128 640 L256 640 L256 704 L256 768 L192 768 L128 768 L128 832 Z " />
<glyph glyph-name="plus" unicode="&#x2b;" horiz-adv-x="1024" d="M384 768 L384 896 L512 896 L640 896 L640 768 L640 640 L768 640 L896 640 L896 576 L896 512 L768 512 L640 512 L640 384 L640 256 L512 256 L384 256 L384 384 L384 512 L256 512 L128 512 L128 576 L128 640 L256 640 L384 640 L384 768 Z " />
<glyph glyph-name="comma" unicode="&#x2c;" horiz-adv-x="1024" d="M256 256 L256 384 L384 384 L512 384 L512 256 L512 128 L448 128 L384 128 L384 64 L384 0 L256 0 L128 0 L128 64 L128 128 L192 128 L256 128 L256 256 Z " />
<glyph glyph-name="hyphen" unicode="&#x2d;" horiz-adv-x="1024" d="M128 576 L128 640 L512 640 L896 640 L896 576 L896 512 L512 512 L128 512 L128 576 Z " />
<glyph glyph-name="period" unicode="&#x2e;" horiz-adv-x="1024" d="M256 256 L256 384 L384 384 L512 384 L512 256 L512 128 L384 128 L256 128 L256 256 Z " />
<glyph glyph-name="slash" unicode="&#x2f;" horiz-adv-x="1024" d="M768 960 L768 1024 L832 1024 L896 1024 L896 960 L896 896 L832 896 L768 896 L768 832 L768 768 L704 768 L640 768 L640 704 L640 640 L576 640 L512 640 L512 576 L512 512 L448 512 L384 512 L384 448 L384 384 L320 384 L256 384 L256 320 L256 256 L192 256 L128 256 L128 192 L128 128 L64 128 L0 128 L0 192 L0 256 L64 256 L128 256 L128 320 L128 384 L192 384 L256 384 L256 448 L256 512 L320 512 L384 512 L384 576 L384 640 L448 640 L512 640 L512 704 L512 768 L576 768 L640 768 L640 832 L640 896 L704 896 L768 896 L768 960 Z " />
<glyph glyph-name="zero" unicode="0" horiz-adv-x="1024" d="M256 960 L256 1024 L448 1024 L640 1024 L640 960 L640 896 L704 896 L768 896 L768 832 L768 768 L832 768 L896 768 L896 576 L896 384 L832 384 L768 384 L768 320 L768 256 L704 256 L640 256 L640 192 L640 128 L448 128 L256 128 L256 192 L256 256 L192 256 L128 256 L128 320 L128 384 L64 384 L0 384 L0 576 L0 768 L64 768 L128 768 L128 832 L128 896 L192 896 L256 896 L256 960 Z M512 832 L512 896 L384 896 L256 896 L256 640 L256 384 L320 384 L384 384 L384 320 L384 256 L512 256 L640 256 L640 512 L640 768 L576 768 L512 768 L512 832 Z " />
<glyph glyph-name="one" unicode="1" horiz-adv-x="1024" d="M384 960 L384 1024 L512 1024 L640 1024 L640 640 L640 256 L768 256 L896 256 L896 192 L896 128 L512 128 L128 128 L128 192 L128 256 L256 256 L384 256 L384 512 L384 768 L320 768 L256 768 L256 832 L256 896 L320 896 L384 896 L384 960 Z " />
<glyph glyph-name="two" unicode="2" horiz-adv-x="1024" d="M128 960 L128 1024 L448 1024 L768 1024 L768 960 L768 896 L832 896 L896 896 L896 768 L896 640 L832 640 L768 640 L768 576 L768 512 L704 512 L640 512 L640 448 L640 384 L512 384 L384 384 L384 320 L384 256 L640 256 L896 256 L896 192 L896 128 L448 128 L0 128 L0 256 L0 384 L64 384 L128 384 L128 448 L128 512 L192 512 L256 512 L256 576 L256 640 L384 640 L512 640 L512 704 L512 768 L576 768 L640 768 L640 832 L640 896 L448 896 L256 896 L256 832 L256 768 L128 768 L0 768 L0 832 L0 896 L64 896 L128 896 L128 960 Z " />
<glyph glyph-name="three" unicode="3" horiz-adv-x="1024" d="M128 960 L128 1024 L512 1024 L896 1024 L896 960 L896 896 L832 896 L768 896 L768 832 L768 768 L704 768 L640 768 L640 704 L640 640 L704 640 L768 640 L768 576 L768 512 L832 512 L896 512 L896 384 L896 256 L832 256 L768 256 L768 192 L768 128 L448 128 L128 128 L128 192 L128 256 L64 256 L0 256 L0 320 L0 384 L128 384 L256 384 L256 320 L256 256 L448 256 L640 256 L640 384 L640 512 L448 512 L256 512 L256 576 L256 640 L320 640 L384 640 L384 704 L384 768 L448 768 L512 768 L512 832 L512 896 L320 896 L128 896 L128 960 Z " />
<glyph glyph-name="four" unicode="4" horiz-adv-x="1024" d="M384 960 L384 1024 L576 1024 L768 1024 L768 768 L768 512 L832 512 L896 512 L896 448 L896 384 L832 384 L768 384 L768 256 L768 128 L640 128 L512 128 L512 256 L512 384 L256 384 L0 384 L0 512 L0 640 L64 640 L128 640 L128 704 L128 768 L192 768 L256 768 L256 832 L256 896 L320 896 L384 896 L384 960 Z M512 640 L512 768 L448 768 L384 768 L384 704 L384 640 L320 640 L256 640 L256 576 L256 512 L384 512 L512 512 L512 640 Z " />
<glyph glyph-name="five" unicode="5" horiz-adv-x="1024" d="M0 832 L0 1024 L384 1024 L768 1024 L768 960 L768 896 L512 896 L256 896 L256 832 L256 768 L512 768 L768 768 L768 704 L768 640 L832 640 L896 640 L896 448 L896 256 L832 256 L768 256 L768 192 L768 128 L448 128 L128 128 L128 192 L128 256 L64 256 L0 256 L0 320 L0 384 L128 384 L256 384 L256 320 L256 256 L448 256 L640 256 L640 448 L640 640 L320 640 L0 640 L0 832 Z " />
<glyph glyph-name="six" unicode="6" horiz-adv-x="1024" d="M256 960 L256 1024 L512 1024 L768 1024 L768 960 L768 896 L576 896 L384 896 L384 832 L384 768 L320 768 L256 768 L256 704 L256 640 L512 640 L768 640 L768 576 L768 512 L832 512 L896 512 L896 384 L896 256 L832 256 L768 256 L768 192 L768 128 L448 128 L128 128 L128 192 L128 256 L64 256 L0 256 L0 512 L0 768 L64 768 L128 768 L128 832 L128 896 L192 896 L256 896 L256 960 Z M640 384 L640 512 L448 512 L256 512 L256 384 L256 256 L448 256 L640 256 L640 384 Z " />
<glyph glyph-name="seven" unicode="7" horiz-adv-x="1024" d="M0 896 L0 1024 L448 1024 L896 1024 L896 896 L896 768 L832 768 L768 768 L768 704 L768 640 L704 640 L640 640 L640 576 L640 512 L576 512 L512 512 L512 320 L512 128 L384 128 L256 128 L256 320 L256 512 L320 512 L384 512 L384 576 L384 640 L448 640 L512 640 L512 704 L512 768 L576 768 L640 768 L640 832 L640 896 L448 896 L256 896 L256 832 L256 768 L128 768 L0 768 L0 896 Z " />
<glyph glyph-name="eight" unicode="8" horiz-adv-x="1024" d="M128 960 L128 1024 L384 1024 L640 1024 L640 960 L640 896 L704 896 L768 896 L768 768 L768 640 L704 640 L640 640 L640 576 L640 512 L768 512 L896 512 L896 384 L896 256 L832 256 L768 256 L768 192 L768 128 L448 128 L128 128 L128 192 L128 256 L64 256 L0 256 L0 384 L0 512 L64 512 L128 512 L128 576 L128 640 L64 640 L0 640 L0 768 L0 896 L64 896 L128 896 L128 960 Z M640 768 L640 896 L448 896 L256 896 L256 832 L256 768 L320 768 L384 768 L384 704 L384 640 L512 640 L640 640 L640 768 Z M384 448 L384 512 L256 512 L128 512 L128 384 L128 256 L384 256 L640 256 L640 320 L640 384 L512 384 L384 384 L384 448 Z " />
<glyph glyph-name="nine" unicode="9" horiz-adv-x="1024" d="M128 960 L128 1024 L448 1024 L768 1024 L768 960 L768 896 L832 896 L896 896 L896 640 L896 384 L832 384 L768 384 L768 320 L768 256 L704 256 L640 256 L640 192 L640 128 L384 128 L128 128 L128 192 L128 256 L320 256 L512 256 L512 320 L512 384 L576 384 L640 384 L640 448 L640 512 L384 512 L128 512 L128 576 L128 640 L64 640 L0 640 L0 768 L0 896 L64 896 L128 896 L128 960 Z M640 768 L640 896 L448 896 L256 896 L256 768 L256 640 L448 640 L640 640 L640 768 Z " />
<glyph glyph-name="colon" unicode="&#x3a;" horiz-adv-x="1024" d="M256 384 L256 512 L384 512 L512 512 L512 384 L512 256 L384 256 L256 256 L256 384 Z M256 768 L256 896 L384 896 L512 896 L512 768 L512 640 L384 640 L256 640 L256 768 Z " />
<glyph glyph-name="semicolon" unicode="&#x3b;" horiz-adv-x="1024" d="M256 384 L256 512 L384 512 L512 512 L512 384 L512 256 L448 256 L384 256 L384 192 L384 128 L256 128 L128 128 L128 192 L128 256 L192 256 L256 256 L256 384 Z M256 768 L256 896 L384 896 L512 896 L512 768 L512 640 L384 640 L256 640 L256 768 Z " />
<glyph glyph-name="less" unicode="&#x3c;" horiz-adv-x="1024" d="M512 960 L512 1024 L640 1024 L768 1024 L768 960 L768 896 L704 896 L640 896 L640 832 L640 768 L576 768 L512 768 L512 704 L512 640 L448 640 L384 640 L384 576 L384 512 L448 512 L512 512 L512 448 L512 384 L576 384 L640 384 L640 320 L640 256 L704 256 L768 256 L768 192 L768 128 L640 128 L512 128 L512 192 L512 256 L448 256 L384 256 L384 320 L384 384 L320 384 L256 384 L256 448 L256 512 L192 512 L128 512 L128 576 L128 640 L192 640 L256 640 L256 704 L256 768 L320 768 L384 768 L384 832 L384 896 L448 896 L512 896 L512 960 Z " />
<glyph glyph-name="equal" unicode="&#x3d;" horiz-adv-x="1024" d="M0 448 L0 512 L448 512 L896 512 L896 448 L896 384 L448 384 L0 384 L0 448 Z M0 704 L0 768 L448 768 L896 768 L896 704 L896 640 L448 640 L0 640 L0 704 Z " />
<glyph glyph-name="greater" unicode="&#x3e;" horiz-adv-x="1024" d="M128 960 L128 1024 L256 1024 L384 1024 L384 960 L384 896 L448 896 L512 896 L512 832 L512 768 L576 768 L640 768 L640 704 L640 640 L704 640 L768 640 L768 576 L768 512 L704 512 L640 512 L640 448 L640 384 L576 384 L512 384 L512 320 L512 256 L448 256 L384 256 L384 192 L384 128 L256 128 L128 128 L128 192 L128 256 L192 256 L256 256 L256 320 L256 384 L320 384 L384 384 L384 448 L384 512 L448 512 L512 512 L512 576 L512 640 L448 640 L384 640 L384 704 L384 768 L320 768 L256 768 L256 832 L256 896 L192 896 L128 896 L128 960 Z " />
<glyph glyph-name="question" unicode="&#x3f;" horiz-adv-x="1024" d="M256 192 L256 256 L448 256 L640 256 L640 192 L640 128 L448 128 L256 128 L256 192 Z M128 960 L128 1024 L448 1024 L768 1024 L768 960 L768 896 L832 896 L896 896 L896 768 L896 640 L832 640 L768 640 L768 576 L768 512 L704 512 L640 512 L640 448 L640 384 L448 384 L256 384 L256 448 L256 512 L384 512 L512 512 L512 576 L512 640 L576 640 L640 640 L640 704 L640 768 L448 768 L256 768 L256 704 L256 640 L128 640 L0 640 L0 768 L0 896 L64 896 L128 896 L128 960 Z " />
<glyph glyph-name="at" unicode="&#x40;" horiz-adv-x="1024" d="M128 960 L128 1024 L448 1024 L768 1024 L768 960 L768 896 L832 896 L896 896 L896 640 L896 384 L576 384 L256 384 L256 576 L256 768 L448 768 L640 768 L640 640 L640 512 L704 512 L768 512 L768 704 L768 896 L448 896 L128 896 L128 576 L128 256 L448 256 L768 256 L768 192 L768 128 L448 128 L128 128 L128 192 L128 256 L64 256 L0 256 L0 576 L0 896 L64 896 L128 896 L128 960 Z M512 576 L512 640 L448 640 L384 640 L384 576 L384 512 L448 512 L512 512 L512 576 Z " />
<glyph glyph-name="A" unicode="A" horiz-adv-x="1024" d="M256 960 L256 1024 L448 1024 L640 1024 L640 960 L640 896 L704 896 L768 896 L768 832 L768 768 L832 768 L896 768 L896 448 L896 128 L768 128 L640 128 L640 256 L640 384 L448 384 L256 384 L256 256 L256 128 L128 128 L0 128 L0 448 L0 768 L64 768 L128 768 L128 832 L128 896 L192 896 L256 896 L256 960 Z M512 832 L512 896 L448 896 L384 896 L384 832 L384 768 L320 768 L256 768 L256 640 L256 512 L448 512 L640 512 L640 640 L640 768 L576 768 L512 768 L512 832 Z " />
<glyph glyph-name="B" unicode="B" horiz-adv-x="1024" d="M0 576 L0 1024 L384 1024 L768 1024 L768 960 L768 896 L832 896 L896 896 L896 768 L896 640 L832 640 L768 640 L768 576 L768 512 L832 512 L896 512 L896 384 L896 256 L832 256 L768 256 L768 192 L768 128 L384 128 L0 128 L0 576 Z M640 768 L640 896 L448 896 L256 896 L256 768 L256 640 L448 640 L640 640 L640 768 Z M640 384 L640 512 L448 512 L256 512 L256 384 L256 256 L448 256 L640 256 L640 384 Z " />
<glyph glyph-name="C" unicode="C" horiz-adv-x="1024" d="M256 960 L256 1024 L512 1024 L768 1024 L768 960 L768 896 L832 896 L896 896 L896 832 L896 768 L768 768 L640 768 L640 832 L640 896 L512 896 L384 896 L384 832 L384 768 L320 768 L256 768 L256 576 L256 384 L320 384 L384 384 L384 320 L384 256 L512 256 L640 256 L640 320 L640 384 L768 384 L896 384 L896 320 L896 256 L832 256 L768 256 L768 192 L768 128 L512 128 L256 128 L256 192 L256 256 L192 256 L128 256 L128 320 L128 384 L64 384 L0 384 L0 576 L0 768 L64 768 L128 768 L128 832 L128 896 L192 896 L256 896 L256 960 Z " />
<glyph glyph-name="D" unicode="D" horiz-adv-x="1024" d="M0 576 L0 1024 L320 1024 L640 1024 L640 960 L640 896 L704 896 L768 896 L768 832 L768 768 L832 768 L896 768 L896 576 L896 384 L832 384 L768 384 L768 320 L768 256 L704 256 L640 256 L640 192 L640 128 L320 128 L0 128 L0 576 Z M512 832 L512 896 L384 896 L256 896 L256 576 L256 256 L384 256 L512 256 L512 320 L512 384 L576 384 L640 384 L640 576 L640 768 L576 768 L512 768 L512 832 Z " />
<glyph glyph-name="E" unicode="E" horiz-adv-x="1024" d="M0 576 L0 1024 L448 1024 L896 1024 L896 960 L896 896 L576 896 L256 896 L256 768 L256 640 L512 640 L768 640 L768 576 L768 512 L512 512 L256 512 L256 384 L256 256 L576 256 L896 256 L896 192 L896 128 L448 128 L0 128 L0 576 Z " />
<glyph glyph-name="F" unicode="F" horiz-adv-x="1024" d="M0 576 L0 1024 L448 1024 L896 1024 L896 960 L896 896 L576 896 L256 896 L256 768 L256 640 L512 640 L768 640 L768 576 L768 512 L512 512 L256 512 L256 320 L256 128 L128 128 L0 128 L0 576 Z " />
<glyph glyph-name="G" unicode="G" horiz-adv-x="1024" d="M256 960 L256 1024 L576 1024 L896 1024 L896 960 L896 896 L640 896 L384 896 L384 832 L384 768 L320 768 L256 768 L256 576 L256 384 L320 384 L384 384 L384 320 L384 256 L512 256 L640 256 L640 384 L640 512 L576 512 L512 512 L512 576 L512 640 L704 640 L896 640 L896 384 L896 128 L576 128 L256 128 L256 192 L256 256 L192 256 L128 256 L128 320 L128 384 L64 384 L0 384 L0 576 L0 768 L64 768 L128 768 L128 832 L128 896 L192 896 L256 896 L256 960 Z " />
<glyph glyph-name="H" unicode="H" horiz-adv-x="1024" d="M0 576 L0 1024 L128 1024 L256 1024 L256 832 L256 640 L448 640 L640 640 L640 832 L640 1024 L768 1024 L896 1024 L896 576 L896 128 L768 128 L640 128 L640 320 L640 512 L448 512 L256 512 L256 320 L256 128 L128 128 L0 128 L0 576 Z " />
<glyph glyph-name="I" unicode="I" horiz-adv-x="1024" d="M128 960 L128 1024 L512 1024 L896 1024 L896 960 L896 896 L768 896 L640 896 L640 576 L640 256 L768 256 L896 256 L896 192 L896 128 L512 128 L128 128 L128 192 L128 256 L256 256 L384 256 L384 576 L384 896 L256 896 L128 896 L128 960 Z " />
<glyph glyph-name="J" unicode="J" horiz-adv-x="1024" d="M640 640 L640 1024 L768 1024 L896 1024 L896 640 L896 256 L832 256 L768 256 L768 192 L768 128 L448 128 L128 128 L128 192 L128 256 L64 256 L0 256 L0 320 L0 384 L128 384 L256 384 L256 320 L256 256 L448 256 L640 256 L640 640 Z " />
<glyph glyph-name="K" unicode="K" horiz-adv-x="1024" d="M0 576 L0 1024 L128 1024 L256 1024 L256 832 L256 640 L320 640 L384 640 L384 704 L384 768 L448 768 L512 768 L512 832 L512 896 L576 896 L640 896 L640 960 L640 1024 L768 1024 L896 1024 L896 960 L896 896 L832 896 L768 896 L768 832 L768 768 L704 768 L640 768 L640 704 L640 640 L576 640 L512 640 L512 576 L512 512 L576 512 L640 512 L640 448 L640 384 L704 384 L768 384 L768 320 L768 256 L832 256 L896 256 L896 192 L896 128 L704 128 L512 128 L512 192 L512 256 L448 256 L384 256 L384 320 L384 384 L320 384 L256 384 L256 256 L256 128 L128 128 L0 128 L0 576 Z " />
<glyph glyph-name="L" unicode="L" horiz-adv-x="1024" d="M128 576 L128 1024 L256 1024 L384 1024 L384 640 L384 256 L640 256 L896 256 L896 192 L896 128 L512 128 L128 128 L128 576 Z " />
<glyph glyph-name="M" unicode="M" horiz-adv-x="1024" d="M0 576 L0 1024 L128 1024 L256 1024 L256 960 L256 896 L320 896 L384 896 L384 832 L384 768 L448 768 L512 768 L512 832 L512 896 L576 896 L640 896 L640 960 L640 1024 L768 1024 L896 1024 L896 576 L896 128 L768 128 L640 128 L640 320 L640 512 L576 512 L512 512 L512 448 L512 384 L448 384 L384 384 L384 448 L384 512 L320 512 L256 512 L256 320 L256 128 L128 128 L0 128 L0 576 Z " />
<glyph glyph-name="N" unicode="N" horiz-adv-x="1024" d="M0 576 L0 1024 L128 1024 L256 1024 L256 960 L256 896 L320 896 L384 896 L384 832 L384 768 L448 768 L512 768 L512 704 L512 640 L576 640 L640 640 L640 832 L640 1024 L768 1024 L896 1024 L896 576 L896 128 L768 128 L640 128 L640 192 L640 256 L576 256 L512 256 L512 320 L512 384 L448 384 L384 384 L384 448 L384 512 L320 512 L256 512 L256 320 L256 128 L128 128 L0 128 L0 576 Z " />
<glyph glyph-name="O" unicode="O" horiz-adv-x="1024" d="M128 960 L128 1024 L448 1024 L768 1024 L768 960 L768 896 L832 896 L896 896 L896 576 L896 256 L832 256 L768 256 L768 192 L768 128 L448 128 L128 128 L128 192 L128 256 L64 256 L0 256 L0 576 L0 896 L64 896 L128 896 L128 960 Z M640 576 L640 896 L448 896 L256 896 L256 576 L256 256 L448 256 L640 256 L640 576 Z " />
<glyph glyph-name="P" unicode="P" horiz-adv-x="1024" d="M0 576 L0 1024 L384 1024 L768 1024 L768 960 L768 896 L832 896 L896 896 L896 704 L896 512 L832 512 L768 512 L768 448 L768 384 L512 384 L256 384 L256 256 L256 128 L128 128 L0 128 L0 576 Z M640 704 L640 896 L448 896 L256 896 L256 704 L256 512 L448 512 L640 512 L640 704 Z " />
<glyph glyph-name="Q" unicode="Q" horiz-adv-x="1024" d="M128 960 L128 1024 L448 1024 L768 1024 L768 960 L768 896 L832 896 L896 896 L896 640 L896 384 L832 384 L768 384 L768 320 L768 256 L832 256 L896 256 L896 192 L896 128 L832 128 L768 128 L768 192 L768 256 L704 256 L640 256 L640 192 L640 128 L384 128 L128 128 L128 192 L128 256 L64 256 L0 256 L0 576 L0 896 L64 896 L128 896 L128 960 Z M640 704 L640 896 L448 896 L256 896 L256 576 L256 256 L384 256 L512 256 L512 320 L512 384 L448 384 L384 384 L384 448 L384 512 L512 512 L640 512 L640 704 Z " />
<glyph glyph-name="R" unicode="R" horiz-adv-x="1024" d="M0 576 L0 1024 L384 1024 L768 1024 L768 960 L768 896 L832 896 L896 896 L896 704 L896 512 L768 512 L640 512 L640 448 L640 384 L704 384 L768 384 L768 320 L768 256 L832 256 L896 256 L896 192 L896 128 L704 128 L512 128 L512 192 L512 256 L448 256 L384 256 L384 320 L384 384 L320 384 L256 384 L256 256 L256 128 L128 128 L0 128 L0 576 Z M640 768 L640 896 L448 896 L256 896 L256 704 L256 512 L384 512 L512 512 L512 576 L512 640 L576 640 L640 640 L640 768 Z " />
<glyph glyph-name="S" unicode="S" horiz-adv-x="1024" d="M128 960 L128 1024 L384 1024 L640 1024 L640 960 L640 896 L704 896 L768 896 L768 832 L768 768 L640 768 L512 768 L512 832 L512 896 L384 896 L256 896 L256 768 L256 640 L512 640 L768 640 L768 576 L768 512 L832 512 L896 512 L896 384 L896 256 L832 256 L768 256 L768 192 L768 128 L448 128 L128 128 L128 192 L128 256 L64 256 L0 256 L0 320 L0 384 L128 384 L256 384 L256 320 L256 256 L448 256 L640 256 L640 384 L640 512 L384 512 L128 512 L128 576 L128 640 L64 640 L0 640 L0 768 L0 896 L64 896 L128 896 L128 960 Z " />
<glyph glyph-name="T" unicode="T" horiz-adv-x="1024" d="M128 960 L128 1024 L512 1024 L896 1024 L896 960 L896 896 L768 896 L640 896 L640 512 L640 128 L512 128 L384 128 L384 512 L384 896 L256 896 L128 896 L128 960 Z " />
<glyph glyph-name="U" unicode="U" horiz-adv-x="1024" d="M0 640 L0 1024 L128 1024 L256 1024 L256 640 L256 256 L448 256 L640 256 L640 640 L640 1024 L768 1024 L896 1024 L896 640 L896 256 L832 256 L768 256 L768 192 L768 128 L448 128 L128 128 L128 192 L128 256 L64 256 L0 256 L0 640 Z " />
<glyph glyph-name="V" unicode="V" horiz-adv-x="1024" d="M0 768 L0 1024 L128 1024 L256 1024 L256 832 L256 640 L320 640 L384 640 L384 576 L384 512 L448 512 L512 512 L512 576 L512 640 L576 640 L640 640 L640 832 L640 1024 L768 1024 L896 1024 L896 768 L896 512 L832 512 L768 512 L768 448 L768 384 L704 384 L640 384 L640 320 L640 256 L576 256 L512 256 L512 192 L512 128 L448 128 L384 128 L384 192 L384 256 L320 256 L256 256 L256 320 L256 384 L192 384 L128 384 L128 448 L128 512 L64 512 L0 512 L0 768 Z " />
<glyph glyph-name="W" unicode="W" horiz-adv-x="1024" d="M0 576 L0 1024 L128 1024 L256 1024 L256 832 L256 640 L320 640 L384 640 L384 704 L384 768 L448 768 L512 768 L512 704 L512 640 L576 640 L640 640 L640 832 L640 1024 L768 1024 L896 1024 L896 576 L896 128 L768 128 L640 128 L640 192 L640 256 L576 256 L512 256 L512 320 L512 384 L448 384 L384 384 L384 320 L384 256 L320 256 L256 256 L256 192 L256 128 L128 128 L0 128 L0 576 Z " />
<glyph glyph-name="X" unicode="X" horiz-adv-x="1024" d="M0 896 L0 1024 L128 1024 L256 1024 L256 960 L256 896 L320 896 L384 896 L384 832 L384 768 L448 768 L512 768 L512 832 L512 896 L576 896 L640 896 L640 960 L640 1024 L768 1024 L896 1024 L896 896 L896 768 L832 768 L768 768 L768 704 L768 640 L704 640 L640 640 L640 576 L640 512 L704 512 L768 512 L768 448 L768 384 L832 384 L896 384 L896 256 L896 128 L768 128 L640 128 L640 192 L640 256 L576 256 L512 256 L512 320 L512 384 L448 384 L384 384 L384 320 L384 256 L320 256 L256 256 L256 192 L256 128 L128 128 L0 128 L0 256 L0 384 L64 384 L128 384 L128 448 L128 512 L192 512 L256 512 L256 576 L256 640 L192 640 L128 640 L128 704 L128 768 L64 768 L0 768 L0 896 Z " />
<glyph glyph-name="Y" unicode="Y" horiz-adv-x="1024" d="M128 832 L128 1024 L256 1024 L384 1024 L384 832 L384 640 L512 640 L640 640 L640 832 L640 1024 L768 1024 L896 1024 L896 832 L896 640 L832 640 L768 640 L768 576 L768 512 L704 512 L640 512 L640 320 L640 128 L512 128 L384 128 L384 320 L384 512 L320 512 L256 512 L256 576 L256 640 L192 640 L128 640 L128 832 Z " />
<glyph glyph-name="Z" unicode="Z" horiz-adv-x="1024" d="M0 960 L0 1024 L448 1024 L896 1024 L896 896 L896 768 L832 768 L768 768 L768 704 L768 640 L704 640 L640 640 L640 576 L640 512 L576 512 L512 512 L512 448 L512 384 L448 384 L384 384 L384 320 L384 256 L640 256 L896 256 L896 192 L896 128 L448 128 L0 128 L0 256 L0 384 L64 384 L128 384 L128 448 L128 512 L192 512 L256 512 L256 576 L256 640 L320 640 L384 640 L384 704 L384 768 L448 768 L512 768 L512 832 L512 896 L256 896 L0 896 L0 960 Z " />
<glyph glyph-name="bracketleft" unicode="&#x5b;" horiz-adv-x="1024" d="M256 576 L256 1024 L512 1024 L768 1024 L768 960 L768 896 L640 896 L512 896 L512 576 L512 256 L640 256 L768 256 L768 192 L768 128 L512 128 L256 128 L256 576 Z " />
<glyph glyph-name="backslash" unicode="&#x5c;" horiz-adv-x="1024" d="M0 960 L0 1024 L64 1024 L128 1024 L128 960 L128 896 L192 896 L256 896 L256 832 L256 768 L320 768 L384 768 L384 704 L384 640 L448 640 L512 640 L512 576 L512 512 L576 512 L640 512 L640 448 L640 384 L704 384 L768 384 L768 320 L768 256 L832 256 L896 256 L896 192 L896 128 L832 128 L768 128 L768 192 L768 256 L704 256 L640 256 L640 320 L640 384 L576 384 L512 384 L512 448 L512 512 L448 512 L384 512 L384 576 L384 640 L320 640 L256 640 L256 704 L256 768 L192 768 L128 768 L128 832 L128 896 L64 896 L0 896 L0 960 Z " />
<glyph glyph-name="bracketright" unicode="&#x5d;" horiz-adv-x="1024" d="M128 960 L128 1024 L384 1024 L640 1024 L640 576 L640 128 L384 128 L128 128 L128 192 L128 256 L256 256 L384 256 L384 576 L384 896 L256 896 L128 896 L128 960 Z " />
<glyph glyph-name="asciicircum" unicode="&#x5e;" horiz-adv-x="1024" d="M256 960 L256 1024 L448 1024 L640 1024 L640 960 L640 896 L704 896 L768 896 L768 832 L768 768 L640 768 L512 768 L512 832 L512 896 L448 896 L384 896 L384 832 L384 768 L256 768 L128 768 L128 832 L128 896 L192 896 L256 896 L256 960 Z " />
<glyph glyph-name="underscore" unicode="&#x5f;" horiz-adv-x="1024" d="M0 64 L0 128 L448 128 L896 128 L896 64 L896 0 L448 0 L0 0 L0 64 Z " />
<glyph glyph-name="grave" unicode="&#x60;" horiz-adv-x="1024" d="M384 960 L384 1024 L448 1024 L512 1024 L512 960 L512 896 L576 896 L640 896 L640 832 L640 768 L576 768 L512 768 L512 832 L512 896 L448 896 L384 896 L384 960 Z " />
<glyph glyph-name="a" unicode="a" horiz-adv-x="1024" d="M128 704 L128 768 L448 768 L768 768 L768 704 L768 640 L832 640 L896 640 L896 384 L896 128 L512 128 L128 128 L128 192 L128 256 L64 256 L0 256 L0 320 L0 384 L64 384 L128 384 L128 448 L128 512 L384 512 L640 512 L640 576 L640 640 L384 640 L128 640 L128 704 Z M640 320 L640 384 L448 384 L256 384 L256 320 L256 256 L448 256 L640 256 L640 320 Z " />
<glyph glyph-name="b" unicode="b" horiz-adv-x="1024" d="M0 640 L0 1024 L128 1024 L256 1024 L256 896 L256 768 L512 768 L768 768 L768 704 L768 640 L832 640 L896 640 L896 448 L896 256 L832 256 L768 256 L768 192 L768 128 L448 128 L128 128 L128 192 L128 256 L64 256 L0 256 L0 640 Z M640 448 L640 640 L448 640 L256 640 L256 448 L256 256 L448 256 L640 256 L640 448 Z " />
<glyph glyph-name="c" unicode="c" horiz-adv-x="1024" d="M128 704 L128 768 L512 768 L896 768 L896 704 L896 640 L576 640 L256 640 L256 448 L256 256 L576 256 L896 256 L896 192 L896 128 L512 128 L128 128 L128 192 L128 256 L64 256 L0 256 L0 448 L0 640 L64 640 L128 640 L128 704 Z " />
<glyph glyph-name="d" unicode="d" horiz-adv-x="1024" d="M640 896 L640 1024 L768 1024 L896 1024 L896 576 L896 128 L512 128 L128 128 L128 192 L128 256 L64 256 L0 256 L0 448 L0 640 L64 640 L128 640 L128 704 L128 768 L384 768 L640 768 L640 896 Z M640 448 L640 640 L448 640 L256 640 L256 448 L256 256 L448 256 L640 256 L640 448 Z " />
<glyph glyph-name="e" unicode="e" horiz-adv-x="1024" d="M128 704 L128 768 L448 768 L768 768 L768 704 L768 640 L832 640 L896 640 L896 512 L896 384 L576 384 L256 384 L256 320 L256 256 L512 256 L768 256 L768 192 L768 128 L448 128 L128 128 L128 192 L128 256 L64 256 L0 256 L0 448 L0 640 L64 640 L128 640 L128 704 Z M640 576 L640 640 L448 640 L256 640 L256 576 L256 512 L448 512 L640 512 L640 576 Z " />
<glyph glyph-name="f" unicode="f" horiz-adv-x="1024" d="M512 960 L512 1024 L704 1024 L896 1024 L896 960 L896 896 L768 896 L640 896 L640 832 L640 768 L768 768 L896 768 L896 704 L896 640 L768 640 L640 640 L640 384 L640 128 L512 128 L384 128 L384 384 L384 640 L256 640 L128 640 L128 704 L128 768 L256 768 L384 768 L384 832 L384 896 L448 896 L512 896 L512 960 Z " />
<glyph glyph-name="g" unicode="g" horiz-adv-x="1024" d="M128 704 L128 768 L512 768 L896 768 L896 448 L896 128 L832 128 L768 128 L768 64 L768 0 L448 0 L128 0 L128 64 L128 128 L384 128 L640 128 L640 192 L640 256 L384 256 L128 256 L128 320 L128 384 L64 384 L0 384 L0 512 L0 640 L64 640 L128 640 L128 704 Z M640 512 L640 640 L448 640 L256 640 L256 512 L256 384 L448 384 L640 384 L640 512 Z " />
<glyph glyph-name="h" unicode="h" horiz-adv-x="1024" d="M0 576 L0 1024 L128 1024 L256 1024 L256 896 L256 768 L512 768 L768 768 L768 704 L768 640 L832 640 L896 640 L896 384 L896 128 L768 128 L640 128 L640 384 L640 640 L448 640 L256 640 L256 384 L256 128 L128 128 L0 128 L0 576 Z " />
<glyph glyph-name="i" unicode="i" horiz-adv-x="1024" d="M256 704 L256 768 L448 768 L640 768 L640 512 L640 256 L768 256 L896 256 L896 192 L896 128 L512 128 L128 128 L128 192 L128 256 L256 256 L384 256 L384 448 L384 640 L320 640 L256 640 L256 704 Z M384 960 L384 1024 L512 1024 L640 1024 L640 960 L640 896 L512 896 L384 896 L384 960 Z " />
<glyph glyph-name="j" unicode="j" horiz-adv-x="1024" d="M384 704 L384 768 L576 768 L768 768 L768 448 L768 128 L704 128 L640 128 L640 64 L640 0 L384 0 L128 0 L128 64 L128 128 L320 128 L512 128 L512 384 L512 640 L448 640 L384 640 L384 704 Z M512 960 L512 1024 L640 1024 L768 1024 L768 960 L768 896 L640 896 L512 896 L512 960 Z " />
<glyph glyph-name="k" unicode="k" horiz-adv-x="1024" d="M0 576 L0 1024 L128 1024 L256 1024 L256 832 L256 640 L384 640 L512 640 L512 704 L512 768 L704 768 L896 768 L896 704 L896 640 L832 640 L768 640 L768 576 L768 512 L704 512 L640 512 L640 448 L640 384 L704 384 L768 384 L768 320 L768 256 L832 256 L896 256 L896 192 L896 128 L704 128 L512 128 L512 192 L512 256 L448 256 L384 256 L384 320 L384 384 L320 384 L256 384 L256 256 L256 128 L128 128 L0 128 L0 576 Z " />
<glyph glyph-name="l" unicode="l" horiz-adv-x="1024" d="M256 960 L256 1024 L448 1024 L640 1024 L640 640 L640 256 L768 256 L896 256 L896 192 L896 128 L512 128 L128 128 L128 192 L128 256 L256 256 L384 256 L384 576 L384 896 L320 896 L256 896 L256 960 Z " />
<glyph glyph-name="m" unicode="m" horiz-adv-x="1024" d="M0 448 L0 768 L384 768 L768 768 L768 704 L768 640 L832 640 L896 640 L896 384 L896 128 L768 128 L640 128 L640 384 L640 640 L576 640 L512 640 L512 384 L512 128 L384 128 L256 128 L256 384 L256 640 L192 640 L128 640 L128 384 L128 128 L64 128 L0 128 L0 448 Z " />
<glyph glyph-name="n" unicode="n" horiz-adv-x="1024" d="M0 448 L0 768 L384 768 L768 768 L768 704 L768 640 L832 640 L896 640 L896 384 L896 128 L768 128 L640 128 L640 384 L640 640 L448 640 L256 640 L256 384 L256 128 L128 128 L0 128 L0 448 Z " />
<glyph glyph-name="o" unicode="o" horiz-adv-x="1024" d="M128 704 L128 768 L448 768 L768 768 L768 704 L768 640 L832 640 L896 640 L896 448 L896 256 L832 256 L768 256 L768 192 L768 128 L448 128 L128 128 L128 192 L128 256 L64 256 L0 256 L0 448 L0 640 L64 640 L128 640 L128 704 Z M640 448 L640 640 L448 640 L256 640 L256 448 L256 256 L448 256 L640 256 L640 448 Z " />
<glyph glyph-name="p" unicode="p" horiz-adv-x="1024" d="M0 384 L0 768 L384 768 L768 768 L768 704 L768 640 L832 640 L896 640 L896 512 L896 384 L832 384 L768 384 L768 320 L768 256 L512 256 L256 256 L256 128 L256 0 L128 0 L0 0 L0 384 Z M640 512 L640 640 L448 640 L256 640 L256 512 L256 384 L448 384 L640 384 L640 512 Z " />
<glyph glyph-name="q" unicode="q" horiz-adv-x="1024" d="M128 704 L128 768 L512 768 L896 768 L896 384 L896 0 L768 0 L640 0 L640 128 L640 256 L384 256 L128 256 L128 320 L128 384 L64 384 L0 384 L0 512 L0 640 L64 640 L128 640 L128 704 Z M640 512 L640 640 L448 640 L256 640 L256 512 L256 384 L448 384 L640 384 L640 512 Z " />
<glyph glyph-name="r" unicode="r" horiz-adv-x="1024" d="M128 448 L128 768 L256 768 L384 768 L384 704 L384 640 L448 640 L512 640 L512 704 L512 768 L704 768 L896 768 L896 704 L896 640 L704 640 L512 640 L512 576 L512 512 L448 512 L384 512 L384 320 L384 128 L256 128 L128 128 L128 448 Z " />
<glyph glyph-name="s" unicode="s" horiz-adv-x="1024" d="M128 704 L128 768 L448 768 L768 768 L768 704 L768 640 L512 640 L256 640 L256 576 L256 512 L512 512 L768 512 L768 448 L768 384 L832 384 L896 384 L896 320 L896 256 L832 256 L768 256 L768 192 L768 128 L384 128 L0 128 L0 192 L0 256 L320 256 L640 256 L640 320 L640 384 L384 384 L128 384 L128 448 L128 512 L64 512 L0 512 L0 576 L0 640 L64 640 L128 640 L128 704 Z " />
<glyph glyph-name="t" unicode="t" horiz-adv-x="1024" d="M384 896 L384 1024 L512 1024 L640 1024 L640 896 L640 768 L768 768 L896 768 L896 704 L896 640 L768 640 L640 640 L640 384 L640 128 L512 128 L384 128 L384 384 L384 640 L256 640 L128 640 L128 704 L128 768 L256 768 L384 768 L384 896 Z " />
<glyph glyph-name="u" unicode="u" horiz-adv-x="1024" d="M0 512 L0 768 L128 768 L256 768 L256 512 L256 256 L448 256 L640 256 L640 512 L640 768 L768 768 L896 768 L896 448 L896 128 L512 128 L128 128 L128 192 L128 256 L64 256 L0 256 L0 512 Z " />
<glyph glyph-name="v" unicode="v" horiz-adv-x="1024" d="M128 576 L128 768 L256 768 L384 768 L384 576 L384 384 L512 384 L640 384 L640 576 L640 768 L768 768 L896 768 L896 576 L896 384 L832 384 L768 384 L768 320 L768 256 L704 256 L640 256 L640 192 L640 128 L512 128 L384 128 L384 192 L384 256 L320 256 L256 256 L256 320 L256 384 L192 384 L128 384 L128 576 Z " />
<glyph glyph-name="w" unicode="w" horiz-adv-x="1024" d="M0 512 L0 768 L64 768 L128 768 L128 512 L128 256 L192 256 L256 256 L256 512 L256 768 L384 768 L512 768 L512 512 L512 256 L576 256 L640 256 L640 512 L640 768 L768 768 L896 768 L896 448 L896 128 L512 128 L128 128 L128 192 L128 256 L64 256 L0 256 L0 512 Z " />
<glyph glyph-name="x" unicode="x" horiz-adv-x="1024" d="M0 640 L0 768 L128 768 L256 768 L256 704 L256 640 L448 640 L640 640 L640 704 L640 768 L768 768 L896 768 L896 640 L896 512 L768 512 L640 512 L640 448 L640 384 L768 384 L896 384 L896 256 L896 128 L768 128 L640 128 L640 192 L640 256 L448 256 L256 256 L256 192 L256 128 L128 128 L0 128 L0 256 L0 384 L128 384 L256 384 L256 448 L256 512 L128 512 L0 512 L0 640 Z " />
<glyph glyph-name="y" unicode="y" horiz-adv-x="1024" d="M0 576 L0 768 L128 768 L256 768 L256 576 L256 384 L448 384 L640 384 L640 576 L640 768 L768 768 L896 768 L896 448 L896 128 L832 128 L768 128 L768 64 L768 0 L448 0 L128 0 L128 64 L128 128 L384 128 L640 128 L640 192 L640 256 L384 256 L128 256 L128 320 L128 384 L64 384 L0 384 L0 576 Z " />
<glyph glyph-name="z" unicode="z" horiz-adv-x="1024" d="M0 704 L0 768 L448 768 L896 768 L896 704 L896 640 L832 640 L768 640 L768 576 L768 512 L704 512 L640 512 L640 448 L640 384 L576 384 L512 384 L512 320 L512 256 L704 256 L896 256 L896 192 L896 128 L448 128 L0 128 L0 192 L0 256 L64 256 L128 256 L128 320 L128 384 L192 384 L256 384 L256 448 L256 512 L320 512 L384 512 L384 576 L384 640 L192 640 L0 640 L0 704 Z " />
<glyph glyph-name="braceleft" unicode="&#x7b;" horiz-adv-x="1024" d="M512 960 L512 1024 L640 1024 L768 1024 L768 960 L768 896 L704 896 L640 896 L640 768 L640 640 L576 640 L512 640 L512 576 L512 512 L576 512 L640 512 L640 384 L640 256 L704 256 L768 256 L768 192 L768 128 L640 128 L512 128 L512 192 L512 256 L448 256 L384 256 L384 384 L384 512 L320 512 L256 512 L256 576 L256 640 L320 640 L384 640 L384 768 L384 896 L448 896 L512 896 L512 960 Z " />
<glyph glyph-name="bar" unicode="&#x7c;" horiz-adv-x="1024" d="M384 576 L384 1024 L512 1024 L640 1024 L640 576 L640 128 L512 128 L384 128 L384 576 Z " />
<glyph glyph-name="braceright" unicode="&#x7d;" horiz-adv-x="1024" d="M128 960 L128 1024 L256 1024 L384 1024 L384 960 L384 896 L448 896 L512 896 L512 768 L512 640 L576 640 L640 640 L640 576 L640 512 L576 512 L512 512 L512 384 L512 256 L448 256 L384 256 L384 192 L384 128 L256 128 L128 128 L128 192 L128 256 L192 256 L256 256 L256 384 L256 512 L320 512 L384 512 L384 576 L384 640 L320 640 L256 640 L256 768 L256 896 L192 896 L128 896 L128 960 Z " />
<glyph glyph-name="asciitilde" unicode="&#x7e;" horiz-adv-x="1024" d="M128 704 L128 768 L320 768 L512 768 L512 704 L512 640 L576 640 L640 640 L640 576 L640 512 L704 512 L768 512 L768 576 L768 640 L832 640 L896 640 L896 576 L896 512 L832 512 L768 512 L768 448 L768 384 L576 384 L384 384 L384 448 L384 512 L320 512 L256 512 L256 576 L256 640 L192 640 L128 640 L128 576 L128 512 L64 512 L0 512 L0 576 L0 640 L64 640 L128 640 L128 704 Z " />
<glyph glyph-name="uni007F" unicode="&#x7f;" horiz-adv-x="1024" d="M512 256 L512 384 L640 384 L768 384 L768 256 L768 128 L640 128 L512 128 L512 256 Z M128 256 L128 384 L256 384 L384 384 L384 256 L384 128 L256 128 L128 128 L128 256 Z " />
<glyph glyph-name="uni00A0" unicode="&#xa0;" horiz-adv-x="1024" d="" />
<glyph glyph-name="exclamdown" unicode="&#xa1;" horiz-adv-x="1024" d="M384 640 L384 768 L512 768 L640 768 L640 448 L640 128 L448 128 L256 128 L256 320 L256 512 L320 512 L384 512 L384 640 Z M384 960 L384 1024 L512 1024 L640 1024 L640 960 L640 896 L512 896 L384 896 L384 960 Z " />
<glyph glyph-name="cent" unicode="&#xa2;" horiz-adv-x="1024" d="M384 960 L384 1024 L448 1024 L512 1024 L512 960 L512 896 L640 896 L768 896 L768 832 L768 768 L832 768 L896 768 L896 704 L896 640 L768 640 L640 640 L640 704 L640 768 L576 768 L512 768 L512 576 L512 384 L576 384 L640 384 L640 448 L640 512 L768 512 L896 512 L896 448 L896 384 L832 384 L768 384 L768 320 L768 256 L640 256 L512 256 L512 192 L512 128 L448 128 L384 128 L384 192 L384 256 L256 256 L128 256 L128 320 L128 384 L64 384 L0 384 L0 576 L0 768 L64 768 L128 768 L128 832 L128 896 L256 896 L384 896 L384 960 Z M384 576 L384 768 L320 768 L256 768 L256 576 L256 384 L320 384 L384 384 L384 576 Z " />
<glyph glyph-name="sterling" unicode="&#xa3;" horiz-adv-x="1024" d="M256 960 L256 1024 L512 1024 L768 1024 L768 960 L768 896 L832 896 L896 896 L896 832 L896 768 L768 768 L640 768 L640 832 L640 896 L512 896 L384 896 L384 768 L384 640 L576 640 L768 640 L768 576 L768 512 L576 512 L384 512 L384 384 L384 256 L640 256 L896 256 L896 192 L896 128 L448 128 L0 128 L0 192 L0 256 L64 256 L128 256 L128 384 L128 512 L64 512 L0 512 L0 576 L0 640 L64 640 L128 640 L128 768 L128 896 L192 896 L256 896 L256 960 Z " />
<glyph glyph-name="currency" unicode="&#xa4;" horiz-adv-x="1024" d="M128 832 L128 896 L192 896 L256 896 L256 832 L256 768 L320 768 L384 768 L384 832 L384 896 L512 896 L640 896 L640 832 L640 768 L704 768 L768 768 L768 832 L768 896 L832 896 L896 896 L896 832 L896 768 L832 768 L768 768 L768 576 L768 384 L832 384 L896 384 L896 320 L896 256 L832 256 L768 256 L768 320 L768 384 L704 384 L640 384 L640 320 L640 256 L512 256 L384 256 L384 320 L384 384 L320 384 L256 384 L256 320 L256 256 L192 256 L128 256 L128 320 L128 384 L192 384 L256 384 L256 576 L256 768 L192 768 L128 768 L128 832 Z M640 576 L640 768 L512 768 L384 768 L384 576 L384 384 L512 384 L640 384 L640 576 Z " />
<glyph glyph-name="yen" unicode="&#xa5;" horiz-adv-x="1024" d="M128 896 L128 1024 L256 1024 L384 1024 L384 896 L384 768 L512 768 L640 768 L640 896 L640 1024 L768 1024 L896 1024 L896 896 L896 768 L832 768 L768 768 L768 704 L768 640 L832 640 L896 640 L896 576 L896 512 L768 512 L640 512 L640 448 L640 384 L768 384 L896 384 L896 320 L896 256 L768 256 L640 256 L640 192 L640 128 L512 128 L384 128 L384 192 L384 256 L256 256 L128 256 L128 320 L128 384 L256 384 L384 384 L384 448 L384 512 L256 512 L128 512 L128 576 L128 640 L192 640 L256 640 L256 704 L256 768 L192 768 L128 768 L128 896 Z " />
<glyph glyph-name="brokenbar" unicode="&#xa6;" horiz-adv-x="1024" d="M384 320 L384 512 L512 512 L640 512 L640 320 L640 128 L512 128 L384 128 L384 320 Z M384 832 L384 1024 L512 1024 L640 1024 L640 832 L640 640 L512 640 L384 640 L384 832 Z " />
<glyph glyph-name="section" unicode="&#xa7;" horiz-adv-x="1024" d="M256 960 L256 1024 L512 1024 L768 1024 L768 960 L768 896 L832 896 L896 896 L896 832 L896 768 L768 768 L640 768 L640 704 L640 640 L704 640 L768 640 L768 576 L768 512 L832 512 L896 512 L896 384 L896 256 L832 256 L768 256 L768 192 L768 128 L512 128 L256 128 L256 192 L256 256 L192 256 L128 256 L128 320 L128 384 L256 384 L384 384 L384 448 L384 512 L320 512 L256 512 L256 576 L256 640 L192 640 L128 640 L128 768 L128 896 L192 896 L256 896 L256 960 Z M640 832 L640 896 L512 896 L384 896 L384 832 L384 768 L512 768 L640 768 L640 832 Z M640 576 L640 640 L512 640 L384 640 L384 576 L384 512 L512 512 L640 512 L640 576 Z M640 320 L640 384 L512 384 L384 384 L384 320 L384 256 L512 256 L640 256 L640 320 Z " />
<glyph glyph-name="dieresis" unicode="&#xa8;" horiz-adv-x="1024" d="M512 960 L512 1024 L640 1024 L768 1024 L768 960 L768 896 L640 896 L512 896 L512 960 Z M128 960 L128 1024 L256 1024 L384 1024 L384 960 L384 896 L256 896 L128 896 L128 960 Z " />
<glyph glyph-name="copyright" unicode="&#xa9;" horiz-adv-x="1024" d="M384 704 L384 768 L512 768 L640 768 L640 704 L640 640 L512 640 L384 640 L384 512 L384 384 L512 384 L640 384 L640 320 L640 256 L512 256 L384 256 L384 320 L384 384 L320 384 L256 384 L256 512 L256 640 L320 640 L384 640 L384 704 Z M256 960 L256 1024 L512 1024 L768 1024 L768 960 L768 896 L832 896 L896 896 L896 832 L896 768 L960 768 L1024 768 L1024 512 L1024 256 L960 256 L896 256 L896 192 L896 128 L832 128 L768 128 L768 64 L768 0 L512 0 L256 0 L256 64 L256 128 L192 128 L128 128 L128 192 L128 256 L64 256 L0 256 L0 512 L0 768 L64 768 L128 768 L128 832 L128 896 L192 896 L256 896 L256 960 Z M768 832 L768 896 L512 896 L256 896 L256 832 L256 768 L192 768 L128 768 L128 512 L128 256 L192 256 L256 256 L256 192 L256 128 L512 128 L768 128 L768 192 L768 256 L832 256 L896 256 L896 512 L896 768 L832 768 L768 768 L768 832 Z " />
<glyph glyph-name="ordfeminine" unicode="&#xaa;" horiz-adv-x="1024" d="M128 960 L128 1024 L384 1024 L640 1024 L640 960 L640 896 L704 896 L768 896 L768 704 L768 512 L512 512 L256 512 L256 576 L256 640 L192 640 L128 640 L128 704 L128 768 L192 768 L256 768 L256 832 L256 896 L192 896 L128 896 L128 960 Z M512 704 L512 768 L448 768 L384 768 L384 704 L384 640 L448 640 L512 640 L512 704 Z " />
<glyph glyph-name="guillemotleft" unicode="&#xab;" horiz-adv-x="1024" d="M256 832 L256 896 L384 896 L512 896 L512 832 L512 768 L576 768 L640 768 L640 832 L640 896 L768 896 L896 896 L896 832 L896 768 L832 768 L768 768 L768 704 L768 640 L704 640 L640 640 L640 576 L640 512 L704 512 L768 512 L768 448 L768 384 L832 384 L896 384 L896 320 L896 256 L768 256 L640 256 L640 320 L640 384 L576 384 L512 384 L512 320 L512 256 L384 256 L256 256 L256 320 L256 384 L192 384 L128 384 L128 448 L128 512 L64 512 L0 512 L0 576 L0 640 L64 640 L128 640 L128 704 L128 768 L192 768 L256 768 L256 832 Z M512 704 L512 768 L448 768 L384 768 L384 704 L384 640 L320 640 L256 640 L256 576 L256 512 L320 512 L384 512 L384 448 L384 384 L448 384 L512 384 L512 448 L512 512 L448 512 L384 512 L384 576 L384 640 L448 640 L512 640 L512 704 Z " />
<glyph glyph-name="logicalnot" unicode="&#xac;" horiz-adv-x="1024" d="M128 704 L128 768 L512 768 L896 768 L896 576 L896 384 L768 384 L640 384 L640 512 L640 640 L384 640 L128 640 L128 704 Z " />
<glyph glyph-name="uni00AD" unicode="&#xad;" horiz-adv-x="1024" d="M128 576 L128 640 L512 640 L896 640 L896 576 L896 512 L512 512 L128 512 L128 576 Z " />
<glyph glyph-name="registered" unicode="&#xae;" horiz-adv-x="1024" d="M256 512 L256 768 L448 768 L640 768 L640 704 L640 640 L704 640 L768 640 L768 576 L768 512 L704 512 L640 512 L640 448 L640 384 L704 384 L768 384 L768 320 L768 256 L704 256 L640 256 L640 320 L640 384 L512 384 L384 384 L384 320 L384 256 L320 256 L256 256 L256 512 Z M640 576 L640 640 L512 640 L384 640 L384 576 L384 512 L512 512 L640 512 L640 576 Z M256 960 L256 1024 L512 1024 L768 1024 L768 960 L768 896 L832 896 L896 896 L896 832 L896 768 L960 768 L1024 768 L1024 512 L1024 256 L960 256 L896 256 L896 192 L896 128 L832 128 L768 128 L768 64 L768 0 L512 0 L256 0 L256 64 L256 128 L192 128 L128 128 L128 192 L128 256 L64 256 L0 256 L0 512 L0 768 L64 768 L128 768 L128 832 L128 896 L192 896 L256 896 L256 960 Z M768 832 L768 896 L512 896 L256 896 L256 832 L256 768 L192 768 L128 768 L128 512 L128 256 L192 256 L256 256 L256 192 L256 128 L512 128 L768 128 L768 192 L768 256 L832 256 L896 256 L896 512 L896 768 L832 768 L768 768 L768 832 Z " />
<glyph glyph-name="overscore" unicode="&#xaf;" horiz-adv-x="1024" d="M128 960 L128 1024 L448 1024 L768 1024 L768 960 L768 896 L448 896 L128 896 L128 960 Z " />
<glyph glyph-name="degree" unicode="&#xb0;" horiz-adv-x="1024" d="M384 960 L384 1024 L448 1024 L512 1024 L512 960 L512 896 L576 896 L640 896 L640 832 L640 768 L576 768 L512 768 L512 704 L512 640 L448 640 L384 640 L384 704 L384 768 L320 768 L256 768 L256 832 L256 896 L320 896 L384 896 L384 960 Z M512 832 L512 896 L448 896 L384 896 L384 832 L384 768 L448 768 L512 768 L512 832 Z " />
<glyph glyph-name="plusminus" unicode="&#xb1;" horiz-adv-x="1024" d="M128 192 L128 256 L512 256 L896 256 L896 192 L896 128 L512 128 L128 128 L128 192 Z M384 896 L384 1024 L512 1024 L640 1024 L640 896 L640 768 L768 768 L896 768 L896 704 L896 640 L768 640 L640 640 L640 512 L640 384 L512 384 L384 384 L384 512 L384 640 L256 640 L128 640 L128 704 L128 768 L256 768 L384 768 L384 896 Z " />
<glyph glyph-name="uni00B2" unicode="&#xb2;" horiz-adv-x="1024" d="M256 960 L256 1024 L448 1024 L640 1024 L640 960 L640 896 L704 896 L768 896 L768 832 L768 768 L704 768 L640 768 L640 704 L640 640 L704 640 L768 640 L768 576 L768 512 L512 512 L256 512 L256 576 L256 640 L320 640 L384 640 L384 704 L384 768 L448 768 L512 768 L512 832 L512 896 L384 896 L256 896 L256 960 Z " />
<glyph glyph-name="uni00B3" unicode="&#xb3;" horiz-adv-x="1024" d="M256 960 L256 1024 L512 1024 L768 1024 L768 960 L768 896 L704 896 L640 896 L640 832 L640 768 L704 768 L768 768 L768 704 L768 640 L704 640 L640 640 L640 576 L640 512 L448 512 L256 512 L256 576 L256 640 L384 640 L512 640 L512 704 L512 768 L448 768 L384 768 L384 832 L384 896 L320 896 L256 896 L256 960 Z " />
<glyph glyph-name="acute" unicode="&#xb4;" horiz-adv-x="1024" d="M512 960 L512 1024 L576 1024 L640 1024 L640 960 L640 896 L576 896 L512 896 L512 832 L512 768 L448 768 L384 768 L384 832 L384 896 L448 896 L512 896 L512 960 Z " />
<glyph glyph-name="uni00B5" unicode="&#xb5;" horiz-adv-x="1024" d="M0 384 L0 768 L128 768 L256 768 L256 512 L256 256 L384 256 L512 256 L512 512 L512 768 L640 768 L768 768 L768 512 L768 256 L832 256 L896 256 L896 192 L896 128 L768 128 L640 128 L640 192 L640 256 L576 256 L512 256 L512 192 L512 128 L384 128 L256 128 L256 64 L256 0 L128 0 L0 0 L0 384 Z " />
<glyph glyph-name="paragraph" unicode="&#xb6;" horiz-adv-x="1024" d="M256 960 L256 1024 L576 1024 L896 1024 L896 576 L896 128 L832 128 L768 128 L768 256 L768 384 L704 384 L640 384 L640 256 L640 128 L576 128 L512 128 L512 256 L512 384 L384 384 L256 384 L256 448 L256 512 L192 512 L128 512 L128 704 L128 896 L192 896 L256 896 L256 960 Z M512 704 L512 896 L448 896 L384 896 L384 832 L384 768 L320 768 L256 768 L256 704 L256 640 L320 640 L384 640 L384 576 L384 512 L448 512 L512 512 L512 704 Z M768 704 L768 896 L704 896 L640 896 L640 704 L640 512 L704 512 L768 512 L768 704 Z " />
<glyph glyph-name="middot" unicode="&#xb7;" horiz-adv-x="1024" d="M256 512 L256 640 L384 640 L512 640 L512 512 L512 384 L384 384 L256 384 L256 512 Z " />
<glyph glyph-name="cedilla" unicode="&#xb8;" horiz-adv-x="1024" d="M512 192 L512 256 L576 256 L640 256 L640 192 L640 128 L576 128 L512 128 L512 64 L512 0 L384 0 L256 0 L256 64 L256 128 L384 128 L512 128 L512 192 Z " />
<glyph glyph-name="uni00B9" unicode="&#xb9;" horiz-adv-x="1024" d="M384 960 L384 1024 L512 1024 L640 1024 L640 832 L640 640 L704 640 L768 640 L768 576 L768 512 L512 512 L256 512 L256 576 L256 640 L320 640 L384 640 L384 704 L384 768 L320 768 L256 768 L256 832 L256 896 L320 896 L384 896 L384 960 Z " />
<glyph glyph-name="ordmasculine" unicode="&#xba;" horiz-adv-x="1024" d="M256 960 L256 1024 L448 1024 L640 1024 L640 960 L640 896 L704 896 L768 896 L768 768 L768 640 L704 640 L640 640 L640 576 L640 512 L448 512 L256 512 L256 576 L256 640 L192 640 L128 640 L128 768 L128 896 L192 896 L256 896 L256 960 Z M512 768 L512 896 L448 896 L384 896 L384 768 L384 640 L448 640 L512 640 L512 768 Z " />
<glyph glyph-name="guillemotright" unicode="&#xbb;" horiz-adv-x="1024" d="M0 832 L0 896 L128 896 L256 896 L256 832 L256 768 L320 768 L384 768 L384 832 L384 896 L512 896 L640 896 L640 832 L640 768 L704 768 L768 768 L768 704 L768 640 L832 640 L896 640 L896 576 L896 512 L832 512 L768 512 L768 448 L768 384 L704 384 L640 384 L640 320 L640 256 L512 256 L384 256 L384 320 L384 384 L320 384 L256 384 L256 320 L256 256 L128 256 L0 256 L0 320 L0 384 L64 384 L128 384 L128 448 L128 512 L192 512 L256 512 L256 576 L256 640 L192 640 L128 640 L128 704 L128 768 L64 768 L0 768 L0 832 Z M512 704 L512 768 L448 768 L384 768 L384 704 L384 640 L448 640 L512 640 L512 576 L512 512 L448 512 L384 512 L384 448 L384 384 L448 384 L512 384 L512 448 L512 512 L576 512 L640 512 L640 576 L640 640 L576 640 L512 640 L512 704 Z " />
<glyph glyph-name="onequarter" unicode="&#xbc;" horiz-adv-x="1024" d="M768 576 L768 640 L832 640 L896 640 L896 384 L896 128 L832 128 L768 128 L768 192 L768 256 L640 256 L512 256 L512 320 L512 384 L576 384 L640 384 L640 448 L640 512 L704 512 L768 512 L768 576 Z M128 960 L128 1024 L192 1024 L256 1024 L256 768 L256 512 L320 512 L384 512 L384 576 L384 640 L448 640 L512 640 L512 704 L512 768 L576 768 L640 768 L640 832 L640 896 L704 896 L768 896 L768 960 L768 1024 L832 1024 L896 1024 L896 960 L896 896 L832 896 L768 896 L768 832 L768 768 L704 768 L640 768 L640 704 L640 640 L576 640 L512 640 L512 576 L512 512 L448 512 L384 512 L384 448 L384 384 L320 384 L256 384 L256 320 L256 256 L192 256 L128 256 L128 192 L128 128 L64 128 L0 128 L0 192 L0 256 L64 256 L128 256 L128 320 L128 384 L192 384 L256 384 L256 448 L256 512 L192 512 L128 512 L128 640 L128 768 L64 768 L0 768 L0 832 L0 896 L64 896 L128 896 L128 960 Z " />
<glyph glyph-name="onehalf" unicode="&#xbd;" horiz-adv-x="1024" d="M128 960 L128 1024 L192 1024 L256 1024 L256 768 L256 512 L320 512 L384 512 L384 576 L384 640 L448 640 L512 640 L512 704 L512 768 L576 768 L640 768 L640 832 L640 896 L704 896 L768 896 L768 960 L768 1024 L832 1024 L896 1024 L896 960 L896 896 L832 896 L768 896 L768 832 L768 768 L704 768 L640 768 L640 704 L640 640 L768 640 L896 640 L896 512 L896 384 L832 384 L768 384 L768 320 L768 256 L832 256 L896 256 L896 192 L896 128 L704 128 L512 128 L512 192 L512 256 L576 256 L640 256 L640 320 L640 384 L704 384 L768 384 L768 448 L768 512 L704 512 L640 512 L640 576 L640 640 L576 640 L512 640 L512 576 L512 512 L448 512 L384 512 L384 448 L384 384 L320 384 L256 384 L256 320 L256 256 L192 256 L128 256 L128 192 L128 128 L64 128 L0 128 L0 192 L0 256 L64 256 L128 256 L128 320 L128 384 L192 384 L256 384 L256 448 L256 512 L192 512 L128 512 L128 640 L128 768 L64 768 L0 768 L0 832 L0 896 L64 896 L128 896 L128 960 Z " />
<glyph glyph-name="threequarters" unicode="&#xbe;" horiz-adv-x="1024" d="M768 576 L768 640 L832 640 L896 640 L896 384 L896 128 L832 128 L768 128 L768 192 L768 256 L640 256 L512 256 L512 320 L512 384 L576 384 L640 384 L640 448 L640 512 L704 512 L768 512 L768 576 Z M0 960 L0 1024 L192 1024 L384 1024 L384 960 L384 896 L320 896 L256 896 L256 832 L256 768 L320 768 L384 768 L384 704 L384 640 L448 640 L512 640 L512 704 L512 768 L576 768 L640 768 L640 832 L640 896 L704 896 L768 896 L768 960 L768 1024 L832 1024 L896 1024 L896 960 L896 896 L832 896 L768 896 L768 832 L768 768 L704 768 L640 768 L640 704 L640 640 L576 640 L512 640 L512 576 L512 512 L448 512 L384 512 L384 448 L384 384 L320 384 L256 384 L256 320 L256 256 L192 256 L128 256 L128 192 L128 128 L64 128 L0 128 L0 192 L0 256 L64 256 L128 256 L128 320 L128 384 L192 384 L256 384 L256 448 L256 512 L128 512 L0 512 L0 576 L0 640 L128 640 L256 640 L256 704 L256 768 L192 768 L128 768 L128 832 L128 896 L64 896 L0 896 L0 960 Z M384 576 L384 640 L320 640 L256 640 L256 576 L256 512 L320 512 L384 512 L384 576 Z " />
<glyph glyph-name="questiondown" unicode="&#xbf;" horiz-adv-x="1024" d="M256 704 L256 768 L448 768 L640 768 L640 704 L640 640 L512 640 L384 640 L384 576 L384 512 L320 512 L256 512 L256 448 L256 384 L448 384 L640 384 L640 448 L640 512 L768 512 L896 512 L896 384 L896 256 L832 256 L768 256 L768 192 L768 128 L448 128 L128 128 L128 192 L128 256 L64 256 L0 256 L0 384 L0 512 L64 512 L128 512 L128 576 L128 640 L192 640 L256 640 L256 704 Z M256 960 L256 1024 L448 1024 L640 1024 L640 960 L640 896 L448 896 L256 896 L256 960 Z " />
<glyph glyph-name="Agrave" unicode="&#xc0;" horiz-adv-x="1024" d="M256 960 L256 1024 L320 1024 L384 1024 L384 960 L384 896 L448 896 L512 896 L512 832 L512 768 L576 768 L640 768 L640 704 L640 640 L704 640 L768 640 L768 576 L768 512 L832 512 L896 512 L896 320 L896 128 L768 128 L640 128 L640 192 L640 256 L448 256 L256 256 L256 192 L256 128 L128 128 L0 128 L0 320 L0 512 L64 512 L128 512 L128 576 L128 640 L192 640 L256 640 L256 704 L256 768 L320 768 L384 768 L384 832 L384 896 L320 896 L256 896 L256 960 Z M512 576 L512 640 L448 640 L384 640 L384 576 L384 512 L320 512 L256 512 L256 448 L256 384 L448 384 L640 384 L640 448 L640 512 L576 512 L512 512 L512 576 Z " />
<glyph glyph-name="Aacute" unicode="&#xc1;" horiz-adv-x="1024" d="M512 960 L512 1024 L576 1024 L640 1024 L640 960 L640 896 L576 896 L512 896 L512 832 L512 768 L576 768 L640 768 L640 704 L640 640 L704 640 L768 640 L768 576 L768 512 L832 512 L896 512 L896 320 L896 128 L768 128 L640 128 L640 192 L640 256 L448 256 L256 256 L256 192 L256 128 L128 128 L0 128 L0 320 L0 512 L64 512 L128 512 L128 576 L128 640 L192 640 L256 640 L256 704 L256 768 L320 768 L384 768 L384 832 L384 896 L448 896 L512 896 L512 960 Z M512 576 L512 640 L448 640 L384 640 L384 576 L384 512 L320 512 L256 512 L256 448 L256 384 L448 384 L640 384 L640 448 L640 512 L576 512 L512 512 L512 576 Z " />
<glyph glyph-name="Acircumflex" unicode="&#xc2;" horiz-adv-x="1024" d="M256 960 L256 1024 L448 1024 L640 1024 L640 960 L640 896 L704 896 L768 896 L768 832 L768 768 L704 768 L640 768 L640 704 L640 640 L704 640 L768 640 L768 576 L768 512 L832 512 L896 512 L896 320 L896 128 L768 128 L640 128 L640 192 L640 256 L448 256 L256 256 L256 192 L256 128 L128 128 L0 128 L0 320 L0 512 L64 512 L128 512 L128 576 L128 640 L192 640 L256 640 L256 704 L256 768 L192 768 L128 768 L128 832 L128 896 L192 896 L256 896 L256 960 Z M512 832 L512 896 L448 896 L384 896 L384 832 L384 768 L448 768 L512 768 L512 832 Z M512 576 L512 640 L448 640 L384 640 L384 576 L384 512 L320 512 L256 512 L256 448 L256 384 L448 384 L640 384 L640 448 L640 512 L576 512 L512 512 L512 576 Z " />
<glyph glyph-name="Atilde" unicode="&#xc3;" horiz-adv-x="1024" d="M256 960 L256 1024 L384 1024 L512 1024 L512 960 L512 896 L576 896 L640 896 L640 960 L640 1024 L704 1024 L768 1024 L768 960 L768 896 L704 896 L640 896 L640 768 L640 640 L704 640 L768 640 L768 576 L768 512 L832 512 L896 512 L896 320 L896 128 L768 128 L640 128 L640 192 L640 256 L448 256 L256 256 L256 192 L256 128 L128 128 L0 128 L0 320 L0 512 L64 512 L128 512 L128 576 L128 640 L192 640 L256 640 L256 704 L256 768 L192 768 L128 768 L128 832 L128 896 L192 896 L256 896 L256 960 Z M384 832 L384 896 L320 896 L256 896 L256 832 L256 768 L320 768 L384 768 L384 832 Z M512 576 L512 640 L448 640 L384 640 L384 576 L384 512 L320 512 L256 512 L256 448 L256 384 L448 384 L640 384 L640 448 L640 512 L576 512 L512 512 L512 576 Z " />
<glyph glyph-name="Adieresis" unicode="&#xc4;" horiz-adv-x="1024" d="M256 704 L256 768 L448 768 L640 768 L640 704 L640 640 L704 640 L768 640 L768 576 L768 512 L832 512 L896 512 L896 320 L896 128 L768 128 L640 128 L640 192 L640 256 L448 256 L256 256 L256 192 L256 128 L128 128 L0 128 L0 320 L0 512 L64 512 L128 512 L128 576 L128 640 L192 640 L256 640 L256 704 Z M512 576 L512 640 L448 640 L384 640 L384 576 L384 512 L320 512 L256 512 L256 448 L256 384 L448 384 L640 384 L640 448 L640 512 L576 512 L512 512 L512 576 Z M512 960 L512 1024 L640 1024 L768 1024 L768 960 L768 896 L640 896 L512 896 L512 960 Z M128 960 L128 1024 L256 1024 L384 1024 L384 960 L384 896 L256 896 L128 896 L128 960 Z " />
<glyph glyph-name="Aring" unicode="&#xc5;" horiz-adv-x="1024" d="M384 960 L384 1024 L448 1024 L512 1024 L512 960 L512 896 L576 896 L640 896 L640 768 L640 640 L704 640 L768 640 L768 576 L768 512 L832 512 L896 512 L896 320 L896 128 L768 128 L640 128 L640 192 L640 256 L448 256 L256 256 L256 192 L256 128 L128 128 L0 128 L0 320 L0 512 L64 512 L128 512 L128 576 L128 640 L192 640 L256 640 L256 768 L256 896 L320 896 L384 896 L384 960 Z M512 832 L512 896 L448 896 L384 896 L384 832 L384 768 L448 768 L512 768 L512 832 Z M512 576 L512 640 L448 640 L384 640 L384 576 L384 512 L320 512 L256 512 L256 448 L256 384 L448 384 L640 384 L640 448 L640 512 L576 512 L512 512 L512 576 Z " />
<glyph glyph-name="AE" unicode="&#xc6;" horiz-adv-x="1024" d="M256 960 L256 1024 L576 1024 L896 1024 L896 960 L896 896 L768 896 L640 896 L640 768 L640 640 L768 640 L896 640 L896 576 L896 512 L768 512 L640 512 L640 384 L640 256 L768 256 L896 256 L896 192 L896 128 L640 128 L384 128 L384 256 L384 384 L320 384 L256 384 L256 256 L256 128 L128 128 L0 128 L0 448 L0 768 L64 768 L128 768 L128 832 L128 896 L192 896 L256 896 L256 960 Z M384 640 L384 768 L320 768 L256 768 L256 640 L256 512 L320 512 L384 512 L384 640 Z " />
<glyph glyph-name="Ccedilla" unicode="&#xc7;" horiz-adv-x="1024" d="M256 960 L256 1024 L512 1024 L768 1024 L768 960 L768 896 L832 896 L896 896 L896 832 L896 768 L768 768 L640 768 L640 832 L640 896 L512 896 L384 896 L384 832 L384 768 L320 768 L256 768 L256 640 L256 512 L320 512 L384 512 L384 448 L384 384 L512 384 L640 384 L640 448 L640 512 L768 512 L896 512 L896 448 L896 384 L832 384 L768 384 L768 320 L768 256 L704 256 L640 256 L640 192 L640 128 L576 128 L512 128 L512 64 L512 0 L384 0 L256 0 L256 64 L256 128 L384 128 L512 128 L512 192 L512 256 L384 256 L256 256 L256 320 L256 384 L192 384 L128 384 L128 448 L128 512 L64 512 L0 512 L0 640 L0 768 L64 768 L128 768 L128 832 L128 896 L192 896 L256 896 L256 960 Z " />
<glyph glyph-name="Egrave" unicode="&#xc8;" horiz-adv-x="1024" d="M256 960 L256 1024 L320 1024 L384 1024 L384 960 L384 896 L448 896 L512 896 L512 832 L512 768 L704 768 L896 768 L896 704 L896 640 L576 640 L256 640 L256 576 L256 512 L512 512 L768 512 L768 448 L768 384 L512 384 L256 384 L256 320 L256 256 L576 256 L896 256 L896 192 L896 128 L448 128 L0 128 L0 448 L0 768 L192 768 L384 768 L384 832 L384 896 L320 896 L256 896 L256 960 Z " />
<glyph glyph-name="Eacute" unicode="&#xc9;" horiz-adv-x="1024" d="M512 960 L512 1024 L576 1024 L640 1024 L640 960 L640 896 L576 896 L512 896 L512 832 L512 768 L704 768 L896 768 L896 704 L896 640 L576 640 L256 640 L256 576 L256 512 L512 512 L768 512 L768 448 L768 384 L512 384 L256 384 L256 320 L256 256 L576 256 L896 256 L896 192 L896 128 L448 128 L0 128 L0 448 L0 768 L192 768 L384 768 L384 832 L384 896 L448 896 L512 896 L512 960 Z " />
<glyph glyph-name="Ecircumflex" unicode="&#xca;" horiz-adv-x="1024" d="M256 960 L256 1024 L448 1024 L640 1024 L640 960 L640 896 L704 896 L768 896 L768 832 L768 768 L832 768 L896 768 L896 704 L896 640 L576 640 L256 640 L256 576 L256 512 L512 512 L768 512 L768 448 L768 384 L512 384 L256 384 L256 320 L256 256 L576 256 L896 256 L896 192 L896 128 L448 128 L0 128 L0 448 L0 768 L64 768 L128 768 L128 832 L128 896 L192 896 L256 896 L256 960 Z M512 832 L512 896 L448 896 L384 896 L384 832 L384 768 L448 768 L512 768 L512 832 Z " />
<glyph glyph-name="Edieresis" unicode="&#xcb;" horiz-adv-x="1024" d="M0 448 L0 768 L448 768 L896 768 L896 704 L896 640 L576 640 L256 640 L256 576 L256 512 L512 512 L768 512 L768 448 L768 384 L512 384 L256 384 L256 320 L256 256 L576 256 L896 256 L896 192 L896 128 L448 128 L0 128 L0 448 Z M512 960 L512 1024 L640 1024 L768 1024 L768 960 L768 896 L640 896 L512 896 L512 960 Z M128 960 L128 1024 L256 1024 L384 1024 L384 960 L384 896 L256 896 L128 896 L128 960 Z " />
<glyph glyph-name="Igrave" unicode="&#xcc;" horiz-adv-x="1024" d="M384 960 L384 1024 L448 1024 L512 1024 L512 960 L512 896 L576 896 L640 896 L640 832 L640 768 L768 768 L896 768 L896 704 L896 640 L768 640 L640 640 L640 448 L640 256 L768 256 L896 256 L896 192 L896 128 L512 128 L128 128 L128 192 L128 256 L256 256 L384 256 L384 448 L384 640 L256 640 L128 640 L128 704 L128 768 L320 768 L512 768 L512 832 L512 896 L448 896 L384 896 L384 960 Z " />
<glyph glyph-name="Iacute" unicode="&#xcd;" horiz-adv-x="1024" d="M512 960 L512 1024 L576 1024 L640 1024 L640 960 L640 896 L576 896 L512 896 L512 832 L512 768 L704 768 L896 768 L896 704 L896 640 L768 640 L640 640 L640 448 L640 256 L768 256 L896 256 L896 192 L896 128 L512 128 L128 128 L128 192 L128 256 L256 256 L384 256 L384 448 L384 640 L256 640 L128 640 L128 704 L128 768 L256 768 L384 768 L384 832 L384 896 L448 896 L512 896 L512 960 Z " />
<glyph glyph-name="Icircumflex" unicode="&#xce;" horiz-adv-x="1024" d="M384 960 L384 1024 L512 1024 L640 1024 L640 960 L640 896 L704 896 L768 896 L768 832 L768 768 L832 768 L896 768 L896 704 L896 640 L768 640 L640 640 L640 448 L640 256 L768 256 L896 256 L896 192 L896 128 L512 128 L128 128 L128 192 L128 256 L256 256 L384 256 L384 448 L384 640 L256 640 L128 640 L128 704 L128 768 L192 768 L256 768 L256 832 L256 896 L320 896 L384 896 L384 960 Z " />
<glyph glyph-name="Idieresis" unicode="&#xcf;" horiz-adv-x="1024" d="M128 704 L128 768 L512 768 L896 768 L896 704 L896 640 L768 640 L640 640 L640 448 L640 256 L768 256 L896 256 L896 192 L896 128 L512 128 L128 128 L128 192 L128 256 L256 256 L384 256 L384 448 L384 640 L256 640 L128 640 L128 704 Z M640 960 L640 1024 L768 1024 L896 1024 L896 960 L896 896 L768 896 L640 896 L640 960 Z M128 960 L128 1024 L256 1024 L384 1024 L384 960 L384 896 L256 896 L128 896 L128 960 Z " />
<glyph glyph-name="Eth" unicode="&#xd0;" horiz-adv-x="1024" d="M128 832 L128 1024 L384 1024 L640 1024 L640 960 L640 896 L704 896 L768 896 L768 832 L768 768 L832 768 L896 768 L896 576 L896 384 L832 384 L768 384 L768 320 L768 256 L704 256 L640 256 L640 192 L640 128 L384 128 L128 128 L128 320 L128 512 L64 512 L0 512 L0 576 L0 640 L64 640 L128 640 L128 832 Z M512 832 L512 896 L448 896 L384 896 L384 768 L384 640 L448 640 L512 640 L512 576 L512 512 L448 512 L384 512 L384 384 L384 256 L448 256 L512 256 L512 320 L512 384 L576 384 L640 384 L640 576 L640 768 L576 768 L512 768 L512 832 Z " />
<glyph glyph-name="Ntilde" unicode="&#xd1;" horiz-adv-x="1024" d="M256 960 L256 1024 L384 1024 L512 1024 L512 960 L512 896 L576 896 L640 896 L640 960 L640 1024 L704 1024 L768 1024 L768 960 L768 896 L704 896 L640 896 L640 832 L640 768 L768 768 L896 768 L896 448 L896 128 L704 128 L512 128 L512 192 L512 256 L448 256 L384 256 L384 320 L384 384 L320 384 L256 384 L256 256 L256 128 L128 128 L0 128 L0 448 L0 768 L64 768 L128 768 L128 832 L128 896 L192 896 L256 896 L256 960 Z M384 832 L384 896 L320 896 L256 896 L256 832 L256 768 L320 768 L384 768 L384 704 L384 640 L448 640 L512 640 L512 576 L512 512 L576 512 L640 512 L640 640 L640 768 L512 768 L384 768 L384 832 Z " />
<glyph glyph-name="Ograve" unicode="&#xd2;" horiz-adv-x="1024" d="M256 960 L256 1024 L320 1024 L384 1024 L384 960 L384 896 L448 896 L512 896 L512 832 L512 768 L640 768 L768 768 L768 704 L768 640 L832 640 L896 640 L896 448 L896 256 L832 256 L768 256 L768 192 L768 128 L448 128 L128 128 L128 192 L128 256 L64 256 L0 256 L0 448 L0 640 L64 640 L128 640 L128 704 L128 768 L256 768 L384 768 L384 832 L384 896 L320 896 L256 896 L256 960 Z M640 448 L640 640 L448 640 L256 640 L256 448 L256 256 L448 256 L640 256 L640 448 Z " />
<glyph glyph-name="Oacute" unicode="&#xd3;" horiz-adv-x="1024" d="M512 960 L512 1024 L576 1024 L640 1024 L640 960 L640 896 L576 896 L512 896 L512 832 L512 768 L640 768 L768 768 L768 704 L768 640 L832 640 L896 640 L896 448 L896 256 L832 256 L768 256 L768 192 L768 128 L448 128 L128 128 L128 192 L128 256 L64 256 L0 256 L0 448 L0 640 L64 640 L128 640 L128 704 L128 768 L256 768 L384 768 L384 832 L384 896 L448 896 L512 896 L512 960 Z M640 448 L640 640 L448 640 L256 640 L256 448 L256 256 L448 256 L640 256 L640 448 Z " />
<glyph glyph-name="Ocircumflex" unicode="&#xd4;" horiz-adv-x="1024" d="M256 960 L256 1024 L448 1024 L640 1024 L640 960 L640 896 L704 896 L768 896 L768 768 L768 640 L832 640 L896 640 L896 448 L896 256 L832 256 L768 256 L768 192 L768 128 L448 128 L128 128 L128 192 L128 256 L64 256 L0 256 L0 448 L0 640 L64 640 L128 640 L128 768 L128 896 L192 896 L256 896 L256 960 Z M512 832 L512 896 L448 896 L384 896 L384 832 L384 768 L448 768 L512 768 L512 832 Z M640 448 L640 640 L448 640 L256 640 L256 448 L256 256 L448 256 L640 256 L640 448 Z " />
<glyph glyph-name="Otilde" unicode="&#xd5;" horiz-adv-x="1024" d="M256 960 L256 1024 L384 1024 L512 1024 L512 960 L512 896 L576 896 L640 896 L640 960 L640 1024 L704 1024 L768 1024 L768 960 L768 896 L704 896 L640 896 L640 832 L640 768 L704 768 L768 768 L768 704 L768 640 L832 640 L896 640 L896 448 L896 256 L832 256 L768 256 L768 192 L768 128 L448 128 L128 128 L128 192 L128 256 L64 256 L0 256 L0 448 L0 640 L64 640 L128 640 L128 768 L128 896 L192 896 L256 896 L256 960 Z M384 832 L384 896 L320 896 L256 896 L256 832 L256 768 L320 768 L384 768 L384 832 Z M640 448 L640 640 L448 640 L256 640 L256 448 L256 256 L448 256 L640 256 L640 448 Z " />
<glyph glyph-name="Odieresis" unicode="&#xd6;" horiz-adv-x="1024" d="M128 704 L128 768 L448 768 L768 768 L768 704 L768 640 L832 640 L896 640 L896 448 L896 256 L832 256 L768 256 L768 192 L768 128 L448 128 L128 128 L128 192 L128 256 L64 256 L0 256 L0 448 L0 640 L64 640 L128 640 L128 704 Z M640 448 L640 640 L448 640 L256 640 L256 448 L256 256 L448 256 L640 256 L640 448 Z M512 960 L512 1024 L640 1024 L768 1024 L768 960 L768 896 L640 896 L512 896 L512 960 Z M128 960 L128 1024 L256 1024 L384 1024 L384 960 L384 896 L256 896 L128 896 L128 960 Z " />
<glyph glyph-name="multiply" unicode="&#xd7;" horiz-adv-x="1024" d="M128 832 L128 896 L192 896 L256 896 L256 832 L256 768 L320 768 L384 768 L384 704 L384 640 L448 640 L512 640 L512 704 L512 768 L576 768 L640 768 L640 832 L640 896 L704 896 L768 896 L768 832 L768 768 L704 768 L640 768 L640 704 L640 640 L576 640 L512 640 L512 576 L512 512 L576 512 L640 512 L640 448 L640 384 L704 384 L768 384 L768 320 L768 256 L704 256 L640 256 L640 320 L640 384 L576 384 L512 384 L512 448 L512 512 L448 512 L384 512 L384 448 L384 384 L320 384 L256 384 L256 320 L256 256 L192 256 L128 256 L128 320 L128 384 L192 384 L256 384 L256 448 L256 512 L320 512 L384 512 L384 576 L384 640 L320 640 L256 640 L256 704 L256 768 L192 768 L128 768 L128 832 Z " />
<glyph glyph-name="Oslash" unicode="&#xd8;" horiz-adv-x="1024" d="M384 576 L384 640 L448 640 L512 640 L512 576 L512 512 L448 512 L384 512 L384 576 Z M128 960 L128 1024 L448 1024 L768 1024 L768 960 L768 896 L832 896 L896 896 L896 576 L896 256 L832 256 L768 256 L768 192 L768 128 L448 128 L128 128 L128 192 L128 256 L64 256 L0 256 L0 576 L0 896 L64 896 L128 896 L128 960 Z M640 832 L640 896 L448 896 L256 896 L256 704 L256 512 L320 512 L384 512 L384 448 L384 384 L320 384 L256 384 L256 320 L256 256 L448 256 L640 256 L640 448 L640 640 L576 640 L512 640 L512 704 L512 768 L576 768 L640 768 L640 832 Z " />
<glyph glyph-name="Ugrave" unicode="&#xd9;" horiz-adv-x="1024" d="M0 512 L0 768 L128 768 L256 768 L256 512 L256 256 L448 256 L640 256 L640 512 L640 768 L768 768 L896 768 L896 512 L896 256 L832 256 L768 256 L768 192 L768 128 L448 128 L128 128 L128 192 L128 256 L64 256 L0 256 L0 512 Z M256 960 L256 1024 L320 1024 L384 1024 L384 960 L384 896 L448 896 L512 896 L512 832 L512 768 L448 768 L384 768 L384 832 L384 896 L320 896 L256 896 L256 960 Z " />
<glyph glyph-name="Uacute" unicode="&#xda;" horiz-adv-x="1024" d="M0 512 L0 768 L128 768 L256 768 L256 512 L256 256 L448 256 L640 256 L640 512 L640 768 L768 768 L896 768 L896 512 L896 256 L832 256 L768 256 L768 192 L768 128 L448 128 L128 128 L128 192 L128 256 L64 256 L0 256 L0 512 Z M512 960 L512 1024 L576 1024 L640 1024 L640 960 L640 896 L576 896 L512 896 L512 832 L512 768 L448 768 L384 768 L384 832 L384 896 L448 896 L512 896 L512 960 Z " />
<glyph glyph-name="Ucircumflex" unicode="&#xdb;" horiz-adv-x="1024" d="M0 448 L0 640 L128 640 L256 640 L256 448 L256 256 L448 256 L640 256 L640 448 L640 640 L768 640 L896 640 L896 448 L896 256 L832 256 L768 256 L768 192 L768 128 L448 128 L128 128 L128 192 L128 256 L64 256 L0 256 L0 448 Z M256 960 L256 1024 L448 1024 L640 1024 L640 960 L640 896 L704 896 L768 896 L768 832 L768 768 L640 768 L512 768 L512 832 L512 896 L448 896 L384 896 L384 832 L384 768 L256 768 L128 768 L128 832 L128 896 L192 896 L256 896 L256 960 Z " />
<glyph glyph-name="Udieresis" unicode="&#xdc;" horiz-adv-x="1024" d="M0 512 L0 768 L128 768 L256 768 L256 512 L256 256 L448 256 L640 256 L640 512 L640 768 L768 768 L896 768 L896 512 L896 256 L832 256 L768 256 L768 192 L768 128 L448 128 L128 128 L128 192 L128 256 L64 256 L0 256 L0 512 Z M512 960 L512 1024 L640 1024 L768 1024 L768 960 L768 896 L640 896 L512 896 L512 960 Z M128 960 L128 1024 L256 1024 L384 1024 L384 960 L384 896 L256 896 L128 896 L128 960 Z " />
<glyph glyph-name="Yacute" unicode="&#xdd;" horiz-adv-x="1024" d="M512 960 L512 1024 L576 1024 L640 1024 L640 960 L640 896 L576 896 L512 896 L512 832 L512 768 L448 768 L384 768 L384 640 L384 512 L512 512 L640 512 L640 640 L640 768 L768 768 L896 768 L896 640 L896 512 L832 512 L768 512 L768 448 L768 384 L704 384 L640 384 L640 256 L640 128 L512 128 L384 128 L384 256 L384 384 L320 384 L256 384 L256 448 L256 512 L192 512 L128 512 L128 640 L128 768 L256 768 L384 768 L384 832 L384 896 L448 896 L512 896 L512 960 Z " />
<glyph glyph-name="Thorn" unicode="&#xde;" horiz-adv-x="1024" d="M0 576 L0 1024 L128 1024 L256 1024 L256 960 L256 896 L512 896 L768 896 L768 832 L768 768 L832 768 L896 768 L896 576 L896 384 L832 384 L768 384 L768 320 L768 256 L512 256 L256 256 L256 192 L256 128 L128 128 L0 128 L0 576 Z M640 576 L640 768 L448 768 L256 768 L256 576 L256 384 L448 384 L640 384 L640 576 Z " />
<glyph glyph-name="germandbls" unicode="&#xdf;" horiz-adv-x="1024" d="M256 960 L256 1024 L512 1024 L768 1024 L768 960 L768 896 L832 896 L896 896 L896 768 L896 640 L832 640 L768 640 L768 576 L768 512 L832 512 L896 512 L896 384 L896 256 L832 256 L768 256 L768 192 L768 128 L640 128 L512 128 L512 192 L512 256 L448 256 L384 256 L384 192 L384 128 L256 128 L128 128 L128 512 L128 896 L192 896 L256 896 L256 960 Z M640 768 L640 896 L512 896 L384 896 L384 640 L384 384 L448 384 L512 384 L512 320 L512 256 L576 256 L640 256 L640 384 L640 512 L576 512 L512 512 L512 576 L512 640 L576 640 L640 640 L640 768 Z " />
<glyph glyph-name="agrave" unicode="&#xe0;" horiz-adv-x="1024" d="M256 960 L256 1024 L320 1024 L384 1024 L384 960 L384 896 L448 896 L512 896 L512 832 L512 768 L640 768 L768 768 L768 704 L768 640 L832 640 L896 640 L896 384 L896 128 L512 128 L128 128 L128 192 L128 256 L64 256 L0 256 L0 320 L0 384 L64 384 L128 384 L128 448 L128 512 L384 512 L640 512 L640 576 L640 640 L384 640 L128 640 L128 704 L128 768 L256 768 L384 768 L384 832 L384 896 L320 896 L256 896 L256 960 Z M640 320 L640 384 L448 384 L256 384 L256 320 L256 256 L448 256 L640 256 L640 320 Z " />
<glyph glyph-name="aacute" unicode="&#xe1;" horiz-adv-x="1024" d="M512 960 L512 1024 L576 1024 L640 1024 L640 960 L640 896 L576 896 L512 896 L512 832 L512 768 L640 768 L768 768 L768 704 L768 640 L832 640 L896 640 L896 384 L896 128 L512 128 L128 128 L128 192 L128 256 L64 256 L0 256 L0 320 L0 384 L64 384 L128 384 L128 448 L128 512 L384 512 L640 512 L640 576 L640 640 L384 640 L128 640 L128 704 L128 768 L256 768 L384 768 L384 832 L384 896 L448 896 L512 896 L512 960 Z M640 320 L640 384 L448 384 L256 384 L256 320 L256 256 L448 256 L640 256 L640 320 Z " />
<glyph glyph-name="acircumflex" unicode="&#xe2;" horiz-adv-x="1024" d="M256 960 L256 1024 L448 1024 L640 1024 L640 960 L640 896 L704 896 L768 896 L768 768 L768 640 L832 640 L896 640 L896 384 L896 128 L512 128 L128 128 L128 192 L128 256 L64 256 L0 256 L0 320 L0 384 L64 384 L128 384 L128 448 L128 512 L384 512 L640 512 L640 576 L640 640 L384 640 L128 640 L128 768 L128 896 L192 896 L256 896 L256 960 Z M512 832 L512 896 L448 896 L384 896 L384 832 L384 768 L448 768 L512 768 L512 832 Z M640 320 L640 384 L448 384 L256 384 L256 320 L256 256 L448 256 L640 256 L640 320 Z " />
<glyph glyph-name="atilde" unicode="&#xe3;" horiz-adv-x="1024" d="M256 960 L256 1024 L384 1024 L512 1024 L512 960 L512 896 L576 896 L640 896 L640 960 L640 1024 L704 1024 L768 1024 L768 960 L768 896 L704 896 L640 896 L640 832 L640 768 L704 768 L768 768 L768 704 L768 640 L832 640 L896 640 L896 384 L896 128 L512 128 L128 128 L128 192 L128 256 L64 256 L0 256 L0 320 L0 384 L64 384 L128 384 L128 448 L128 512 L384 512 L640 512 L640 576 L640 640 L384 640 L128 640 L128 768 L128 896 L192 896 L256 896 L256 960 Z M384 832 L384 896 L320 896 L256 896 L256 832 L256 768 L320 768 L384 768 L384 832 Z M640 320 L640 384 L448 384 L256 384 L256 320 L256 256 L448 256 L640 256 L640 320 Z " />
<glyph glyph-name="adieresis" unicode="&#xe4;" horiz-adv-x="1024" d="M128 704 L128 768 L448 768 L768 768 L768 704 L768 640 L832 640 L896 640 L896 384 L896 128 L512 128 L128 128 L128 192 L128 256 L64 256 L0 256 L0 320 L0 384 L64 384 L128 384 L128 448 L128 512 L384 512 L640 512 L640 576 L640 640 L384 640 L128 640 L128 704 Z M640 320 L640 384 L448 384 L256 384 L256 320 L256 256 L448 256 L640 256 L640 320 Z M512 960 L512 1024 L640 1024 L768 1024 L768 960 L768 896 L640 896 L512 896 L512 960 Z M128 960 L128 1024 L256 1024 L384 1024 L384 960 L384 896 L256 896 L128 896 L128 960 Z " />
<glyph glyph-name="aring" unicode="&#xe5;" horiz-adv-x="1024" d="M384 960 L384 1024 L448 1024 L512 1024 L512 960 L512 896 L576 896 L640 896 L640 832 L640 768 L704 768 L768 768 L768 704 L768 640 L832 640 L896 640 L896 384 L896 128 L512 128 L128 128 L128 192 L128 256 L64 256 L0 256 L0 320 L0 384 L64 384 L128 384 L128 448 L128 512 L384 512 L640 512 L640 576 L640 640 L384 640 L128 640 L128 704 L128 768 L192 768 L256 768 L256 832 L256 896 L320 896 L384 896 L384 960 Z M512 832 L512 896 L448 896 L384 896 L384 832 L384 768 L448 768 L512 768 L512 832 Z M640 320 L640 384 L448 384 L256 384 L256 320 L256 256 L448 256 L640 256 L640 320 Z " />
<glyph glyph-name="ae" unicode="&#xe6;" horiz-adv-x="1024" d="M128 704 L128 768 L448 768 L768 768 L768 704 L768 640 L832 640 L896 640 L896 512 L896 384 L704 384 L512 384 L512 320 L512 256 L640 256 L768 256 L768 192 L768 128 L448 128 L128 128 L128 192 L128 256 L64 256 L0 256 L0 320 L0 384 L64 384 L128 384 L128 448 L128 512 L256 512 L384 512 L384 576 L384 640 L256 640 L128 640 L128 704 Z M640 576 L640 640 L576 640 L512 640 L512 576 L512 512 L576 512 L640 512 L640 576 Z M384 320 L384 384 L320 384 L256 384 L256 320 L256 256 L320 256 L384 256 L384 320 Z " />
<glyph glyph-name="ccedilla" unicode="&#xe7;" horiz-adv-x="1024" d="M128 704 L128 768 L512 768 L896 768 L896 704 L896 640 L576 640 L256 640 L256 512 L256 384 L576 384 L896 384 L896 320 L896 256 L768 256 L640 256 L640 192 L640 128 L576 128 L512 128 L512 64 L512 0 L384 0 L256 0 L256 64 L256 128 L384 128 L512 128 L512 192 L512 256 L320 256 L128 256 L128 320 L128 384 L64 384 L0 384 L0 512 L0 640 L64 640 L128 640 L128 704 Z " />
<glyph glyph-name="egrave" unicode="&#xe8;" horiz-adv-x="1024" d="M256 960 L256 1024 L320 1024 L384 1024 L384 960 L384 896 L448 896 L512 896 L512 832 L512 768 L640 768 L768 768 L768 704 L768 640 L832 640 L896 640 L896 512 L896 384 L576 384 L256 384 L256 320 L256 256 L512 256 L768 256 L768 192 L768 128 L448 128 L128 128 L128 192 L128 256 L64 256 L0 256 L0 448 L0 640 L64 640 L128 640 L128 704 L128 768 L256 768 L384 768 L384 832 L384 896 L320 896 L256 896 L256 960 Z M640 576 L640 640 L448 640 L256 640 L256 576 L256 512 L448 512 L640 512 L640 576 Z " />
<glyph glyph-name="eacute" unicode="&#xe9;" horiz-adv-x="1024" d="M512 960 L512 1024 L576 1024 L640 1024 L640 960 L640 896 L576 896 L512 896 L512 832 L512 768 L640 768 L768 768 L768 704 L768 640 L832 640 L896 640 L896 512 L896 384 L576 384 L256 384 L256 320 L256 256 L512 256 L768 256 L768 192 L768 128 L448 128 L128 128 L128 192 L128 256 L64 256 L0 256 L0 448 L0 640 L64 640 L128 640 L128 704 L128 768 L256 768 L384 768 L384 832 L384 896 L448 896 L512 896 L512 960 Z M640 576 L640 640 L448 640 L256 640 L256 576 L256 512 L448 512 L640 512 L640 576 Z " />
<glyph glyph-name="ecircumflex" unicode="&#xea;" horiz-adv-x="1024" d="M256 960 L256 1024 L448 1024 L640 1024 L640 960 L640 896 L704 896 L768 896 L768 768 L768 640 L832 640 L896 640 L896 512 L896 384 L576 384 L256 384 L256 320 L256 256 L512 256 L768 256 L768 192 L768 128 L448 128 L128 128 L128 192 L128 256 L64 256 L0 256 L0 448 L0 640 L64 640 L128 640 L128 768 L128 896 L192 896 L256 896 L256 960 Z M512 832 L512 896 L448 896 L384 896 L384 832 L384 768 L448 768 L512 768 L512 832 Z M640 576 L640 640 L448 640 L256 640 L256 576 L256 512 L448 512 L640 512 L640 576 Z " />
<glyph glyph-name="edieresis" unicode="&#xeb;" horiz-adv-x="1024" d="M128 704 L128 768 L448 768 L768 768 L768 704 L768 640 L832 640 L896 640 L896 512 L896 384 L576 384 L256 384 L256 320 L256 256 L512 256 L768 256 L768 192 L768 128 L448 128 L128 128 L128 192 L128 256 L64 256 L0 256 L0 448 L0 640 L64 640 L128 640 L128 704 Z M640 576 L640 640 L448 640 L256 640 L256 576 L256 512 L448 512 L640 512 L640 576 Z M512 960 L512 1024 L640 1024 L768 1024 L768 960 L768 896 L640 896 L512 896 L512 960 Z M128 960 L128 1024 L256 1024 L384 1024 L384 960 L384 896 L256 896 L128 896 L128 960 Z " />
<glyph glyph-name="igrave" unicode="&#xec;" horiz-adv-x="1024" d="M256 576 L256 640 L448 640 L640 640 L640 448 L640 256 L768 256 L896 256 L896 192 L896 128 L512 128 L128 128 L128 192 L128 256 L256 256 L384 256 L384 384 L384 512 L320 512 L256 512 L256 576 Z M256 960 L256 1024 L320 1024 L384 1024 L384 960 L384 896 L448 896 L512 896 L512 832 L512 768 L448 768 L384 768 L384 832 L384 896 L320 896 L256 896 L256 960 Z " />
<glyph glyph-name="iacute" unicode="&#xed;" horiz-adv-x="1024" d="M256 576 L256 640 L448 640 L640 640 L640 448 L640 256 L768 256 L896 256 L896 192 L896 128 L512 128 L128 128 L128 192 L128 256 L256 256 L384 256 L384 384 L384 512 L320 512 L256 512 L256 576 Z M512 960 L512 1024 L576 1024 L640 1024 L640 960 L640 896 L576 896 L512 896 L512 832 L512 768 L448 768 L384 768 L384 832 L384 896 L448 896 L512 896 L512 960 Z " />
<glyph glyph-name="icircumflex" unicode="&#xee;" horiz-adv-x="1024" d="M256 576 L256 640 L448 640 L640 640 L640 448 L640 256 L768 256 L896 256 L896 192 L896 128 L512 128 L128 128 L128 192 L128 256 L256 256 L384 256 L384 384 L384 512 L320 512 L256 512 L256 576 Z M256 960 L256 1024 L448 1024 L640 1024 L640 960 L640 896 L704 896 L768 896 L768 832 L768 768 L640 768 L512 768 L512 832 L512 896 L448 896 L384 896 L384 832 L384 768 L256 768 L128 768 L128 832 L128 896 L192 896 L256 896 L256 960 Z " />
<glyph glyph-name="idieresis" unicode="&#xef;" horiz-adv-x="1024" d="M256 704 L256 768 L448 768 L640 768 L640 512 L640 256 L768 256 L896 256 L896 192 L896 128 L512 128 L128 128 L128 192 L128 256 L256 256 L384 256 L384 448 L384 640 L320 640 L256 640 L256 704 Z M512 960 L512 1024 L640 1024 L768 1024 L768 960 L768 896 L640 896 L512 896 L512 960 Z M128 960 L128 1024 L256 1024 L384 1024 L384 960 L384 896 L256 896 L128 896 L128 960 Z " />
<glyph glyph-name="eth" unicode="&#xf0;" horiz-adv-x="1024" d="M128 896 L128 1024 L256 1024 L384 1024 L384 960 L384 896 L512 896 L640 896 L640 960 L640 1024 L704 1024 L768 1024 L768 960 L768 896 L704 896 L640 896 L640 768 L640 640 L704 640 L768 640 L768 576 L768 512 L832 512 L896 512 L896 384 L896 256 L832 256 L768 256 L768 192 L768 128 L448 128 L128 128 L128 192 L128 256 L64 256 L0 256 L0 384 L0 512 L64 512 L128 512 L128 576 L128 640 L64 640 L0 640 L0 704 L0 768 L64 768 L128 768 L128 896 Z M384 704 L384 768 L256 768 L128 768 L128 704 L128 640 L256 640 L384 640 L384 704 Z M640 384 L640 512 L448 512 L256 512 L256 384 L256 256 L448 256 L640 256 L640 384 Z " />
<glyph glyph-name="ntilde" unicode="&#xf1;" horiz-adv-x="1024" d="M256 960 L256 1024 L384 1024 L512 1024 L512 960 L512 896 L576 896 L640 896 L640 960 L640 1024 L704 1024 L768 1024 L768 960 L768 896 L704 896 L640 896 L640 832 L640 768 L704 768 L768 768 L768 704 L768 640 L832 640 L896 640 L896 384 L896 128 L768 128 L640 128 L640 384 L640 640 L448 640 L256 640 L256 384 L256 128 L128 128 L0 128 L0 448 L0 768 L64 768 L128 768 L128 832 L128 896 L192 896 L256 896 L256 960 Z M384 832 L384 896 L320 896 L256 896 L256 832 L256 768 L320 768 L384 768 L384 832 Z " />
<glyph glyph-name="ograve" unicode="&#xf2;" horiz-adv-x="1024" d="M256 960 L256 1024 L320 1024 L384 1024 L384 960 L384 896 L448 896 L512 896 L512 832 L512 768 L640 768 L768 768 L768 704 L768 640 L832 640 L896 640 L896 448 L896 256 L832 256 L768 256 L768 192 L768 128 L448 128 L128 128 L128 192 L128 256 L64 256 L0 256 L0 448 L0 640 L64 640 L128 640 L128 704 L128 768 L256 768 L384 768 L384 832 L384 896 L320 896 L256 896 L256 960 Z M640 448 L640 640 L448 640 L256 640 L256 448 L256 256 L448 256 L640 256 L640 448 Z " />
<glyph glyph-name="oacute" unicode="&#xf3;" horiz-adv-x="1024" d="M512 960 L512 1024 L576 1024 L640 1024 L640 960 L640 896 L576 896 L512 896 L512 832 L512 768 L640 768 L768 768 L768 704 L768 640 L832 640 L896 640 L896 448 L896 256 L832 256 L768 256 L768 192 L768 128 L448 128 L128 128 L128 192 L128 256 L64 256 L0 256 L0 448 L0 640 L64 640 L128 640 L128 704 L128 768 L256 768 L384 768 L384 832 L384 896 L448 896 L512 896 L512 960 Z M640 448 L640 640 L448 640 L256 640 L256 448 L256 256 L448 256 L640 256 L640 448 Z " />
<glyph glyph-name="ocircumflex" unicode="&#xf4;" horiz-adv-x="1024" d="M256 960 L256 1024 L448 1024 L640 1024 L640 960 L640 896 L704 896 L768 896 L768 768 L768 640 L832 640 L896 640 L896 448 L896 256 L832 256 L768 256 L768 192 L768 128 L448 128 L128 128 L128 192 L128 256 L64 256 L0 256 L0 448 L0 640 L64 640 L128 640 L128 768 L128 896 L192 896 L256 896 L256 960 Z M512 832 L512 896 L448 896 L384 896 L384 832 L384 768 L448 768 L512 768 L512 832 Z M640 448 L640 640 L448 640 L256 640 L256 448 L256 256 L448 256 L640 256 L640 448 Z " />
<glyph glyph-name="otilde" unicode="&#xf5;" horiz-adv-x="1024" d="M256 960 L256 1024 L384 1024 L512 1024 L512 960 L512 896 L576 896 L640 896 L640 960 L640 1024 L704 1024 L768 1024 L768 960 L768 896 L704 896 L640 896 L640 832 L640 768 L704 768 L768 768 L768 704 L768 640 L832 640 L896 640 L896 448 L896 256 L832 256 L768 256 L768 192 L768 128 L448 128 L128 128 L128 192 L128 256 L64 256 L0 256 L0 448 L0 640 L64 640 L128 640 L128 768 L128 896 L192 896 L256 896 L256 960 Z M384 832 L384 896 L320 896 L256 896 L256 832 L256 768 L320 768 L384 768 L384 832 Z M640 448 L640 640 L448 640 L256 640 L256 448 L256 256 L448 256 L640 256 L640 448 Z " />
<glyph glyph-name="odieresis" unicode="&#xf6;" horiz-adv-x="1024" d="M128 704 L128 768 L448 768 L768 768 L768 704 L768 640 L832 640 L896 640 L896 448 L896 256 L832 256 L768 256 L768 192 L768 128 L448 128 L128 128 L128 192 L128 256 L64 256 L0 256 L0 448 L0 640 L64 640 L128 640 L128 704 Z M640 448 L640 640 L448 640 L256 640 L256 448 L256 256 L448 256 L640 256 L640 448 Z M512 960 L512 1024 L640 1024 L768 1024 L768 960 L768 896 L640 896 L512 896 L512 960 Z M128 960 L128 1024 L256 1024 L384 1024 L384 960 L384 896 L256 896 L128 896 L128 960 Z " />
<glyph glyph-name="divide" unicode="&#xf7;" horiz-adv-x="1024" d="M384 320 L384 384 L512 384 L640 384 L640 320 L640 256 L512 256 L384 256 L384 320 Z M128 576 L128 640 L512 640 L896 640 L896 576 L896 512 L512 512 L128 512 L128 576 Z M384 832 L384 896 L512 896 L640 896 L640 832 L640 768 L512 768 L384 768 L384 832 Z " />
<glyph glyph-name="oslash" unicode="&#xf8;" horiz-adv-x="1024" d="M384 448 L384 512 L448 512 L512 512 L512 448 L512 384 L448 384 L384 384 L384 448 Z M128 704 L128 768 L448 768 L768 768 L768 704 L768 640 L832 640 L896 640 L896 448 L896 256 L832 256 L768 256 L768 192 L768 128 L448 128 L128 128 L128 192 L128 256 L64 256 L0 256 L0 448 L0 640 L64 640 L128 640 L128 704 Z M512 576 L512 640 L384 640 L256 640 L256 512 L256 384 L320 384 L384 384 L384 320 L384 256 L512 256 L640 256 L640 384 L640 512 L576 512 L512 512 L512 576 Z " />
<glyph glyph-name="ugrave" unicode="&#xf9;" horiz-adv-x="1024" d="M0 512 L0 768 L128 768 L256 768 L256 512 L256 256 L448 256 L640 256 L640 512 L640 768 L768 768 L896 768 L896 448 L896 128 L512 128 L128 128 L128 192 L128 256 L64 256 L0 256 L0 512 Z M256 960 L256 1024 L320 1024 L384 1024 L384 960 L384 896 L448 896 L512 896 L512 832 L512 768 L448 768 L384 768 L384 832 L384 896 L320 896 L256 896 L256 960 Z " />
<glyph glyph-name="uacute" unicode="&#xfa;" horiz-adv-x="1024" d="M0 512 L0 768 L128 768 L256 768 L256 512 L256 256 L448 256 L640 256 L640 512 L640 768 L768 768 L896 768 L896 448 L896 128 L512 128 L128 128 L128 192 L128 256 L64 256 L0 256 L0 512 Z M512 960 L512 1024 L576 1024 L640 1024 L640 960 L640 896 L576 896 L512 896 L512 832 L512 768 L448 768 L384 768 L384 832 L384 896 L448 896 L512 896 L512 960 Z " />
<glyph glyph-name="ucircumflex" unicode="&#xfb;" horiz-adv-x="1024" d="M0 448 L0 640 L128 640 L256 640 L256 448 L256 256 L448 256 L640 256 L640 448 L640 640 L768 640 L896 640 L896 384 L896 128 L512 128 L128 128 L128 192 L128 256 L64 256 L0 256 L0 448 Z M256 960 L256 1024 L448 1024 L640 1024 L640 960 L640 896 L704 896 L768 896 L768 832 L768 768 L640 768 L512 768 L512 832 L512 896 L448 896 L384 896 L384 832 L384 768 L256 768 L128 768 L128 832 L128 896 L192 896 L256 896 L256 960 Z " />
<glyph glyph-name="udieresis" unicode="&#xfc;" horiz-adv-x="1024" d="M0 512 L0 768 L128 768 L256 768 L256 512 L256 256 L448 256 L640 256 L640 512 L640 768 L768 768 L896 768 L896 448 L896 128 L512 128 L128 128 L128 192 L128 256 L64 256 L0 256 L0 512 Z M512 960 L512 1024 L640 1024 L768 1024 L768 960 L768 896 L640 896 L512 896 L512 960 Z M128 960 L128 1024 L256 1024 L384 1024 L384 960 L384 896 L256 896 L128 896 L128 960 Z " />
<glyph glyph-name="yacute" unicode="&#xfd;" horiz-adv-x="1024" d="M0 576 L0 768 L128 768 L256 768 L256 576 L256 384 L448 384 L640 384 L640 576 L640 768 L768 768 L896 768 L896 448 L896 128 L832 128 L768 128 L768 64 L768 0 L448 0 L128 0 L128 64 L128 128 L384 128 L640 128 L640 192 L640 256 L384 256 L128 256 L128 320 L128 384 L64 384 L0 384 L0 576 Z M512 960 L512 1024 L576 1024 L640 1024 L640 960 L640 896 L576 896 L512 896 L512 832 L512 768 L448 768 L384 768 L384 832 L384 896 L448 896 L512 896 L512 960 Z " />
<glyph glyph-name="thorn" unicode="&#xfe;" horiz-adv-x="1024" d="M0 512 L0 1024 L128 1024 L256 1024 L256 896 L256 768 L512 768 L768 768 L768 704 L768 640 L832 640 L896 640 L896 512 L896 384 L832 384 L768 384 L768 320 L768 256 L512 256 L256 256 L256 128 L256 0 L128 0 L0 0 L0 512 Z M640 512 L640 640 L448 640 L256 640 L256 512 L256 384 L448 384 L640 384 L640 512 Z " />
<glyph glyph-name="ydieresis" unicode="&#xff;" horiz-adv-x="1024" d="M0 576 L0 768 L128 768 L256 768 L256 576 L256 384 L448 384 L640 384 L640 576 L640 768 L768 768 L896 768 L896 448 L896 128 L832 128 L768 128 L768 64 L768 0 L448 0 L128 0 L128 64 L128 128 L384 128 L640 128 L640 192 L640 256 L384 256 L128 256 L128 320 L128 384 L64 384 L0 384 L0 576 Z M512 960 L512 1024 L640 1024 L768 1024 L768 960 L768 896 L640 896 L512 896 L512 960 Z M128 960 L128 1024 L256 1024 L384 1024 L384 960 L384 896 L256 896 L128 896 L128 960 Z " />
<glyph glyph-name="Amacron" unicode="&#x100;" horiz-adv-x="1024" d="M256 704 L256 768 L448 768 L640 768 L640 704 L640 640 L704 640 L768 640 L768 576 L768 512 L832 512 L896 512 L896 320 L896 128 L768 128 L640 128 L640 192 L640 256 L448 256 L256 256 L256 192 L256 128 L128 128 L0 128 L0 320 L0 512 L64 512 L128 512 L128 576 L128 640 L192 640 L256 640 L256 704 Z M512 576 L512 640 L448 640 L384 640 L384 576 L384 512 L320 512 L256 512 L256 448 L256 384 L448 384 L640 384 L640 448 L640 512 L576 512 L512 512 L512 576 Z M128 960 L128 1024 L448 1024 L768 1024 L768 960 L768 896 L448 896 L128 896 L128 960 Z " />
<glyph glyph-name="amacron" unicode="&#x101;" horiz-adv-x="1024" d="M128 704 L128 768 L448 768 L768 768 L768 704 L768 640 L832 640 L896 640 L896 384 L896 128 L512 128 L128 128 L128 192 L128 256 L64 256 L0 256 L0 320 L0 384 L64 384 L128 384 L128 448 L128 512 L384 512 L640 512 L640 576 L640 640 L384 640 L128 640 L128 704 Z M640 320 L640 384 L448 384 L256 384 L256 320 L256 256 L448 256 L640 256 L640 320 Z M128 960 L128 1024 L448 1024 L768 1024 L768 960 L768 896 L448 896 L128 896 L128 960 Z " />
<glyph glyph-name="Abreve" unicode="&#x102;" horiz-adv-x="1024" d="M128 960 L128 1024 L192 1024 L256 1024 L256 960 L256 896 L448 896 L640 896 L640 960 L640 1024 L704 1024 L768 1024 L768 960 L768 896 L704 896 L640 896 L640 768 L640 640 L704 640 L768 640 L768 576 L768 512 L832 512 L896 512 L896 320 L896 128 L768 128 L640 128 L640 192 L640 256 L448 256 L256 256 L256 192 L256 128 L128 128 L0 128 L0 320 L0 512 L64 512 L128 512 L128 576 L128 640 L192 640 L256 640 L256 768 L256 896 L192 896 L128 896 L128 960 Z M512 576 L512 640 L448 640 L384 640 L384 576 L384 512 L320 512 L256 512 L256 448 L256 384 L448 384 L640 384 L640 448 L640 512 L576 512 L512 512 L512 576 Z " />
<glyph glyph-name="abreve" unicode="&#x103;" horiz-adv-x="1024" d="M128 960 L128 1024 L192 1024 L256 1024 L256 960 L256 896 L448 896 L640 896 L640 960 L640 1024 L704 1024 L768 1024 L768 960 L768 896 L704 896 L640 896 L640 832 L640 768 L704 768 L768 768 L768 704 L768 640 L832 640 L896 640 L896 384 L896 128 L512 128 L128 128 L128 192 L128 256 L64 256 L0 256 L0 320 L0 384 L64 384 L128 384 L128 448 L128 512 L384 512 L640 512 L640 576 L640 640 L384 640 L128 640 L128 704 L128 768 L192 768 L256 768 L256 832 L256 896 L192 896 L128 896 L128 960 Z M640 320 L640 384 L448 384 L256 384 L256 320 L256 256 L448 256 L640 256 L640 320 Z " />
<glyph glyph-name="Aogonek" unicode="&#x104;" horiz-adv-x="1024" d="M256 960 L256 1024 L448 1024 L640 1024 L640 960 L640 896 L704 896 L768 896 L768 832 L768 768 L832 768 L896 768 L896 576 L896 384 L832 384 L768 384 L768 320 L768 256 L704 256 L640 256 L640 192 L640 128 L768 128 L896 128 L896 64 L896 0 L768 0 L640 0 L640 64 L640 128 L576 128 L512 128 L512 192 L512 256 L576 256 L640 256 L640 384 L640 512 L448 512 L256 512 L256 448 L256 384 L128 384 L0 384 L0 576 L0 768 L64 768 L128 768 L128 832 L128 896 L192 896 L256 896 L256 960 Z M512 832 L512 896 L448 896 L384 896 L384 832 L384 768 L320 768 L256 768 L256 704 L256 640 L448 640 L640 640 L640 704 L640 768 L576 768 L512 768 L512 832 Z " />
<glyph glyph-name="aogonek" unicode="&#x105;" horiz-adv-x="1024" d="M128 960 L128 1024 L448 1024 L768 1024 L768 960 L768 896 L832 896 L896 896 L896 640 L896 384 L704 384 L512 384 L512 320 L512 256 L448 256 L384 256 L384 192 L384 128 L512 128 L640 128 L640 64 L640 0 L512 0 L384 0 L384 64 L384 128 L320 128 L256 128 L256 192 L256 256 L320 256 L384 256 L384 320 L384 384 L256 384 L128 384 L128 448 L128 512 L64 512 L0 512 L0 576 L0 640 L64 640 L128 640 L128 704 L128 768 L384 768 L640 768 L640 832 L640 896 L384 896 L128 896 L128 960 Z M640 576 L640 640 L448 640 L256 640 L256 576 L256 512 L448 512 L640 512 L640 576 Z " />
<glyph glyph-name="Cacute" unicode="&#x106;" horiz-adv-x="1024" d="M512 960 L512 1024 L576 1024 L640 1024 L640 960 L640 896 L576 896 L512 896 L512 832 L512 768 L640 768 L768 768 L768 704 L768 640 L832 640 L896 640 L896 576 L896 512 L768 512 L640 512 L640 576 L640 640 L512 640 L384 640 L384 576 L384 512 L320 512 L256 512 L256 448 L256 384 L320 384 L384 384 L384 320 L384 256 L512 256 L640 256 L640 320 L640 384 L768 384 L896 384 L896 320 L896 256 L832 256 L768 256 L768 192 L768 128 L512 128 L256 128 L256 192 L256 256 L192 256 L128 256 L128 320 L128 384 L64 384 L0 384 L0 448 L0 512 L64 512 L128 512 L128 576 L128 640 L192 640 L256 640 L256 704 L256 768 L320 768 L384 768 L384 832 L384 896 L448 896 L512 896 L512 960 Z " />
<glyph glyph-name="cacute" unicode="&#x107;" horiz-adv-x="1024" d="M512 960 L512 1024 L576 1024 L640 1024 L640 960 L640 896 L576 896 L512 896 L512 832 L512 768 L704 768 L896 768 L896 704 L896 640 L576 640 L256 640 L256 448 L256 256 L576 256 L896 256 L896 192 L896 128 L512 128 L128 128 L128 192 L128 256 L64 256 L0 256 L0 448 L0 640 L64 640 L128 640 L128 704 L128 768 L256 768 L384 768 L384 832 L384 896 L448 896 L512 896 L512 960 Z " />
<glyph glyph-name="Ccircumflex" unicode="&#x108;" horiz-adv-x="1024" d="M256 960 L256 1024 L448 1024 L640 1024 L640 960 L640 896 L704 896 L768 896 L768 768 L768 640 L832 640 L896 640 L896 576 L896 512 L768 512 L640 512 L640 576 L640 640 L512 640 L384 640 L384 576 L384 512 L320 512 L256 512 L256 448 L256 384 L320 384 L384 384 L384 320 L384 256 L512 256 L640 256 L640 320 L640 384 L768 384 L896 384 L896 320 L896 256 L832 256 L768 256 L768 192 L768 128 L512 128 L256 128 L256 192 L256 256 L192 256 L128 256 L128 320 L128 384 L64 384 L0 384 L0 448 L0 512 L64 512 L128 512 L128 576 L128 640 L192 640 L256 640 L256 704 L256 768 L192 768 L128 768 L128 832 L128 896 L192 896 L256 896 L256 960 Z M512 832 L512 896 L448 896 L384 896 L384 832 L384 768 L448 768 L512 768 L512 832 Z " />
<glyph glyph-name="ccircumflex" unicode="&#x109;" horiz-adv-x="1024" d="M256 960 L256 1024 L448 1024 L640 1024 L640 960 L640 896 L704 896 L768 896 L768 832 L768 768 L832 768 L896 768 L896 704 L896 640 L576 640 L256 640 L256 448 L256 256 L576 256 L896 256 L896 192 L896 128 L512 128 L128 128 L128 192 L128 256 L64 256 L0 256 L0 448 L0 640 L64 640 L128 640 L128 768 L128 896 L192 896 L256 896 L256 960 Z M512 832 L512 896 L448 896 L384 896 L384 832 L384 768 L448 768 L512 768 L512 832 Z " />
<glyph glyph-name="Cdotaccent" unicode="&#x10a;" horiz-adv-x="1024" d="M256 704 L256 768 L512 768 L768 768 L768 704 L768 640 L832 640 L896 640 L896 576 L896 512 L768 512 L640 512 L640 576 L640 640 L512 640 L384 640 L384 576 L384 512 L320 512 L256 512 L256 448 L256 384 L320 384 L384 384 L384 320 L384 256 L512 256 L640 256 L640 320 L640 384 L768 384 L896 384 L896 320 L896 256 L832 256 L768 256 L768 192 L768 128 L512 128 L256 128 L256 192 L256 256 L192 256 L128 256 L128 320 L128 384 L64 384 L0 384 L0 448 L0 512 L64 512 L128 512 L128 576 L128 640 L192 640 L256 640 L256 704 Z M384 960 L384 1024 L512 1024 L640 1024 L640 960 L640 896 L512 896 L384 896 L384 960 Z " />
<glyph glyph-name="cdotaccent" unicode="&#x10b;" horiz-adv-x="1024" d="M128 704 L128 768 L512 768 L896 768 L896 704 L896 640 L576 640 L256 640 L256 448 L256 256 L576 256 L896 256 L896 192 L896 128 L512 128 L128 128 L128 192 L128 256 L64 256 L0 256 L0 448 L0 640 L64 640 L128 640 L128 704 Z M384 960 L384 1024 L512 1024 L640 1024 L640 960 L640 896 L512 896 L384 896 L384 960 Z " />
<glyph glyph-name="Ccaron" unicode="&#x10c;" horiz-adv-x="1024" d="M128 960 L128 1024 L256 1024 L384 1024 L384 960 L384 896 L512 896 L640 896 L640 960 L640 1024 L768 1024 L896 1024 L896 960 L896 896 L832 896 L768 896 L768 768 L768 640 L832 640 L896 640 L896 576 L896 512 L768 512 L640 512 L640 576 L640 640 L512 640 L384 640 L384 576 L384 512 L320 512 L256 512 L256 448 L256 384 L320 384 L384 384 L384 320 L384 256 L512 256 L640 256 L640 320 L640 384 L768 384 L896 384 L896 320 L896 256 L832 256 L768 256 L768 192 L768 128 L512 128 L256 128 L256 192 L256 256 L192 256 L128 256 L128 320 L128 384 L64 384 L0 384 L0 448 L0 512 L64 512 L128 512 L128 576 L128 640 L192 640 L256 640 L256 768 L256 896 L192 896 L128 896 L128 960 Z " />
<glyph glyph-name="ccaron" unicode="&#x10d;" horiz-adv-x="1024" d="M128 960 L128 1024 L256 1024 L384 1024 L384 960 L384 896 L448 896 L512 896 L512 960 L512 1024 L640 1024 L768 1024 L768 960 L768 896 L704 896 L640 896 L640 832 L640 768 L768 768 L896 768 L896 704 L896 640 L576 640 L256 640 L256 448 L256 256 L576 256 L896 256 L896 192 L896 128 L512 128 L128 128 L128 192 L128 256 L64 256 L0 256 L0 448 L0 640 L64 640 L128 640 L128 704 L128 768 L192 768 L256 768 L256 832 L256 896 L192 896 L128 896 L128 960 Z " />
<glyph glyph-name="Dcaron" unicode="&#x10e;" horiz-adv-x="1024" d="M128 960 L128 1024 L256 1024 L384 1024 L384 960 L384 896 L448 896 L512 896 L512 960 L512 1024 L640 1024 L768 1024 L768 960 L768 896 L704 896 L640 896 L640 768 L640 640 L704 640 L768 640 L768 576 L768 512 L832 512 L896 512 L896 448 L896 384 L832 384 L768 384 L768 320 L768 256 L704 256 L640 256 L640 192 L640 128 L320 128 L0 128 L0 448 L0 768 L128 768 L256 768 L256 832 L256 896 L192 896 L128 896 L128 960 Z M512 576 L512 640 L384 640 L256 640 L256 448 L256 256 L384 256 L512 256 L512 320 L512 384 L576 384 L640 384 L640 448 L640 512 L576 512 L512 512 L512 576 Z " />
<glyph glyph-name="dcaron" unicode="&#x10f;" horiz-adv-x="1024" d="M768 832 L768 1024 L896 1024 L1024 1024 L1024 896 L1024 768 L960 768 L896 768 L896 704 L896 640 L832 640 L768 640 L768 832 Z M384 896 L384 1024 L512 1024 L640 1024 L640 576 L640 128 L384 128 L128 128 L128 192 L128 256 L64 256 L0 256 L0 448 L0 640 L64 640 L128 640 L128 704 L128 768 L256 768 L384 768 L384 896 Z M384 448 L384 640 L320 640 L256 640 L256 448 L256 256 L320 256 L384 256 L384 448 Z " />
<glyph glyph-name="Dcroat" unicode="&#x110;" horiz-adv-x="1024" d="M128 832 L128 1024 L384 1024 L640 1024 L640 960 L640 896 L704 896 L768 896 L768 832 L768 768 L832 768 L896 768 L896 576 L896 384 L832 384 L768 384 L768 320 L768 256 L704 256 L640 256 L640 192 L640 128 L384 128 L128 128 L128 320 L128 512 L64 512 L0 512 L0 576 L0 640 L64 640 L128 640 L128 832 Z M512 832 L512 896 L448 896 L384 896 L384 768 L384 640 L448 640 L512 640 L512 576 L512 512 L448 512 L384 512 L384 384 L384 256 L448 256 L512 256 L512 320 L512 384 L576 384 L640 384 L640 576 L640 768 L576 768 L512 768 L512 832 Z " />
<glyph glyph-name="dslash" unicode="&#x111;" horiz-adv-x="1024" d="M512 960 L512 1024 L640 1024 L768 1024 L768 960 L768 896 L832 896 L896 896 L896 832 L896 768 L832 768 L768 768 L768 448 L768 128 L448 128 L128 128 L128 192 L128 256 L64 256 L0 256 L0 448 L0 640 L64 640 L128 640 L128 704 L128 768 L256 768 L384 768 L384 832 L384 896 L448 896 L512 896 L512 960 Z M512 448 L512 640 L384 640 L256 640 L256 448 L256 256 L384 256 L512 256 L512 448 Z " />
<glyph glyph-name="Emacron" unicode="&#x112;" horiz-adv-x="1024" d="M0 448 L0 768 L448 768 L896 768 L896 704 L896 640 L576 640 L256 640 L256 576 L256 512 L512 512 L768 512 L768 448 L768 384 L512 384 L256 384 L256 320 L256 256 L576 256 L896 256 L896 192 L896 128 L448 128 L0 128 L0 448 Z M128 960 L128 1024 L448 1024 L768 1024 L768 960 L768 896 L448 896 L128 896 L128 960 Z " />
<glyph glyph-name="emacron" unicode="&#x113;" horiz-adv-x="1024" d="M128 704 L128 768 L448 768 L768 768 L768 704 L768 640 L832 640 L896 640 L896 512 L896 384 L576 384 L256 384 L256 320 L256 256 L512 256 L768 256 L768 192 L768 128 L448 128 L128 128 L128 192 L128 256 L64 256 L0 256 L0 448 L0 640 L64 640 L128 640 L128 704 Z M640 576 L640 640 L448 640 L256 640 L256 576 L256 512 L448 512 L640 512 L640 576 Z M128 960 L128 1024 L448 1024 L768 1024 L768 960 L768 896 L448 896 L128 896 L128 960 Z " />
<glyph glyph-name="Ebreve" unicode="&#x114;" horiz-adv-x="1024" d="M128 960 L128 1024 L192 1024 L256 1024 L256 960 L256 896 L448 896 L640 896 L640 960 L640 1024 L704 1024 L768 1024 L768 960 L768 896 L704 896 L640 896 L640 832 L640 768 L768 768 L896 768 L896 704 L896 640 L576 640 L256 640 L256 576 L256 512 L512 512 L768 512 L768 448 L768 384 L512 384 L256 384 L256 320 L256 256 L576 256 L896 256 L896 192 L896 128 L448 128 L0 128 L0 448 L0 768 L128 768 L256 768 L256 832 L256 896 L192 896 L128 896 L128 960 Z " />
<glyph glyph-name="ebreve" unicode="&#x115;" horiz-adv-x="1024" d="M128 960 L128 1024 L192 1024 L256 1024 L256 960 L256 896 L448 896 L640 896 L640 960 L640 1024 L704 1024 L768 1024 L768 960 L768 896 L704 896 L640 896 L640 832 L640 768 L704 768 L768 768 L768 704 L768 640 L832 640 L896 640 L896 512 L896 384 L576 384 L256 384 L256 320 L256 256 L512 256 L768 256 L768 192 L768 128 L448 128 L128 128 L128 192 L128 256 L64 256 L0 256 L0 448 L0 640 L64 640 L128 640 L128 704 L128 768 L192 768 L256 768 L256 832 L256 896 L192 896 L128 896 L128 960 Z M640 576 L640 640 L448 640 L256 640 L256 576 L256 512 L448 512 L640 512 L640 576 Z " />
<glyph glyph-name="Edotaccent" unicode="&#x116;" horiz-adv-x="1024" d="M0 448 L0 768 L448 768 L896 768 L896 704 L896 640 L576 640 L256 640 L256 576 L256 512 L512 512 L768 512 L768 448 L768 384 L512 384 L256 384 L256 320 L256 256 L576 256 L896 256 L896 192 L896 128 L448 128 L0 128 L0 448 Z M384 960 L384 1024 L512 1024 L640 1024 L640 960 L640 896 L512 896 L384 896 L384 960 Z " />
<glyph glyph-name="edotaccent" unicode="&#x117;" horiz-adv-x="1024" d="M128 704 L128 768 L448 768 L768 768 L768 704 L768 640 L832 640 L896 640 L896 512 L896 384 L576 384 L256 384 L256 320 L256 256 L512 256 L768 256 L768 192 L768 128 L448 128 L128 128 L128 192 L128 256 L64 256 L0 256 L0 448 L0 640 L64 640 L128 640 L128 704 Z M640 576 L640 640 L448 640 L256 640 L256 576 L256 512 L448 512 L640 512 L640 576 Z M384 960 L384 1024 L512 1024 L640 1024 L640 960 L640 896 L512 896 L384 896 L384 960 Z " />
<glyph glyph-name="Eogonek" unicode="&#x118;" horiz-adv-x="1024" d="M0 704 L0 1024 L448 1024 L896 1024 L896 960 L896 896 L576 896 L256 896 L256 832 L256 768 L512 768 L768 768 L768 704 L768 640 L512 640 L256 640 L256 576 L256 512 L576 512 L896 512 L896 448 L896 384 L704 384 L512 384 L512 320 L512 256 L448 256 L384 256 L384 192 L384 128 L512 128 L640 128 L640 64 L640 0 L512 0 L384 0 L384 64 L384 128 L320 128 L256 128 L256 192 L256 256 L320 256 L384 256 L384 320 L384 384 L192 384 L0 384 L0 704 Z " />
<glyph glyph-name="eogonek" unicode="&#x119;" horiz-adv-x="1024" d="M128 960 L128 1024 L448 1024 L768 1024 L768 960 L768 896 L832 896 L896 896 L896 768 L896 640 L576 640 L256 640 L256 576 L256 512 L512 512 L768 512 L768 448 L768 384 L640 384 L512 384 L512 320 L512 256 L448 256 L384 256 L384 192 L384 128 L512 128 L640 128 L640 64 L640 0 L512 0 L384 0 L384 64 L384 128 L320 128 L256 128 L256 192 L256 256 L320 256 L384 256 L384 320 L384 384 L256 384 L128 384 L128 448 L128 512 L64 512 L0 512 L0 704 L0 896 L64 896 L128 896 L128 960 Z M640 832 L640 896 L448 896 L256 896 L256 832 L256 768 L448 768 L640 768 L640 832 Z " />
<glyph glyph-name="Ecaron" unicode="&#x11a;" horiz-adv-x="1024" d="M128 960 L128 1024 L256 1024 L384 1024 L384 960 L384 896 L448 896 L512 896 L512 960 L512 1024 L640 1024 L768 1024 L768 960 L768 896 L704 896 L640 896 L640 832 L640 768 L768 768 L896 768 L896 704 L896 640 L576 640 L256 640 L256 576 L256 512 L512 512 L768 512 L768 448 L768 384 L512 384 L256 384 L256 320 L256 256 L576 256 L896 256 L896 192 L896 128 L448 128 L0 128 L0 448 L0 768 L128 768 L256 768 L256 832 L256 896 L192 896 L128 896 L128 960 Z " />
<glyph glyph-name="ecaron" unicode="&#x11b;" horiz-adv-x="1024" d="M128 960 L128 1024 L256 1024 L384 1024 L384 960 L384 896 L448 896 L512 896 L512 960 L512 1024 L640 1024 L768 1024 L768 960 L768 896 L704 896 L640 896 L640 832 L640 768 L704 768 L768 768 L768 704 L768 640 L832 640 L896 640 L896 512 L896 384 L576 384 L256 384 L256 320 L256 256 L512 256 L768 256 L768 192 L768 128 L448 128 L128 128 L128 192 L128 256 L64 256 L0 256 L0 448 L0 640 L64 640 L128 640 L128 704 L128 768 L192 768 L256 768 L256 832 L256 896 L192 896 L128 896 L128 960 Z M640 576 L640 640 L448 640 L256 640 L256 576 L256 512 L448 512 L640 512 L640 576 Z " />
<glyph glyph-name="Gcircumflex" unicode="&#x11c;" horiz-adv-x="1024" d="M256 960 L256 1024 L448 1024 L640 1024 L640 960 L640 896 L704 896 L768 896 L768 832 L768 768 L832 768 L896 768 L896 704 L896 640 L576 640 L256 640 L256 448 L256 256 L448 256 L640 256 L640 320 L640 384 L576 384 L512 384 L512 448 L512 512 L704 512 L896 512 L896 320 L896 128 L512 128 L128 128 L128 192 L128 256 L64 256 L0 256 L0 448 L0 640 L64 640 L128 640 L128 768 L128 896 L192 896 L256 896 L256 960 Z M512 832 L512 896 L448 896 L384 896 L384 832 L384 768 L448 768 L512 768 L512 832 Z " />
<glyph glyph-name="gcircumflex" unicode="&#x11d;" horiz-adv-x="1024" d="M256 960 L256 1024 L448 1024 L640 1024 L640 960 L640 896 L704 896 L768 896 L768 832 L768 768 L832 768 L896 768 L896 448 L896 128 L832 128 L768 128 L768 64 L768 0 L448 0 L128 0 L128 64 L128 128 L384 128 L640 128 L640 192 L640 256 L384 256 L128 256 L128 320 L128 384 L64 384 L0 384 L0 512 L0 640 L64 640 L128 640 L128 768 L128 896 L192 896 L256 896 L256 960 Z M512 832 L512 896 L448 896 L384 896 L384 832 L384 768 L448 768 L512 768 L512 832 Z M640 512 L640 640 L448 640 L256 640 L256 512 L256 384 L448 384 L640 384 L640 512 Z " />
<glyph glyph-name="Gbreve" unicode="&#x11e;" horiz-adv-x="1024" d="M128 960 L128 1024 L192 1024 L256 1024 L256 960 L256 896 L448 896 L640 896 L640 960 L640 1024 L704 1024 L768 1024 L768 960 L768 896 L704 896 L640 896 L640 832 L640 768 L768 768 L896 768 L896 704 L896 640 L576 640 L256 640 L256 448 L256 256 L448 256 L640 256 L640 320 L640 384 L576 384 L512 384 L512 448 L512 512 L704 512 L896 512 L896 320 L896 128 L512 128 L128 128 L128 192 L128 256 L64 256 L0 256 L0 448 L0 640 L64 640 L128 640 L128 704 L128 768 L192 768 L256 768 L256 832 L256 896 L192 896 L128 896 L128 960 Z " />
<glyph glyph-name="gbreve" unicode="&#x11f;" horiz-adv-x="1024" d="M128 960 L128 1024 L192 1024 L256 1024 L256 960 L256 896 L448 896 L640 896 L640 960 L640 1024 L704 1024 L768 1024 L768 960 L768 896 L704 896 L640 896 L640 832 L640 768 L768 768 L896 768 L896 448 L896 128 L832 128 L768 128 L768 64 L768 0 L448 0 L128 0 L128 64 L128 128 L384 128 L640 128 L640 192 L640 256 L384 256 L128 256 L128 320 L128 384 L64 384 L0 384 L0 512 L0 640 L64 640 L128 640 L128 704 L128 768 L192 768 L256 768 L256 832 L256 896 L192 896 L128 896 L128 960 Z M640 512 L640 640 L448 640 L256 640 L256 512 L256 384 L448 384 L640 384 L640 512 Z " />
<glyph glyph-name="Gdotaccent" unicode="&#x120;" horiz-adv-x="1024" d="M128 704 L128 768 L512 768 L896 768 L896 704 L896 640 L576 640 L256 640 L256 448 L256 256 L448 256 L640 256 L640 320 L640 384 L576 384 L512 384 L512 448 L512 512 L704 512 L896 512 L896 320 L896 128 L512 128 L128 128 L128 192 L128 256 L64 256 L0 256 L0 448 L0 640 L64 640 L128 640 L128 704 Z M384 960 L384 1024 L512 1024 L640 1024 L640 960 L640 896 L512 896 L384 896 L384 960 Z " />
<glyph glyph-name="gdotaccent" unicode="&#x121;" horiz-adv-x="1024" d="M128 704 L128 768 L512 768 L896 768 L896 448 L896 128 L832 128 L768 128 L768 64 L768 0 L448 0 L128 0 L128 64 L128 128 L384 128 L640 128 L640 192 L640 256 L384 256 L128 256 L128 320 L128 384 L64 384 L0 384 L0 512 L0 640 L64 640 L128 640 L128 704 Z M640 512 L640 640 L448 640 L256 640 L256 512 L256 384 L448 384 L640 384 L640 512 Z M384 960 L384 1024 L512 1024 L640 1024 L640 960 L640 896 L512 896 L384 896 L384 960 Z " />
<glyph glyph-name="Gcommaaccent" unicode="&#x122;" horiz-adv-x="1024" d="M256 960 L256 1024 L576 1024 L896 1024 L896 960 L896 896 L640 896 L384 896 L384 832 L384 768 L320 768 L256 768 L256 640 L256 512 L320 512 L384 512 L384 448 L384 384 L512 384 L640 384 L640 448 L640 512 L576 512 L512 512 L512 576 L512 640 L704 640 L896 640 L896 448 L896 256 L768 256 L640 256 L640 192 L640 128 L576 128 L512 128 L512 64 L512 0 L384 0 L256 0 L256 64 L256 128 L320 128 L384 128 L384 192 L384 256 L320 256 L256 256 L256 320 L256 384 L192 384 L128 384 L128 448 L128 512 L64 512 L0 512 L0 640 L0 768 L64 768 L128 768 L128 832 L128 896 L192 896 L256 896 L256 960 Z " />
<glyph glyph-name="gcommaaccent" unicode="&#x123;" horiz-adv-x="1024" d="M384 960 L384 1024 L512 1024 L640 1024 L640 960 L640 896 L576 896 L512 896 L512 832 L512 768 L704 768 L896 768 L896 448 L896 128 L832 128 L768 128 L768 64 L768 0 L448 0 L128 0 L128 64 L128 128 L384 128 L640 128 L640 192 L640 256 L384 256 L128 256 L128 320 L128 384 L64 384 L0 384 L0 512 L0 640 L64 640 L128 640 L128 704 L128 768 L192 768 L256 768 L256 832 L256 896 L320 896 L384 896 L384 960 Z M640 512 L640 640 L448 640 L256 640 L256 512 L256 384 L448 384 L640 384 L640 512 Z " />
<glyph glyph-name="Hcircumflex" unicode="&#x124;" horiz-adv-x="1024" d="M256 960 L256 1024 L448 1024 L640 1024 L640 960 L640 896 L768 896 L896 896 L896 512 L896 128 L768 128 L640 128 L640 256 L640 384 L448 384 L256 384 L256 256 L256 128 L128 128 L0 128 L0 512 L0 896 L128 896 L256 896 L256 960 Z M512 832 L512 896 L448 896 L384 896 L384 832 L384 768 L320 768 L256 768 L256 640 L256 512 L448 512 L640 512 L640 640 L640 768 L576 768 L512 768 L512 832 Z " />
<glyph glyph-name="hcircumflex" unicode="&#x125;" horiz-adv-x="1024" d="M256 960 L256 1024 L448 1024 L640 1024 L640 960 L640 896 L704 896 L768 896 L768 832 L768 768 L640 768 L512 768 L512 832 L512 896 L448 896 L384 896 L384 832 L384 768 L320 768 L256 768 L256 704 L256 640 L512 640 L768 640 L768 576 L768 512 L832 512 L896 512 L896 320 L896 128 L768 128 L640 128 L640 320 L640 512 L448 512 L256 512 L256 320 L256 128 L128 128 L0 128 L0 512 L0 896 L128 896 L256 896 L256 960 Z " />
<glyph glyph-name="Hbar" unicode="&#x126;" horiz-adv-x="1024" d="M0 576 L0 1024 L128 1024 L256 1024 L256 960 L256 896 L448 896 L640 896 L640 960 L640 1024 L768 1024 L896 1024 L896 576 L896 128 L768 128 L640 128 L640 320 L640 512 L448 512 L256 512 L256 320 L256 128 L128 128 L0 128 L0 576 Z M640 704 L640 768 L448 768 L256 768 L256 704 L256 640 L448 640 L640 640 L640 704 Z " />
<glyph glyph-name="hbar" unicode="&#x127;" horiz-adv-x="1024" d="M128 960 L128 1024 L256 1024 L384 1024 L384 960 L384 896 L448 896 L512 896 L512 832 L512 768 L640 768 L768 768 L768 704 L768 640 L832 640 L896 640 L896 384 L896 128 L768 128 L640 128 L640 384 L640 640 L512 640 L384 640 L384 384 L384 128 L256 128 L128 128 L128 448 L128 768 L64 768 L0 768 L0 832 L0 896 L64 896 L128 896 L128 960 Z " />
<glyph glyph-name="Itilde" unicode="&#x128;" horiz-adv-x="1024" d="M256 960 L256 1024 L384 1024 L512 1024 L512 960 L512 896 L640 896 L768 896 L768 960 L768 1024 L832 1024 L896 1024 L896 960 L896 896 L832 896 L768 896 L768 832 L768 768 L832 768 L896 768 L896 704 L896 640 L768 640 L640 640 L640 448 L640 256 L768 256 L896 256 L896 192 L896 128 L512 128 L128 128 L128 192 L128 256 L256 256 L384 256 L384 448 L384 640 L256 640 L128 640 L128 768 L128 896 L192 896 L256 896 L256 960 Z M512 832 L512 896 L384 896 L256 896 L256 832 L256 768 L384 768 L512 768 L512 832 Z " />
<glyph glyph-name="itilde" unicode="&#x129;" horiz-adv-x="1024" d="M256 576 L256 640 L448 640 L640 640 L640 448 L640 256 L768 256 L896 256 L896 192 L896 128 L512 128 L128 128 L128 192 L128 256 L256 256 L384 256 L384 384 L384 512 L320 512 L256 512 L256 576 Z M256 960 L256 1024 L384 1024 L512 1024 L512 960 L512 896 L640 896 L768 896 L768 960 L768 1024 L832 1024 L896 1024 L896 960 L896 896 L832 896 L768 896 L768 832 L768 768 L640 768 L512 768 L512 832 L512 896 L384 896 L256 896 L256 832 L256 768 L192 768 L128 768 L128 832 L128 896 L192 896 L256 896 L256 960 Z " />
<glyph glyph-name="Imacron" unicode="&#x12a;" horiz-adv-x="1024" d="M128 704 L128 768 L512 768 L896 768 L896 704 L896 640 L768 640 L640 640 L640 448 L640 256 L768 256 L896 256 L896 192 L896 128 L512 128 L128 128 L128 192 L128 256 L256 256 L384 256 L384 448 L384 640 L256 640 L128 640 L128 704 Z M128 960 L128 1024 L512 1024 L896 1024 L896 960 L896 896 L512 896 L128 896 L128 960 Z " />
<glyph glyph-name="imacron" unicode="&#x12b;" horiz-adv-x="1024" d="M256 704 L256 768 L448 768 L640 768 L640 512 L640 256 L768 256 L896 256 L896 192 L896 128 L512 128 L128 128 L128 192 L128 256 L256 256 L384 256 L384 448 L384 640 L320 640 L256 640 L256 704 Z M128 960 L128 1024 L448 1024 L768 1024 L768 960 L768 896 L448 896 L128 896 L128 960 Z " />
<glyph glyph-name="Ibreve" unicode="&#x12c;" horiz-adv-x="1024" d="M256 960 L256 1024 L320 1024 L384 1024 L384 960 L384 896 L512 896 L640 896 L640 960 L640 1024 L704 1024 L768 1024 L768 960 L768 896 L704 896 L640 896 L640 832 L640 768 L768 768 L896 768 L896 704 L896 640 L768 640 L640 640 L640 448 L640 256 L768 256 L896 256 L896 192 L896 128 L512 128 L128 128 L128 192 L128 256 L256 256 L384 256 L384 448 L384 640 L256 640 L128 640 L128 704 L128 768 L256 768 L384 768 L384 832 L384 896 L320 896 L256 896 L256 960 Z " />
<glyph glyph-name="ibreve" unicode="&#x12d;" horiz-adv-x="1024" d="M128 960 L128 1024 L192 1024 L256 1024 L256 960 L256 896 L448 896 L640 896 L640 960 L640 1024 L704 1024 L768 1024 L768 960 L768 896 L704 896 L640 896 L640 576 L640 256 L768 256 L896 256 L896 192 L896 128 L512 128 L128 128 L128 192 L128 256 L256 256 L384 256 L384 448 L384 640 L320 640 L256 640 L256 768 L256 896 L192 896 L128 896 L128 960 Z " />
<glyph glyph-name="Iogonek" unicode="&#x12e;" horiz-adv-x="1024" d="M128 960 L128 1024 L512 1024 L896 1024 L896 960 L896 896 L768 896 L640 896 L640 704 L640 512 L768 512 L896 512 L896 448 L896 384 L704 384 L512 384 L512 320 L512 256 L448 256 L384 256 L384 192 L384 128 L512 128 L640 128 L640 64 L640 0 L512 0 L384 0 L384 64 L384 128 L320 128 L256 128 L256 192 L256 256 L320 256 L384 256 L384 320 L384 384 L256 384 L128 384 L128 448 L128 512 L256 512 L384 512 L384 704 L384 896 L256 896 L128 896 L128 960 Z " />
<glyph glyph-name="iogonek" unicode="&#x12f;" horiz-adv-x="1024" d="M256 704 L256 768 L448 768 L640 768 L640 640 L640 512 L768 512 L896 512 L896 448 L896 384 L704 384 L512 384 L512 320 L512 256 L448 256 L384 256 L384 192 L384 128 L512 128 L640 128 L640 64 L640 0 L512 0 L384 0 L384 64 L384 128 L320 128 L256 128 L256 192 L256 256 L320 256 L384 256 L384 320 L384 384 L256 384 L128 384 L128 448 L128 512 L256 512 L384 512 L384 576 L384 640 L320 640 L256 640 L256 704 Z M384 960 L384 1024 L512 1024 L640 1024 L640 960 L640 896 L512 896 L384 896 L384 960 Z " />
<glyph glyph-name="Idot" unicode="&#x130;" horiz-adv-x="1024" d="M128 704 L128 768 L512 768 L896 768 L896 704 L896 640 L768 640 L640 640 L640 448 L640 256 L768 256 L896 256 L896 192 L896 128 L512 128 L128 128 L128 192 L128 256 L256 256 L384 256 L384 448 L384 640 L256 640 L128 640 L128 704 Z M384 960 L384 1024 L512 1024 L640 1024 L640 960 L640 896 L512 896 L384 896 L384 960 Z " />
<glyph glyph-name="dotlessi" unicode="&#x131;" horiz-adv-x="1024" d="M256 704 L256 768 L448 768 L640 768 L640 512 L640 256 L768 256 L896 256 L896 192 L896 128 L512 128 L128 128 L128 192 L128 256 L256 256 L384 256 L384 448 L384 640 L320 640 L256 640 L256 704 Z " />
<glyph glyph-name="IJ" unicode="&#x132;" horiz-adv-x="1024" d="M640 640 L640 1024 L768 1024 L896 1024 L896 640 L896 256 L832 256 L768 256 L768 192 L768 128 L448 128 L128 128 L128 192 L128 256 L384 256 L640 256 L640 640 Z M0 960 L0 1024 L256 1024 L512 1024 L512 960 L512 896 L448 896 L384 896 L384 704 L384 512 L448 512 L512 512 L512 448 L512 384 L256 384 L0 384 L0 448 L0 512 L64 512 L128 512 L128 704 L128 896 L64 896 L0 896 L0 960 Z " />
<glyph glyph-name="ij" unicode="&#x133;" horiz-adv-x="1024" d="M512 704 L512 768 L704 768 L896 768 L896 448 L896 128 L832 128 L768 128 L768 64 L768 0 L512 0 L256 0 L256 64 L256 128 L448 128 L640 128 L640 384 L640 640 L576 640 L512 640 L512 704 Z M0 704 L0 768 L192 768 L384 768 L384 512 L384 256 L256 256 L128 256 L128 448 L128 640 L64 640 L0 640 L0 704 Z M640 960 L640 1024 L768 1024 L896 1024 L896 960 L896 896 L768 896 L640 896 L640 960 Z M128 960 L128 1024 L256 1024 L384 1024 L384 960 L384 896 L256 896 L128 896 L128 960 Z " />
<glyph glyph-name="Jcircumflex" unicode="&#x134;" horiz-adv-x="1024" d="M384 960 L384 1024 L576 1024 L768 1024 L768 960 L768 896 L832 896 L896 896 L896 576 L896 256 L832 256 L768 256 L768 192 L768 128 L448 128 L128 128 L128 192 L128 256 L64 256 L0 256 L0 320 L0 384 L128 384 L256 384 L256 320 L256 256 L448 256 L640 256 L640 576 L640 896 L576 896 L512 896 L512 832 L512 768 L384 768 L256 768 L256 832 L256 896 L320 896 L384 896 L384 960 Z " />
<glyph glyph-name="jcircumflex" unicode="&#x135;" horiz-adv-x="1024" d="M384 576 L384 640 L576 640 L768 640 L768 384 L768 128 L704 128 L640 128 L640 64 L640 0 L384 0 L128 0 L128 64 L128 128 L320 128 L512 128 L512 320 L512 512 L448 512 L384 512 L384 576 Z M384 960 L384 1024 L576 1024 L768 1024 L768 960 L768 896 L832 896 L896 896 L896 832 L896 768 L768 768 L640 768 L640 832 L640 896 L576 896 L512 896 L512 832 L512 768 L384 768 L256 768 L256 832 L256 896 L320 896 L384 896 L384 960 Z " />
<glyph glyph-name="Kcommaaccent" unicode="&#x136;" horiz-adv-x="1024" d="M0 640 L0 1024 L128 1024 L256 1024 L256 896 L256 768 L320 768 L384 768 L384 832 L384 896 L448 896 L512 896 L512 960 L512 1024 L640 1024 L768 1024 L768 960 L768 896 L704 896 L640 896 L640 832 L640 768 L576 768 L512 768 L512 704 L512 640 L576 640 L640 640 L640 576 L640 512 L704 512 L768 512 L768 448 L768 384 L832 384 L896 384 L896 320 L896 256 L704 256 L512 256 L512 192 L512 128 L448 128 L384 128 L384 64 L384 0 L256 0 L128 0 L128 64 L128 128 L192 128 L256 128 L256 192 L256 256 L128 256 L0 256 L0 640 Z M384 448 L384 512 L320 512 L256 512 L256 384 L256 256 L384 256 L512 256 L512 320 L512 384 L448 384 L384 384 L384 448 Z " />
<glyph glyph-name="kcommaaccent" unicode="&#x137;" horiz-adv-x="1024" d="M0 640 L0 1024 L128 1024 L256 1024 L256 896 L256 768 L384 768 L512 768 L512 832 L512 896 L704 896 L896 896 L896 832 L896 768 L832 768 L768 768 L768 704 L768 640 L704 640 L640 640 L640 576 L640 512 L704 512 L768 512 L768 448 L768 384 L832 384 L896 384 L896 320 L896 256 L704 256 L512 256 L512 192 L512 128 L448 128 L384 128 L384 64 L384 0 L256 0 L128 0 L128 64 L128 128 L192 128 L256 128 L256 192 L256 256 L128 256 L0 256 L0 640 Z M384 448 L384 512 L320 512 L256 512 L256 384 L256 256 L384 256 L512 256 L512 320 L512 384 L448 384 L384 384 L384 448 Z " />
<glyph glyph-name="kgreenlandic" unicode="&#x138;" horiz-adv-x="1024" d="M0 448 L0 768 L128 768 L256 768 L256 640 L256 512 L384 512 L512 512 L512 576 L512 640 L576 640 L640 640 L640 704 L640 768 L768 768 L896 768 L896 704 L896 640 L832 640 L768 640 L768 576 L768 512 L704 512 L640 512 L640 448 L640 384 L704 384 L768 384 L768 320 L768 256 L832 256 L896 256 L896 192 L896 128 L768 128 L640 128 L640 192 L640 256 L576 256 L512 256 L512 320 L512 384 L384 384 L256 384 L256 256 L256 128 L128 128 L0 128 L0 448 Z " />
<glyph glyph-name="Lacute" unicode="&#x139;" horiz-adv-x="1024" d="M512 960 L512 1024 L576 1024 L640 1024 L640 960 L640 896 L576 896 L512 896 L512 832 L512 768 L448 768 L384 768 L384 512 L384 256 L640 256 L896 256 L896 192 L896 128 L512 128 L128 128 L128 512 L128 896 L320 896 L512 896 L512 960 Z " />
<glyph glyph-name="lacute" unicode="&#x13a;" horiz-adv-x="1024" d="M384 960 L384 1024 L448 1024 L512 1024 L512 960 L512 896 L448 896 L384 896 L384 832 L384 768 L448 768 L512 768 L512 512 L512 256 L640 256 L768 256 L768 192 L768 128 L384 128 L0 128 L0 192 L0 256 L128 256 L256 256 L256 448 L256 640 L192 640 L128 640 L128 704 L128 768 L192 768 L256 768 L256 832 L256 896 L320 896 L384 896 L384 960 Z " />
<glyph glyph-name="Lcommaaccent" unicode="&#x13b;" horiz-adv-x="1024" d="M128 640 L128 1024 L256 1024 L384 1024 L384 704 L384 384 L640 384 L896 384 L896 320 L896 256 L768 256 L640 256 L640 192 L640 128 L576 128 L512 128 L512 64 L512 0 L384 0 L256 0 L256 64 L256 128 L320 128 L384 128 L384 192 L384 256 L256 256 L128 256 L128 640 Z " />
<glyph glyph-name="lcommaaccent" unicode="&#x13c;" horiz-adv-x="1024" d="M256 960 L256 1024 L448 1024 L640 1024 L640 704 L640 384 L768 384 L896 384 L896 320 L896 256 L768 256 L640 256 L640 192 L640 128 L576 128 L512 128 L512 64 L512 0 L384 0 L256 0 L256 64 L256 128 L320 128 L384 128 L384 192 L384 256 L256 256 L128 256 L128 320 L128 384 L256 384 L384 384 L384 640 L384 896 L320 896 L256 896 L256 960 Z " />
<glyph glyph-name="Lcaron" unicode="&#x13d;" horiz-adv-x="1024" d="M640 832 L640 1024 L768 1024 L896 1024 L896 896 L896 768 L832 768 L768 768 L768 704 L768 640 L704 640 L640 640 L640 832 Z M128 576 L128 1024 L256 1024 L384 1024 L384 640 L384 256 L640 256 L896 256 L896 192 L896 128 L512 128 L128 128 L128 576 Z " />
<glyph glyph-name="lcaron" unicode="&#x13e;" horiz-adv-x="1024" d="M640 832 L640 1024 L768 1024 L896 1024 L896 896 L896 768 L832 768 L768 768 L768 704 L768 640 L704 640 L640 640 L640 832 Z M128 960 L128 1024 L320 1024 L512 1024 L512 640 L512 256 L640 256 L768 256 L768 192 L768 128 L384 128 L0 128 L0 192 L0 256 L128 256 L256 256 L256 576 L256 896 L192 896 L128 896 L128 960 Z " />
<glyph glyph-name="Ldot" unicode="&#x13f;" horiz-adv-x="1024" d="M512 640 L512 768 L640 768 L768 768 L768 640 L768 512 L640 512 L512 512 L512 640 Z M128 576 L128 1024 L256 1024 L384 1024 L384 640 L384 256 L640 256 L896 256 L896 192 L896 128 L512 128 L128 128 L128 576 Z " />
<glyph glyph-name="ldot" unicode="&#x140;" horiz-adv-x="1024" d="M640 640 L640 768 L768 768 L896 768 L896 640 L896 512 L768 512 L640 512 L640 640 Z M128 960 L128 1024 L320 1024 L512 1024 L512 640 L512 256 L640 256 L768 256 L768 192 L768 128 L384 128 L0 128 L0 192 L0 256 L128 256 L256 256 L256 576 L256 896 L192 896 L128 896 L128 960 Z " />
<glyph glyph-name="Lslash" unicode="&#x141;" horiz-adv-x="1024" d="M128 832 L128 1024 L256 1024 L384 1024 L384 896 L384 768 L448 768 L512 768 L512 704 L512 640 L448 640 L384 640 L384 448 L384 256 L640 256 L896 256 L896 192 L896 128 L512 128 L128 128 L128 320 L128 512 L64 512 L0 512 L0 576 L0 640 L64 640 L128 640 L128 832 Z " />
<glyph glyph-name="lslash" unicode="&#x142;" horiz-adv-x="1024" d="M256 960 L256 1024 L448 1024 L640 1024 L640 896 L640 768 L704 768 L768 768 L768 704 L768 640 L704 640 L640 640 L640 448 L640 256 L768 256 L896 256 L896 192 L896 128 L512 128 L128 128 L128 192 L128 256 L256 256 L384 256 L384 384 L384 512 L320 512 L256 512 L256 576 L256 640 L320 640 L384 640 L384 768 L384 896 L320 896 L256 896 L256 960 Z " />
<glyph glyph-name="Nacute" unicode="&#x143;" horiz-adv-x="1024" d="M512 960 L512 1024 L576 1024 L640 1024 L640 960 L640 896 L576 896 L512 896 L512 832 L512 768 L448 768 L384 768 L384 704 L384 640 L448 640 L512 640 L512 576 L512 512 L576 512 L640 512 L640 640 L640 768 L768 768 L896 768 L896 448 L896 128 L704 128 L512 128 L512 192 L512 256 L448 256 L384 256 L384 320 L384 384 L320 384 L256 384 L256 256 L256 128 L128 128 L0 128 L0 448 L0 768 L192 768 L384 768 L384 832 L384 896 L448 896 L512 896 L512 960 Z " />
<glyph glyph-name="nacute" unicode="&#x144;" horiz-adv-x="1024" d="M512 960 L512 1024 L576 1024 L640 1024 L640 960 L640 896 L576 896 L512 896 L512 832 L512 768 L640 768 L768 768 L768 704 L768 640 L832 640 L896 640 L896 384 L896 128 L768 128 L640 128 L640 384 L640 640 L448 640 L256 640 L256 384 L256 128 L128 128 L0 128 L0 448 L0 768 L192 768 L384 768 L384 832 L384 896 L448 896 L512 896 L512 960 Z " />
<glyph glyph-name="Ncommaaccent" unicode="&#x145;" horiz-adv-x="1024" d="M0 640 L0 1024 L192 1024 L384 1024 L384 960 L384 896 L448 896 L512 896 L512 832 L512 768 L576 768 L640 768 L640 896 L640 1024 L768 1024 L896 1024 L896 640 L896 256 L768 256 L640 256 L640 192 L640 128 L576 128 L512 128 L512 64 L512 0 L384 0 L256 0 L256 64 L256 128 L320 128 L384 128 L384 192 L384 256 L512 256 L640 256 L640 320 L640 384 L576 384 L512 384 L512 448 L512 512 L448 512 L384 512 L384 576 L384 640 L320 640 L256 640 L256 448 L256 256 L128 256 L0 256 L0 640 Z " />
<glyph glyph-name="ncommaaccent" unicode="&#x146;" horiz-adv-x="1024" d="M0 576 L0 896 L384 896 L768 896 L768 832 L768 768 L832 768 L896 768 L896 512 L896 256 L768 256 L640 256 L640 192 L640 128 L576 128 L512 128 L512 64 L512 0 L384 0 L256 0 L256 64 L256 128 L320 128 L384 128 L384 192 L384 256 L512 256 L640 256 L640 512 L640 768 L448 768 L256 768 L256 512 L256 256 L128 256 L0 256 L0 576 Z " />
<glyph glyph-name="Ncaron" unicode="&#x147;" horiz-adv-x="1024" d="M128 960 L128 1024 L256 1024 L384 1024 L384 960 L384 896 L448 896 L512 896 L512 960 L512 1024 L640 1024 L768 1024 L768 960 L768 896 L704 896 L640 896 L640 832 L640 768 L768 768 L896 768 L896 448 L896 128 L704 128 L512 128 L512 192 L512 256 L448 256 L384 256 L384 320 L384 384 L320 384 L256 384 L256 256 L256 128 L128 128 L0 128 L0 448 L0 768 L128 768 L256 768 L256 832 L256 896 L192 896 L128 896 L128 960 Z M640 640 L640 768 L512 768 L384 768 L384 704 L384 640 L448 640 L512 640 L512 576 L512 512 L576 512 L640 512 L640 640 Z " />
<glyph glyph-name="ncaron" unicode="&#x148;" horiz-adv-x="1024" d="M128 960 L128 1024 L256 1024 L384 1024 L384 960 L384 896 L448 896 L512 896 L512 960 L512 1024 L640 1024 L768 1024 L768 960 L768 896 L704 896 L640 896 L640 832 L640 768 L704 768 L768 768 L768 704 L768 640 L832 640 L896 640 L896 384 L896 128 L768 128 L640 128 L640 384 L640 640 L448 640 L256 640 L256 384 L256 128 L128 128 L0 128 L0 448 L0 768 L128 768 L256 768 L256 832 L256 896 L192 896 L128 896 L128 960 Z " />
<glyph glyph-name="napostrophe" unicode="&#x149;" horiz-adv-x="1024" d="M0 832 L0 1024 L128 1024 L256 1024 L256 896 L256 768 L512 768 L768 768 L768 704 L768 640 L832 640 L896 640 L896 384 L896 128 L768 128 L640 128 L640 384 L640 640 L576 640 L512 640 L512 384 L512 128 L384 128 L256 128 L256 448 L256 768 L192 768 L128 768 L128 704 L128 640 L64 640 L0 640 L0 832 Z " />
<glyph glyph-name="Eng" unicode="&#x14a;" horiz-adv-x="1024" d="M0 640 L0 1024 L192 1024 L384 1024 L384 960 L384 896 L448 896 L512 896 L512 832 L512 768 L576 768 L640 768 L640 896 L640 1024 L768 1024 L896 1024 L896 576 L896 128 L832 128 L768 128 L768 64 L768 0 L512 0 L256 0 L256 64 L256 128 L448 128 L640 128 L640 256 L640 384 L576 384 L512 384 L512 448 L512 512 L448 512 L384 512 L384 576 L384 640 L320 640 L256 640 L256 448 L256 256 L128 256 L0 256 L0 640 Z " />
<glyph glyph-name="eng" unicode="&#x14b;" horiz-adv-x="1024" d="M0 576 L0 896 L384 896 L768 896 L768 832 L768 768 L832 768 L896 768 L896 448 L896 128 L832 128 L768 128 L768 64 L768 0 L512 0 L256 0 L256 64 L256 128 L448 128 L640 128 L640 448 L640 768 L448 768 L256 768 L256 512 L256 256 L128 256 L0 256 L0 576 Z " />
<glyph glyph-name="Omacron" unicode="&#x14c;" horiz-adv-x="1024" d="M128 704 L128 768 L448 768 L768 768 L768 704 L768 640 L832 640 L896 640 L896 448 L896 256 L832 256 L768 256 L768 192 L768 128 L448 128 L128 128 L128 192 L128 256 L64 256 L0 256 L0 448 L0 640 L64 640 L128 640 L128 704 Z M640 448 L640 640 L448 640 L256 640 L256 448 L256 256 L448 256 L640 256 L640 448 Z M128 960 L128 1024 L448 1024 L768 1024 L768 960 L768 896 L448 896 L128 896 L128 960 Z " />
<glyph glyph-name="omacron" unicode="&#x14d;" horiz-adv-x="1024" d="M128 704 L128 768 L448 768 L768 768 L768 704 L768 640 L832 640 L896 640 L896 448 L896 256 L832 256 L768 256 L768 192 L768 128 L448 128 L128 128 L128 192 L128 256 L64 256 L0 256 L0 448 L0 640 L64 640 L128 640 L128 704 Z M640 448 L640 640 L448 640 L256 640 L256 448 L256 256 L448 256 L640 256 L640 448 Z M128 960 L128 1024 L448 1024 L768 1024 L768 960 L768 896 L448 896 L128 896 L128 960 Z " />
<glyph glyph-name="Obreve" unicode="&#x14e;" horiz-adv-x="1024" d="M128 960 L128 1024 L192 1024 L256 1024 L256 960 L256 896 L448 896 L640 896 L640 960 L640 1024 L704 1024 L768 1024 L768 960 L768 896 L704 896 L640 896 L640 832 L640 768 L704 768 L768 768 L768 704 L768 640 L832 640 L896 640 L896 448 L896 256 L832 256 L768 256 L768 192 L768 128 L448 128 L128 128 L128 192 L128 256 L64 256 L0 256 L0 448 L0 640 L64 640 L128 640 L128 704 L128 768 L192 768 L256 768 L256 832 L256 896 L192 896 L128 896 L128 960 Z M640 448 L640 640 L448 640 L256 640 L256 448 L256 256 L448 256 L640 256 L640 448 Z " />
<glyph glyph-name="obreve" unicode="&#x14f;" horiz-adv-x="1024" d="M128 960 L128 1024 L192 1024 L256 1024 L256 960 L256 896 L448 896 L640 896 L640 960 L640 1024 L704 1024 L768 1024 L768 960 L768 896 L704 896 L640 896 L640 832 L640 768 L704 768 L768 768 L768 704 L768 640 L832 640 L896 640 L896 448 L896 256 L832 256 L768 256 L768 192 L768 128 L448 128 L128 128 L128 192 L128 256 L64 256 L0 256 L0 448 L0 640 L64 640 L128 640 L128 704 L128 768 L192 768 L256 768 L256 832 L256 896 L192 896 L128 896 L128 960 Z M640 448 L640 640 L448 640 L256 640 L256 448 L256 256 L448 256 L640 256 L640 448 Z " />
<glyph glyph-name="Ohungarumlaut" unicode="&#x150;" horiz-adv-x="1024" d="M256 960 L256 1024 L320 1024 L384 1024 L384 960 L384 896 L320 896 L256 896 L256 832 L256 768 L384 768 L512 768 L512 832 L512 896 L576 896 L640 896 L640 960 L640 1024 L704 1024 L768 1024 L768 960 L768 896 L704 896 L640 896 L640 832 L640 768 L704 768 L768 768 L768 704 L768 640 L832 640 L896 640 L896 448 L896 256 L832 256 L768 256 L768 192 L768 128 L448 128 L128 128 L128 192 L128 256 L64 256 L0 256 L0 448 L0 640 L64 640 L128 640 L128 768 L128 896 L192 896 L256 896 L256 960 Z M640 448 L640 640 L448 640 L256 640 L256 448 L256 256 L448 256 L640 256 L640 448 Z " />
<glyph glyph-name="ohungarumlaut" unicode="&#x151;" horiz-adv-x="1024" d="M256 960 L256 1024 L320 1024 L384 1024 L384 960 L384 896 L320 896 L256 896 L256 832 L256 768 L384 768 L512 768 L512 832 L512 896 L576 896 L640 896 L640 960 L640 1024 L704 1024 L768 1024 L768 960 L768 896 L704 896 L640 896 L640 832 L640 768 L704 768 L768 768 L768 704 L768 640 L832 640 L896 640 L896 448 L896 256 L832 256 L768 256 L768 192 L768 128 L448 128 L128 128 L128 192 L128 256 L64 256 L0 256 L0 448 L0 640 L64 640 L128 640 L128 768 L128 896 L192 896 L256 896 L256 960 Z M640 448 L640 640 L448 640 L256 640 L256 448 L256 256 L448 256 L640 256 L640 448 Z " />
<glyph glyph-name="OE" unicode="&#x152;" horiz-adv-x="1024" d="M128 960 L128 1024 L512 1024 L896 1024 L896 960 L896 896 L768 896 L640 896 L640 768 L640 640 L768 640 L896 640 L896 576 L896 512 L768 512 L640 512 L640 384 L640 256 L768 256 L896 256 L896 192 L896 128 L512 128 L128 128 L128 192 L128 256 L64 256 L0 256 L0 576 L0 896 L64 896 L128 896 L128 960 Z M384 576 L384 896 L320 896 L256 896 L256 576 L256 256 L320 256 L384 256 L384 576 Z " />
<glyph glyph-name="oe" unicode="&#x153;" horiz-adv-x="1024" d="M128 704 L128 768 L448 768 L768 768 L768 704 L768 640 L832 640 L896 640 L896 512 L896 384 L704 384 L512 384 L512 320 L512 256 L640 256 L768 256 L768 192 L768 128 L448 128 L128 128 L128 192 L128 256 L64 256 L0 256 L0 448 L0 640 L64 640 L128 640 L128 704 Z M384 448 L384 640 L320 640 L256 640 L256 448 L256 256 L320 256 L384 256 L384 448 Z M640 576 L640 640 L576 640 L512 640 L512 576 L512 512 L576 512 L640 512 L640 576 Z " />
<glyph glyph-name="Racute" unicode="&#x154;" horiz-adv-x="1024" d="M512 960 L512 1024 L576 1024 L640 1024 L640 960 L640 896 L576 896 L512 896 L512 832 L512 768 L640 768 L768 768 L768 704 L768 640 L832 640 L896 640 L896 576 L896 512 L768 512 L640 512 L640 448 L640 384 L704 384 L768 384 L768 320 L768 256 L832 256 L896 256 L896 192 L896 128 L704 128 L512 128 L512 192 L512 256 L448 256 L384 256 L384 320 L384 384 L320 384 L256 384 L256 256 L256 128 L128 128 L0 128 L0 448 L0 768 L192 768 L384 768 L384 832 L384 896 L448 896 L512 896 L512 960 Z M512 576 L512 640 L384 640 L256 640 L256 576 L256 512 L384 512 L512 512 L512 576 Z " />
<glyph glyph-name="racute" unicode="&#x155;" horiz-adv-x="1024" d="M512 960 L512 1024 L576 1024 L640 1024 L640 960 L640 896 L576 896 L512 896 L512 832 L512 768 L704 768 L896 768 L896 704 L896 640 L704 640 L512 640 L512 576 L512 512 L448 512 L384 512 L384 320 L384 128 L256 128 L128 128 L128 448 L128 768 L256 768 L384 768 L384 832 L384 896 L448 896 L512 896 L512 960 Z M512 704 L512 768 L448 768 L384 768 L384 704 L384 640 L448 640 L512 640 L512 704 Z " />
<glyph glyph-name="Rcommaaccent" unicode="&#x156;" horiz-adv-x="1024" d="M0 640 L0 1024 L384 1024 L768 1024 L768 960 L768 896 L832 896 L896 896 L896 768 L896 640 L768 640 L640 640 L640 576 L640 512 L704 512 L768 512 L768 448 L768 384 L832 384 L896 384 L896 320 L896 256 L768 256 L640 256 L640 192 L640 128 L576 128 L512 128 L512 64 L512 0 L384 0 L256 0 L256 64 L256 128 L320 128 L384 128 L384 192 L384 256 L448 256 L512 256 L512 320 L512 384 L448 384 L384 384 L384 448 L384 512 L320 512 L256 512 L256 384 L256 256 L128 256 L0 256 L0 640 Z M640 832 L640 896 L448 896 L256 896 L256 768 L256 640 L384 640 L512 640 L512 704 L512 768 L576 768 L640 768 L640 832 Z " />
<glyph glyph-name="rcommaaccent" unicode="&#x157;" horiz-adv-x="1024" d="M128 576 L128 896 L256 896 L384 896 L384 832 L384 768 L448 768 L512 768 L512 832 L512 896 L704 896 L896 896 L896 832 L896 768 L704 768 L512 768 L512 704 L512 640 L448 640 L384 640 L384 448 L384 256 L448 256 L512 256 L512 192 L512 128 L448 128 L384 128 L384 64 L384 0 L256 0 L128 0 L128 64 L128 128 L192 128 L256 128 L256 192 L256 256 L192 256 L128 256 L128 576 Z " />
<glyph glyph-name="Rcaron" unicode="&#x158;" horiz-adv-x="1024" d="M256 960 L256 1024 L320 1024 L384 1024 L384 960 L384 896 L448 896 L512 896 L512 960 L512 1024 L576 1024 L640 1024 L640 960 L640 896 L576 896 L512 896 L512 832 L512 768 L640 768 L768 768 L768 704 L768 640 L832 640 L896 640 L896 576 L896 512 L768 512 L640 512 L640 448 L640 384 L704 384 L768 384 L768 320 L768 256 L832 256 L896 256 L896 192 L896 128 L704 128 L512 128 L512 192 L512 256 L448 256 L384 256 L384 320 L384 384 L320 384 L256 384 L256 256 L256 128 L128 128 L0 128 L0 448 L0 768 L192 768 L384 768 L384 832 L384 896 L320 896 L256 896 L256 960 Z M512 576 L512 640 L384 640 L256 640 L256 576 L256 512 L384 512 L512 512 L512 576 Z " />
<glyph glyph-name="rcaron" unicode="&#x159;" horiz-adv-x="1024" d="M256 960 L256 1024 L384 1024 L512 1024 L512 960 L512 896 L576 896 L640 896 L640 960 L640 1024 L768 1024 L896 1024 L896 960 L896 896 L832 896 L768 896 L768 832 L768 768 L832 768 L896 768 L896 704 L896 640 L704 640 L512 640 L512 576 L512 512 L448 512 L384 512 L384 320 L384 128 L256 128 L128 128 L128 448 L128 768 L256 768 L384 768 L384 832 L384 896 L320 896 L256 896 L256 960 Z M512 704 L512 768 L448 768 L384 768 L384 704 L384 640 L448 640 L512 640 L512 704 Z " />
<glyph glyph-name="Sacute" unicode="&#x15a;" horiz-adv-x="1024" d="M512 960 L512 1024 L576 1024 L640 1024 L640 960 L640 896 L576 896 L512 896 L512 832 L512 768 L640 768 L768 768 L768 704 L768 640 L512 640 L256 640 L256 576 L256 512 L512 512 L768 512 L768 448 L768 384 L832 384 L896 384 L896 320 L896 256 L832 256 L768 256 L768 192 L768 128 L384 128 L0 128 L0 192 L0 256 L320 256 L640 256 L640 320 L640 384 L384 384 L128 384 L128 448 L128 512 L64 512 L0 512 L0 576 L0 640 L64 640 L128 640 L128 704 L128 768 L256 768 L384 768 L384 832 L384 896 L448 896 L512 896 L512 960 Z " />
<glyph glyph-name="sacute" unicode="&#x15b;" horiz-adv-x="1024" d="M512 960 L512 1024 L576 1024 L640 1024 L640 960 L640 896 L576 896 L512 896 L512 832 L512 768 L640 768 L768 768 L768 704 L768 640 L512 640 L256 640 L256 576 L256 512 L512 512 L768 512 L768 448 L768 384 L832 384 L896 384 L896 320 L896 256 L832 256 L768 256 L768 192 L768 128 L384 128 L0 128 L0 192 L0 256 L320 256 L640 256 L640 320 L640 384 L384 384 L128 384 L128 448 L128 512 L64 512 L0 512 L0 576 L0 640 L64 640 L128 640 L128 704 L128 768 L256 768 L384 768 L384 832 L384 896 L448 896 L512 896 L512 960 Z " />
<glyph glyph-name="Scircumflex" unicode="&#x15c;" horiz-adv-x="1024" d="M256 960 L256 1024 L448 1024 L640 1024 L640 960 L640 896 L704 896 L768 896 L768 768 L768 640 L512 640 L256 640 L256 576 L256 512 L512 512 L768 512 L768 448 L768 384 L832 384 L896 384 L896 320 L896 256 L832 256 L768 256 L768 192 L768 128 L384 128 L0 128 L0 192 L0 256 L320 256 L640 256 L640 320 L640 384 L384 384 L128 384 L128 448 L128 512 L64 512 L0 512 L0 576 L0 640 L64 640 L128 640 L128 768 L128 896 L192 896 L256 896 L256 960 Z M512 832 L512 896 L448 896 L384 896 L384 832 L384 768 L448 768 L512 768 L512 832 Z " />
<glyph glyph-name="scircumflex" unicode="&#x15d;" horiz-adv-x="1024" d="M256 960 L256 1024 L448 1024 L640 1024 L640 960 L640 896 L704 896 L768 896 L768 768 L768 640 L512 640 L256 640 L256 576 L256 512 L512 512 L768 512 L768 448 L768 384 L832 384 L896 384 L896 320 L896 256 L832 256 L768 256 L768 192 L768 128 L384 128 L0 128 L0 192 L0 256 L320 256 L640 256 L640 320 L640 384 L384 384 L128 384 L128 448 L128 512 L64 512 L0 512 L0 576 L0 640 L64 640 L128 640 L128 768 L128 896 L192 896 L256 896 L256 960 Z M512 832 L512 896 L448 896 L384 896 L384 832 L384 768 L448 768 L512 768 L512 832 Z " />
<glyph glyph-name="Scedilla" unicode="&#x15e;" horiz-adv-x="1024" d="M128 960 L128 1024 L448 1024 L768 1024 L768 960 L768 896 L512 896 L256 896 L256 832 L256 768 L512 768 L768 768 L768 704 L768 640 L832 640 L896 640 L896 512 L896 384 L832 384 L768 384 L768 320 L768 256 L704 256 L640 256 L640 192 L640 128 L576 128 L512 128 L512 64 L512 0 L384 0 L256 0 L256 64 L256 128 L384 128 L512 128 L512 192 L512 256 L320 256 L128 256 L128 320 L128 384 L64 384 L0 384 L0 448 L0 512 L128 512 L256 512 L256 448 L256 384 L448 384 L640 384 L640 512 L640 640 L384 640 L128 640 L128 704 L128 768 L64 768 L0 768 L0 832 L0 896 L64 896 L128 896 L128 960 Z " />
<glyph glyph-name="scedilla" unicode="&#x15f;" horiz-adv-x="1024" d="M128 832 L128 896 L448 896 L768 896 L768 832 L768 768 L512 768 L256 768 L256 704 L256 640 L512 640 L768 640 L768 576 L768 512 L832 512 L896 512 L896 448 L896 384 L832 384 L768 384 L768 320 L768 256 L704 256 L640 256 L640 192 L640 128 L576 128 L512 128 L512 64 L512 0 L384 0 L256 0 L256 64 L256 128 L384 128 L512 128 L512 192 L512 256 L256 256 L0 256 L0 320 L0 384 L320 384 L640 384 L640 448 L640 512 L384 512 L128 512 L128 576 L128 640 L64 640 L0 640 L0 704 L0 768 L64 768 L128 768 L128 832 Z " />
<glyph glyph-name="Scaron" unicode="&#x160;" horiz-adv-x="1024" d="M128 960 L128 1024 L256 1024 L384 1024 L384 960 L384 896 L448 896 L512 896 L512 960 L512 1024 L640 1024 L768 1024 L768 960 L768 896 L704 896 L640 896 L640 832 L640 768 L704 768 L768 768 L768 704 L768 640 L512 640 L256 640 L256 576 L256 512 L512 512 L768 512 L768 448 L768 384 L832 384 L896 384 L896 320 L896 256 L832 256 L768 256 L768 192 L768 128 L384 128 L0 128 L0 192 L0 256 L320 256 L640 256 L640 320 L640 384 L384 384 L128 384 L128 448 L128 512 L64 512 L0 512 L0 576 L0 640 L64 640 L128 640 L128 704 L128 768 L192 768 L256 768 L256 832 L256 896 L192 896 L128 896 L128 960 Z " />
<glyph glyph-name="scaron" unicode="&#x161;" horiz-adv-x="1024" d="M128 960 L128 1024 L256 1024 L384 1024 L384 960 L384 896 L448 896 L512 896 L512 960 L512 1024 L640 1024 L768 1024 L768 960 L768 896 L704 896 L640 896 L640 832 L640 768 L704 768 L768 768 L768 704 L768 640 L512 640 L256 640 L256 576 L256 512 L512 512 L768 512 L768 448 L768 384 L832 384 L896 384 L896 320 L896 256 L832 256 L768 256 L768 192 L768 128 L384 128 L0 128 L0 192 L0 256 L320 256 L640 256 L640 320 L640 384 L384 384 L128 384 L128 448 L128 512 L64 512 L0 512 L0 576 L0 640 L64 640 L128 640 L128 704 L128 768 L192 768 L256 768 L256 832 L256 896 L192 896 L128 896 L128 960 Z " />
<glyph glyph-name="Tcommaaccent" unicode="&#x162;" horiz-adv-x="1024" d="M128 960 L128 1024 L512 1024 L896 1024 L896 960 L896 896 L768 896 L640 896 L640 512 L640 128 L576 128 L512 128 L512 64 L512 0 L384 0 L256 0 L256 64 L256 128 L384 128 L512 128 L512 192 L512 256 L448 256 L384 256 L384 576 L384 896 L256 896 L128 896 L128 960 Z " />
<glyph glyph-name="tcommaaccent" unicode="&#x163;" horiz-adv-x="1024" d="M384 896 L384 1024 L512 1024 L640 1024 L640 896 L640 768 L768 768 L896 768 L896 704 L896 640 L768 640 L640 640 L640 384 L640 128 L576 128 L512 128 L512 64 L512 0 L384 0 L256 0 L256 64 L256 128 L384 128 L512 128 L512 192 L512 256 L448 256 L384 256 L384 448 L384 640 L256 640 L128 640 L128 704 L128 768 L256 768 L384 768 L384 896 Z " />
<glyph glyph-name="Tcaron" unicode="&#x164;" horiz-adv-x="1024" d="M256 960 L256 1024 L320 1024 L384 1024 L384 960 L384 896 L512 896 L640 896 L640 960 L640 1024 L704 1024 L768 1024 L768 960 L768 896 L704 896 L640 896 L640 832 L640 768 L768 768 L896 768 L896 704 L896 640 L768 640 L640 640 L640 384 L640 128 L512 128 L384 128 L384 384 L384 640 L256 640 L128 640 L128 704 L128 768 L256 768 L384 768 L384 832 L384 896 L320 896 L256 896 L256 960 Z " />
<glyph glyph-name="tcaron" unicode="&#x165;" horiz-adv-x="1024" d="M256 960 L256 1024 L320 1024 L384 1024 L384 960 L384 896 L512 896 L640 896 L640 960 L640 1024 L704 1024 L768 1024 L768 960 L768 896 L704 896 L640 896 L640 768 L640 640 L768 640 L896 640 L896 576 L896 512 L768 512 L640 512 L640 320 L640 128 L512 128 L384 128 L384 320 L384 512 L256 512 L128 512 L128 576 L128 640 L256 640 L384 640 L384 768 L384 896 L320 896 L256 896 L256 960 Z " />
<glyph glyph-name="Tbar" unicode="&#x166;" horiz-adv-x="1024" d="M128 960 L128 1024 L512 1024 L896 1024 L896 960 L896 896 L768 896 L640 896 L640 768 L640 640 L704 640 L768 640 L768 576 L768 512 L704 512 L640 512 L640 320 L640 128 L512 128 L384 128 L384 256 L384 384 L320 384 L256 384 L256 448 L256 512 L320 512 L384 512 L384 704 L384 896 L256 896 L128 896 L128 960 Z " />
<glyph glyph-name="tbar" unicode="&#x167;" horiz-adv-x="1024" d="M384 896 L384 1024 L512 1024 L640 1024 L640 896 L640 768 L768 768 L896 768 L896 704 L896 640 L768 640 L640 640 L640 576 L640 512 L704 512 L768 512 L768 448 L768 384 L704 384 L640 384 L640 256 L640 128 L512 128 L384 128 L384 192 L384 256 L320 256 L256 256 L256 320 L256 384 L320 384 L384 384 L384 512 L384 640 L256 640 L128 640 L128 704 L128 768 L256 768 L384 768 L384 896 Z " />
<glyph glyph-name="Utilde" unicode="&#x168;" horiz-adv-x="1024" d="M256 960 L256 1024 L384 1024 L512 1024 L512 960 L512 896 L576 896 L640 896 L640 960 L640 1024 L704 1024 L768 1024 L768 960 L768 896 L704 896 L640 896 L640 832 L640 768 L768 768 L896 768 L896 512 L896 256 L832 256 L768 256 L768 192 L768 128 L448 128 L128 128 L128 192 L128 256 L64 256 L0 256 L0 512 L0 768 L64 768 L128 768 L128 832 L128 896 L192 896 L256 896 L256 960 Z M384 832 L384 896 L320 896 L256 896 L256 576 L256 256 L448 256 L640 256 L640 512 L640 768 L512 768 L384 768 L384 832 Z " />
<glyph glyph-name="utilde" unicode="&#x169;" horiz-adv-x="1024" d="M256 960 L256 1024 L384 1024 L512 1024 L512 960 L512 896 L576 896 L640 896 L640 960 L640 1024 L704 1024 L768 1024 L768 960 L768 896 L704 896 L640 896 L640 832 L640 768 L768 768 L896 768 L896 448 L896 128 L512 128 L128 128 L128 192 L128 256 L64 256 L0 256 L0 512 L0 768 L64 768 L128 768 L128 832 L128 896 L192 896 L256 896 L256 960 Z M384 832 L384 896 L320 896 L256 896 L256 576 L256 256 L448 256 L640 256 L640 512 L640 768 L512 768 L384 768 L384 832 Z " />
<glyph glyph-name="Umacron" unicode="&#x16a;" horiz-adv-x="1024" d="M0 512 L0 768 L128 768 L256 768 L256 512 L256 256 L448 256 L640 256 L640 512 L640 768 L768 768 L896 768 L896 512 L896 256 L832 256 L768 256 L768 192 L768 128 L448 128 L128 128 L128 192 L128 256 L64 256 L0 256 L0 512 Z M128 960 L128 1024 L448 1024 L768 1024 L768 960 L768 896 L448 896 L128 896 L128 960 Z " />
<glyph glyph-name="umacron" unicode="&#x16b;" horiz-adv-x="1024" d="M0 512 L0 768 L128 768 L256 768 L256 512 L256 256 L448 256 L640 256 L640 512 L640 768 L768 768 L896 768 L896 448 L896 128 L512 128 L128 128 L128 192 L128 256 L64 256 L0 256 L0 512 Z M128 960 L128 1024 L448 1024 L768 1024 L768 960 L768 896 L448 896 L128 896 L128 960 Z " />
<glyph glyph-name="Ubreve" unicode="&#x16c;" horiz-adv-x="1024" d="M128 960 L128 1024 L192 1024 L256 1024 L256 960 L256 896 L448 896 L640 896 L640 960 L640 1024 L704 1024 L768 1024 L768 960 L768 896 L704 896 L640 896 L640 832 L640 768 L768 768 L896 768 L896 512 L896 256 L832 256 L768 256 L768 192 L768 128 L448 128 L128 128 L128 192 L128 256 L64 256 L0 256 L0 512 L0 768 L128 768 L256 768 L256 832 L256 896 L192 896 L128 896 L128 960 Z M640 512 L640 768 L448 768 L256 768 L256 512 L256 256 L448 256 L640 256 L640 512 Z " />
<glyph glyph-name="ubreve" unicode="&#x16d;" horiz-adv-x="1024" d="M128 960 L128 1024 L192 1024 L256 1024 L256 960 L256 896 L448 896 L640 896 L640 960 L640 1024 L704 1024 L768 1024 L768 960 L768 896 L704 896 L640 896 L640 832 L640 768 L768 768 L896 768 L896 448 L896 128 L512 128 L128 128 L128 192 L128 256 L64 256 L0 256 L0 512 L0 768 L128 768 L256 768 L256 832 L256 896 L192 896 L128 896 L128 960 Z M640 512 L640 768 L448 768 L256 768 L256 512 L256 256 L448 256 L640 256 L640 512 Z " />
<glyph glyph-name="Uring" unicode="&#x16e;" horiz-adv-x="1024" d="M256 960 L256 1024 L448 1024 L640 1024 L640 960 L640 896 L704 896 L768 896 L768 832 L768 768 L832 768 L896 768 L896 512 L896 256 L832 256 L768 256 L768 192 L768 128 L448 128 L128 128 L128 192 L128 256 L64 256 L0 256 L0 512 L0 768 L64 768 L128 768 L128 832 L128 896 L192 896 L256 896 L256 960 Z M512 832 L512 896 L448 896 L384 896 L384 832 L384 768 L448 768 L512 768 L512 832 Z M256 704 L256 768 L192 768 L128 768 L128 704 L128 640 L192 640 L256 640 L256 448 L256 256 L448 256 L640 256 L640 448 L640 640 L704 640 L768 640 L768 704 L768 768 L704 768 L640 768 L640 704 L640 640 L448 640 L256 640 L256 704 Z " />
<glyph glyph-name="uring" unicode="&#x16f;" horiz-adv-x="1024" d="M256 960 L256 1024 L448 1024 L640 1024 L640 960 L640 896 L704 896 L768 896 L768 832 L768 768 L832 768 L896 768 L896 448 L896 128 L512 128 L128 128 L128 192 L128 256 L64 256 L0 256 L0 512 L0 768 L64 768 L128 768 L128 832 L128 896 L192 896 L256 896 L256 960 Z M512 832 L512 896 L448 896 L384 896 L384 832 L384 768 L448 768 L512 768 L512 832 Z M256 704 L256 768 L192 768 L128 768 L128 704 L128 640 L192 640 L256 640 L256 448 L256 256 L448 256 L640 256 L640 448 L640 640 L704 640 L768 640 L768 704 L768 768 L704 768 L640 768 L640 704 L640 640 L448 640 L256 640 L256 704 Z " />
<glyph glyph-name="Uhungarumlaut" unicode="&#x170;" horiz-adv-x="1024" d="M256 960 L256 1024 L320 1024 L384 1024 L384 960 L384 896 L320 896 L256 896 L256 576 L256 256 L448 256 L640 256 L640 512 L640 768 L576 768 L512 768 L512 832 L512 896 L576 896 L640 896 L640 960 L640 1024 L704 1024 L768 1024 L768 960 L768 896 L704 896 L640 896 L640 832 L640 768 L768 768 L896 768 L896 512 L896 256 L832 256 L768 256 L768 192 L768 128 L448 128 L128 128 L128 192 L128 256 L64 256 L0 256 L0 512 L0 768 L64 768 L128 768 L128 832 L128 896 L192 896 L256 896 L256 960 Z " />
<glyph glyph-name="uhungarumlaut" unicode="&#x171;" horiz-adv-x="1024" d="M256 960 L256 1024 L320 1024 L384 1024 L384 960 L384 896 L320 896 L256 896 L256 576 L256 256 L448 256 L640 256 L640 512 L640 768 L576 768 L512 768 L512 832 L512 896 L576 896 L640 896 L640 960 L640 1024 L704 1024 L768 1024 L768 960 L768 896 L704 896 L640 896 L640 832 L640 768 L768 768 L896 768 L896 448 L896 128 L512 128 L128 128 L128 192 L128 256 L64 256 L0 256 L0 512 L0 768 L64 768 L128 768 L128 832 L128 896 L192 896 L256 896 L256 960 Z " />
<glyph glyph-name="Uogonek" unicode="&#x172;" horiz-adv-x="1024" d="M0 768 L0 1024 L128 1024 L256 1024 L256 768 L256 512 L448 512 L640 512 L640 768 L640 1024 L768 1024 L896 1024 L896 768 L896 512 L832 512 L768 512 L768 448 L768 384 L640 384 L512 384 L512 320 L512 256 L448 256 L384 256 L384 192 L384 128 L512 128 L640 128 L640 64 L640 0 L512 0 L384 0 L384 64 L384 128 L320 128 L256 128 L256 192 L256 256 L320 256 L384 256 L384 320 L384 384 L256 384 L128 384 L128 448 L128 512 L64 512 L0 512 L0 768 Z " />
<glyph glyph-name="uogonek" unicode="&#x173;" horiz-adv-x="1024" d="M0 768 L0 1024 L128 1024 L256 1024 L256 768 L256 512 L448 512 L640 512 L640 768 L640 1024 L768 1024 L896 1024 L896 704 L896 384 L704 384 L512 384 L512 320 L512 256 L448 256 L384 256 L384 192 L384 128 L512 128 L640 128 L640 64 L640 0 L512 0 L384 0 L384 64 L384 128 L320 128 L256 128 L256 192 L256 256 L320 256 L384 256 L384 320 L384 384 L256 384 L128 384 L128 448 L128 512 L64 512 L0 512 L0 768 Z " />
<glyph glyph-name="Wcircumflex" unicode="&#x174;" horiz-adv-x="1024" d="M256 960 L256 1024 L448 1024 L640 1024 L640 960 L640 896 L704 896 L768 896 L768 832 L768 768 L832 768 L896 768 L896 448 L896 128 L704 128 L512 128 L512 192 L512 256 L448 256 L384 256 L384 192 L384 128 L192 128 L0 128 L0 448 L0 768 L64 768 L128 768 L128 832 L128 896 L192 896 L256 896 L256 960 Z M512 832 L512 896 L448 896 L384 896 L384 832 L384 768 L320 768 L256 768 L256 640 L256 512 L320 512 L384 512 L384 576 L384 640 L448 640 L512 640 L512 576 L512 512 L576 512 L640 512 L640 640 L640 768 L576 768 L512 768 L512 832 Z " />
<glyph glyph-name="wcircumflex" unicode="&#x175;" horiz-adv-x="1024" d="M256 960 L256 1024 L448 1024 L640 1024 L640 960 L640 896 L704 896 L768 896 L768 832 L768 768 L832 768 L896 768 L896 448 L896 128 L512 128 L128 128 L128 192 L128 256 L64 256 L0 256 L0 512 L0 768 L64 768 L128 768 L128 832 L128 896 L192 896 L256 896 L256 960 Z M512 832 L512 896 L448 896 L384 896 L384 832 L384 768 L448 768 L512 768 L512 512 L512 256 L576 256 L640 256 L640 512 L640 768 L576 768 L512 768 L512 832 Z M256 512 L256 768 L192 768 L128 768 L128 512 L128 256 L192 256 L256 256 L256 512 Z " />
<glyph glyph-name="Ycircumflex" unicode="&#x176;" horiz-adv-x="1024" d="M384 960 L384 1024 L512 1024 L640 1024 L640 960 L640 896 L704 896 L768 896 L768 832 L768 768 L832 768 L896 768 L896 640 L896 512 L832 512 L768 512 L768 448 L768 384 L704 384 L640 384 L640 256 L640 128 L512 128 L384 128 L384 256 L384 384 L320 384 L256 384 L256 448 L256 512 L192 512 L128 512 L128 640 L128 768 L192 768 L256 768 L256 832 L256 896 L320 896 L384 896 L384 960 Z M640 704 L640 896 L512 896 L384 896 L384 704 L384 512 L512 512 L640 512 L640 704 Z " />
<glyph glyph-name="ycircumflex" unicode="&#x177;" horiz-adv-x="1024" d="M256 960 L256 1024 L448 1024 L640 1024 L640 960 L640 896 L704 896 L768 896 L768 832 L768 768 L832 768 L896 768 L896 448 L896 128 L832 128 L768 128 L768 64 L768 0 L448 0 L128 0 L128 64 L128 128 L384 128 L640 128 L640 192 L640 256 L384 256 L128 256 L128 320 L128 384 L64 384 L0 384 L0 576 L0 768 L64 768 L128 768 L128 832 L128 896 L192 896 L256 896 L256 960 Z M512 832 L512 896 L448 896 L384 896 L384 832 L384 768 L320 768 L256 768 L256 576 L256 384 L448 384 L640 384 L640 576 L640 768 L576 768 L512 768 L512 832 Z " />
<glyph glyph-name="Ydieresis" unicode="&#x178;" horiz-adv-x="1024" d="M128 640 L128 768 L256 768 L384 768 L384 640 L384 512 L512 512 L640 512 L640 640 L640 768 L768 768 L896 768 L896 640 L896 512 L832 512 L768 512 L768 448 L768 384 L704 384 L640 384 L640 256 L640 128 L512 128 L384 128 L384 256 L384 384 L320 384 L256 384 L256 448 L256 512 L192 512 L128 512 L128 640 Z M640 960 L640 1024 L768 1024 L896 1024 L896 960 L896 896 L768 896 L640 896 L640 960 Z M128 960 L128 1024 L256 1024 L384 1024 L384 960 L384 896 L256 896 L128 896 L128 960 Z " />
<glyph glyph-name="Zacute" unicode="&#x179;" horiz-adv-x="1024" d="M512 960 L512 1024 L576 1024 L640 1024 L640 960 L640 896 L576 896 L512 896 L512 832 L512 768 L704 768 L896 768 L896 704 L896 640 L832 640 L768 640 L768 576 L768 512 L704 512 L640 512 L640 448 L640 384 L576 384 L512 384 L512 320 L512 256 L704 256 L896 256 L896 192 L896 128 L448 128 L0 128 L0 192 L0 256 L64 256 L128 256 L128 320 L128 384 L192 384 L256 384 L256 448 L256 512 L320 512 L384 512 L384 576 L384 640 L192 640 L0 640 L0 704 L0 768 L192 768 L384 768 L384 832 L384 896 L448 896 L512 896 L512 960 Z " />
<glyph glyph-name="zacute" unicode="&#x17a;" horiz-adv-x="1024" d="M512 960 L512 1024 L576 1024 L640 1024 L640 960 L640 896 L576 896 L512 896 L512 832 L512 768 L704 768 L896 768 L896 704 L896 640 L832 640 L768 640 L768 576 L768 512 L704 512 L640 512 L640 448 L640 384 L576 384 L512 384 L512 320 L512 256 L704 256 L896 256 L896 192 L896 128 L448 128 L0 128 L0 192 L0 256 L64 256 L128 256 L128 320 L128 384 L192 384 L256 384 L256 448 L256 512 L320 512 L384 512 L384 576 L384 640 L192 640 L0 640 L0 704 L0 768 L192 768 L384 768 L384 832 L384 896 L448 896 L512 896 L512 960 Z " />
<glyph glyph-name="Zdotaccent" unicode="&#x17b;" horiz-adv-x="1024" d="M0 704 L0 768 L448 768 L896 768 L896 704 L896 640 L832 640 L768 640 L768 576 L768 512 L704 512 L640 512 L640 448 L640 384 L576 384 L512 384 L512 320 L512 256 L704 256 L896 256 L896 192 L896 128 L448 128 L0 128 L0 192 L0 256 L64 256 L128 256 L128 320 L128 384 L192 384 L256 384 L256 448 L256 512 L320 512 L384 512 L384 576 L384 640 L192 640 L0 640 L0 704 Z M384 960 L384 1024 L512 1024 L640 1024 L640 960 L640 896 L512 896 L384 896 L384 960 Z " />
<glyph glyph-name="zdotaccent" unicode="&#x17c;" horiz-adv-x="1024" d="M0 704 L0 768 L448 768 L896 768 L896 704 L896 640 L832 640 L768 640 L768 576 L768 512 L704 512 L640 512 L640 448 L640 384 L576 384 L512 384 L512 320 L512 256 L704 256 L896 256 L896 192 L896 128 L448 128 L0 128 L0 192 L0 256 L64 256 L128 256 L128 320 L128 384 L192 384 L256 384 L256 448 L256 512 L320 512 L384 512 L384 576 L384 640 L192 640 L0 640 L0 704 Z M384 960 L384 1024 L512 1024 L640 1024 L640 960 L640 896 L512 896 L384 896 L384 960 Z " />
<glyph glyph-name="Zcaron" unicode="&#x17d;" horiz-adv-x="1024" d="M128 960 L128 1024 L256 1024 L384 1024 L384 960 L384 896 L448 896 L512 896 L512 960 L512 1024 L640 1024 L768 1024 L768 960 L768 896 L704 896 L640 896 L640 832 L640 768 L768 768 L896 768 L896 704 L896 640 L832 640 L768 640 L768 576 L768 512 L704 512 L640 512 L640 448 L640 384 L576 384 L512 384 L512 320 L512 256 L704 256 L896 256 L896 192 L896 128 L448 128 L0 128 L0 192 L0 256 L64 256 L128 256 L128 320 L128 384 L192 384 L256 384 L256 448 L256 512 L320 512 L384 512 L384 576 L384 640 L192 640 L0 640 L0 704 L0 768 L128 768 L256 768 L256 832 L256 896 L192 896 L128 896 L128 960 Z " />
<glyph glyph-name="zcaron" unicode="&#x17e;" horiz-adv-x="1024" d="M128 960 L128 1024 L256 1024 L384 1024 L384 960 L384 896 L448 896 L512 896 L512 960 L512 1024 L640 1024 L768 1024 L768 960 L768 896 L704 896 L640 896 L640 832 L640 768 L768 768 L896 768 L896 704 L896 640 L832 640 L768 640 L768 576 L768 512 L704 512 L640 512 L640 448 L640 384 L576 384 L512 384 L512 320 L512 256 L704 256 L896 256 L896 192 L896 128 L448 128 L0 128 L0 192 L0 256 L64 256 L128 256 L128 320 L128 384 L192 384 L256 384 L256 448 L256 512 L320 512 L384 512 L384 576 L384 640 L192 640 L0 640 L0 704 L0 768 L128 768 L256 768 L256 832 L256 896 L192 896 L128 896 L128 960 Z " />
<glyph glyph-name="longs" unicode="&#x17f;" horiz-adv-x="1024" d="M512 960 L512 1024 L704 1024 L896 1024 L896 960 L896 896 L768 896 L640 896 L640 512 L640 128 L512 128 L384 128 L384 512 L384 896 L448 896 L512 896 L512 960 Z " />
<glyph glyph-name="florin" unicode="&#x192;" horiz-adv-x="1024" d="M512 960 L512 1024 L704 1024 L896 1024 L896 960 L896 896 L768 896 L640 896 L640 832 L640 768 L768 768 L896 768 L896 704 L896 640 L768 640 L640 640 L640 448 L640 256 L576 256 L512 256 L512 192 L512 128 L320 128 L128 128 L128 192 L128 256 L256 256 L384 256 L384 448 L384 640 L256 640 L128 640 L128 704 L128 768 L256 768 L384 768 L384 832 L384 896 L448 896 L512 896 L512 960 Z " />
<glyph glyph-name="circumflex" unicode="&#x2c6;" horiz-adv-x="1024" d="M256 960 L256 1024 L448 1024 L640 1024 L640 960 L640 896 L704 896 L768 896 L768 832 L768 768 L640 768 L512 768 L512 832 L512 896 L448 896 L384 896 L384 832 L384 768 L256 768 L128 768 L128 832 L128 896 L192 896 L256 896 L256 960 Z " />
<glyph glyph-name="caron" unicode="&#x2c7;" horiz-adv-x="1024" d="M128 960 L128 1024 L256 1024 L384 1024 L384 960 L384 896 L448 896 L512 896 L512 960 L512 1024 L640 1024 L768 1024 L768 960 L768 896 L704 896 L640 896 L640 832 L640 768 L448 768 L256 768 L256 832 L256 896 L192 896 L128 896 L128 960 Z " />
<glyph glyph-name="uni02C9" unicode="&#x2c9;" horiz-adv-x="1024" d="M128 960 L128 1024 L448 1024 L768 1024 L768 960 L768 896 L448 896 L128 896 L128 960 Z " />
<glyph glyph-name="uni02CA" unicode="&#x2ca;" horiz-adv-x="1024" d="M512 960 L512 1024 L576 1024 L640 1024 L640 960 L640 896 L576 896 L512 896 L512 832 L512 768 L448 768 L384 768 L384 832 L384 896 L448 896 L512 896 L512 960 Z " />
<glyph glyph-name="uni02CB" unicode="&#x2cb;" horiz-adv-x="1024" d="M384 960 L384 1024 L448 1024 L512 1024 L512 960 L512 896 L576 896 L640 896 L640 832 L640 768 L576 768 L512 768 L512 832 L512 896 L448 896 L384 896 L384 960 Z " />
<glyph glyph-name="uni02D7" unicode="&#x2d7;" horiz-adv-x="1024" d="M128 576 L128 640 L448 640 L768 640 L768 576 L768 512 L448 512 L128 512 L128 576 Z " />
<glyph glyph-name="breve" unicode="&#x2d8;" horiz-adv-x="1024" d="M128 960 L128 1024 L192 1024 L256 1024 L256 960 L256 896 L448 896 L640 896 L640 960 L640 1024 L704 1024 L768 1024 L768 960 L768 896 L704 896 L640 896 L640 832 L640 768 L448 768 L256 768 L256 832 L256 896 L192 896 L128 896 L128 960 Z " />
<glyph glyph-name="dotaccent" unicode="&#x2d9;" horiz-adv-x="1024" d="M384 960 L384 1024 L512 1024 L640 1024 L640 960 L640 896 L512 896 L384 896 L384 960 Z " />
<glyph glyph-name="ring" unicode="&#x2da;" horiz-adv-x="1024" d="M256 960 L256 1024 L448 1024 L640 1024 L640 960 L640 896 L704 896 L768 896 L768 832 L768 768 L704 768 L640 768 L640 704 L640 640 L448 640 L256 640 L256 704 L256 768 L192 768 L128 768 L128 832 L128 896 L192 896 L256 896 L256 960 Z M512 832 L512 896 L448 896 L384 896 L384 832 L384 768 L448 768 L512 768 L512 832 Z " />
<glyph glyph-name="ogonek" unicode="&#x2db;" horiz-adv-x="1024" d="M384 320 L384 384 L448 384 L512 384 L512 320 L512 256 L448 256 L384 256 L384 192 L384 128 L512 128 L640 128 L640 64 L640 0 L512 0 L384 0 L384 64 L384 128 L320 128 L256 128 L256 192 L256 256 L320 256 L384 256 L384 320 Z " />
<glyph glyph-name="tilde" unicode="&#x2dc;" horiz-adv-x="1024" d="M256 960 L256 1024 L384 1024 L512 1024 L512 960 L512 896 L576 896 L640 896 L640 960 L640 1024 L704 1024 L768 1024 L768 960 L768 896 L704 896 L640 896 L640 832 L640 768 L512 768 L384 768 L384 832 L384 896 L320 896 L256 896 L256 832 L256 768 L192 768 L128 768 L128 832 L128 896 L192 896 L256 896 L256 960 Z " />
<glyph glyph-name="hungarumlaut" unicode="&#x2dd;" horiz-adv-x="1024" d="M640 960 L640 1024 L704 1024 L768 1024 L768 960 L768 896 L704 896 L640 896 L640 832 L640 768 L576 768 L512 768 L512 832 L512 896 L576 896 L640 896 L640 960 Z M256 960 L256 1024 L320 1024 L384 1024 L384 960 L384 896 L320 896 L256 896 L256 832 L256 768 L192 768 L128 768 L128 832 L128 896 L192 896 L256 896 L256 960 Z " />
<glyph glyph-name="uni037A" unicode="&#x37a;" horiz-adv-x="1024" d="M384 192 L384 256 L448 256 L512 256 L512 192 L512 128 L640 128 L768 128 L768 64 L768 0 L640 0 L512 0 L512 64 L512 128 L448 128 L384 128 L384 192 Z " />
<glyph glyph-name="uni037E" unicode="&#x37e;" horiz-adv-x="1024" d="M256 384 L256 512 L384 512 L512 512 L512 384 L512 256 L448 256 L384 256 L384 192 L384 128 L256 128 L128 128 L128 192 L128 256 L192 256 L256 256 L256 384 Z M256 768 L256 896 L384 896 L512 896 L512 768 L512 640 L384 640 L256 640 L256 768 Z " />
<glyph glyph-name="tonos" unicode="&#x384;" horiz-adv-x="1024" d="M512 960 L512 1024 L576 1024 L640 1024 L640 960 L640 896 L576 896 L512 896 L512 832 L512 768 L448 768 L384 768 L384 832 L384 896 L448 896 L512 896 L512 960 Z " />
<glyph glyph-name="dieresistonos" unicode="&#x385;" horiz-adv-x="1024" d="M768 960 L768 1024 L832 1024 L896 1024 L896 960 L896 896 L832 896 L768 896 L768 960 Z M512 960 L512 1024 L576 1024 L640 1024 L640 960 L640 896 L576 896 L512 896 L512 832 L512 768 L448 768 L384 768 L384 832 L384 896 L448 896 L512 896 L512 960 Z M128 960 L128 1024 L192 1024 L256 1024 L256 960 L256 896 L192 896 L128 896 L128 960 Z " />
<glyph glyph-name="Alphatonos" unicode="&#x386;" horiz-adv-x="1024" d="M128 960 L128 1024 L192 1024 L256 1024 L256 960 L256 896 L320 896 L384 896 L384 960 L384 1024 L512 1024 L640 1024 L640 960 L640 896 L704 896 L768 896 L768 832 L768 768 L832 768 L896 768 L896 448 L896 128 L768 128 L640 128 L640 256 L640 384 L512 384 L384 384 L384 256 L384 128 L256 128 L128 128 L128 448 L128 768 L64 768 L0 768 L0 832 L0 896 L64 896 L128 896 L128 960 Z M256 832 L256 896 L192 896 L128 896 L128 832 L128 768 L192 768 L256 768 L256 832 Z M640 640 L640 768 L512 768 L384 768 L384 640 L384 512 L512 512 L640 512 L640 640 Z " />
<glyph glyph-name="anoteleia" unicode="&#x387;" horiz-adv-x="1024" d="M256 512 L256 640 L384 640 L512 640 L512 512 L512 384 L384 384 L256 384 L256 512 Z " />
<glyph glyph-name="Epsilontonos" unicode="&#x388;" horiz-adv-x="1024" d="M128 960 L128 1024 L576 1024 L1024 1024 L1024 960 L1024 896 L768 896 L512 896 L512 768 L512 640 L640 640 L768 640 L768 576 L768 512 L640 512 L512 512 L512 384 L512 256 L768 256 L1024 256 L1024 192 L1024 128 L640 128 L256 128 L256 512 L256 896 L192 896 L128 896 L128 832 L128 768 L64 768 L0 768 L0 832 L0 896 L64 896 L128 896 L128 960 Z " />
<glyph glyph-name="Etatonos" unicode="&#x389;" horiz-adv-x="1024" d="M128 960 L128 1024 L320 1024 L512 1024 L512 832 L512 640 L640 640 L768 640 L768 832 L768 1024 L896 1024 L1024 1024 L1024 576 L1024 128 L896 128 L768 128 L768 320 L768 512 L640 512 L512 512 L512 320 L512 128 L384 128 L256 128 L256 512 L256 896 L192 896 L128 896 L128 832 L128 768 L64 768 L0 768 L0 832 L0 896 L64 896 L128 896 L128 960 Z " />
<glyph glyph-name="Iotatonos" unicode="&#x38a;" horiz-adv-x="1024" d="M384 960 L384 1024 L640 1024 L896 1024 L896 960 L896 896 L832 896 L768 896 L768 576 L768 256 L832 256 L896 256 L896 192 L896 128 L640 128 L384 128 L384 192 L384 256 L448 256 L512 256 L512 576 L512 896 L448 896 L384 896 L384 960 Z M128 960 L128 1024 L192 1024 L256 1024 L256 960 L256 896 L192 896 L128 896 L128 832 L128 768 L64 768 L0 768 L0 832 L0 896 L64 896 L128 896 L128 960 Z " />
<glyph glyph-name="Omicrontonos" unicode="&#x38c;" horiz-adv-x="1024" d="M128 960 L128 1024 L192 1024 L256 1024 L256 960 L256 896 L320 896 L384 896 L384 960 L384 1024 L640 1024 L896 1024 L896 960 L896 896 L960 896 L1024 896 L1024 576 L1024 256 L960 256 L896 256 L896 192 L896 128 L640 128 L384 128 L384 192 L384 256 L320 256 L256 256 L256 576 L256 896 L192 896 L128 896 L128 832 L128 768 L64 768 L0 768 L0 832 L0 896 L64 896 L128 896 L128 960 Z M768 576 L768 896 L640 896 L512 896 L512 576 L512 256 L640 256 L768 256 L768 576 Z " />
<glyph glyph-name="Upsilontonos" unicode="&#x38e;" horiz-adv-x="1024" d="M128 960 L128 1024 L320 1024 L512 1024 L512 832 L512 640 L640 640 L768 640 L768 832 L768 1024 L896 1024 L1024 1024 L1024 832 L1024 640 L960 640 L896 640 L896 576 L896 512 L832 512 L768 512 L768 320 L768 128 L640 128 L512 128 L512 320 L512 512 L448 512 L384 512 L384 576 L384 640 L320 640 L256 640 L256 768 L256 896 L192 896 L128 896 L128 832 L128 768 L64 768 L0 768 L0 832 L0 896 L64 896 L128 896 L128 960 Z " />
<glyph glyph-name="Omegatonos" unicode="&#x38f;" horiz-adv-x="1024" d="M128 960 L128 1024 L192 1024 L256 1024 L256 960 L256 896 L320 896 L384 896 L384 960 L384 1024 L576 1024 L768 1024 L768 960 L768 896 L832 896 L896 896 L896 832 L896 768 L960 768 L1024 768 L1024 576 L1024 384 L960 384 L896 384 L896 320 L896 256 L960 256 L1024 256 L1024 192 L1024 128 L832 128 L640 128 L640 256 L640 384 L704 384 L768 384 L768 576 L768 768 L704 768 L640 768 L640 832 L640 896 L576 896 L512 896 L512 832 L512 768 L448 768 L384 768 L384 576 L384 384 L448 384 L512 384 L512 256 L512 128 L320 128 L128 128 L128 192 L128 256 L192 256 L256 256 L256 320 L256 384 L192 384 L128 384 L128 576 L128 768 L64 768 L0 768 L0 832 L0 896 L64 896 L128 896 L128 960 Z M256 832 L256 896 L192 896 L128 896 L128 832 L128 768 L192 768 L256 768 L256 832 Z " />
<glyph glyph-name="iotadieresistonos" unicode="&#x390;" horiz-adv-x="1024" d="M640 960 L640 1024 L704 1024 L768 1024 L768 960 L768 896 L704 896 L640 896 L640 960 Z M384 960 L384 1024 L448 1024 L512 1024 L512 960 L512 896 L448 896 L384 896 L384 832 L384 768 L448 768 L512 768 L512 512 L512 256 L640 256 L768 256 L768 192 L768 128 L576 128 L384 128 L384 192 L384 256 L320 256 L256 256 L256 448 L256 640 L192 640 L128 640 L128 704 L128 768 L192 768 L256 768 L256 832 L256 896 L320 896 L384 896 L384 960 Z M0 960 L0 1024 L64 1024 L128 1024 L128 960 L128 896 L64 896 L0 896 L0 960 Z " />
<glyph glyph-name="Alpha" unicode="&#x391;" horiz-adv-x="1024" d="M256 960 L256 1024 L448 1024 L640 1024 L640 960 L640 896 L704 896 L768 896 L768 832 L768 768 L832 768 L896 768 L896 448 L896 128 L768 128 L640 128 L640 256 L640 384 L448 384 L256 384 L256 256 L256 128 L128 128 L0 128 L0 448 L0 768 L64 768 L128 768 L128 832 L128 896 L192 896 L256 896 L256 960 Z M512 832 L512 896 L448 896 L384 896 L384 832 L384 768 L320 768 L256 768 L256 640 L256 512 L448 512 L640 512 L640 640 L640 768 L576 768 L512 768 L512 832 Z " />
<glyph glyph-name="Beta" unicode="&#x392;" horiz-adv-x="1024" d="M0 576 L0 1024 L384 1024 L768 1024 L768 960 L768 896 L832 896 L896 896 L896 768 L896 640 L832 640 L768 640 L768 576 L768 512 L832 512 L896 512 L896 384 L896 256 L832 256 L768 256 L768 192 L768 128 L384 128 L0 128 L0 576 Z M640 768 L640 896 L448 896 L256 896 L256 768 L256 640 L448 640 L640 640 L640 768 Z M640 384 L640 512 L448 512 L256 512 L256 384 L256 256 L448 256 L640 256 L640 384 Z " />
<glyph glyph-name="Gamma" unicode="&#x393;" horiz-adv-x="1024" d="M128 576 L128 1024 L512 1024 L896 1024 L896 960 L896 896 L640 896 L384 896 L384 512 L384 128 L256 128 L128 128 L128 576 Z " />
<glyph glyph-name="increment" unicode="&#x394;" horiz-adv-x="1024" d="M256 960 L256 1024 L448 1024 L640 1024 L640 960 L640 896 L704 896 L768 896 L768 832 L768 768 L832 768 L896 768 L896 448 L896 128 L448 128 L0 128 L0 448 L0 768 L64 768 L128 768 L128 832 L128 896 L192 896 L256 896 L256 960 Z M512 832 L512 896 L448 896 L384 896 L384 832 L384 768 L320 768 L256 768 L256 512 L256 256 L448 256 L640 256 L640 512 L640 768 L576 768 L512 768 L512 832 Z " />
<glyph glyph-name="Epsilon" unicode="&#x395;" horiz-adv-x="1024" d="M0 576 L0 1024 L448 1024 L896 1024 L896 960 L896 896 L576 896 L256 896 L256 768 L256 640 L512 640 L768 640 L768 576 L768 512 L512 512 L256 512 L256 384 L256 256 L576 256 L896 256 L896 192 L896 128 L448 128 L0 128 L0 576 Z " />
<glyph glyph-name="Zeta" unicode="&#x396;" horiz-adv-x="1024" d="M0 960 L0 1024 L448 1024 L896 1024 L896 896 L896 768 L832 768 L768 768 L768 704 L768 640 L704 640 L640 640 L640 576 L640 512 L576 512 L512 512 L512 448 L512 384 L448 384 L384 384 L384 320 L384 256 L640 256 L896 256 L896 192 L896 128 L448 128 L0 128 L0 256 L0 384 L64 384 L128 384 L128 448 L128 512 L192 512 L256 512 L256 576 L256 640 L320 640 L384 640 L384 704 L384 768 L448 768 L512 768 L512 832 L512 896 L256 896 L0 896 L0 960 Z " />
<glyph glyph-name="Eta" unicode="&#x397;" horiz-adv-x="1024" d="M0 576 L0 1024 L128 1024 L256 1024 L256 832 L256 640 L448 640 L640 640 L640 832 L640 1024 L768 1024 L896 1024 L896 576 L896 128 L768 128 L640 128 L640 320 L640 512 L448 512 L256 512 L256 320 L256 128 L128 128 L0 128 L0 576 Z " />
<glyph glyph-name="Theta" unicode="&#x398;" horiz-adv-x="1024" d="M128 960 L128 1024 L448 1024 L768 1024 L768 960 L768 896 L832 896 L896 896 L896 576 L896 256 L832 256 L768 256 L768 192 L768 128 L448 128 L128 128 L128 192 L128 256 L64 256 L0 256 L0 576 L0 896 L64 896 L128 896 L128 960 Z M640 768 L640 896 L448 896 L256 896 L256 768 L256 640 L448 640 L640 640 L640 768 Z M640 384 L640 512 L448 512 L256 512 L256 384 L256 256 L448 256 L640 256 L640 384 Z " />
<glyph glyph-name="Iota" unicode="&#x399;" horiz-adv-x="1024" d="M128 960 L128 1024 L512 1024 L896 1024 L896 960 L896 896 L768 896 L640 896 L640 576 L640 256 L768 256 L896 256 L896 192 L896 128 L512 128 L128 128 L128 192 L128 256 L256 256 L384 256 L384 576 L384 896 L256 896 L128 896 L128 960 Z " />
<glyph glyph-name="Kappa" unicode="&#x39a;" horiz-adv-x="1024" d="M0 576 L0 1024 L128 1024 L256 1024 L256 832 L256 640 L320 640 L384 640 L384 704 L384 768 L448 768 L512 768 L512 832 L512 896 L576 896 L640 896 L640 960 L640 1024 L768 1024 L896 1024 L896 960 L896 896 L832 896 L768 896 L768 832 L768 768 L704 768 L640 768 L640 704 L640 640 L576 640 L512 640 L512 576 L512 512 L576 512 L640 512 L640 448 L640 384 L704 384 L768 384 L768 320 L768 256 L832 256 L896 256 L896 192 L896 128 L704 128 L512 128 L512 192 L512 256 L448 256 L384 256 L384 320 L384 384 L320 384 L256 384 L256 256 L256 128 L128 128 L0 128 L0 576 Z " />
<glyph glyph-name="Lambda" unicode="&#x39b;" horiz-adv-x="1024" d="M256 960 L256 1024 L448 1024 L640 1024 L640 960 L640 896 L704 896 L768 896 L768 832 L768 768 L832 768 L896 768 L896 448 L896 128 L768 128 L640 128 L640 448 L640 768 L576 768 L512 768 L512 832 L512 896 L448 896 L384 896 L384 832 L384 768 L320 768 L256 768 L256 448 L256 128 L128 128 L0 128 L0 448 L0 768 L64 768 L128 768 L128 832 L128 896 L192 896 L256 896 L256 960 Z " />
<glyph glyph-name="Mu" unicode="&#x39c;" horiz-adv-x="1024" d="M0 576 L0 1024 L128 1024 L256 1024 L256 960 L256 896 L320 896 L384 896 L384 832 L384 768 L448 768 L512 768 L512 832 L512 896 L576 896 L640 896 L640 960 L640 1024 L768 1024 L896 1024 L896 576 L896 128 L768 128 L640 128 L640 320 L640 512 L576 512 L512 512 L512 448 L512 384 L448 384 L384 384 L384 448 L384 512 L320 512 L256 512 L256 320 L256 128 L128 128 L0 128 L0 576 Z " />
<glyph glyph-name="Nu" unicode="&#x39d;" horiz-adv-x="1024" d="M0 576 L0 1024 L128 1024 L256 1024 L256 960 L256 896 L320 896 L384 896 L384 832 L384 768 L448 768 L512 768 L512 704 L512 640 L576 640 L640 640 L640 832 L640 1024 L768 1024 L896 1024 L896 576 L896 128 L768 128 L640 128 L640 192 L640 256 L576 256 L512 256 L512 320 L512 384 L448 384 L384 384 L384 448 L384 512 L320 512 L256 512 L256 320 L256 128 L128 128 L0 128 L0 576 Z " />
<glyph glyph-name="Xi" unicode="&#x39e;" horiz-adv-x="1024" d="M0 192 L0 256 L448 256 L896 256 L896 192 L896 128 L448 128 L0 128 L0 192 Z M128 576 L128 640 L448 640 L768 640 L768 576 L768 512 L448 512 L128 512 L128 576 Z M0 960 L0 1024 L448 1024 L896 1024 L896 960 L896 896 L448 896 L0 896 L0 960 Z " />
<glyph glyph-name="Omicron" unicode="&#x39f;" horiz-adv-x="1024" d="M128 960 L128 1024 L448 1024 L768 1024 L768 960 L768 896 L832 896 L896 896 L896 576 L896 256 L832 256 L768 256 L768 192 L768 128 L448 128 L128 128 L128 192 L128 256 L64 256 L0 256 L0 576 L0 896 L64 896 L128 896 L128 960 Z M640 576 L640 896 L448 896 L256 896 L256 576 L256 256 L448 256 L640 256 L640 576 Z " />
<glyph glyph-name="Pi" unicode="&#x3a0;" horiz-adv-x="1024" d="M0 576 L0 1024 L448 1024 L896 1024 L896 576 L896 128 L768 128 L640 128 L640 512 L640 896 L448 896 L256 896 L256 512 L256 128 L128 128 L0 128 L0 576 Z " />
<glyph glyph-name="Rho" unicode="&#x3a1;" horiz-adv-x="1024" d="M0 576 L0 1024 L384 1024 L768 1024 L768 960 L768 896 L832 896 L896 896 L896 704 L896 512 L832 512 L768 512 L768 448 L768 384 L512 384 L256 384 L256 256 L256 128 L128 128 L0 128 L0 576 Z M640 704 L640 896 L448 896 L256 896 L256 704 L256 512 L448 512 L640 512 L640 704 Z " />
<glyph glyph-name="Sigma" unicode="&#x3a3;" horiz-adv-x="1024" d="M0 960 L0 1024 L448 1024 L896 1024 L896 896 L896 768 L768 768 L640 768 L640 832 L640 896 L512 896 L384 896 L384 832 L384 768 L448 768 L512 768 L512 704 L512 640 L640 640 L768 640 L768 576 L768 512 L640 512 L512 512 L512 448 L512 384 L448 384 L384 384 L384 320 L384 256 L512 256 L640 256 L640 320 L640 384 L768 384 L896 384 L896 256 L896 128 L448 128 L0 128 L0 192 L0 256 L64 256 L128 256 L128 320 L128 384 L192 384 L256 384 L256 448 L256 512 L320 512 L384 512 L384 576 L384 640 L320 640 L256 640 L256 704 L256 768 L192 768 L128 768 L128 832 L128 896 L64 896 L0 896 L0 960 Z " />
<glyph glyph-name="Tau" unicode="&#x3a4;" horiz-adv-x="1024" d="M128 960 L128 1024 L512 1024 L896 1024 L896 960 L896 896 L768 896 L640 896 L640 512 L640 128 L512 128 L384 128 L384 512 L384 896 L256 896 L128 896 L128 960 Z " />
<glyph glyph-name="Upsilon" unicode="&#x3a5;" horiz-adv-x="1024" d="M128 832 L128 1024 L256 1024 L384 1024 L384 832 L384 640 L512 640 L640 640 L640 832 L640 1024 L768 1024 L896 1024 L896 832 L896 640 L832 640 L768 640 L768 576 L768 512 L704 512 L640 512 L640 320 L640 128 L512 128 L384 128 L384 320 L384 512 L320 512 L256 512 L256 576 L256 640 L192 640 L128 640 L128 832 Z " />
<glyph glyph-name="Phi" unicode="&#x3a6;" horiz-adv-x="1024" d="M384 960 L384 1024 L448 1024 L512 1024 L512 960 L512 896 L640 896 L768 896 L768 832 L768 768 L832 768 L896 768 L896 576 L896 384 L832 384 L768 384 L768 320 L768 256 L640 256 L512 256 L512 192 L512 128 L448 128 L384 128 L384 192 L384 256 L256 256 L128 256 L128 320 L128 384 L64 384 L0 384 L0 576 L0 768 L64 768 L128 768 L128 832 L128 896 L256 896 L384 896 L384 960 Z M384 576 L384 768 L320 768 L256 768 L256 576 L256 384 L320 384 L384 384 L384 576 Z M640 576 L640 768 L576 768 L512 768 L512 576 L512 384 L576 384 L640 384 L640 576 Z " />
<glyph glyph-name="Chi" unicode="&#x3a7;" horiz-adv-x="1024" d="M0 896 L0 1024 L128 1024 L256 1024 L256 960 L256 896 L320 896 L384 896 L384 832 L384 768 L448 768 L512 768 L512 832 L512 896 L576 896 L640 896 L640 960 L640 1024 L768 1024 L896 1024 L896 896 L896 768 L832 768 L768 768 L768 704 L768 640 L704 640 L640 640 L640 576 L640 512 L704 512 L768 512 L768 448 L768 384 L832 384 L896 384 L896 256 L896 128 L768 128 L640 128 L640 192 L640 256 L576 256 L512 256 L512 320 L512 384 L448 384 L384 384 L384 320 L384 256 L320 256 L256 256 L256 192 L256 128 L128 128 L0 128 L0 256 L0 384 L64 384 L128 384 L128 448 L128 512 L192 512 L256 512 L256 576 L256 640 L192 640 L128 640 L128 704 L128 768 L64 768 L0 768 L0 896 Z " />
<glyph glyph-name="Psi" unicode="&#x3a8;" horiz-adv-x="1024" d="M0 832 L0 1024 L128 1024 L256 1024 L256 832 L256 640 L320 640 L384 640 L384 832 L384 1024 L512 1024 L640 1024 L640 832 L640 640 L704 640 L768 640 L768 832 L768 1024 L896 1024 L1024 1024 L1024 832 L1024 640 L960 640 L896 640 L896 576 L896 512 L768 512 L640 512 L640 384 L640 256 L704 256 L768 256 L768 192 L768 128 L512 128 L256 128 L256 192 L256 256 L320 256 L384 256 L384 384 L384 512 L256 512 L128 512 L128 576 L128 640 L64 640 L0 640 L0 832 Z " />
<glyph glyph-name="Omega" unicode="&#x3a9;" horiz-adv-x="1024" d="M256 960 L256 1024 L448 1024 L640 1024 L640 960 L640 896 L704 896 L768 896 L768 832 L768 768 L832 768 L896 768 L896 576 L896 384 L832 384 L768 384 L768 320 L768 256 L832 256 L896 256 L896 192 L896 128 L704 128 L512 128 L512 256 L512 384 L576 384 L640 384 L640 576 L640 768 L576 768 L512 768 L512 832 L512 896 L448 896 L384 896 L384 832 L384 768 L320 768 L256 768 L256 576 L256 384 L320 384 L384 384 L384 256 L384 128 L192 128 L0 128 L0 192 L0 256 L64 256 L128 256 L128 320 L128 384 L64 384 L0 384 L0 576 L0 768 L64 768 L128 768 L128 832 L128 896 L192 896 L256 896 L256 960 Z " />
<glyph glyph-name="Iotadieresis" unicode="&#x3aa;" horiz-adv-x="1024" d="M128 704 L128 768 L512 768 L896 768 L896 704 L896 640 L768 640 L640 640 L640 448 L640 256 L768 256 L896 256 L896 192 L896 128 L512 128 L128 128 L128 192 L128 256 L256 256 L384 256 L384 448 L384 640 L256 640 L128 640 L128 704 Z M640 960 L640 1024 L768 1024 L896 1024 L896 960 L896 896 L768 896 L640 896 L640 960 Z M128 960 L128 1024 L256 1024 L384 1024 L384 960 L384 896 L256 896 L128 896 L128 960 Z " />
<glyph glyph-name="Upsilondieresis" unicode="&#x3ab;" horiz-adv-x="1024" d="M128 640 L128 768 L256 768 L384 768 L384 640 L384 512 L512 512 L640 512 L640 640 L640 768 L768 768 L896 768 L896 640 L896 512 L832 512 L768 512 L768 448 L768 384 L704 384 L640 384 L640 256 L640 128 L512 128 L384 128 L384 256 L384 384 L320 384 L256 384 L256 448 L256 512 L192 512 L128 512 L128 640 Z M640 960 L640 1024 L768 1024 L896 1024 L896 960 L896 896 L768 896 L640 896 L640 960 Z M128 960 L128 1024 L256 1024 L384 1024 L384 960 L384 896 L256 896 L128 896 L128 960 Z " />
<glyph glyph-name="alphatonos" unicode="&#x3ac;" horiz-adv-x="1024" d="M512 960 L512 1024 L576 1024 L640 1024 L640 960 L640 896 L576 896 L512 896 L512 832 L512 768 L704 768 L896 768 L896 448 L896 128 L512 128 L128 128 L128 192 L128 256 L64 256 L0 256 L0 448 L0 640 L64 640 L128 640 L128 704 L128 768 L256 768 L384 768 L384 832 L384 896 L448 896 L512 896 L512 960 Z M640 448 L640 640 L448 640 L256 640 L256 448 L256 256 L448 256 L640 256 L640 448 Z " />
<glyph glyph-name="epsilontonos" unicode="&#x3ad;" horiz-adv-x="1024" d="M512 960 L512 1024 L576 1024 L640 1024 L640 960 L640 896 L576 896 L512 896 L512 832 L512 768 L704 768 L896 768 L896 704 L896 640 L576 640 L256 640 L256 576 L256 512 L512 512 L768 512 L768 448 L768 384 L512 384 L256 384 L256 320 L256 256 L576 256 L896 256 L896 192 L896 128 L512 128 L128 128 L128 192 L128 256 L64 256 L0 256 L0 320 L0 384 L64 384 L128 384 L128 448 L128 512 L64 512 L0 512 L0 576 L0 640 L64 640 L128 640 L128 704 L128 768 L256 768 L384 768 L384 832 L384 896 L448 896 L512 896 L512 960 Z " />
<glyph glyph-name="etatonos" unicode="&#x3ae;" horiz-adv-x="1024" d="M512 960 L512 1024 L576 1024 L640 1024 L640 960 L640 896 L576 896 L512 896 L512 832 L512 768 L640 768 L768 768 L768 704 L768 640 L832 640 L896 640 L896 320 L896 0 L768 0 L640 0 L640 320 L640 640 L512 640 L384 640 L384 384 L384 128 L256 128 L128 128 L128 384 L128 640 L64 640 L0 640 L0 704 L0 768 L128 768 L256 768 L256 704 L256 640 L320 640 L384 640 L384 768 L384 896 L448 896 L512 896 L512 960 Z " />
<glyph glyph-name="iotatonos" unicode="&#x3af;" horiz-adv-x="1024" d="M384 960 L384 1024 L448 1024 L512 1024 L512 960 L512 896 L448 896 L384 896 L384 832 L384 768 L448 768 L512 768 L512 512 L512 256 L640 256 L768 256 L768 192 L768 128 L576 128 L384 128 L384 192 L384 256 L320 256 L256 256 L256 448 L256 640 L192 640 L128 640 L128 704 L128 768 L192 768 L256 768 L256 832 L256 896 L320 896 L384 896 L384 960 Z " />
<glyph glyph-name="upsilondieresistonos" unicode="&#x3b0;" horiz-adv-x="1024" d="M640 960 L640 1024 L704 1024 L768 1024 L768 960 L768 896 L704 896 L640 896 L640 960 Z M384 960 L384 1024 L448 1024 L512 1024 L512 960 L512 896 L448 896 L384 896 L384 832 L384 768 L320 768 L256 768 L256 704 L256 640 L320 640 L384 640 L384 448 L384 256 L512 256 L640 256 L640 448 L640 640 L576 640 L512 640 L512 704 L512 768 L640 768 L768 768 L768 704 L768 640 L832 640 L896 640 L896 448 L896 256 L832 256 L768 256 L768 192 L768 128 L512 128 L256 128 L256 192 L256 256 L192 256 L128 256 L128 448 L128 640 L64 640 L0 640 L0 704 L0 768 L128 768 L256 768 L256 832 L256 896 L320 896 L384 896 L384 960 Z M0 960 L0 1024 L64 1024 L128 1024 L128 960 L128 896 L64 896 L0 896 L0 960 Z " />
<glyph glyph-name="alpha" unicode="&#x3b1;" horiz-adv-x="1024" d="M128 704 L128 768 L512 768 L896 768 L896 448 L896 128 L512 128 L128 128 L128 192 L128 256 L64 256 L0 256 L0 448 L0 640 L64 640 L128 640 L128 704 Z M640 448 L640 640 L448 640 L256 640 L256 448 L256 256 L448 256 L640 256 L640 448 Z " />
<glyph glyph-name="beta" unicode="&#x3b2;" horiz-adv-x="1024" d="M128 960 L128 1024 L448 1024 L768 1024 L768 960 L768 896 L832 896 L896 896 L896 768 L896 640 L832 640 L768 640 L768 576 L768 512 L832 512 L896 512 L896 384 L896 256 L832 256 L768 256 L768 192 L768 128 L512 128 L256 128 L256 64 L256 0 L128 0 L0 0 L0 448 L0 896 L64 896 L128 896 L128 960 Z M640 768 L640 896 L448 896 L256 896 L256 768 L256 640 L448 640 L640 640 L640 768 Z M640 384 L640 512 L448 512 L256 512 L256 384 L256 256 L448 256 L640 256 L640 384 Z " />
<glyph glyph-name="gamma" unicode="&#x3b3;" horiz-adv-x="1024" d="M0 704 L0 768 L128 768 L256 768 L256 704 L256 640 L320 640 L384 640 L384 512 L384 384 L512 384 L640 384 L640 576 L640 768 L768 768 L896 768 L896 576 L896 384 L832 384 L768 384 L768 320 L768 256 L704 256 L640 256 L640 128 L640 0 L512 0 L384 0 L384 128 L384 256 L320 256 L256 256 L256 320 L256 384 L192 384 L128 384 L128 512 L128 640 L64 640 L0 640 L0 704 Z " />
<glyph glyph-name="delta" unicode="&#x3b4;" horiz-adv-x="1024" d="M512 960 L512 1024 L704 1024 L896 1024 L896 960 L896 896 L768 896 L640 896 L640 832 L640 768 L704 768 L768 768 L768 704 L768 640 L832 640 L896 640 L896 448 L896 256 L832 256 L768 256 L768 192 L768 128 L448 128 L128 128 L128 192 L128 256 L64 256 L0 256 L0 384 L0 512 L64 512 L128 512 L128 576 L128 640 L320 640 L512 640 L512 704 L512 768 L448 768 L384 768 L384 832 L384 896 L448 896 L512 896 L512 960 Z M640 384 L640 512 L448 512 L256 512 L256 384 L256 256 L448 256 L640 256 L640 384 Z " />
<glyph glyph-name="epsilon" unicode="&#x3b5;" horiz-adv-x="1024" d="M128 704 L128 768 L512 768 L896 768 L896 704 L896 640 L576 640 L256 640 L256 576 L256 512 L512 512 L768 512 L768 448 L768 384 L512 384 L256 384 L256 320 L256 256 L576 256 L896 256 L896 192 L896 128 L512 128 L128 128 L128 192 L128 256 L64 256 L0 256 L0 320 L0 384 L64 384 L128 384 L128 448 L128 512 L64 512 L0 512 L0 576 L0 640 L64 640 L128 640 L128 704 Z " />
<glyph glyph-name="zeta" unicode="&#x3b6;" horiz-adv-x="1024" d="M128 960 L128 1024 L448 1024 L768 1024 L768 960 L768 896 L640 896 L512 896 L512 832 L512 768 L448 768 L384 768 L384 704 L384 640 L320 640 L256 640 L256 512 L256 384 L512 384 L768 384 L768 320 L768 256 L832 256 L896 256 L896 192 L896 128 L832 128 L768 128 L768 64 L768 0 L640 0 L512 0 L512 64 L512 128 L576 128 L640 128 L640 192 L640 256 L384 256 L128 256 L128 320 L128 384 L64 384 L0 384 L0 512 L0 640 L64 640 L128 640 L128 704 L128 768 L192 768 L256 768 L256 832 L256 896 L192 896 L128 896 L128 960 Z " />
<glyph glyph-name="eta" unicode="&#x3b7;" horiz-adv-x="1024" d="M0 704 L0 768 L128 768 L256 768 L256 704 L256 640 L320 640 L384 640 L384 704 L384 768 L576 768 L768 768 L768 704 L768 640 L832 640 L896 640 L896 320 L896 0 L768 0 L640 0 L640 320 L640 640 L512 640 L384 640 L384 384 L384 128 L256 128 L128 128 L128 384 L128 640 L64 640 L0 640 L0 704 Z " />
<glyph glyph-name="theta" unicode="&#x3b8;" horiz-adv-x="1024" d="M256 960 L256 1024 L448 1024 L640 1024 L640 960 L640 896 L704 896 L768 896 L768 832 L768 768 L832 768 L896 768 L896 576 L896 384 L832 384 L768 384 L768 320 L768 256 L704 256 L640 256 L640 192 L640 128 L448 128 L256 128 L256 192 L256 256 L192 256 L128 256 L128 320 L128 384 L64 384 L0 384 L0 576 L0 768 L64 768 L128 768 L128 832 L128 896 L192 896 L256 896 L256 960 Z M512 832 L512 896 L448 896 L384 896 L384 832 L384 768 L320 768 L256 768 L256 704 L256 640 L448 640 L640 640 L640 704 L640 768 L576 768 L512 768 L512 832 Z M640 448 L640 512 L448 512 L256 512 L256 448 L256 384 L320 384 L384 384 L384 320 L384 256 L448 256 L512 256 L512 320 L512 384 L576 384 L640 384 L640 448 Z " />
<glyph glyph-name="iota" unicode="&#x3b9;" horiz-adv-x="1024" d="M128 704 L128 768 L320 768 L512 768 L512 512 L512 256 L640 256 L768 256 L768 192 L768 128 L576 128 L384 128 L384 192 L384 256 L320 256 L256 256 L256 448 L256 640 L192 640 L128 640 L128 704 Z " />
<glyph glyph-name="kappa" unicode="&#x3ba;" horiz-adv-x="1024" d="M0 448 L0 768 L128 768 L256 768 L256 640 L256 512 L384 512 L512 512 L512 576 L512 640 L576 640 L640 640 L640 704 L640 768 L768 768 L896 768 L896 704 L896 640 L832 640 L768 640 L768 576 L768 512 L704 512 L640 512 L640 448 L640 384 L704 384 L768 384 L768 320 L768 256 L832 256 L896 256 L896 192 L896 128 L768 128 L640 128 L640 192 L640 256 L576 256 L512 256 L512 320 L512 384 L384 384 L256 384 L256 256 L256 128 L128 128 L0 128 L0 448 Z " />
<glyph glyph-name="lambda" unicode="&#x3bb;" horiz-adv-x="1024" d="M0 960 L0 1024 L128 1024 L256 1024 L256 960 L256 896 L320 896 L384 896 L384 832 L384 768 L448 768 L512 768 L512 704 L512 640 L576 640 L640 640 L640 576 L640 512 L704 512 L768 512 L768 448 L768 384 L832 384 L896 384 L896 256 L896 128 L768 128 L640 128 L640 256 L640 384 L576 384 L512 384 L512 448 L512 512 L448 512 L384 512 L384 448 L384 384 L320 384 L256 384 L256 256 L256 128 L128 128 L0 128 L0 256 L0 384 L64 384 L128 384 L128 448 L128 512 L192 512 L256 512 L256 640 L256 768 L192 768 L128 768 L128 832 L128 896 L64 896 L0 896 L0 960 Z " />
<glyph glyph-name="mu" unicode="&#x3bc;" horiz-adv-x="1024" d="M0 384 L0 768 L128 768 L256 768 L256 512 L256 256 L384 256 L512 256 L512 512 L512 768 L640 768 L768 768 L768 512 L768 256 L832 256 L896 256 L896 192 L896 128 L768 128 L640 128 L640 192 L640 256 L576 256 L512 256 L512 192 L512 128 L384 128 L256 128 L256 64 L256 0 L128 0 L0 0 L0 384 Z " />
<glyph glyph-name="nu" unicode="&#x3bd;" horiz-adv-x="1024" d="M0 704 L0 768 L128 768 L256 768 L256 704 L256 640 L320 640 L384 640 L384 512 L384 384 L512 384 L640 384 L640 576 L640 768 L768 768 L896 768 L896 576 L896 384 L832 384 L768 384 L768 320 L768 256 L704 256 L640 256 L640 192 L640 128 L512 128 L384 128 L384 192 L384 256 L320 256 L256 256 L256 320 L256 384 L192 384 L128 384 L128 512 L128 640 L64 640 L0 640 L0 704 Z " />
<glyph glyph-name="xi" unicode="&#x3be;" horiz-adv-x="1024" d="M0 960 L0 1024 L384 1024 L768 1024 L768 960 L768 896 L576 896 L384 896 L384 832 L384 768 L512 768 L640 768 L640 704 L640 640 L512 640 L384 640 L384 576 L384 512 L320 512 L256 512 L256 448 L256 384 L448 384 L640 384 L640 320 L640 256 L704 256 L768 256 L768 192 L768 128 L704 128 L640 128 L640 64 L640 0 L512 0 L384 0 L384 64 L384 128 L448 128 L512 128 L512 192 L512 256 L320 256 L128 256 L128 320 L128 384 L64 384 L0 384 L0 448 L0 512 L64 512 L128 512 L128 576 L128 640 L192 640 L256 640 L256 704 L256 768 L192 768 L128 768 L128 832 L128 896 L64 896 L0 896 L0 960 Z " />
<glyph glyph-name="omicron" unicode="&#x3bf;" horiz-adv-x="1024" d="M128 704 L128 768 L448 768 L768 768 L768 704 L768 640 L832 640 L896 640 L896 448 L896 256 L832 256 L768 256 L768 192 L768 128 L448 128 L128 128 L128 192 L128 256 L64 256 L0 256 L0 448 L0 640 L64 640 L128 640 L128 704 Z M640 448 L640 640 L448 640 L256 640 L256 448 L256 256 L448 256 L640 256 L640 448 Z " />
<glyph glyph-name="pi" unicode="&#x3c0;" horiz-adv-x="1024" d="M0 704 L0 768 L448 768 L896 768 L896 704 L896 640 L832 640 L768 640 L768 448 L768 256 L832 256 L896 256 L896 192 L896 128 L768 128 L640 128 L640 192 L640 256 L576 256 L512 256 L512 448 L512 640 L448 640 L384 640 L384 384 L384 128 L192 128 L0 128 L0 192 L0 256 L64 256 L128 256 L128 448 L128 640 L64 640 L0 640 L0 704 Z " />
<glyph glyph-name="rho" unicode="&#x3c1;" horiz-adv-x="1024" d="M128 704 L128 768 L448 768 L768 768 L768 704 L768 640 L832 640 L896 640 L896 512 L896 384 L832 384 L768 384 L768 320 L768 256 L512 256 L256 256 L256 128 L256 0 L128 0 L0 0 L0 320 L0 640 L64 640 L128 640 L128 704 Z M640 512 L640 640 L448 640 L256 640 L256 512 L256 384 L448 384 L640 384 L640 512 Z " />
<glyph glyph-name="sigma1" unicode="&#x3c2;" horiz-adv-x="1024" d="M128 704 L128 768 L448 768 L768 768 L768 704 L768 640 L512 640 L256 640 L256 512 L256 384 L512 384 L768 384 L768 320 L768 256 L832 256 L896 256 L896 192 L896 128 L832 128 L768 128 L768 64 L768 0 L448 0 L128 0 L128 64 L128 128 L384 128 L640 128 L640 192 L640 256 L384 256 L128 256 L128 320 L128 384 L64 384 L0 384 L0 512 L0 640 L64 640 L128 640 L128 704 Z " />
<glyph glyph-name="sigma" unicode="&#x3c3;" horiz-adv-x="1024" d="M128 704 L128 768 L512 768 L896 768 L896 704 L896 640 L768 640 L640 640 L640 576 L640 512 L704 512 L768 512 L768 384 L768 256 L704 256 L640 256 L640 192 L640 128 L384 128 L128 128 L128 192 L128 256 L64 256 L0 256 L0 448 L0 640 L64 640 L128 640 L128 704 Z M384 576 L384 640 L320 640 L256 640 L256 448 L256 256 L384 256 L512 256 L512 384 L512 512 L448 512 L384 512 L384 576 Z " />
<glyph glyph-name="tau" unicode="&#x3c4;" horiz-adv-x="1024" d="M128 704 L128 768 L512 768 L896 768 L896 704 L896 640 L768 640 L640 640 L640 448 L640 256 L768 256 L896 256 L896 192 L896 128 L704 128 L512 128 L512 192 L512 256 L448 256 L384 256 L384 448 L384 640 L256 640 L128 640 L128 704 Z " />
<glyph glyph-name="upsilon" unicode="&#x3c5;" horiz-adv-x="1024" d="M0 704 L0 768 L128 768 L256 768 L256 704 L256 640 L320 640 L384 640 L384 448 L384 256 L512 256 L640 256 L640 448 L640 640 L576 640 L512 640 L512 704 L512 768 L640 768 L768 768 L768 704 L768 640 L832 640 L896 640 L896 448 L896 256 L832 256 L768 256 L768 192 L768 128 L512 128 L256 128 L256 192 L256 256 L192 256 L128 256 L128 448 L128 640 L64 640 L0 640 L0 704 Z " />
<glyph glyph-name="phi" unicode="&#x3c6;" horiz-adv-x="1024" d="M128 704 L128 768 L192 768 L256 768 L256 512 L256 256 L320 256 L384 256 L384 448 L384 640 L448 640 L512 640 L512 704 L512 768 L640 768 L768 768 L768 704 L768 640 L832 640 L896 640 L896 448 L896 256 L832 256 L768 256 L768 192 L768 128 L640 128 L512 128 L512 64 L512 0 L448 0 L384 0 L384 64 L384 128 L256 128 L128 128 L128 192 L128 256 L64 256 L0 256 L0 448 L0 640 L64 640 L128 640 L128 704 Z M640 448 L640 640 L576 640 L512 640 L512 448 L512 256 L576 256 L640 256 L640 448 Z " />
<glyph glyph-name="chi" unicode="&#x3c7;" horiz-adv-x="1024" d="M0 704 L0 768 L128 768 L256 768 L256 704 L256 640 L320 640 L384 640 L384 576 L384 512 L448 512 L512 512 L512 576 L512 640 L576 640 L640 640 L640 704 L640 768 L768 768 L896 768 L896 704 L896 640 L832 640 L768 640 L768 576 L768 512 L704 512 L640 512 L640 448 L640 384 L704 384 L768 384 L768 320 L768 256 L832 256 L896 256 L896 128 L896 0 L768 0 L640 0 L640 128 L640 256 L576 256 L512 256 L512 320 L512 384 L448 384 L384 384 L384 320 L384 256 L320 256 L256 256 L256 128 L256 0 L128 0 L0 0 L0 128 L0 256 L64 256 L128 256 L128 320 L128 384 L192 384 L256 384 L256 448 L256 512 L192 512 L128 512 L128 576 L128 640 L64 640 L0 640 L0 704 Z " />
<glyph glyph-name="psi" unicode="&#x3c8;" horiz-adv-x="1024" d="M384 576 L384 896 L512 896 L640 896 L640 576 L640 256 L704 256 L768 256 L768 512 L768 768 L896 768 L1024 768 L1024 512 L1024 256 L960 256 L896 256 L896 192 L896 128 L768 128 L640 128 L640 64 L640 0 L512 0 L384 0 L384 64 L384 128 L256 128 L128 128 L128 192 L128 256 L64 256 L0 256 L0 512 L0 768 L128 768 L256 768 L256 512 L256 256 L320 256 L384 256 L384 576 Z " />
<glyph glyph-name="omega" unicode="&#x3c9;" horiz-adv-x="1024" d="M128 704 L128 768 L192 768 L256 768 L256 512 L256 256 L320 256 L384 256 L384 448 L384 640 L448 640 L512 640 L512 448 L512 256 L576 256 L640 256 L640 512 L640 768 L704 768 L768 768 L768 704 L768 640 L832 640 L896 640 L896 448 L896 256 L832 256 L768 256 L768 192 L768 128 L640 128 L512 128 L512 192 L512 256 L448 256 L384 256 L384 192 L384 128 L256 128 L128 128 L128 192 L128 256 L64 256 L0 256 L0 448 L0 640 L64 640 L128 640 L128 704 Z " />
<glyph glyph-name="iotadieresis" unicode="&#x3ca;" horiz-adv-x="1024" d="M128 704 L128 768 L320 768 L512 768 L512 512 L512 256 L640 256 L768 256 L768 192 L768 128 L576 128 L384 128 L384 192 L384 256 L320 256 L256 256 L256 448 L256 640 L192 640 L128 640 L128 704 Z M384 960 L384 1024 L512 1024 L640 1024 L640 960 L640 896 L512 896 L384 896 L384 960 Z M0 960 L0 1024 L128 1024 L256 1024 L256 960 L256 896 L128 896 L0 896 L0 960 Z " />
<glyph glyph-name="upsilondieresis" unicode="&#x3cb;" horiz-adv-x="1024" d="M0 704 L0 768 L128 768 L256 768 L256 704 L256 640 L320 640 L384 640 L384 448 L384 256 L512 256 L640 256 L640 448 L640 640 L576 640 L512 640 L512 704 L512 768 L640 768 L768 768 L768 704 L768 640 L832 640 L896 640 L896 448 L896 256 L832 256 L768 256 L768 192 L768 128 L512 128 L256 128 L256 192 L256 256 L192 256 L128 256 L128 448 L128 640 L64 640 L0 640 L0 704 Z M512 960 L512 1024 L640 1024 L768 1024 L768 960 L768 896 L640 896 L512 896 L512 960 Z M128 960 L128 1024 L256 1024 L384 1024 L384 960 L384 896 L256 896 L128 896 L128 960 Z " />
<glyph glyph-name="omicrontonos" unicode="&#x3cc;" horiz-adv-x="1024" d="M512 960 L512 1024 L576 1024 L640 1024 L640 960 L640 896 L576 896 L512 896 L512 832 L512 768 L640 768 L768 768 L768 704 L768 640 L832 640 L896 640 L896 448 L896 256 L832 256 L768 256 L768 192 L768 128 L448 128 L128 128 L128 192 L128 256 L64 256 L0 256 L0 448 L0 640 L64 640 L128 640 L128 704 L128 768 L256 768 L384 768 L384 832 L384 896 L448 896 L512 896 L512 960 Z M640 448 L640 640 L448 640 L256 640 L256 448 L256 256 L448 256 L640 256 L640 448 Z " />
<glyph glyph-name="upsilontonos" unicode="&#x3cd;" horiz-adv-x="1024" d="M512 960 L512 1024 L576 1024 L640 1024 L640 960 L640 896 L576 896 L512 896 L512 832 L512 768 L640 768 L768 768 L768 704 L768 640 L832 640 L896 640 L896 448 L896 256 L832 256 L768 256 L768 192 L768 128 L512 128 L256 128 L256 192 L256 256 L192 256 L128 256 L128 448 L128 640 L64 640 L0 640 L0 704 L0 768 L128 768 L256 768 L256 704 L256 640 L320 640 L384 640 L384 448 L384 256 L512 256 L640 256 L640 448 L640 640 L576 640 L512 640 L512 704 L512 768 L448 768 L384 768 L384 832 L384 896 L448 896 L512 896 L512 960 Z " />
<glyph glyph-name="omegatonos" unicode="&#x3ce;" horiz-adv-x="1024" d="M128 704 L128 768 L192 768 L256 768 L256 512 L256 256 L320 256 L384 256 L384 448 L384 640 L448 640 L512 640 L512 448 L512 256 L576 256 L640 256 L640 512 L640 768 L704 768 L768 768 L768 704 L768 640 L832 640 L896 640 L896 448 L896 256 L832 256 L768 256 L768 192 L768 128 L640 128 L512 128 L512 192 L512 256 L448 256 L384 256 L384 192 L384 128 L256 128 L128 128 L128 192 L128 256 L64 256 L0 256 L0 448 L0 640 L64 640 L128 640 L128 704 Z M512 960 L512 1024 L576 1024 L640 1024 L640 960 L640 896 L576 896 L512 896 L512 832 L512 768 L448 768 L384 768 L384 832 L384 896 L448 896 L512 896 L512 960 Z " />
<glyph glyph-name="uni0400" unicode="&#x400;" horiz-adv-x="1024" d="M256 960 L256 1024 L320 1024 L384 1024 L384 960 L384 896 L448 896 L512 896 L512 832 L512 768 L704 768 L896 768 L896 704 L896 640 L576 640 L256 640 L256 576 L256 512 L512 512 L768 512 L768 448 L768 384 L512 384 L256 384 L256 320 L256 256 L576 256 L896 256 L896 192 L896 128 L448 128 L0 128 L0 448 L0 768 L192 768 L384 768 L384 832 L384 896 L320 896 L256 896 L256 960 Z " />
<glyph glyph-name="afii10023" unicode="&#x401;" horiz-adv-x="1024" d="M0 448 L0 768 L448 768 L896 768 L896 704 L896 640 L576 640 L256 640 L256 576 L256 512 L512 512 L768 512 L768 448 L768 384 L512 384 L256 384 L256 320 L256 256 L576 256 L896 256 L896 192 L896 128 L448 128 L0 128 L0 448 Z M512 960 L512 1024 L640 1024 L768 1024 L768 960 L768 896 L640 896 L512 896 L512 960 Z M128 960 L128 1024 L256 1024 L384 1024 L384 960 L384 896 L256 896 L128 896 L128 960 Z " />
<glyph glyph-name="afii10051" unicode="&#x402;" horiz-adv-x="1024" d="M0 960 L0 1024 L320 1024 L640 1024 L640 960 L640 896 L512 896 L384 896 L384 832 L384 768 L576 768 L768 768 L768 704 L768 640 L832 640 L896 640 L896 384 L896 128 L832 128 L768 128 L768 64 L768 0 L640 0 L512 0 L512 64 L512 128 L576 128 L640 128 L640 384 L640 640 L512 640 L384 640 L384 384 L384 128 L256 128 L128 128 L128 512 L128 896 L64 896 L0 896 L0 960 Z " />
<glyph glyph-name="afii10052" unicode="&#x403;" horiz-adv-x="1024" d="M512 960 L512 1024 L576 1024 L640 1024 L640 960 L640 896 L576 896 L512 896 L512 832 L512 768 L704 768 L896 768 L896 704 L896 640 L640 640 L384 640 L384 384 L384 128 L256 128 L128 128 L128 448 L128 768 L256 768 L384 768 L384 832 L384 896 L448 896 L512 896 L512 960 Z " />
<glyph glyph-name="afii10053" unicode="&#x404;" horiz-adv-x="1024" d="M256 960 L256 1024 L512 1024 L768 1024 L768 960 L768 896 L832 896 L896 896 L896 832 L896 768 L768 768 L640 768 L640 832 L640 896 L512 896 L384 896 L384 832 L384 768 L320 768 L256 768 L256 704 L256 640 L512 640 L768 640 L768 576 L768 512 L512 512 L256 512 L256 448 L256 384 L320 384 L384 384 L384 320 L384 256 L512 256 L640 256 L640 320 L640 384 L768 384 L896 384 L896 320 L896 256 L832 256 L768 256 L768 192 L768 128 L512 128 L256 128 L256 192 L256 256 L192 256 L128 256 L128 320 L128 384 L64 384 L0 384 L0 576 L0 768 L64 768 L128 768 L128 832 L128 896 L192 896 L256 896 L256 960 Z " />
<glyph glyph-name="afii10054" unicode="&#x405;" horiz-adv-x="1024" d="M128 960 L128 1024 L384 1024 L640 1024 L640 960 L640 896 L704 896 L768 896 L768 832 L768 768 L640 768 L512 768 L512 832 L512 896 L384 896 L256 896 L256 768 L256 640 L512 640 L768 640 L768 576 L768 512 L832 512 L896 512 L896 384 L896 256 L832 256 L768 256 L768 192 L768 128 L448 128 L128 128 L128 192 L128 256 L64 256 L0 256 L0 320 L0 384 L128 384 L256 384 L256 320 L256 256 L448 256 L640 256 L640 384 L640 512 L384 512 L128 512 L128 576 L128 640 L64 640 L0 640 L0 768 L0 896 L64 896 L128 896 L128 960 Z " />
<glyph glyph-name="afii10055" unicode="&#x406;" horiz-adv-x="1024" d="M128 960 L128 1024 L512 1024 L896 1024 L896 960 L896 896 L768 896 L640 896 L640 576 L640 256 L768 256 L896 256 L896 192 L896 128 L512 128 L128 128 L128 192 L128 256 L256 256 L384 256 L384 576 L384 896 L256 896 L128 896 L128 960 Z " />
<glyph glyph-name="afii10056" unicode="&#x407;" horiz-adv-x="1024" d="M128 704 L128 768 L512 768 L896 768 L896 704 L896 640 L768 640 L640 640 L640 448 L640 256 L768 256 L896 256 L896 192 L896 128 L512 128 L128 128 L128 192 L128 256 L256 256 L384 256 L384 448 L384 640 L256 640 L128 640 L128 704 Z M640 960 L640 1024 L768 1024 L896 1024 L896 960 L896 896 L768 896 L640 896 L640 960 Z M128 960 L128 1024 L256 1024 L384 1024 L384 960 L384 896 L256 896 L128 896 L128 960 Z " />
<glyph glyph-name="afii10057" unicode="&#x408;" horiz-adv-x="1024" d="M640 640 L640 1024 L768 1024 L896 1024 L896 640 L896 256 L832 256 L768 256 L768 192 L768 128 L448 128 L128 128 L128 192 L128 256 L64 256 L0 256 L0 320 L0 384 L128 384 L256 384 L256 320 L256 256 L448 256 L640 256 L640 640 Z " />
<glyph glyph-name="afii10058" unicode="&#x409;" horiz-adv-x="1024" d="M256 960 L256 1024 L384 1024 L512 1024 L512 896 L512 768 L640 768 L768 768 L768 704 L768 640 L832 640 L896 640 L896 448 L896 256 L832 256 L768 256 L768 192 L768 128 L576 128 L384 128 L384 448 L384 768 L320 768 L256 768 L256 448 L256 128 L128 128 L0 128 L0 448 L0 768 L64 768 L128 768 L128 832 L128 896 L192 896 L256 896 L256 960 Z M640 448 L640 640 L576 640 L512 640 L512 448 L512 256 L576 256 L640 256 L640 448 Z " />
<glyph glyph-name="afii10059" unicode="&#x40a;" horiz-adv-x="1024" d="M0 576 L0 1024 L128 1024 L256 1024 L256 832 L256 640 L320 640 L384 640 L384 832 L384 1024 L448 1024 L512 1024 L512 896 L512 768 L640 768 L768 768 L768 704 L768 640 L832 640 L896 640 L896 448 L896 256 L832 256 L768 256 L768 192 L768 128 L576 128 L384 128 L384 320 L384 512 L320 512 L256 512 L256 320 L256 128 L128 128 L0 128 L0 576 Z M640 448 L640 640 L576 640 L512 640 L512 448 L512 256 L576 256 L640 256 L640 448 Z " />
<glyph glyph-name="afii10060" unicode="&#x40b;" horiz-adv-x="1024" d="M0 960 L0 1024 L320 1024 L640 1024 L640 960 L640 896 L512 896 L384 896 L384 832 L384 768 L576 768 L768 768 L768 704 L768 640 L832 640 L896 640 L896 384 L896 128 L768 128 L640 128 L640 384 L640 640 L512 640 L384 640 L384 384 L384 128 L256 128 L128 128 L128 512 L128 896 L64 896 L0 896 L0 960 Z " />
<glyph glyph-name="afii10061" unicode="&#x40c;" horiz-adv-x="1024" d="M0 448 L0 768 L128 768 L256 768 L256 640 L256 512 L384 512 L512 512 L512 576 L512 640 L576 640 L640 640 L640 704 L640 768 L768 768 L896 768 L896 704 L896 640 L832 640 L768 640 L768 576 L768 512 L704 512 L640 512 L640 448 L640 384 L704 384 L768 384 L768 320 L768 256 L832 256 L896 256 L896 192 L896 128 L768 128 L640 128 L640 192 L640 256 L576 256 L512 256 L512 320 L512 384 L384 384 L256 384 L256 256 L256 128 L128 128 L0 128 L0 448 Z M512 960 L512 1024 L576 1024 L640 1024 L640 960 L640 896 L576 896 L512 896 L512 832 L512 768 L448 768 L384 768 L384 832 L384 896 L448 896 L512 896 L512 960 Z " />
<glyph glyph-name="uni040D" unicode="&#x40d;" horiz-adv-x="1024" d="M256 960 L256 1024 L320 1024 L384 1024 L384 960 L384 896 L448 896 L512 896 L512 832 L512 768 L704 768 L896 768 L896 448 L896 128 L768 128 L640 128 L640 256 L640 384 L576 384 L512 384 L512 320 L512 256 L448 256 L384 256 L384 192 L384 128 L192 128 L0 128 L0 448 L0 768 L128 768 L256 768 L256 640 L256 512 L320 512 L384 512 L384 576 L384 640 L448 640 L512 640 L512 704 L512 768 L448 768 L384 768 L384 832 L384 896 L320 896 L256 896 L256 960 Z " />
<glyph glyph-name="afii10062" unicode="&#x40e;" horiz-adv-x="1024" d="M128 960 L128 1024 L192 1024 L256 1024 L256 960 L256 896 L448 896 L640 896 L640 960 L640 1024 L704 1024 L768 1024 L768 960 L768 896 L704 896 L640 896 L640 832 L640 768 L768 768 L896 768 L896 512 L896 256 L832 256 L768 256 L768 192 L768 128 L384 128 L0 128 L0 192 L0 256 L320 256 L640 256 L640 320 L640 384 L384 384 L128 384 L128 448 L128 512 L64 512 L0 512 L0 640 L0 768 L128 768 L256 768 L256 832 L256 896 L192 896 L128 896 L128 960 Z M640 640 L640 768 L448 768 L256 768 L256 640 L256 512 L448 512 L640 512 L640 640 Z " />
<glyph glyph-name="afii10145" unicode="&#x40f;" horiz-adv-x="1024" d="M0 576 L0 1024 L128 1024 L256 1024 L256 640 L256 256 L448 256 L640 256 L640 640 L640 1024 L768 1024 L896 1024 L896 576 L896 128 L704 128 L512 128 L512 64 L512 0 L448 0 L384 0 L384 64 L384 128 L192 128 L0 128 L0 576 Z " />
</font>
</svg>
