<?xml version="1.0" encoding="UTF-8"?>
<svg xmlns="http://www.w3.org/2000/svg" xmlns:xlink="http://www.w3.org/1999/xlink" version="1.2" >
<font id="Minecraftia 2.0">
<font-face  font-family="Minecraftia" units-per-em="1536" ascent="2304" descent="768" font-style="normal" font-weight="400" font-stretch="normal" cap-height="2304" x-height="1920" underline-position="152" underline-thickness="76" />
<missing-glyph  horiz-adv-x="384" d="" />
<glyph glyph-name="space" unicode="&#x20;" horiz-adv-x="384" d="" />
<glyph glyph-name="exclam" unicode="&#x21;" horiz-adv-x="384" d="M0 960 L0 1152 L192 1152 L192 960 L0 960 Z M0 1344 L0 2304 L192 2304 L192 1344 L0 1344 Z " />
<glyph glyph-name="quotedbl" unicode="&#x22;" horiz-adv-x="768" d="M0 1920 L0 2304 L192 2304 L192 1920 L0 1920 Z M384 1920 L384 2304 L576 2304 L576 1920 L384 1920 Z " />
<glyph glyph-name="numbersign" unicode="&#x23;" horiz-adv-x="1152" d="M576 1536 L576 1728 L384 1728 L384 1536 L576 1536 Z M192 960 L192 1344 L0 1344 L0 1536 L192 1536 L192 1728 L0 1728 L0 1920 L192 1920 L192 2304 L384 2304 L384 1920 L576 1920 L576 2304 L768 2304 L768 1920 L960 1920 L960 1728 L768 1728 L768 1536 L960 1536 L960 1344 L768 1344 L768 960 L576 960 L576 1344 L384 1344 L384 960 L192 960 Z " />
<glyph glyph-name="dollar" unicode="&#x24;" horiz-adv-x="1152" d="M384 960 L384 1152 L0 1152 L0 1344 L768 1344 L768 1152 L576 1152 L576 960 L384 960 Z M768 1344 L768 1536 L960 1536 L960 1344 L768 1344 Z M192 1536 L192 1728 L768 1728 L768 1536 L192 1536 Z M0 1728 L0 1920 L192 1920 L192 1728 L0 1728 Z M192 1920 L192 2112 L384 2112 L384 2304 L576 2304 L576 2112 L960 2112 L960 1920 L192 1920 Z " />
<glyph glyph-name="percent" unicode="&#x25;" horiz-adv-x="1152" d="M0 960 L0 1152 L192 1152 L192 960 L0 960 Z M768 960 L768 1344 L960 1344 L960 960 L768 960 Z M192 1152 L192 1536 L384 1536 L384 1152 L192 1152 Z M384 1536 L384 1728 L576 1728 L576 1536 L384 1536 Z M576 1728 L576 2112 L768 2112 L768 1728 L576 1728 Z M0 1920 L0 2304 L192 2304 L192 1920 L0 1920 Z M768 2112 L768 2304 L960 2304 L960 2112 L768 2112 Z " />
<glyph glyph-name="ampersand" unicode="&#x26;" horiz-adv-x="1152" d="M192 960 L192 1152 L576 1152 L576 960 L192 960 Z M768 960 L768 1152 L960 1152 L960 960 L768 960 Z M0 1152 L0 1536 L192 1536 L192 1152 L0 1152 Z M768 1536 L768 1728 L960 1728 L960 1536 L768 1536 Z M576 1152 L576 1344 L384 1344 L384 1536 L192 1536 L192 1728 L384 1728 L384 1920 L576 1920 L576 1536 L768 1536 L768 1152 L576 1152 Z M192 1920 L192 2112 L384 2112 L384 1920 L192 1920 Z M576 1920 L576 2112 L768 2112 L768 1920 L576 1920 Z M384 2112 L384 2304 L576 2304 L576 2112 L384 2112 Z " />
<glyph glyph-name="quotesingle" unicode="&#x27;" horiz-adv-x="384" d="M0 1920 L0 2304 L192 2304 L192 1920 L0 1920 Z " />
<glyph glyph-name="parenleft" unicode="&#x28;" horiz-adv-x="960" d="M384 960 L384 1152 L768 1152 L768 960 L384 960 Z M192 1152 L192 1344 L384 1344 L384 1152 L192 1152 Z M0 1344 L0 1920 L192 1920 L192 1344 L0 1344 Z M192 1920 L192 2112 L384 2112 L384 1920 L192 1920 Z M384 2112 L384 2304 L768 2304 L768 2112 L384 2112 Z " />
<glyph glyph-name="parenright" unicode="&#x29;" horiz-adv-x="960" d="M0 960 L0 1152 L384 1152 L384 960 L0 960 Z M384 1152 L384 1344 L576 1344 L576 1152 L384 1152 Z M576 1344 L576 1920 L768 1920 L768 1344 L576 1344 Z M384 1920 L384 2112 L576 2112 L576 1920 L384 1920 Z M0 2112 L0 2304 L384 2304 L384 2112 L0 2112 Z " />
<glyph glyph-name="asterisk" unicode="&#x2a;" horiz-adv-x="960" d="M0 1728 L0 1920 L192 1920 L192 1728 L0 1728 Z M576 1728 L576 1920 L768 1920 L768 1728 L576 1728 Z M192 1920 L192 2112 L576 2112 L576 1920 L192 1920 Z M0 2112 L0 2304 L192 2304 L192 2112 L0 2112 Z M576 2112 L576 2304 L768 2304 L768 2112 L576 2112 Z " />
<glyph glyph-name="plus" unicode="&#x2b;" horiz-adv-x="1152" d="M384 960 L384 1344 L0 1344 L0 1536 L384 1536 L384 1920 L576 1920 L576 1536 L960 1536 L960 1344 L576 1344 L576 960 L384 960 Z " />
<glyph glyph-name="comma" unicode="&#x2c;" horiz-adv-x="384" d="M0 768 L0 1344 L192 1344 L192 768 L0 768 Z " />
<glyph glyph-name="hyphen" unicode="&#x2d;" horiz-adv-x="1152" d="M0 1344 L0 1536 L960 1536 L960 1344 L0 1344 Z " />
<glyph glyph-name="period" unicode="&#x2e;" horiz-adv-x="384" d="M0 960 L0 1344 L192 1344 L192 960 L0 960 Z " />
<glyph glyph-name="slash" unicode="&#x2f;" horiz-adv-x="1152" d="M0 960 L0 1152 L192 1152 L192 960 L0 960 Z M192 1152 L192 1536 L384 1536 L384 1152 L192 1152 Z M384 1536 L384 1728 L576 1728 L576 1536 L384 1536 Z M576 1728 L576 2112 L768 2112 L768 1728 L576 1728 Z M768 2112 L768 2304 L960 2304 L960 2112 L768 2112 Z " />
<glyph glyph-name="zero" unicode="0" horiz-adv-x="1152" d="M192 960 L192 1152 L768 1152 L768 960 L192 960 Z M384 1536 L384 1728 L576 1728 L576 1536 L384 1536 Z M0 1152 L0 2112 L192 2112 L192 1536 L384 1536 L384 1344 L192 1344 L192 1152 L0 1152 Z M768 1152 L768 1728 L576 1728 L576 1920 L768 1920 L768 2112 L960 2112 L960 1152 L768 1152 Z M192 2112 L192 2304 L768 2304 L768 2112 L192 2112 Z " />
<glyph glyph-name="one" unicode="1" horiz-adv-x="1152" d="M0 960 L0 1152 L384 1152 L384 1920 L192 1920 L192 2112 L384 2112 L384 2304 L576 2304 L576 1152 L960 1152 L960 960 L0 960 Z " />
<glyph glyph-name="two" unicode="2" horiz-adv-x="1152" d="M0 960 L0 1344 L192 1344 L192 1152 L960 1152 L960 960 L0 960 Z M192 1344 L192 1536 L384 1536 L384 1344 L192 1344 Z M384 1536 L384 1728 L768 1728 L768 1536 L384 1536 Z M0 1920 L0 2112 L192 2112 L192 1920 L0 1920 Z M768 1728 L768 2112 L960 2112 L960 1728 L768 1728 Z M192 2112 L192 2304 L768 2304 L768 2112 L192 2112 Z " />
<glyph glyph-name="three" unicode="3" horiz-adv-x="1152" d="M192 960 L192 1152 L768 1152 L768 960 L192 960 Z M0 1152 L0 1344 L192 1344 L192 1152 L0 1152 Z M768 1152 L768 1536 L960 1536 L960 1152 L768 1152 Z M384 1536 L384 1728 L768 1728 L768 1536 L384 1536 Z M0 1920 L0 2112 L192 2112 L192 1920 L0 1920 Z M768 1728 L768 2112 L960 2112 L960 1728 L768 1728 Z M192 2112 L192 2304 L768 2304 L768 2112 L192 2112 Z " />
<glyph glyph-name="four" unicode="4" horiz-adv-x="1152" d="M192 1728 L192 1920 L384 1920 L384 1728 L192 1728 Z M384 1920 L384 2112 L576 2112 L576 1920 L384 1920 Z M768 960 L768 1344 L0 1344 L0 1728 L192 1728 L192 1536 L768 1536 L768 2112 L576 2112 L576 2304 L960 2304 L960 960 L768 960 Z " />
<glyph glyph-name="five" unicode="5" horiz-adv-x="1152" d="M192 960 L192 1152 L768 1152 L768 960 L192 960 Z M0 1152 L0 1344 L192 1344 L192 1152 L0 1152 Z M768 1152 L768 1728 L960 1728 L960 1152 L768 1152 Z M0 1728 L0 2304 L960 2304 L960 2112 L192 2112 L192 1920 L768 1920 L768 1728 L0 1728 Z " />
<glyph glyph-name="six" unicode="6" horiz-adv-x="1152" d="M192 960 L192 1152 L768 1152 L768 960 L192 960 Z M768 1152 L768 1536 L960 1536 L960 1152 L768 1152 Z M0 1152 L0 1920 L192 1920 L192 1728 L768 1728 L768 1536 L192 1536 L192 1152 L0 1152 Z M192 1920 L192 2112 L384 2112 L384 1920 L192 1920 Z M384 2112 L384 2304 L768 2304 L768 2112 L384 2112 Z " />
<glyph glyph-name="seven" unicode="7" horiz-adv-x="1152" d="M384 960 L384 1536 L576 1536 L576 960 L384 960 Z M576 1536 L576 1728 L768 1728 L768 1536 L576 1536 Z M768 1728 L768 2112 L192 2112 L192 1920 L0 1920 L0 2304 L960 2304 L960 1728 L768 1728 Z " />
<glyph glyph-name="eight" unicode="8" horiz-adv-x="1152" d="M192 960 L192 1152 L768 1152 L768 960 L192 960 Z M0 1152 L0 1536 L192 1536 L192 1152 L0 1152 Z M768 1152 L768 1536 L960 1536 L960 1152 L768 1152 Z M192 1536 L192 1728 L768 1728 L768 1536 L192 1536 Z M0 1728 L0 2112 L192 2112 L192 1728 L0 1728 Z M768 1728 L768 2112 L960 2112 L960 1728 L768 1728 Z M192 2112 L192 2304 L768 2304 L768 2112 L192 2112 Z " />
<glyph glyph-name="nine" unicode="9" horiz-adv-x="1152" d="M192 960 L192 1152 L576 1152 L576 960 L192 960 Z M576 1152 L576 1344 L768 1344 L768 1152 L576 1152 Z M0 1728 L0 2112 L192 2112 L192 1728 L0 1728 Z M768 1344 L768 1536 L192 1536 L192 1728 L768 1728 L768 2112 L960 2112 L960 1344 L768 1344 Z M192 2112 L192 2304 L768 2304 L768 2112 L192 2112 Z " />
<glyph glyph-name="colon" unicode="&#x3a;" horiz-adv-x="384" d="M0 960 L0 1344 L192 1344 L192 960 L0 960 Z M0 1728 L0 2112 L192 2112 L192 1728 L0 1728 Z " />
<glyph glyph-name="semicolon" unicode="&#x3b;" horiz-adv-x="384" d="M0 768 L0 1344 L192 1344 L192 768 L0 768 Z M0 1728 L0 2112 L192 2112 L192 1728 L0 1728 Z " />
<glyph glyph-name="less" unicode="&#x3c;" horiz-adv-x="960" d="M576 960 L576 1152 L768 1152 L768 960 L576 960 Z M384 1152 L384 1344 L576 1344 L576 1152 L384 1152 Z M192 1344 L192 1536 L384 1536 L384 1344 L192 1344 Z M0 1536 L0 1728 L192 1728 L192 1536 L0 1536 Z M192 1728 L192 1920 L384 1920 L384 1728 L192 1728 Z M384 1920 L384 2112 L576 2112 L576 1920 L384 1920 Z M576 2112 L576 2304 L768 2304 L768 2112 L576 2112 Z " />
<glyph glyph-name="equal" unicode="&#x3d;" horiz-adv-x="1152" d="M0 1152 L0 1344 L960 1344 L960 1152 L0 1152 Z M0 1728 L0 1920 L960 1920 L960 1728 L0 1728 Z " />
<glyph glyph-name="greater" unicode="&#x3e;" horiz-adv-x="960" d="M0 960 L0 1152 L192 1152 L192 960 L0 960 Z M192 1152 L192 1344 L384 1344 L384 1152 L192 1152 Z M384 1344 L384 1536 L576 1536 L576 1344 L384 1344 Z M576 1536 L576 1728 L768 1728 L768 1536 L576 1536 Z M384 1728 L384 1920 L576 1920 L576 1728 L384 1728 Z M192 1920 L192 2112 L384 2112 L384 1920 L192 1920 Z M0 2112 L0 2304 L192 2304 L192 2112 L0 2112 Z " />
<glyph glyph-name="question" unicode="&#x3f;" horiz-adv-x="1152" d="M384 960 L384 1152 L576 1152 L576 960 L384 960 Z M384 1344 L384 1536 L576 1536 L576 1344 L384 1344 Z M576 1536 L576 1728 L768 1728 L768 1536 L576 1536 Z M0 1920 L0 2112 L192 2112 L192 1920 L0 1920 Z M768 1728 L768 2112 L960 2112 L960 1728 L768 1728 Z M192 2112 L192 2304 L768 2304 L768 2112 L192 2112 Z " />
<glyph glyph-name="at" unicode="&#x40;" horiz-adv-x="1344" d="M192 960 L192 1152 L1152 1152 L1152 960 L192 960 Z M0 1152 L0 2112 L192 2112 L192 1152 L0 1152 Z M384 1344 L384 1920 L768 1920 L768 1536 L960 1536 L960 2112 L1152 2112 L1152 1344 L384 1344 Z M192 2112 L192 2304 L960 2304 L960 2112 L192 2112 Z " />
<glyph glyph-name="A" unicode="A" horiz-adv-x="1152" d="M0 960 L0 2112 L192 2112 L192 1920 L768 1920 L768 2112 L960 2112 L960 960 L768 960 L768 1728 L192 1728 L192 960 L0 960 Z M192 2112 L192 2304 L768 2304 L768 2112 L192 2112 Z " />
<glyph glyph-name="B" unicode="B" horiz-adv-x="1152" d="M768 1152 L768 1728 L960 1728 L960 1152 L768 1152 Z M768 1920 L768 2112 L960 2112 L960 1920 L768 1920 Z M0 960 L0 2304 L768 2304 L768 2112 L192 2112 L192 1920 L768 1920 L768 1728 L192 1728 L192 1152 L768 1152 L768 960 L0 960 Z " />
<glyph glyph-name="C" unicode="C" horiz-adv-x="1152" d="M192 960 L192 1152 L768 1152 L768 960 L192 960 Z M768 1152 L768 1344 L960 1344 L960 1152 L768 1152 Z M0 1152 L0 2112 L192 2112 L192 1152 L0 1152 Z M768 1920 L768 2112 L960 2112 L960 1920 L768 1920 Z M192 2112 L192 2304 L768 2304 L768 2112 L192 2112 Z " />
<glyph glyph-name="D" unicode="D" horiz-adv-x="1152" d="M768 1152 L768 2112 L960 2112 L960 1152 L768 1152 Z M0 960 L0 2304 L768 2304 L768 2112 L192 2112 L192 1152 L768 1152 L768 960 L0 960 Z " />
<glyph glyph-name="E" unicode="E" horiz-adv-x="1152" d="M0 960 L0 2304 L960 2304 L960 2112 L192 2112 L192 1920 L576 1920 L576 1728 L192 1728 L192 1152 L960 1152 L960 960 L0 960 Z " />
<glyph glyph-name="F" unicode="F" horiz-adv-x="1152" d="M0 960 L0 2304 L960 2304 L960 2112 L192 2112 L192 1920 L576 1920 L576 1728 L192 1728 L192 960 L0 960 Z " />
<glyph glyph-name="G" unicode="G" horiz-adv-x="1152" d="M192 960 L192 1152 L768 1152 L768 960 L192 960 Z M768 1152 L768 1728 L384 1728 L384 1920 L960 1920 L960 1152 L768 1152 Z M0 1152 L0 2112 L192 2112 L192 1152 L0 1152 Z M192 2112 L192 2304 L960 2304 L960 2112 L192 2112 Z " />
<glyph glyph-name="H" unicode="H" horiz-adv-x="1152" d="M0 960 L0 2304 L192 2304 L192 1920 L768 1920 L768 2304 L960 2304 L960 960 L768 960 L768 1728 L192 1728 L192 960 L0 960 Z " />
<glyph glyph-name="I" unicode="I" horiz-adv-x="768" d="M0 960 L0 1152 L192 1152 L192 2112 L0 2112 L0 2304 L576 2304 L576 2112 L384 2112 L384 1152 L576 1152 L576 960 L0 960 Z " />
<glyph glyph-name="J" unicode="J" horiz-adv-x="1152" d="M192 960 L192 1152 L768 1152 L768 960 L192 960 Z M0 1152 L0 1344 L192 1344 L192 1152 L0 1152 Z M768 1152 L768 2304 L960 2304 L960 1152 L768 1152 Z " />
<glyph glyph-name="K" unicode="K" horiz-adv-x="1152" d="M768 960 L768 1536 L960 1536 L960 960 L768 960 Z M576 1536 L576 1728 L768 1728 L768 1536 L576 1536 Z M576 1920 L576 2112 L768 2112 L768 1920 L576 1920 Z M0 960 L0 2304 L192 2304 L192 1920 L576 1920 L576 1728 L192 1728 L192 960 L0 960 Z M768 2112 L768 2304 L960 2304 L960 2112 L768 2112 Z " />
<glyph glyph-name="L" unicode="L" horiz-adv-x="1152" d="M0 960 L0 2304 L192 2304 L192 1152 L960 1152 L960 960 L0 960 Z " />
<glyph glyph-name="M" unicode="M" horiz-adv-x="1152" d="M384 1728 L384 1920 L576 1920 L576 1728 L384 1728 Z M0 960 L0 2304 L192 2304 L192 2112 L384 2112 L384 1920 L192 1920 L192 960 L0 960 Z M768 960 L768 1920 L576 1920 L576 2112 L768 2112 L768 2304 L960 2304 L960 960 L768 960 Z " />
<glyph glyph-name="N" unicode="N" horiz-adv-x="1152" d="M384 1728 L384 1920 L576 1920 L576 1728 L384 1728 Z M0 960 L0 2304 L192 2304 L192 2112 L384 2112 L384 1920 L192 1920 L192 960 L0 960 Z M768 960 L768 1536 L576 1536 L576 1728 L768 1728 L768 2304 L960 2304 L960 960 L768 960 Z " />
<glyph glyph-name="O" unicode="O" horiz-adv-x="1152" d="M192 960 L192 1152 L768 1152 L768 960 L192 960 Z M0 1152 L0 2112 L192 2112 L192 1152 L0 1152 Z M768 1152 L768 2112 L960 2112 L960 1152 L768 1152 Z M192 2112 L192 2304 L768 2304 L768 2112 L192 2112 Z " />
<glyph glyph-name="P" unicode="P" horiz-adv-x="1152" d="M768 1920 L768 2112 L960 2112 L960 1920 L768 1920 Z M0 960 L0 2304 L768 2304 L768 2112 L192 2112 L192 1920 L768 1920 L768 1728 L192 1728 L192 960 L0 960 Z " />
<glyph glyph-name="Q" unicode="Q" horiz-adv-x="1152" d="M192 960 L192 1152 L576 1152 L576 960 L192 960 Z M768 960 L768 1152 L960 1152 L960 960 L768 960 Z M576 1152 L576 1344 L768 1344 L768 1152 L576 1152 Z M0 1152 L0 2112 L192 2112 L192 1152 L0 1152 Z M768 1344 L768 2112 L960 2112 L960 1344 L768 1344 Z M192 2112 L192 2304 L768 2304 L768 2112 L192 2112 Z " />
<glyph glyph-name="R" unicode="R" horiz-adv-x="1152" d="M768 960 L768 1728 L960 1728 L960 960 L768 960 Z M768 1920 L768 2112 L960 2112 L960 1920 L768 1920 Z M0 960 L0 2304 L768 2304 L768 2112 L192 2112 L192 1920 L768 1920 L768 1728 L192 1728 L192 960 L0 960 Z " />
<glyph glyph-name="S" unicode="S" horiz-adv-x="1152" d="M192 960 L192 1152 L768 1152 L768 960 L192 960 Z M0 1152 L0 1344 L192 1344 L192 1152 L0 1152 Z M768 1152 L768 1728 L960 1728 L960 1152 L768 1152 Z M192 1728 L192 1920 L768 1920 L768 1728 L192 1728 Z M0 1920 L0 2112 L192 2112 L192 1920 L0 1920 Z M192 2112 L192 2304 L960 2304 L960 2112 L192 2112 Z " />
<glyph glyph-name="T" unicode="T" horiz-adv-x="1152" d="M384 960 L384 2112 L0 2112 L0 2304 L960 2304 L960 2112 L576 2112 L576 960 L384 960 Z " />
<glyph glyph-name="U" unicode="U" horiz-adv-x="1152" d="M192 960 L192 1152 L768 1152 L768 960 L192 960 Z M0 1152 L0 2304 L192 2304 L192 1152 L0 1152 Z M768 1152 L768 2304 L960 2304 L960 1152 L768 1152 Z " />
<glyph glyph-name="V" unicode="V" horiz-adv-x="1152" d="M384 960 L384 1152 L576 1152 L576 960 L384 960 Z M192 1152 L192 1536 L384 1536 L384 1152 L192 1152 Z M576 1152 L576 1536 L768 1536 L768 1152 L576 1152 Z M0 1536 L0 2304 L192 2304 L192 1536 L0 1536 Z M768 1536 L768 2304 L960 2304 L960 1536 L768 1536 Z " />
<glyph glyph-name="W" unicode="W" horiz-adv-x="1152" d="M384 1344 L384 1536 L576 1536 L576 1344 L384 1344 Z M0 960 L0 2304 L192 2304 L192 1344 L384 1344 L384 1152 L192 1152 L192 960 L0 960 Z M768 960 L768 1152 L576 1152 L576 1344 L768 1344 L768 2304 L960 2304 L960 960 L768 960 Z " />
<glyph glyph-name="X" unicode="X" horiz-adv-x="1152" d="M0 960 L0 1536 L192 1536 L192 960 L0 960 Z M768 960 L768 1536 L960 1536 L960 960 L768 960 Z M192 1536 L192 1728 L384 1728 L384 1536 L192 1536 Z M576 1536 L576 1728 L768 1728 L768 1536 L576 1536 Z M384 1728 L384 1920 L576 1920 L576 1728 L384 1728 Z M192 1920 L192 2112 L384 2112 L384 1920 L192 1920 Z M576 1920 L576 2112 L768 2112 L768 1920 L576 1920 Z M0 2112 L0 2304 L192 2304 L192 2112 L0 2112 Z M768 2112 L768 2304 L960 2304 L960 2112 L768 2112 Z " />
<glyph glyph-name="Y" unicode="Y" horiz-adv-x="1152" d="M384 960 L384 1920 L576 1920 L576 960 L384 960 Z M192 1920 L192 2112 L384 2112 L384 1920 L192 1920 Z M576 1920 L576 2112 L768 2112 L768 1920 L576 1920 Z M0 2112 L0 2304 L192 2304 L192 2112 L0 2112 Z M768 2112 L768 2304 L960 2304 L960 2112 L768 2112 Z " />
<glyph glyph-name="Z" unicode="Z" horiz-adv-x="1152" d="M0 960 L0 1344 L192 1344 L192 1152 L960 1152 L960 960 L0 960 Z M192 1344 L192 1536 L384 1536 L384 1344 L192 1344 Z M384 1536 L384 1728 L576 1728 L576 1536 L384 1536 Z M576 1728 L576 1920 L768 1920 L768 1728 L576 1728 Z M768 1920 L768 2112 L0 2112 L0 2304 L960 2304 L960 1920 L768 1920 Z " />
<glyph glyph-name="bracketleft" unicode="&#x5b;" horiz-adv-x="768" d="M0 960 L0 2304 L576 2304 L576 2112 L192 2112 L192 1152 L576 1152 L576 960 L0 960 Z " />
<glyph glyph-name="backslash" unicode="&#x5c;" horiz-adv-x="1152" d="M768 960 L768 1152 L960 1152 L960 960 L768 960 Z M576 1152 L576 1536 L768 1536 L768 1152 L576 1152 Z M384 1536 L384 1728 L576 1728 L576 1536 L384 1536 Z M192 1728 L192 2112 L384 2112 L384 1728 L192 1728 Z M0 2112 L0 2304 L192 2304 L192 2112 L0 2112 Z " />
<glyph glyph-name="bracketright" unicode="&#x5d;" horiz-adv-x="768" d="M0 960 L0 1152 L384 1152 L384 2112 L0 2112 L0 2304 L576 2304 L576 960 L0 960 Z " />
<glyph glyph-name="asciicircum" unicode="&#x5e;" horiz-adv-x="1152" d="M0 1728 L0 1920 L192 1920 L192 1728 L0 1728 Z M768 1728 L768 1920 L960 1920 L960 1728 L768 1728 Z M192 1920 L192 2112 L384 2112 L384 1920 L192 1920 Z M576 1920 L576 2112 L768 2112 L768 1920 L576 1920 Z M384 2112 L384 2304 L576 2304 L576 2112 L384 2112 Z " />
<glyph glyph-name="underscore" unicode="&#x5f;" horiz-adv-x="1152" d="M0 768 L0 960 L960 960 L960 768 L0 768 Z " />
<glyph glyph-name="grave" unicode="&#x60;" horiz-adv-x="576" d="M192 2112 L192 2304 L384 2304 L384 2112 L192 2112 Z M0 2304 L0 2496 L192 2496 L192 2304 L0 2304 Z " />
<glyph glyph-name="a" unicode="a" horiz-adv-x="1152" d="M0 1152 L0 1344 L192 1344 L192 1152 L0 1152 Z M192 960 L192 1152 L768 1152 L768 1344 L192 1344 L192 1536 L768 1536 L768 1728 L960 1728 L960 960 L192 960 Z M192 1728 L192 1920 L768 1920 L768 1728 L192 1728 Z " />
<glyph glyph-name="b" unicode="b" horiz-adv-x="1152" d="M768 1152 L768 1728 L960 1728 L960 1152 L768 1152 Z M384 1728 L384 1920 L768 1920 L768 1728 L384 1728 Z M0 960 L0 2304 L192 2304 L192 1728 L384 1728 L384 1536 L192 1536 L192 1152 L768 1152 L768 960 L0 960 Z " />
<glyph glyph-name="c" unicode="c" horiz-adv-x="1152" d="M192 960 L192 1152 L768 1152 L768 960 L192 960 Z M768 1152 L768 1344 L960 1344 L960 1152 L768 1152 Z M0 1152 L0 1728 L192 1728 L192 1152 L0 1152 Z M768 1536 L768 1728 L960 1728 L960 1536 L768 1536 Z M192 1728 L192 1920 L768 1920 L768 1728 L192 1728 Z " />
<glyph glyph-name="d" unicode="d" horiz-adv-x="1152" d="M0 1152 L0 1728 L192 1728 L192 1152 L0 1152 Z M192 1728 L192 1920 L576 1920 L576 1728 L192 1728 Z M192 960 L192 1152 L768 1152 L768 1536 L576 1536 L576 1728 L768 1728 L768 2304 L960 2304 L960 960 L192 960 Z " />
<glyph glyph-name="e" unicode="e" horiz-adv-x="1152" d="M192 960 L192 1152 L960 1152 L960 960 L192 960 Z M0 1152 L0 1728 L192 1728 L192 1536 L768 1536 L768 1728 L960 1728 L960 1344 L192 1344 L192 1152 L0 1152 Z M192 1728 L192 1920 L768 1920 L768 1728 L192 1728 Z " />
<glyph glyph-name="f" unicode="f" horiz-adv-x="960" d="M192 960 L192 1728 L0 1728 L0 1920 L192 1920 L192 2112 L384 2112 L384 1920 L768 1920 L768 1728 L384 1728 L384 960 L192 960 Z M384 2112 L384 2304 L768 2304 L768 2112 L384 2112 Z " />
<glyph glyph-name="g" unicode="g" horiz-adv-x="1152" d="M0 768 L0 960 L768 960 L768 768 L0 768 Z M0 1344 L0 1728 L192 1728 L192 1344 L0 1344 Z M768 960 L768 1152 L192 1152 L192 1344 L768 1344 L768 1728 L192 1728 L192 1920 L960 1920 L960 960 L768 960 Z " />
<glyph glyph-name="h" unicode="h" horiz-adv-x="1152" d="M768 960 L768 1728 L960 1728 L960 960 L768 960 Z M384 1728 L384 1920 L768 1920 L768 1728 L384 1728 Z M0 960 L0 2304 L192 2304 L192 1728 L384 1728 L384 1536 L192 1536 L192 960 L0 960 Z " />
<glyph glyph-name="i" unicode="i" horiz-adv-x="384" d="M0 960 L0 1920 L192 1920 L192 960 L0 960 Z M0 2112 L0 2304 L192 2304 L192 2112 L0 2112 Z " />
<glyph glyph-name="j" unicode="j" horiz-adv-x="1152" d="M192 768 L192 960 L768 960 L768 768 L192 768 Z M0 960 L0 1344 L192 1344 L192 960 L0 960 Z M768 960 L768 1920 L960 1920 L960 960 L768 960 Z M768 2112 L768 2304 L960 2304 L960 2112 L768 2112 Z " />
<glyph glyph-name="k" unicode="k" horiz-adv-x="960" d="M576 960 L576 1152 L768 1152 L768 960 L576 960 Z M384 1152 L384 1344 L576 1344 L576 1152 L384 1152 Z M384 1536 L384 1728 L576 1728 L576 1536 L384 1536 Z M576 1728 L576 1920 L768 1920 L768 1728 L576 1728 Z M0 960 L0 2304 L192 2304 L192 1536 L384 1536 L384 1344 L192 1344 L192 960 L0 960 Z " />
<glyph glyph-name="l" unicode="l" horiz-adv-x="576" d="M192 960 L192 1152 L384 1152 L384 960 L192 960 Z M0 1152 L0 2304 L192 2304 L192 1152 L0 1152 Z " />
<glyph glyph-name="m" unicode="m" horiz-adv-x="1152" d="M384 1344 L384 1728 L576 1728 L576 1344 L384 1344 Z M768 960 L768 1728 L960 1728 L960 960 L768 960 Z M0 960 L0 1920 L384 1920 L384 1728 L192 1728 L192 960 L0 960 Z M576 1728 L576 1920 L768 1920 L768 1728 L576 1728 Z " />
<glyph glyph-name="n" unicode="n" horiz-adv-x="1152" d="M768 960 L768 1728 L960 1728 L960 960 L768 960 Z M0 960 L0 1920 L768 1920 L768 1728 L192 1728 L192 960 L0 960 Z " />
<glyph glyph-name="o" unicode="o" horiz-adv-x="1152" d="M192 960 L192 1152 L768 1152 L768 960 L192 960 Z M0 1152 L0 1728 L192 1728 L192 1152 L0 1152 Z M768 1152 L768 1728 L960 1728 L960 1152 L768 1152 Z M192 1728 L192 1920 L768 1920 L768 1728 L192 1728 Z " />
<glyph glyph-name="p" unicode="p" horiz-adv-x="1152" d="M768 1344 L768 1728 L960 1728 L960 1344 L768 1344 Z M0 768 L0 1920 L192 1920 L192 1728 L384 1728 L384 1536 L192 1536 L192 1344 L768 1344 L768 1152 L192 1152 L192 768 L0 768 Z M384 1728 L384 1920 L768 1920 L768 1728 L384 1728 Z " />
<glyph glyph-name="q" unicode="q" horiz-adv-x="1152" d="M0 1344 L0 1728 L192 1728 L192 1344 L0 1344 Z M192 1728 L192 1920 L576 1920 L576 1728 L192 1728 Z M768 768 L768 1152 L192 1152 L192 1344 L768 1344 L768 1536 L576 1536 L576 1728 L768 1728 L768 1920 L960 1920 L960 768 L768 768 Z " />
<glyph glyph-name="r" unicode="r" horiz-adv-x="1152" d="M768 1536 L768 1728 L960 1728 L960 1536 L768 1536 Z M0 960 L0 1920 L192 1920 L192 1728 L384 1728 L384 1536 L192 1536 L192 960 L0 960 Z M384 1728 L384 1920 L768 1920 L768 1728 L384 1728 Z " />
<glyph glyph-name="s" unicode="s" horiz-adv-x="1152" d="M0 960 L0 1152 L768 1152 L768 960 L0 960 Z M768 1152 L768 1344 L960 1344 L960 1152 L768 1152 Z M192 1344 L192 1536 L768 1536 L768 1344 L192 1344 Z M0 1536 L0 1728 L192 1728 L192 1536 L0 1536 Z M192 1728 L192 1920 L960 1920 L960 1728 L192 1728 Z " />
<glyph glyph-name="t" unicode="t" horiz-adv-x="768" d="M384 960 L384 1152 L576 1152 L576 960 L384 960 Z M192 1152 L192 1920 L0 1920 L0 2112 L192 2112 L192 2304 L384 2304 L384 2112 L576 2112 L576 1920 L384 1920 L384 1152 L192 1152 Z " />
<glyph glyph-name="u" unicode="u" horiz-adv-x="1152" d="M0 1152 L0 1920 L192 1920 L192 1152 L0 1152 Z M192 960 L192 1152 L768 1152 L768 1920 L960 1920 L960 960 L192 960 Z " />
<glyph glyph-name="v" unicode="v" horiz-adv-x="1152" d="M384 960 L384 1152 L576 1152 L576 960 L384 960 Z M192 1152 L192 1344 L384 1344 L384 1152 L192 1152 Z M576 1152 L576 1344 L768 1344 L768 1152 L576 1152 Z M0 1344 L0 1920 L192 1920 L192 1344 L0 1344 Z M768 1344 L768 1920 L960 1920 L960 1344 L768 1344 Z " />
<glyph glyph-name="w" unicode="w" horiz-adv-x="1152" d="M0 1152 L0 1920 L192 1920 L192 1152 L0 1152 Z M192 960 L192 1152 L384 1152 L384 1536 L576 1536 L576 1152 L768 1152 L768 1920 L960 1920 L960 960 L192 960 Z " />
<glyph glyph-name="x" unicode="x" horiz-adv-x="1152" d="M0 960 L0 1152 L192 1152 L192 960 L0 960 Z M768 960 L768 1152 L960 1152 L960 960 L768 960 Z M192 1152 L192 1344 L384 1344 L384 1152 L192 1152 Z M576 1152 L576 1344 L768 1344 L768 1152 L576 1152 Z M384 1344 L384 1536 L576 1536 L576 1344 L384 1344 Z M192 1536 L192 1728 L384 1728 L384 1536 L192 1536 Z M576 1536 L576 1728 L768 1728 L768 1536 L576 1536 Z M0 1728 L0 1920 L192 1920 L192 1728 L0 1728 Z M768 1728 L768 1920 L960 1920 L960 1728 L768 1728 Z " />
<glyph glyph-name="y" unicode="y" horiz-adv-x="1152" d="M0 768 L0 960 L768 960 L768 768 L0 768 Z M0 1344 L0 1920 L192 1920 L192 1344 L0 1344 Z M768 960 L768 1152 L192 1152 L192 1344 L768 1344 L768 1920 L960 1920 L960 960 L768 960 Z " />
<glyph glyph-name="z" unicode="z" horiz-adv-x="1152" d="M0 960 L0 1152 L192 1152 L192 1344 L384 1344 L384 1152 L960 1152 L960 960 L0 960 Z M384 1344 L384 1536 L576 1536 L576 1344 L384 1344 Z M576 1536 L576 1728 L0 1728 L0 1920 L960 1920 L960 1728 L768 1728 L768 1536 L576 1536 Z " />
<glyph glyph-name="braceleft" unicode="&#x7b;" horiz-adv-x="960" d="M384 960 L384 1152 L768 1152 L768 960 L384 960 Z M192 1152 L192 1536 L384 1536 L384 1152 L192 1152 Z M0 1536 L0 1728 L192 1728 L192 1536 L0 1536 Z M192 1728 L192 2112 L384 2112 L384 1728 L192 1728 Z M384 2112 L384 2304 L768 2304 L768 2112 L384 2112 Z " />
<glyph glyph-name="bar" unicode="&#x7c;" horiz-adv-x="384" d="M0 768 L0 2304 L192 2304 L192 768 L0 768 Z " />
<glyph glyph-name="braceright" unicode="&#x7d;" horiz-adv-x="960" d="M0 960 L0 1152 L384 1152 L384 960 L0 960 Z M384 1152 L384 1536 L576 1536 L576 1152 L384 1152 Z M576 1536 L576 1728 L768 1728 L768 1536 L576 1536 Z M384 1728 L384 2112 L576 2112 L576 1728 L384 1728 Z M0 2112 L0 2304 L384 2304 L384 2112 L0 2112 Z " />
<glyph glyph-name="asciitilde" unicode="&#x7e;" horiz-adv-x="1344" d="M0 1920 L0 2112 L192 2112 L192 1920 L0 1920 Z M576 1920 L576 2112 L960 2112 L960 1920 L576 1920 Z M192 2112 L192 2304 L576 2304 L576 2112 L192 2112 Z M960 2112 L960 2304 L1152 2304 L1152 2112 L960 2112 Z " />
<glyph glyph-name="exclamdown" unicode="&#xa1;" horiz-adv-x="384" d="M0 960 L0 1920 L192 1920 L192 960 L0 960 Z M0 2112 L0 2304 L192 2304 L192 2112 L0 2112 Z " />
<glyph glyph-name="cent" unicode="&#xa2;" horiz-adv-x="960" d="M384 960 L384 1152 L192 1152 L192 1344 L768 1344 L768 1152 L576 1152 L576 960 L384 960 Z M0 1344 L0 1536 L192 1536 L192 1344 L0 1344 Z M192 1536 L192 1728 L384 1728 L384 1920 L576 1920 L576 1728 L768 1728 L768 1536 L192 1536 Z " />
<glyph glyph-name="sterling" unicode="&#xa3;" horiz-adv-x="1152" d="M0 960 L0 1152 L192 1152 L192 1536 L0 1536 L0 1728 L192 1728 L192 2112 L384 2112 L384 1728 L768 1728 L768 1536 L384 1536 L384 1152 L960 1152 L960 960 L0 960 Z M384 2112 L384 2304 L960 2304 L960 2112 L384 2112 Z " />
<glyph glyph-name="currency" unicode="&#xa4;" horiz-adv-x="1152" d="M0 1152 L0 1344 L192 1344 L192 1152 L0 1152 Z M768 1152 L768 1344 L960 1344 L960 1152 L768 1152 Z M576 1536 L576 1728 L384 1728 L384 1536 L576 1536 Z M192 1344 L192 1920 L768 1920 L768 1344 L192 1344 Z M0 1920 L0 2112 L192 2112 L192 1920 L0 1920 Z M768 1920 L768 2112 L960 2112 L960 1920 L768 1920 Z " />
<glyph glyph-name="yen" unicode="&#xa5;" horiz-adv-x="1152" d="M384 960 L384 1152 L192 1152 L192 1344 L384 1344 L384 1536 L192 1536 L192 1728 L384 1728 L384 1920 L576 1920 L576 1728 L768 1728 L768 1536 L576 1536 L576 1344 L768 1344 L768 1152 L576 1152 L576 960 L384 960 Z M192 1920 L192 2112 L384 2112 L384 1920 L192 1920 Z M576 1920 L576 2112 L768 2112 L768 1920 L576 1920 Z M0 2112 L0 2304 L192 2304 L192 2112 L0 2112 Z M768 2112 L768 2304 L960 2304 L960 2112 L768 2112 Z " />
<glyph glyph-name="brokenbar" unicode="&#xa6;" horiz-adv-x="384" d="M0 960 L0 1536 L192 1536 L192 960 L0 960 Z M0 1728 L0 2304 L192 2304 L192 1728 L0 1728 Z " />
<glyph glyph-name="section" unicode="&#xa7;" horiz-adv-x="1152" d="M0 960 L0 1152 L768 1152 L768 960 L0 960 Z M768 1152 L768 1344 L960 1344 L960 1152 L768 1152 Z M192 1344 L192 1536 L768 1536 L768 1344 L192 1344 Z M0 1536 L0 1728 L192 1728 L192 1536 L0 1536 Z M768 1536 L768 1728 L960 1728 L960 1536 L768 1536 Z M192 1728 L192 1920 L768 1920 L768 1728 L192 1728 Z M0 1920 L0 2112 L192 2112 L192 1920 L0 1920 Z M192 2112 L192 2304 L960 2304 L960 2112 L192 2112 Z " />
<glyph glyph-name="dieresis" unicode="&#xa8;" horiz-adv-x="960" d="M192 2112 L192 2304 L384 2304 L384 2112 L192 2112 Z M576 2112 L576 2304 L768 2304 L768 2112 L576 2112 Z " />
<glyph glyph-name="copyright" unicode="&#xa9;" horiz-adv-x="1536" d="M192 960 L192 1152 L1152 1152 L1152 960 L192 960 Z M576 1344 L576 1536 L960 1536 L960 1344 L576 1344 Z M384 1536 L384 1728 L576 1728 L576 1536 L384 1536 Z M576 1728 L576 1920 L960 1920 L960 1728 L576 1728 Z M0 1152 L0 2112 L192 2112 L192 1152 L0 1152 Z M1152 1152 L1152 2112 L1344 2112 L1344 1152 L1152 1152 Z M192 2112 L192 2304 L1152 2304 L1152 2112 L192 2112 Z " />
<glyph glyph-name="ordfeminine" unicode="&#xaa;" horiz-adv-x="768" d="M0 1152 L0 1344 L576 1344 L576 1152 L0 1152 Z M0 1728 L0 1920 L192 1920 L192 1728 L0 1728 Z M192 1536 L192 1728 L384 1728 L384 1920 L192 1920 L192 2112 L0 2112 L0 2304 L384 2304 L384 2112 L576 2112 L576 1536 L192 1536 Z " />
<glyph glyph-name="guillemotleft" unicode="&#xab;" horiz-adv-x="960" d="M192 960 L192 1152 L384 1152 L384 960 L192 960 Z M576 960 L576 1152 L768 1152 L768 960 L576 960 Z M0 1152 L0 1536 L192 1536 L192 1152 L0 1152 Z M384 1152 L384 1536 L576 1536 L576 1152 L384 1152 Z M192 1536 L192 1728 L384 1728 L384 1536 L192 1536 Z M576 1536 L576 1728 L768 1728 L768 1536 L576 1536 Z " />
<glyph glyph-name="logicalnot" unicode="&#xac;" horiz-adv-x="960" d="M576 1344 L576 1728 L0 1728 L0 1920 L768 1920 L768 1344 L576 1344 Z " />
<glyph glyph-name="registered" unicode="&#xae;" horiz-adv-x="1536" d="M192 960 L192 1152 L1152 1152 L1152 960 L192 960 Z M768 1344 L768 1536 L960 1536 L960 1344 L768 1344 Z M384 1344 L384 1920 L960 1920 L960 1728 L768 1728 L768 1536 L576 1536 L576 1344 L384 1344 Z M0 1152 L0 2112 L192 2112 L192 1152 L0 1152 Z M1152 1152 L1152 2112 L1344 2112 L1344 1152 L1152 1152 Z M192 2112 L192 2304 L1152 2304 L1152 2112 L192 2112 Z " />
<glyph glyph-name="overscore" unicode="&#xaf;" horiz-adv-x="1152" d="M0 2112 L0 2304 L960 2304 L960 2112 L0 2112 Z " />
<glyph glyph-name="degree" unicode="&#xb0;" horiz-adv-x="768" d="M192 1728 L192 1920 L384 1920 L384 1728 L192 1728 Z M0 1920 L0 2112 L192 2112 L192 1920 L0 1920 Z M384 1920 L384 2112 L576 2112 L576 1920 L384 1920 Z M192 2112 L192 2304 L384 2304 L384 2112 L192 2112 Z " />
<glyph glyph-name="plusminus" unicode="&#xb1;" horiz-adv-x="1152" d="M0 960 L0 1152 L960 1152 L960 960 L0 960 Z M384 1344 L384 1728 L0 1728 L0 1920 L384 1920 L384 2304 L576 2304 L576 1920 L960 1920 L960 1728 L576 1728 L576 1344 L384 1344 Z " />
<glyph glyph-name="twosuperior" unicode="&#xb2;" horiz-adv-x="768" d="M0 1536 L0 1728 L192 1728 L192 1920 L384 1920 L384 1728 L576 1728 L576 1536 L0 1536 Z M384 1920 L384 2112 L576 2112 L576 1920 L384 1920 Z M0 2112 L0 2304 L384 2304 L384 2112 L0 2112 Z " />
<glyph glyph-name="threesuperior" unicode="&#xb3;" horiz-adv-x="768" d="M0 1536 L0 1728 L384 1728 L384 1536 L0 1536 Z M384 1728 L384 1920 L192 1920 L192 2112 L0 2112 L0 2304 L384 2304 L384 2112 L576 2112 L576 1728 L384 1728 Z " />
<glyph glyph-name="acute" unicode="&#xb4;" horiz-adv-x="576" d="M0 2112 L0 2304 L192 2304 L192 2112 L0 2112 Z M192 2304 L192 2496 L384 2496 L384 2304 L192 2304 Z " />
<glyph glyph-name="mu" unicode="&#xb5;" horiz-adv-x="1152" d="M0 768 L0 1920 L192 1920 L192 1152 L576 1152 L576 960 L192 960 L192 768 L0 768 Z M768 960 L768 1152 L576 1152 L576 1344 L768 1344 L768 1920 L960 1920 L960 960 L768 960 Z " />
<glyph glyph-name="paragraph" unicode="&#xb6;" horiz-adv-x="1152" d="M768 960 L768 2112 L576 2112 L576 1536 L192 1536 L192 1728 L0 1728 L0 2112 L192 2112 L192 2304 L960 2304 L960 960 L768 960 Z " />
<glyph glyph-name="middot" unicode="&#xb7;" horiz-adv-x="384" d="M0 1344 L0 1536 L192 1536 L192 1344 L0 1344 Z " />
<glyph glyph-name="cedilla" unicode="&#xb8;" horiz-adv-x="768" d="M192 576 L192 768 L384 768 L384 960 L576 960 L576 576 L192 576 Z " />
<glyph glyph-name="onesuperior" unicode="&#xb9;" horiz-adv-x="768" d="M0 1536 L0 1728 L192 1728 L192 1920 L0 1920 L0 2112 L192 2112 L192 2304 L384 2304 L384 1728 L576 1728 L576 1536 L0 1536 Z " />
<glyph glyph-name="ordmasculine" unicode="&#xba;" horiz-adv-x="768" d="M0 1152 L0 1344 L576 1344 L576 1152 L0 1152 Z M192 1536 L192 1728 L384 1728 L384 1536 L192 1536 Z M0 1728 L0 2112 L192 2112 L192 1728 L0 1728 Z M384 1728 L384 2112 L576 2112 L576 1728 L384 1728 Z M192 2112 L192 2304 L384 2304 L384 2112 L192 2112 Z " />
<glyph glyph-name="guillemotright" unicode="&#xbb;" horiz-adv-x="960" d="M0 960 L0 1152 L192 1152 L192 960 L0 960 Z M384 960 L384 1152 L576 1152 L576 960 L384 960 Z M192 1152 L192 1536 L384 1536 L384 1152 L192 1152 Z M576 1152 L576 1536 L768 1536 L768 1152 L576 1152 Z M0 1536 L0 1728 L192 1728 L192 1536 L0 1536 Z M384 1536 L384 1728 L576 1728 L576 1536 L384 1536 Z " />
<glyph glyph-name="onequarter" unicode="&#xbc;" horiz-adv-x="1728" d="M384 960 L384 1152 L576 1152 L576 960 L384 960 Z M576 1152 L576 1536 L768 1536 L768 1152 L576 1152 Z M768 1536 L768 1728 L960 1728 L960 1536 L768 1536 Z M1344 960 L1344 1152 L960 1152 L960 1536 L1152 1536 L1152 1344 L1344 1344 L1344 1536 L1152 1536 L1152 1728 L1536 1728 L1536 960 L1344 960 Z M960 1728 L960 2112 L1152 2112 L1152 1728 L960 1728 Z M0 1536 L0 1728 L192 1728 L192 1920 L0 1920 L0 2112 L192 2112 L192 2304 L384 2304 L384 1728 L576 1728 L576 1536 L0 1536 Z M1152 2112 L1152 2304 L1344 2304 L1344 2112 L1152 2112 Z " />
<glyph glyph-name="onehalf" unicode="&#xbd;" horiz-adv-x="1728" d="M384 960 L384 1152 L576 1152 L576 960 L384 960 Z M960 960 L960 1152 L1152 1152 L1152 1344 L1344 1344 L1344 1152 L1536 1152 L1536 960 L960 960 Z M576 1152 L576 1536 L768 1536 L768 1152 L576 1152 Z M1344 1344 L1344 1536 L1536 1536 L1536 1344 L1344 1344 Z M768 1536 L768 1728 L960 1728 L960 2112 L1152 2112 L1152 1728 L1344 1728 L1344 1536 L768 1536 Z M0 1536 L0 1728 L192 1728 L192 1920 L0 1920 L0 2112 L192 2112 L192 2304 L384 2304 L384 1728 L576 1728 L576 1536 L0 1536 Z M1152 2112 L1152 2304 L1344 2304 L1344 2112 L1152 2112 Z " />
<glyph glyph-name="threequarters" unicode="&#xbe;" horiz-adv-x="1728" d="M384 960 L384 1152 L576 1152 L576 960 L384 960 Z M576 1152 L576 1536 L768 1536 L768 1152 L576 1152 Z M0 1536 L0 1728 L384 1728 L384 1536 L0 1536 Z M768 1536 L768 1728 L960 1728 L960 1536 L768 1536 Z M1344 960 L1344 1152 L960 1152 L960 1536 L1152 1536 L1152 1344 L1344 1344 L1344 1536 L1152 1536 L1152 1728 L1536 1728 L1536 960 L1344 960 Z M960 1728 L960 2112 L1152 2112 L1152 1728 L960 1728 Z M384 1728 L384 1920 L192 1920 L192 2112 L0 2112 L0 2304 L384 2304 L384 2112 L576 2112 L576 1728 L384 1728 Z M1152 2112 L1152 2304 L1344 2304 L1344 2112 L1152 2112 Z " />
<glyph glyph-name="questiondown" unicode="&#xbf;" horiz-adv-x="1152" d="M192 960 L192 1152 L768 1152 L768 960 L192 960 Z M768 1152 L768 1344 L960 1344 L960 1152 L768 1152 Z M0 1152 L0 1536 L192 1536 L192 1152 L0 1152 Z M192 1536 L192 1728 L384 1728 L384 1536 L192 1536 Z M384 1728 L384 1920 L576 1920 L576 1728 L384 1728 Z M384 2112 L384 2304 L576 2304 L576 2112 L384 2112 Z " />
<glyph glyph-name="Agrave" unicode="&#xc0;" horiz-adv-x="1152" d="M0 960 L0 2112 L192 2112 L192 1920 L768 1920 L768 2112 L960 2112 L960 960 L768 960 L768 1728 L192 1728 L192 960 L0 960 Z M192 2112 L192 2304 L384 2304 L384 2496 L576 2496 L576 2304 L768 2304 L768 2112 L192 2112 Z M192 2496 L192 2688 L384 2688 L384 2496 L192 2496 Z " />
<glyph glyph-name="Aacute" unicode="&#xc1;" horiz-adv-x="1152" d="M0 960 L0 2112 L192 2112 L192 1920 L768 1920 L768 2112 L960 2112 L960 960 L768 960 L768 1728 L192 1728 L192 960 L0 960 Z M192 2112 L192 2304 L384 2304 L384 2496 L576 2496 L576 2304 L768 2304 L768 2112 L192 2112 Z M576 2496 L576 2688 L768 2688 L768 2496 L576 2496 Z " />
<glyph glyph-name="Acircumflex" unicode="&#xc2;" horiz-adv-x="1152" d="M0 960 L0 2112 L192 2112 L192 1920 L768 1920 L768 2112 L960 2112 L960 960 L768 960 L768 1728 L192 1728 L192 960 L0 960 Z M192 2112 L192 2496 L384 2496 L384 2304 L576 2304 L576 2496 L768 2496 L768 2112 L192 2112 Z M384 2496 L384 2688 L576 2688 L576 2496 L384 2496 Z " />
<glyph glyph-name="Atilde" unicode="&#xc3;" horiz-adv-x="1152" d="M0 960 L0 2112 L192 2112 L192 1920 L768 1920 L768 2112 L960 2112 L960 960 L768 960 L768 1728 L192 1728 L192 960 L0 960 Z M0 2304 L0 2496 L192 2496 L192 2304 L0 2304 Z M192 2112 L192 2304 L384 2304 L384 2496 L192 2496 L192 2688 L576 2688 L576 2496 L768 2496 L768 2112 L192 2112 Z M768 2496 L768 2688 L960 2688 L960 2496 L768 2496 Z " />
<glyph glyph-name="Adieresis" unicode="&#xc4;" horiz-adv-x="1152" d="M0 960 L0 2112 L192 2112 L192 1920 L768 1920 L768 2112 L960 2112 L960 960 L768 960 L768 1728 L192 1728 L192 960 L0 960 Z M192 2112 L192 2304 L768 2304 L768 2112 L192 2112 Z M192 2496 L192 2688 L384 2688 L384 2496 L192 2496 Z M576 2496 L576 2688 L768 2688 L768 2496 L576 2496 Z " />
<glyph glyph-name="Aring" unicode="&#xc5;" horiz-adv-x="1152" d="M0 960 L0 2112 L192 2112 L192 1920 L768 1920 L768 2112 L960 2112 L960 960 L768 960 L768 1728 L192 1728 L192 960 L0 960 Z M576 2304 L576 2496 L384 2496 L384 2304 L576 2304 Z M192 2112 L192 2688 L768 2688 L768 2112 L192 2112 Z " />
<glyph glyph-name="AE" unicode="&#xc6;" horiz-adv-x="1920" d="M0 960 L0 2112 L192 2112 L192 1920 L768 1920 L768 2112 L192 2112 L192 2304 L1728 2304 L1728 2112 L960 2112 L960 1920 L1344 1920 L1344 1728 L960 1728 L960 1152 L1728 1152 L1728 960 L768 960 L768 1728 L192 1728 L192 960 L0 960 Z " />
<glyph glyph-name="Ccedilla" unicode="&#xc7;" horiz-adv-x="1152" d="M192 576 L192 768 L384 768 L384 960 L192 960 L192 1152 L768 1152 L768 960 L576 960 L576 576 L192 576 Z M768 1152 L768 1344 L960 1344 L960 1152 L768 1152 Z M0 1152 L0 2112 L192 2112 L192 1152 L0 1152 Z M768 1920 L768 2112 L960 2112 L960 1920 L768 1920 Z M192 2112 L192 2304 L768 2304 L768 2112 L192 2112 Z " />
<glyph glyph-name="Egrave" unicode="&#xc8;" horiz-adv-x="1152" d="M0 960 L0 2304 L384 2304 L384 2496 L576 2496 L576 2304 L960 2304 L960 2112 L192 2112 L192 1920 L576 1920 L576 1728 L192 1728 L192 1152 L960 1152 L960 960 L0 960 Z M192 2496 L192 2688 L384 2688 L384 2496 L192 2496 Z " />
<glyph glyph-name="Eacute" unicode="&#xc9;" horiz-adv-x="1152" d="M0 960 L0 2304 L384 2304 L384 2496 L576 2496 L576 2304 L960 2304 L960 2112 L192 2112 L192 1920 L576 1920 L576 1728 L192 1728 L192 1152 L960 1152 L960 960 L0 960 Z M576 2496 L576 2688 L768 2688 L768 2496 L576 2496 Z " />
<glyph glyph-name="Ecircumflex" unicode="&#xca;" horiz-adv-x="1152" d="M0 960 L0 2304 L192 2304 L192 2496 L384 2496 L384 2304 L576 2304 L576 2496 L768 2496 L768 2304 L960 2304 L960 2112 L192 2112 L192 1920 L576 1920 L576 1728 L192 1728 L192 1152 L960 1152 L960 960 L0 960 Z M384 2496 L384 2688 L576 2688 L576 2496 L384 2496 Z " />
<glyph glyph-name="Edieresis" unicode="&#xcb;" horiz-adv-x="1152" d="M0 960 L0 2304 L960 2304 L960 2112 L192 2112 L192 1920 L576 1920 L576 1728 L192 1728 L192 1152 L960 1152 L960 960 L0 960 Z M192 2496 L192 2688 L384 2688 L384 2496 L192 2496 Z M576 2496 L576 2688 L768 2688 L768 2496 L576 2496 Z " />
<glyph glyph-name="Igrave" unicode="&#xcc;" horiz-adv-x="768" d="M0 960 L0 1152 L192 1152 L192 2112 L0 2112 L0 2304 L192 2304 L192 2496 L384 2496 L384 2304 L576 2304 L576 2112 L384 2112 L384 1152 L576 1152 L576 960 L0 960 Z M0 2496 L0 2688 L192 2688 L192 2496 L0 2496 Z " />
<glyph glyph-name="Iacute" unicode="&#xcd;" horiz-adv-x="768" d="M0 960 L0 1152 L192 1152 L192 2112 L0 2112 L0 2304 L192 2304 L192 2496 L384 2496 L384 2304 L576 2304 L576 2112 L384 2112 L384 1152 L576 1152 L576 960 L0 960 Z M384 2496 L384 2688 L576 2688 L576 2496 L384 2496 Z " />
<glyph glyph-name="Icircumflex" unicode="&#xce;" horiz-adv-x="768" d="M0 960 L0 1152 L192 1152 L192 2112 L0 2112 L0 2496 L192 2496 L192 2304 L384 2304 L384 2496 L576 2496 L576 2112 L384 2112 L384 1152 L576 1152 L576 960 L0 960 Z M192 2496 L192 2688 L384 2688 L384 2496 L192 2496 Z " />
<glyph glyph-name="Idieresis" unicode="&#xcf;" horiz-adv-x="768" d="M0 960 L0 1152 L192 1152 L192 2112 L0 2112 L0 2304 L576 2304 L576 2112 L384 2112 L384 1152 L576 1152 L576 960 L0 960 Z M0 2496 L0 2688 L192 2688 L192 2496 L0 2496 Z M384 2496 L384 2688 L576 2688 L576 2496 L384 2496 Z " />
<glyph glyph-name="Eth" unicode="&#xd0;" horiz-adv-x="1344" d="M960 1152 L960 2112 L1152 2112 L1152 1152 L960 1152 Z M192 960 L192 1728 L0 1728 L0 1920 L192 1920 L192 2304 L960 2304 L960 2112 L384 2112 L384 1920 L576 1920 L576 1728 L384 1728 L384 1152 L960 1152 L960 960 L192 960 Z " />
<glyph glyph-name="Ntilde" unicode="&#xd1;" horiz-adv-x="1152" d="M384 1728 L384 1920 L576 1920 L576 1728 L384 1728 Z M768 960 L768 1536 L576 1536 L576 1728 L768 1728 L768 2304 L960 2304 L960 960 L768 960 Z M0 960 L0 2496 L192 2496 L192 2112 L384 2112 L384 1920 L192 1920 L192 960 L0 960 Z M384 2304 L384 2496 L192 2496 L192 2688 L576 2688 L576 2496 L768 2496 L768 2304 L384 2304 Z M768 2496 L768 2688 L960 2688 L960 2496 L768 2496 Z " />
<glyph glyph-name="Ograve" unicode="&#xd2;" horiz-adv-x="1152" d="M192 960 L192 1152 L768 1152 L768 960 L192 960 Z M0 1152 L0 2112 L192 2112 L192 1152 L0 1152 Z M768 1152 L768 2112 L960 2112 L960 1152 L768 1152 Z M192 2112 L192 2304 L384 2304 L384 2496 L576 2496 L576 2304 L768 2304 L768 2112 L192 2112 Z M192 2496 L192 2688 L384 2688 L384 2496 L192 2496 Z " />
<glyph glyph-name="Oacute" unicode="&#xd3;" horiz-adv-x="1152" d="M192 960 L192 1152 L768 1152 L768 960 L192 960 Z M0 1152 L0 2112 L192 2112 L192 1152 L0 1152 Z M768 1152 L768 2112 L960 2112 L960 1152 L768 1152 Z M192 2112 L192 2304 L384 2304 L384 2496 L576 2496 L576 2304 L768 2304 L768 2112 L192 2112 Z M576 2496 L576 2688 L768 2688 L768 2496 L576 2496 Z " />
<glyph glyph-name="Ocircumflex" unicode="&#xd4;" horiz-adv-x="1152" d="M192 960 L192 1152 L768 1152 L768 960 L192 960 Z M0 1152 L0 2112 L192 2112 L192 1152 L0 1152 Z M768 1152 L768 2112 L960 2112 L960 1152 L768 1152 Z M192 2112 L192 2496 L384 2496 L384 2304 L576 2304 L576 2496 L768 2496 L768 2112 L192 2112 Z M384 2496 L384 2688 L576 2688 L576 2496 L384 2496 Z " />
<glyph glyph-name="Otilde" unicode="&#xd5;" horiz-adv-x="1152" d="M192 960 L192 1152 L768 1152 L768 960 L192 960 Z M0 1152 L0 2112 L192 2112 L192 1152 L0 1152 Z M768 1152 L768 2112 L960 2112 L960 1152 L768 1152 Z M0 2304 L0 2496 L192 2496 L192 2304 L0 2304 Z M192 2112 L192 2304 L384 2304 L384 2496 L192 2496 L192 2688 L576 2688 L576 2496 L768 2496 L768 2112 L192 2112 Z M768 2496 L768 2688 L960 2688 L960 2496 L768 2496 Z " />
<glyph glyph-name="Odieresis" unicode="&#xd6;" horiz-adv-x="1152" d="M192 960 L192 1152 L768 1152 L768 960 L192 960 Z M0 1152 L0 2112 L192 2112 L192 1152 L0 1152 Z M768 1152 L768 2112 L960 2112 L960 1152 L768 1152 Z M192 2112 L192 2304 L768 2304 L768 2112 L192 2112 Z M192 2496 L192 2688 L384 2688 L384 2496 L192 2496 Z M576 2496 L576 2688 L768 2688 L768 2496 L576 2496 Z " />
<glyph glyph-name="multiply" unicode="&#xd7;" horiz-adv-x="960" d="M0 960 L0 1152 L192 1152 L192 960 L0 960 Z M576 960 L576 1152 L768 1152 L768 960 L576 960 Z M192 1152 L192 1536 L576 1536 L576 1152 L192 1152 Z M0 1536 L0 1728 L192 1728 L192 1536 L0 1536 Z M576 1536 L576 1728 L768 1728 L768 1536 L576 1536 Z " />
<glyph glyph-name="Oslash" unicode="&#xd8;" horiz-adv-x="1152" d="M0 960 L0 1152 L192 1152 L192 960 L0 960 Z M384 960 L384 1152 L768 1152 L768 960 L384 960 Z M384 1536 L384 1728 L576 1728 L576 1536 L384 1536 Z M192 1152 L192 1344 L0 1344 L0 2112 L192 2112 L192 1536 L384 1536 L384 1152 L192 1152 Z M768 1152 L768 1728 L576 1728 L576 2112 L768 2112 L768 1920 L960 1920 L960 1152 L768 1152 Z M192 2112 L192 2304 L576 2304 L576 2112 L192 2112 Z M768 2112 L768 2304 L960 2304 L960 2112 L768 2112 Z " />
<glyph glyph-name="Ugrave" unicode="&#xd9;" horiz-adv-x="1152" d="M192 960 L192 1152 L768 1152 L768 960 L192 960 Z M0 1152 L0 2304 L192 2304 L192 1152 L0 1152 Z M768 1152 L768 2304 L960 2304 L960 1152 L768 1152 Z M384 2304 L384 2496 L576 2496 L576 2304 L384 2304 Z M192 2496 L192 2688 L384 2688 L384 2496 L192 2496 Z " />
<glyph glyph-name="Uacute" unicode="&#xda;" horiz-adv-x="1152" d="M192 960 L192 1152 L768 1152 L768 960 L192 960 Z M0 1152 L0 2304 L192 2304 L192 1152 L0 1152 Z M768 1152 L768 2304 L960 2304 L960 1152 L768 1152 Z M384 2304 L384 2496 L576 2496 L576 2304 L384 2304 Z M576 2496 L576 2688 L768 2688 L768 2496 L576 2496 Z " />
<glyph glyph-name="Ucircumflex" unicode="&#xdb;" horiz-adv-x="1152" d="M192 960 L192 1152 L768 1152 L768 960 L192 960 Z M0 1152 L0 2304 L192 2304 L192 1152 L0 1152 Z M768 1152 L768 2304 L960 2304 L960 1152 L768 1152 Z M192 2304 L192 2496 L384 2496 L384 2304 L192 2304 Z M576 2304 L576 2496 L768 2496 L768 2304 L576 2304 Z M384 2496 L384 2688 L576 2688 L576 2496 L384 2496 Z " />
<glyph glyph-name="Udieresis" unicode="&#xdc;" horiz-adv-x="1152" d="M192 960 L192 1152 L768 1152 L768 960 L192 960 Z M0 1152 L0 2304 L192 2304 L192 1152 L0 1152 Z M768 1152 L768 2304 L960 2304 L960 1152 L768 1152 Z M192 2496 L192 2688 L384 2688 L384 2496 L192 2496 Z M576 2496 L576 2688 L768 2688 L768 2496 L576 2496 Z " />
<glyph glyph-name="Yacute" unicode="&#xdd;" horiz-adv-x="1152" d="M384 960 L384 1920 L576 1920 L576 960 L384 960 Z M192 1920 L192 2112 L384 2112 L384 1920 L192 1920 Z M576 1920 L576 2112 L768 2112 L768 1920 L576 1920 Z M0 2112 L0 2304 L192 2304 L192 2112 L0 2112 Z M768 2112 L768 2304 L960 2304 L960 2112 L768 2112 Z M384 2304 L384 2496 L576 2496 L576 2304 L384 2304 Z M576 2496 L576 2688 L768 2688 L768 2496 L576 2496 Z " />
<glyph glyph-name="Thorn" unicode="&#xde;" horiz-adv-x="1152" d="M768 1728 L768 1920 L960 1920 L960 1728 L768 1728 Z M0 960 L0 2304 L192 2304 L192 2112 L768 2112 L768 1920 L192 1920 L192 1728 L768 1728 L768 1536 L192 1536 L192 960 L0 960 Z " />
<glyph glyph-name="germandbls" unicode="&#xdf;" horiz-adv-x="1152" d="M384 960 L384 1152 L768 1152 L768 960 L384 960 Z M768 1152 L768 1728 L960 1728 L960 1152 L768 1152 Z M0 960 L0 2112 L192 2112 L192 960 L0 960 Z M384 1728 L384 1920 L576 1920 L576 2112 L768 2112 L768 1728 L384 1728 Z M192 2112 L192 2304 L576 2304 L576 2112 L192 2112 Z " />
<glyph glyph-name="agrave" unicode="&#xe0;" horiz-adv-x="1152" d="M0 1152 L0 1344 L192 1344 L192 1152 L0 1152 Z M192 960 L192 1152 L768 1152 L768 1344 L192 1344 L192 1536 L768 1536 L768 1728 L960 1728 L960 960 L192 960 Z M192 1728 L192 1920 L768 1920 L768 1728 L192 1728 Z M384 2112 L384 2304 L576 2304 L576 2112 L384 2112 Z M192 2304 L192 2496 L384 2496 L384 2304 L192 2304 Z " />
<glyph glyph-name="aacute" unicode="&#xe1;" horiz-adv-x="1152" d="M0 1152 L0 1344 L192 1344 L192 1152 L0 1152 Z M192 960 L192 1152 L768 1152 L768 1344 L192 1344 L192 1536 L768 1536 L768 1728 L960 1728 L960 960 L192 960 Z M192 1728 L192 1920 L768 1920 L768 1728 L192 1728 Z M384 2112 L384 2304 L576 2304 L576 2112 L384 2112 Z M576 2304 L576 2496 L768 2496 L768 2304 L576 2304 Z " />
<glyph glyph-name="acircumflex" unicode="&#xe2;" horiz-adv-x="1152" d="M0 1152 L0 1344 L192 1344 L192 1152 L0 1152 Z M192 960 L192 1152 L768 1152 L768 1344 L192 1344 L192 1536 L768 1536 L768 1728 L960 1728 L960 960 L192 960 Z M192 1728 L192 1920 L768 1920 L768 1728 L192 1728 Z M192 2112 L192 2304 L384 2304 L384 2112 L192 2112 Z M576 2112 L576 2304 L768 2304 L768 2112 L576 2112 Z M384 2304 L384 2496 L576 2496 L576 2304 L384 2304 Z " />
<glyph glyph-name="atilde" unicode="&#xe3;" horiz-adv-x="1152" d="M0 1152 L0 1344 L192 1344 L192 1152 L0 1152 Z M192 960 L192 1152 L768 1152 L768 1344 L192 1344 L192 1536 L768 1536 L768 1728 L960 1728 L960 960 L192 960 Z M192 1728 L192 1920 L768 1920 L768 1728 L192 1728 Z M0 2112 L0 2304 L192 2304 L192 2112 L0 2112 Z M384 2112 L384 2304 L192 2304 L192 2496 L576 2496 L576 2304 L768 2304 L768 2112 L384 2112 Z M768 2304 L768 2496 L960 2496 L960 2304 L768 2304 Z " />
<glyph glyph-name="adieresis" unicode="&#xe4;" horiz-adv-x="1152" d="M0 1152 L0 1344 L192 1344 L192 1152 L0 1152 Z M192 960 L192 1152 L768 1152 L768 1344 L192 1344 L192 1536 L768 1536 L768 1728 L960 1728 L960 960 L192 960 Z M192 1728 L192 1920 L768 1920 L768 1728 L192 1728 Z M192 2112 L192 2304 L384 2304 L384 2112 L192 2112 Z M576 2112 L576 2304 L768 2304 L768 2112 L576 2112 Z " />
<glyph glyph-name="aring" unicode="&#xe5;" horiz-adv-x="1152" d="M0 1152 L0 1344 L192 1344 L192 1152 L0 1152 Z M192 960 L192 1152 L768 1152 L768 1344 L192 1344 L192 1536 L768 1536 L768 1728 L960 1728 L960 960 L192 960 Z M192 1728 L192 1920 L768 1920 L768 1728 L192 1728 Z M576 2304 L576 2496 L384 2496 L384 2304 L576 2304 Z M192 2112 L192 2688 L768 2688 L768 2112 L192 2112 Z " />
<glyph glyph-name="ae" unicode="&#xe6;" horiz-adv-x="1920" d="M192 960 L192 1152 L768 1152 L768 960 L192 960 Z M960 960 L960 1152 L1536 1152 L1536 960 L960 960 Z M0 1152 L0 1344 L192 1344 L192 1152 L0 1152 Z M768 1152 L768 1344 L192 1344 L192 1536 L768 1536 L768 1728 L960 1728 L960 1536 L1536 1536 L1536 1728 L1728 1728 L1728 1344 L960 1344 L960 1152 L768 1152 Z M192 1728 L192 1920 L768 1920 L768 1728 L192 1728 Z M960 1728 L960 1920 L1536 1920 L1536 1728 L960 1728 Z " />
<glyph glyph-name="ccedilla" unicode="&#xe7;" horiz-adv-x="1152" d="M192 576 L192 768 L384 768 L384 960 L192 960 L192 1152 L768 1152 L768 960 L576 960 L576 576 L192 576 Z M768 1152 L768 1344 L960 1344 L960 1152 L768 1152 Z M0 1152 L0 1728 L192 1728 L192 1152 L0 1152 Z M768 1536 L768 1728 L960 1728 L960 1536 L768 1536 Z M192 1728 L192 1920 L768 1920 L768 1728 L192 1728 Z " />
<glyph glyph-name="egrave" unicode="&#xe8;" horiz-adv-x="1152" d="M192 960 L192 1152 L960 1152 L960 960 L192 960 Z M0 1152 L0 1728 L192 1728 L192 1536 L768 1536 L768 1728 L960 1728 L960 1344 L192 1344 L192 1152 L0 1152 Z M192 1728 L192 1920 L768 1920 L768 1728 L192 1728 Z M384 2112 L384 2304 L576 2304 L576 2112 L384 2112 Z M192 2304 L192 2496 L384 2496 L384 2304 L192 2304 Z " />
<glyph glyph-name="eacute" unicode="&#xe9;" horiz-adv-x="1152" d="M192 960 L192 1152 L960 1152 L960 960 L192 960 Z M0 1152 L0 1728 L192 1728 L192 1536 L768 1536 L768 1728 L960 1728 L960 1344 L192 1344 L192 1152 L0 1152 Z M192 1728 L192 1920 L768 1920 L768 1728 L192 1728 Z M384 2112 L384 2304 L576 2304 L576 2112 L384 2112 Z M576 2304 L576 2496 L768 2496 L768 2304 L576 2304 Z " />
<glyph glyph-name="ecircumflex" unicode="&#xea;" horiz-adv-x="1152" d="M192 960 L192 1152 L960 1152 L960 960 L192 960 Z M0 1152 L0 1728 L192 1728 L192 1536 L768 1536 L768 1728 L960 1728 L960 1344 L192 1344 L192 1152 L0 1152 Z M192 1728 L192 1920 L768 1920 L768 1728 L192 1728 Z M192 2112 L192 2304 L384 2304 L384 2112 L192 2112 Z M576 2112 L576 2304 L768 2304 L768 2112 L576 2112 Z M384 2304 L384 2496 L576 2496 L576 2304 L384 2304 Z " />
<glyph glyph-name="edieresis" unicode="&#xeb;" horiz-adv-x="1152" d="M192 960 L192 1152 L960 1152 L960 960 L192 960 Z M0 1152 L0 1728 L192 1728 L192 1536 L768 1536 L768 1728 L960 1728 L960 1344 L192 1344 L192 1152 L0 1152 Z M192 1728 L192 1920 L768 1920 L768 1728 L192 1728 Z M192 2112 L192 2304 L384 2304 L384 2112 L192 2112 Z M576 2112 L576 2304 L768 2304 L768 2112 L576 2112 Z " />
<glyph glyph-name="igrave" unicode="&#xec;" horiz-adv-x="384" d="M0 960 L0 1920 L192 1920 L192 960 L0 960 Z M0 2112 L0 2304 L192 2304 L192 2112 L0 2112 Z M-192 2304 L-192 2496 L0 2496 L0 2304 L-192 2304 Z " />
<glyph glyph-name="iacute" unicode="&#xed;" horiz-adv-x="576" d="M0 960 L0 1920 L192 1920 L192 960 L0 960 Z M0 2112 L0 2304 L192 2304 L192 2112 L0 2112 Z M192 2304 L192 2496 L384 2496 L384 2304 L192 2304 Z " />
<glyph glyph-name="icircumflex" unicode="&#xee;" horiz-adv-x="576" d="M0 960 L0 1920 L192 1920 L192 960 L0 960 Z M-192 2112 L-192 2304 L0 2304 L0 2112 L-192 2112 Z M192 2112 L192 2304 L384 2304 L384 2112 L192 2112 Z M0 2304 L0 2496 L192 2496 L192 2304 L0 2304 Z " />
<glyph glyph-name="idieresis" unicode="&#xef;" horiz-adv-x="576" d="M0 960 L0 1920 L192 1920 L192 960 L0 960 Z M-192 2112 L-192 2304 L0 2304 L0 2112 L-192 2112 Z M192 2112 L192 2304 L384 2304 L384 2112 L192 2112 Z " />
<glyph glyph-name="eth" unicode="&#xf0;" horiz-adv-x="1152" d="M192 960 L192 1152 L768 1152 L768 960 L192 960 Z M0 1152 L0 1344 L192 1344 L192 1152 L0 1152 Z M384 1728 L384 1920 L576 1920 L576 1728 L384 1728 Z M768 1152 L768 1344 L192 1344 L192 1536 L768 1536 L768 1920 L960 1920 L960 1152 L768 1152 Z M576 1920 L576 2112 L768 2112 L768 1920 L576 1920 Z M384 2112 L384 2304 L576 2304 L576 2112 L384 2112 Z M768 2112 L768 2304 L960 2304 L960 2112 L768 2112 Z " />
<glyph glyph-name="ntilde" unicode="&#xf1;" horiz-adv-x="1152" d="M768 960 L768 1728 L960 1728 L960 960 L768 960 Z M0 960 L0 1920 L768 1920 L768 1728 L192 1728 L192 960 L0 960 Z M0 2112 L0 2304 L192 2304 L192 2112 L0 2112 Z M384 2112 L384 2304 L192 2304 L192 2496 L576 2496 L576 2304 L768 2304 L768 2112 L384 2112 Z M768 2304 L768 2496 L960 2496 L960 2304 L768 2304 Z " />
<glyph glyph-name="ograve" unicode="&#xf2;" horiz-adv-x="1152" d="M192 960 L192 1152 L768 1152 L768 960 L192 960 Z M0 1152 L0 1728 L192 1728 L192 1152 L0 1152 Z M768 1152 L768 1728 L960 1728 L960 1152 L768 1152 Z M192 1728 L192 1920 L768 1920 L768 1728 L192 1728 Z M384 2112 L384 2304 L576 2304 L576 2112 L384 2112 Z M192 2304 L192 2496 L384 2496 L384 2304 L192 2304 Z " />
<glyph glyph-name="oacute" unicode="&#xf3;" horiz-adv-x="1152" d="M192 960 L192 1152 L768 1152 L768 960 L192 960 Z M0 1152 L0 1728 L192 1728 L192 1152 L0 1152 Z M768 1152 L768 1728 L960 1728 L960 1152 L768 1152 Z M192 1728 L192 1920 L768 1920 L768 1728 L192 1728 Z M384 2112 L384 2304 L576 2304 L576 2112 L384 2112 Z M576 2304 L576 2496 L768 2496 L768 2304 L576 2304 Z " />
<glyph glyph-name="ocircumflex" unicode="&#xf4;" horiz-adv-x="1152" d="M192 960 L192 1152 L768 1152 L768 960 L192 960 Z M0 1152 L0 1728 L192 1728 L192 1152 L0 1152 Z M768 1152 L768 1728 L960 1728 L960 1152 L768 1152 Z M192 1728 L192 1920 L768 1920 L768 1728 L192 1728 Z M192 2112 L192 2304 L384 2304 L384 2112 L192 2112 Z M576 2112 L576 2304 L768 2304 L768 2112 L576 2112 Z M384 2304 L384 2496 L576 2496 L576 2304 L384 2304 Z " />
<glyph glyph-name="otilde" unicode="&#xf5;" horiz-adv-x="1152" d="M192 960 L192 1152 L768 1152 L768 960 L192 960 Z M0 1152 L0 1728 L192 1728 L192 1152 L0 1152 Z M768 1152 L768 1728 L960 1728 L960 1152 L768 1152 Z M192 1728 L192 1920 L768 1920 L768 1728 L192 1728 Z M0 2112 L0 2304 L192 2304 L192 2112 L0 2112 Z M384 2112 L384 2304 L192 2304 L192 2496 L576 2496 L576 2304 L768 2304 L768 2112 L384 2112 Z M768 2304 L768 2496 L960 2496 L960 2304 L768 2304 Z " />
<glyph glyph-name="odieresis" unicode="&#xf6;" horiz-adv-x="1152" d="M192 960 L192 1152 L768 1152 L768 960 L192 960 Z M0 1152 L0 1728 L192 1728 L192 1152 L0 1152 Z M768 1152 L768 1728 L960 1728 L960 1152 L768 1152 Z M192 1728 L192 1920 L768 1920 L768 1728 L192 1728 Z M192 2112 L192 2304 L384 2304 L384 2112 L192 2112 Z M576 2112 L576 2304 L768 2304 L768 2112 L576 2112 Z " />
<glyph glyph-name="divide" unicode="&#xf7;" horiz-adv-x="1152" d="M384 960 L384 1152 L576 1152 L576 960 L384 960 Z M0 1344 L0 1536 L960 1536 L960 1344 L0 1344 Z M384 1728 L384 1920 L576 1920 L576 1728 L384 1728 Z " />
<glyph glyph-name="oslash" unicode="&#xf8;" horiz-adv-x="1152" d="M0 960 L0 1152 L192 1152 L192 960 L0 960 Z M384 960 L384 1152 L768 1152 L768 960 L384 960 Z M192 1152 L192 1344 L384 1344 L384 1152 L192 1152 Z M384 1344 L384 1536 L576 1536 L576 1344 L384 1344 Z M768 1152 L768 1536 L960 1536 L960 1152 L768 1152 Z M0 1344 L0 1728 L192 1728 L192 1344 L0 1344 Z M576 1536 L576 1728 L768 1728 L768 1536 L576 1536 Z M192 1728 L192 1920 L576 1920 L576 1728 L192 1728 Z M768 1728 L768 1920 L960 1920 L960 1728 L768 1728 Z " />
<glyph glyph-name="ugrave" unicode="&#xf9;" horiz-adv-x="1152" d="M0 1152 L0 1920 L192 1920 L192 1152 L0 1152 Z M192 960 L192 1152 L768 1152 L768 1920 L960 1920 L960 960 L192 960 Z M384 2112 L384 2304 L576 2304 L576 2112 L384 2112 Z M192 2304 L192 2496 L384 2496 L384 2304 L192 2304 Z " />
<glyph glyph-name="uacute" unicode="&#xfa;" horiz-adv-x="1152" d="M0 1152 L0 1920 L192 1920 L192 1152 L0 1152 Z M192 960 L192 1152 L768 1152 L768 1920 L960 1920 L960 960 L192 960 Z M384 2112 L384 2304 L576 2304 L576 2112 L384 2112 Z M576 2304 L576 2496 L768 2496 L768 2304 L576 2304 Z " />
<glyph glyph-name="ucircumflex" unicode="&#xfb;" horiz-adv-x="1152" d="M0 1152 L0 1920 L192 1920 L192 1152 L0 1152 Z M192 960 L192 1152 L768 1152 L768 1920 L960 1920 L960 960 L192 960 Z M192 2112 L192 2304 L384 2304 L384 2112 L192 2112 Z M576 2112 L576 2304 L768 2304 L768 2112 L576 2112 Z M384 2304 L384 2496 L576 2496 L576 2304 L384 2304 Z " />
<glyph glyph-name="udieresis" unicode="&#xfc;" horiz-adv-x="1152" d="M0 1152 L0 1920 L192 1920 L192 1152 L0 1152 Z M192 960 L192 1152 L768 1152 L768 1920 L960 1920 L960 960 L192 960 Z M192 2112 L192 2304 L384 2304 L384 2112 L192 2112 Z M576 2112 L576 2304 L768 2304 L768 2112 L576 2112 Z " />
<glyph glyph-name="yacute" unicode="&#xfd;" horiz-adv-x="1152" d="M0 768 L0 960 L768 960 L768 768 L0 768 Z M0 1344 L0 1920 L192 1920 L192 1344 L0 1344 Z M768 960 L768 1152 L192 1152 L192 1344 L768 1344 L768 1920 L960 1920 L960 960 L768 960 Z M384 2112 L384 2304 L576 2304 L576 2112 L384 2112 Z M576 2304 L576 2496 L768 2496 L768 2304 L576 2304 Z " />
<glyph glyph-name="thorn" unicode="&#xfe;" horiz-adv-x="1152" d="M768 1344 L768 1728 L960 1728 L960 1344 L768 1344 Z M384 1728 L384 1920 L768 1920 L768 1728 L384 1728 Z M0 768 L0 2304 L192 2304 L192 1728 L384 1728 L384 1536 L192 1536 L192 1344 L768 1344 L768 1152 L192 1152 L192 768 L0 768 Z " />
<glyph glyph-name="ydieresis" unicode="&#xff;" horiz-adv-x="1152" d="M0 768 L0 960 L768 960 L768 768 L0 768 Z M0 1344 L0 1920 L192 1920 L192 1344 L0 1344 Z M768 960 L768 1152 L192 1152 L192 1344 L768 1344 L768 1920 L960 1920 L960 960 L768 960 Z " />
<glyph glyph-name="Amacron" unicode="&#x100;" horiz-adv-x="1152" d="M0 960 L0 2112 L192 2112 L192 1920 L768 1920 L768 2112 L960 2112 L960 960 L768 960 L768 1728 L192 1728 L192 960 L0 960 Z M192 2112 L192 2304 L768 2304 L768 2112 L192 2112 Z M192 2496 L192 2688 L768 2688 L768 2496 L192 2496 Z " />
<glyph glyph-name="amacron" unicode="&#x101;" horiz-adv-x="1152" d="M0 1152 L0 1344 L192 1344 L192 1152 L0 1152 Z M192 960 L192 1152 L768 1152 L768 1344 L192 1344 L192 1536 L768 1536 L768 1728 L960 1728 L960 960 L192 960 Z M192 1728 L192 1920 L768 1920 L768 1728 L192 1728 Z M192 2112 L192 2304 L768 2304 L768 2112 L192 2112 Z " />
<glyph glyph-name="Abreve" unicode="&#x102;" horiz-adv-x="1152" d="M0 960 L0 2112 L192 2112 L192 1920 L768 1920 L768 2112 L960 2112 L960 960 L768 960 L768 1728 L192 1728 L192 960 L0 960 Z M192 2112 L192 2688 L384 2688 L384 2496 L576 2496 L576 2688 L768 2688 L768 2112 L192 2112 Z " />
<glyph glyph-name="abreve" unicode="&#x103;" horiz-adv-x="1152" d="M0 1152 L0 1344 L192 1344 L192 1152 L0 1152 Z M192 960 L192 1152 L768 1152 L768 1344 L192 1344 L192 1536 L768 1536 L768 1728 L960 1728 L960 960 L192 960 Z M192 1728 L192 1920 L768 1920 L768 1728 L192 1728 Z M192 2112 L192 2496 L384 2496 L384 2304 L576 2304 L576 2496 L768 2496 L768 2112 L192 2112 Z " />
<glyph glyph-name="Aogonek" unicode="&#x104;" horiz-adv-x="1152" d="M576 576 L576 960 L768 960 L768 768 L960 768 L960 576 L576 576 Z M0 960 L0 2112 L192 2112 L192 1920 L768 1920 L768 2112 L960 2112 L960 960 L768 960 L768 1728 L192 1728 L192 960 L0 960 Z M192 2112 L192 2304 L768 2304 L768 2112 L192 2112 Z " />
<glyph glyph-name="aogonek" unicode="&#x105;" horiz-adv-x="1152" d="M0 1152 L0 1344 L192 1344 L192 1152 L0 1152 Z M576 576 L576 960 L192 960 L192 1152 L768 1152 L768 1344 L192 1344 L192 1536 L768 1536 L768 1728 L960 1728 L960 960 L768 960 L768 768 L960 768 L960 576 L576 576 Z M192 1728 L192 1920 L768 1920 L768 1728 L192 1728 Z " />
<glyph glyph-name="Cacute" unicode="&#x106;" horiz-adv-x="1152" d="M192 960 L192 1152 L768 1152 L768 960 L192 960 Z M768 1152 L768 1344 L960 1344 L960 1152 L768 1152 Z M0 1152 L0 2112 L192 2112 L192 1152 L0 1152 Z M768 1920 L768 2112 L960 2112 L960 1920 L768 1920 Z M192 2112 L192 2304 L384 2304 L384 2496 L576 2496 L576 2304 L768 2304 L768 2112 L192 2112 Z M576 2496 L576 2688 L768 2688 L768 2496 L576 2496 Z " />
<glyph glyph-name="cacute" unicode="&#x107;" horiz-adv-x="1152" d="M192 960 L192 1152 L768 1152 L768 960 L192 960 Z M768 1152 L768 1344 L960 1344 L960 1152 L768 1152 Z M0 1152 L0 1728 L192 1728 L192 1152 L0 1152 Z M768 1536 L768 1728 L960 1728 L960 1536 L768 1536 Z M192 1728 L192 1920 L768 1920 L768 1728 L192 1728 Z M384 2112 L384 2304 L576 2304 L576 2112 L384 2112 Z M576 2304 L576 2496 L768 2496 L768 2304 L576 2304 Z " />
<glyph glyph-name="Ccircumflex" unicode="&#x108;" horiz-adv-x="1152" d="M192 960 L192 1152 L768 1152 L768 960 L192 960 Z M768 1152 L768 1344 L960 1344 L960 1152 L768 1152 Z M0 1152 L0 2112 L192 2112 L192 1152 L0 1152 Z M768 1920 L768 2112 L960 2112 L960 1920 L768 1920 Z M192 2112 L192 2496 L384 2496 L384 2304 L576 2304 L576 2496 L768 2496 L768 2112 L192 2112 Z M384 2496 L384 2688 L576 2688 L576 2496 L384 2496 Z " />
<glyph glyph-name="ccircumflex" unicode="&#x109;" horiz-adv-x="1152" d="M192 960 L192 1152 L768 1152 L768 960 L192 960 Z M768 1152 L768 1344 L960 1344 L960 1152 L768 1152 Z M0 1152 L0 1728 L192 1728 L192 1152 L0 1152 Z M768 1536 L768 1728 L960 1728 L960 1536 L768 1536 Z M192 1728 L192 1920 L768 1920 L768 1728 L192 1728 Z M192 2112 L192 2304 L384 2304 L384 2112 L192 2112 Z M576 2112 L576 2304 L768 2304 L768 2112 L576 2112 Z M384 2304 L384 2496 L576 2496 L576 2304 L384 2304 Z " />
<glyph glyph-name="Cdot" unicode="&#x10a;" horiz-adv-x="1152" d="M192 960 L192 1152 L768 1152 L768 960 L192 960 Z M768 1152 L768 1344 L960 1344 L960 1152 L768 1152 Z M0 1152 L0 2112 L192 2112 L192 1152 L0 1152 Z M768 1920 L768 2112 L960 2112 L960 1920 L768 1920 Z M192 2112 L192 2304 L768 2304 L768 2112 L192 2112 Z M384 2496 L384 2688 L576 2688 L576 2496 L384 2496 Z " />
<glyph glyph-name="cdot" unicode="&#x10b;" horiz-adv-x="1152" d="M192 960 L192 1152 L768 1152 L768 960 L192 960 Z M768 1152 L768 1344 L960 1344 L960 1152 L768 1152 Z M0 1152 L0 1728 L192 1728 L192 1152 L0 1152 Z M768 1536 L768 1728 L960 1728 L960 1536 L768 1536 Z M192 1728 L192 1920 L768 1920 L768 1728 L192 1728 Z M384 2112 L384 2304 L576 2304 L576 2112 L384 2112 Z " />
<glyph glyph-name="Ccaron" unicode="&#x10c;" horiz-adv-x="1152" d="M192 960 L192 1152 L768 1152 L768 960 L192 960 Z M768 1152 L768 1344 L960 1344 L960 1152 L768 1152 Z M0 1152 L0 2112 L192 2112 L192 1152 L0 1152 Z M768 1920 L768 2112 L960 2112 L960 1920 L768 1920 Z M192 2112 L192 2304 L384 2304 L384 2496 L576 2496 L576 2304 L768 2304 L768 2112 L192 2112 Z M192 2496 L192 2688 L384 2688 L384 2496 L192 2496 Z M576 2496 L576 2688 L768 2688 L768 2496 L576 2496 Z " />
<glyph glyph-name="ccaron" unicode="&#x10d;" horiz-adv-x="1152" d="M192 960 L192 1152 L768 1152 L768 960 L192 960 Z M768 1152 L768 1344 L960 1344 L960 1152 L768 1152 Z M0 1152 L0 1728 L192 1728 L192 1152 L0 1152 Z M768 1536 L768 1728 L960 1728 L960 1536 L768 1536 Z M192 1728 L192 1920 L768 1920 L768 1728 L192 1728 Z M384 2112 L384 2304 L576 2304 L576 2112 L384 2112 Z M192 2304 L192 2496 L384 2496 L384 2304 L192 2304 Z M576 2304 L576 2496 L768 2496 L768 2304 L576 2304 Z " />
<glyph glyph-name="Dcaron" unicode="&#x10e;" horiz-adv-x="1152" d="M768 1152 L768 2112 L960 2112 L960 1152 L768 1152 Z M0 960 L0 2304 L384 2304 L384 2496 L576 2496 L576 2304 L768 2304 L768 2112 L192 2112 L192 1152 L768 1152 L768 960 L0 960 Z M192 2496 L192 2688 L384 2688 L384 2496 L192 2496 Z M576 2496 L576 2688 L768 2688 L768 2496 L576 2496 Z " />
<glyph glyph-name="dcaron" unicode="&#x10f;" horiz-adv-x="1536" d="M0 1152 L0 1728 L192 1728 L192 1152 L0 1152 Z M192 1728 L192 1920 L576 1920 L576 1728 L192 1728 Z M192 960 L192 1152 L768 1152 L768 1536 L576 1536 L576 1728 L768 1728 L768 2304 L960 2304 L960 960 L192 960 Z M1152 2112 L1152 2496 L1344 2496 L1344 2112 L1152 2112 Z " />
<glyph glyph-name="Dcroat" unicode="&#x110;" horiz-adv-x="1344" d="M960 1152 L960 2112 L1152 2112 L1152 1152 L960 1152 Z M192 960 L192 1728 L0 1728 L0 1920 L192 1920 L192 2304 L960 2304 L960 2112 L384 2112 L384 1920 L576 1920 L576 1728 L384 1728 L384 1152 L960 1152 L960 960 L192 960 Z " />
<glyph glyph-name="dslash" unicode="&#x111;" horiz-adv-x="1344" d="M0 1152 L0 1728 L192 1728 L192 1152 L0 1152 Z M192 1728 L192 1920 L576 1920 L576 1728 L192 1728 Z M192 960 L192 1152 L768 1152 L768 1536 L576 1536 L576 1728 L768 1728 L768 1920 L576 1920 L576 2112 L768 2112 L768 2304 L960 2304 L960 2112 L1152 2112 L1152 1920 L960 1920 L960 960 L192 960 Z " />
<glyph glyph-name="Emacron" unicode="&#x112;" horiz-adv-x="1152" d="M0 960 L0 2304 L960 2304 L960 2112 L192 2112 L192 1920 L576 1920 L576 1728 L192 1728 L192 1152 L960 1152 L960 960 L0 960 Z M192 2496 L192 2688 L768 2688 L768 2496 L192 2496 Z " />
<glyph glyph-name="emacron" unicode="&#x113;" horiz-adv-x="1152" d="M192 960 L192 1152 L960 1152 L960 960 L192 960 Z M0 1152 L0 1728 L192 1728 L192 1536 L768 1536 L768 1728 L960 1728 L960 1344 L192 1344 L192 1152 L0 1152 Z M192 1728 L192 1920 L768 1920 L768 1728 L192 1728 Z M192 2112 L192 2304 L768 2304 L768 2112 L192 2112 Z " />
<glyph glyph-name="Ebreve" unicode="&#x114;" horiz-adv-x="1152" d="M0 960 L0 2304 L192 2304 L192 2688 L384 2688 L384 2496 L576 2496 L576 2688 L768 2688 L768 2304 L960 2304 L960 2112 L192 2112 L192 1920 L576 1920 L576 1728 L192 1728 L192 1152 L960 1152 L960 960 L0 960 Z " />
<glyph glyph-name="ebreve" unicode="&#x115;" horiz-adv-x="1152" d="M192 960 L192 1152 L960 1152 L960 960 L192 960 Z M0 1152 L0 1728 L192 1728 L192 1536 L768 1536 L768 1728 L960 1728 L960 1344 L192 1344 L192 1152 L0 1152 Z M192 1728 L192 1920 L768 1920 L768 1728 L192 1728 Z M192 2112 L192 2496 L384 2496 L384 2304 L576 2304 L576 2496 L768 2496 L768 2112 L192 2112 Z " />
<glyph glyph-name="Edot" unicode="&#x116;" horiz-adv-x="1152" d="M0 960 L0 2304 L960 2304 L960 2112 L192 2112 L192 1920 L576 1920 L576 1728 L192 1728 L192 1152 L960 1152 L960 960 L0 960 Z M384 2496 L384 2688 L576 2688 L576 2496 L384 2496 Z " />
<glyph glyph-name="edot" unicode="&#x117;" horiz-adv-x="1152" d="M192 960 L192 1152 L960 1152 L960 960 L192 960 Z M0 1152 L0 1728 L192 1728 L192 1536 L768 1536 L768 1728 L960 1728 L960 1344 L192 1344 L192 1152 L0 1152 Z M192 1728 L192 1920 L768 1920 L768 1728 L192 1728 Z M384 2112 L384 2304 L576 2304 L576 2112 L384 2112 Z " />
<glyph glyph-name="Eogonek" unicode="&#x118;" horiz-adv-x="1152" d="M576 576 L576 960 L0 960 L0 2304 L960 2304 L960 2112 L192 2112 L192 1920 L576 1920 L576 1728 L192 1728 L192 1152 L960 1152 L960 960 L768 960 L768 768 L960 768 L960 576 L576 576 Z " />
<glyph glyph-name="eogonek" unicode="&#x119;" horiz-adv-x="1152" d="M576 576 L576 960 L192 960 L192 1152 L960 1152 L960 960 L768 960 L768 768 L960 768 L960 576 L576 576 Z M0 1152 L0 1728 L192 1728 L192 1536 L768 1536 L768 1728 L960 1728 L960 1344 L192 1344 L192 1152 L0 1152 Z M192 1728 L192 1920 L768 1920 L768 1728 L192 1728 Z " />
<glyph glyph-name="Ecaron" unicode="&#x11a;" horiz-adv-x="1152" d="M0 960 L0 2304 L384 2304 L384 2496 L576 2496 L576 2304 L960 2304 L960 2112 L192 2112 L192 1920 L576 1920 L576 1728 L192 1728 L192 1152 L960 1152 L960 960 L0 960 Z M192 2496 L192 2688 L384 2688 L384 2496 L192 2496 Z M576 2496 L576 2688 L768 2688 L768 2496 L576 2496 Z " />
<glyph glyph-name="ecaron" unicode="&#x11b;" horiz-adv-x="1152" d="M192 960 L192 1152 L960 1152 L960 960 L192 960 Z M0 1152 L0 1728 L192 1728 L192 1536 L768 1536 L768 1728 L960 1728 L960 1344 L192 1344 L192 1152 L0 1152 Z M192 1728 L192 1920 L768 1920 L768 1728 L192 1728 Z M384 2112 L384 2304 L576 2304 L576 2112 L384 2112 Z M192 2304 L192 2496 L384 2496 L384 2304 L192 2304 Z M576 2304 L576 2496 L768 2496 L768 2304 L576 2304 Z " />
<glyph glyph-name="Gcircumflex" unicode="&#x11c;" horiz-adv-x="1152" d="M192 960 L192 1152 L768 1152 L768 960 L192 960 Z M768 1152 L768 1728 L576 1728 L576 1920 L960 1920 L960 1152 L768 1152 Z M0 1152 L0 2112 L192 2112 L192 1152 L0 1152 Z M192 2112 L192 2496 L384 2496 L384 2304 L576 2304 L576 2496 L768 2496 L768 2304 L960 2304 L960 2112 L192 2112 Z M384 2496 L384 2688 L576 2688 L576 2496 L384 2496 Z " />
<glyph glyph-name="gcircumflex" unicode="&#x11d;" horiz-adv-x="1152" d="M0 768 L0 960 L768 960 L768 768 L0 768 Z M0 1344 L0 1728 L192 1728 L192 1344 L0 1344 Z M768 960 L768 1152 L192 1152 L192 1344 L768 1344 L768 1728 L192 1728 L192 1920 L960 1920 L960 960 L768 960 Z M192 2112 L192 2304 L384 2304 L384 2112 L192 2112 Z M576 2112 L576 2304 L768 2304 L768 2112 L576 2112 Z M384 2304 L384 2496 L576 2496 L576 2304 L384 2304 Z " />
<glyph glyph-name="Gbreve" unicode="&#x11e;" horiz-adv-x="1152" d="M192 960 L192 1152 L768 1152 L768 960 L192 960 Z M768 1152 L768 1728 L576 1728 L576 1920 L960 1920 L960 1152 L768 1152 Z M0 1152 L0 2112 L192 2112 L192 1152 L0 1152 Z M192 2112 L192 2688 L384 2688 L384 2496 L576 2496 L576 2688 L768 2688 L768 2304 L960 2304 L960 2112 L192 2112 Z " />
<glyph glyph-name="gbreve" unicode="&#x11f;" horiz-adv-x="1152" d="M0 768 L0 960 L768 960 L768 768 L0 768 Z M0 1344 L0 1728 L192 1728 L192 1344 L0 1344 Z M768 960 L768 1152 L192 1152 L192 1344 L768 1344 L768 1728 L192 1728 L192 1920 L960 1920 L960 960 L768 960 Z M192 2112 L192 2496 L384 2496 L384 2304 L576 2304 L576 2496 L768 2496 L768 2112 L192 2112 Z " />
<glyph glyph-name="Gdot" unicode="&#x120;" horiz-adv-x="1152" d="M192 960 L192 1152 L768 1152 L768 960 L192 960 Z M768 1152 L768 1728 L576 1728 L576 1920 L960 1920 L960 1152 L768 1152 Z M0 1152 L0 2112 L192 2112 L192 1152 L0 1152 Z M192 2112 L192 2304 L960 2304 L960 2112 L192 2112 Z M384 2496 L384 2688 L576 2688 L576 2496 L384 2496 Z " />
<glyph glyph-name="gdot" unicode="&#x121;" horiz-adv-x="1152" d="M0 768 L0 960 L768 960 L768 768 L0 768 Z M0 1344 L0 1728 L192 1728 L192 1344 L0 1344 Z M768 960 L768 1152 L192 1152 L192 1344 L768 1344 L768 1728 L192 1728 L192 1920 L960 1920 L960 960 L768 960 Z M384 2112 L384 2304 L576 2304 L576 2112 L384 2112 Z " />
<glyph glyph-name="Gcedilla" unicode="&#x122;" horiz-adv-x="1152" d="M384 576 L384 960 L192 960 L192 1152 L768 1152 L768 960 L576 960 L576 576 L384 576 Z M768 1152 L768 1728 L576 1728 L576 1920 L960 1920 L960 1152 L768 1152 Z M0 1152 L0 2112 L192 2112 L192 1152 L0 1152 Z M192 2112 L192 2304 L960 2304 L960 2112 L192 2112 Z " />
<glyph glyph-name="gcedilla" unicode="&#x123;" horiz-adv-x="1152" d="M0 768 L0 960 L768 960 L768 768 L0 768 Z M0 1344 L0 1728 L192 1728 L192 1344 L0 1344 Z M768 960 L768 1152 L192 1152 L192 1344 L768 1344 L768 1728 L192 1728 L192 1920 L960 1920 L960 960 L768 960 Z M384 2112 L384 2496 L576 2496 L576 2112 L384 2112 Z " />
<glyph glyph-name="Hcircumflex" unicode="&#x124;" horiz-adv-x="1152" d="M0 960 L0 2304 L192 2304 L192 1920 L768 1920 L768 2304 L960 2304 L960 960 L768 960 L768 1728 L192 1728 L192 960 L0 960 Z M192 2304 L192 2496 L384 2496 L384 2304 L192 2304 Z M576 2304 L576 2496 L768 2496 L768 2304 L576 2304 Z M384 2496 L384 2688 L576 2688 L576 2496 L384 2496 Z " />
<glyph glyph-name="hcircumflex" unicode="&#x125;" horiz-adv-x="1152" d="M768 960 L768 1728 L960 1728 L960 960 L768 960 Z M384 1728 L384 1920 L768 1920 L768 1728 L384 1728 Z M0 960 L0 2304 L192 2304 L192 1728 L384 1728 L384 1536 L192 1536 L192 960 L0 960 Z M192 2304 L192 2496 L384 2496 L384 2304 L192 2304 Z M576 2304 L576 2496 L768 2496 L768 2304 L576 2304 Z M384 2496 L384 2688 L576 2688 L576 2496 L384 2496 Z " />
<glyph glyph-name="Hbar" unicode="&#x126;" horiz-adv-x="1152" d="M768 1920 L768 2112 L192 2112 L192 1920 L768 1920 Z M0 960 L0 2304 L960 2304 L960 960 L768 960 L768 1728 L192 1728 L192 960 L0 960 Z " />
<glyph glyph-name="hbar" unicode="&#x127;" horiz-adv-x="1344" d="M960 960 L960 1728 L1152 1728 L1152 960 L960 960 Z M576 1728 L576 1920 L960 1920 L960 1728 L576 1728 Z M192 960 L192 1920 L0 1920 L0 2112 L192 2112 L192 2304 L384 2304 L384 2112 L576 2112 L576 1920 L384 1920 L384 1728 L576 1728 L576 1536 L384 1536 L384 960 L192 960 Z " />
<glyph glyph-name="Itilde" unicode="&#x128;" horiz-adv-x="960" d="M-192 2304 L-192 2496 L0 2496 L0 2304 L-192 2304 Z M0 960 L0 1152 L192 1152 L192 2112 L0 2112 L0 2304 L192 2304 L192 2496 L0 2496 L0 2688 L384 2688 L384 2496 L576 2496 L576 2112 L384 2112 L384 1152 L576 1152 L576 960 L0 960 Z M576 2496 L576 2688 L768 2688 L768 2496 L576 2496 Z " />
<glyph glyph-name="itilde" unicode="&#x129;" horiz-adv-x="960" d="M192 960 L192 1920 L384 1920 L384 960 L192 960 Z M-192 2112 L-192 2304 L0 2304 L0 2112 L-192 2112 Z M192 2112 L192 2304 L0 2304 L0 2496 L384 2496 L384 2304 L576 2304 L576 2112 L192 2112 Z M576 2304 L576 2496 L768 2496 L768 2304 L576 2304 Z " />
<glyph glyph-name="Imacron" unicode="&#x12a;" horiz-adv-x="768" d="M0 960 L0 1152 L192 1152 L192 2112 L0 2112 L0 2304 L576 2304 L576 2112 L384 2112 L384 1152 L576 1152 L576 960 L0 960 Z M0 2496 L0 2688 L576 2688 L576 2496 L0 2496 Z " />
<glyph glyph-name="imacron" unicode="&#x12b;" horiz-adv-x="576" d="M0 960 L0 1920 L192 1920 L192 960 L0 960 Z M-192 2112 L-192 2304 L384 2304 L384 2112 L-192 2112 Z " />
<glyph glyph-name="Ibreve" unicode="&#x12c;" horiz-adv-x="768" d="M0 960 L0 1152 L192 1152 L192 2112 L0 2112 L0 2688 L192 2688 L192 2496 L384 2496 L384 2688 L576 2688 L576 2112 L384 2112 L384 1152 L576 1152 L576 960 L0 960 Z " />
<glyph glyph-name="ibreve" unicode="&#x12d;" horiz-adv-x="576" d="M0 960 L0 1920 L192 1920 L192 960 L0 960 Z M-192 2112 L-192 2496 L0 2496 L0 2304 L192 2304 L192 2496 L384 2496 L384 2112 L-192 2112 Z " />
<glyph glyph-name="Iogonek" unicode="&#x12e;" horiz-adv-x="768" d="M192 576 L192 960 L0 960 L0 1152 L192 1152 L192 2112 L0 2112 L0 2304 L576 2304 L576 2112 L384 2112 L384 1152 L576 1152 L576 960 L384 960 L384 768 L576 768 L576 576 L192 576 Z " />
<glyph glyph-name="iogonek" unicode="&#x12f;" horiz-adv-x="576" d="M0 576 L0 1920 L192 1920 L192 768 L384 768 L384 576 L0 576 Z M0 2112 L0 2304 L192 2304 L192 2112 L0 2112 Z " />
<glyph glyph-name="Idot" unicode="&#x130;" horiz-adv-x="768" d="M0 960 L0 1152 L192 1152 L192 2112 L0 2112 L0 2304 L576 2304 L576 2112 L384 2112 L384 1152 L576 1152 L576 960 L0 960 Z M192 2496 L192 2688 L384 2688 L384 2496 L192 2496 Z " />
<glyph glyph-name="dotlessi" unicode="&#x131;" horiz-adv-x="384" d="M0 960 L0 1920 L192 1920 L192 960 L0 960 Z " />
<glyph glyph-name="IJ" unicode="&#x132;" horiz-adv-x="1920" d="M960 960 L960 1152 L1536 1152 L1536 960 L960 960 Z M768 1152 L768 1344 L960 1344 L960 1152 L768 1152 Z M0 960 L0 1152 L192 1152 L192 2112 L0 2112 L0 2304 L576 2304 L576 2112 L384 2112 L384 1152 L576 1152 L576 960 L0 960 Z M1536 1152 L1536 2304 L1728 2304 L1728 1152 L1536 1152 Z " />
<glyph glyph-name="ij" unicode="&#x133;" horiz-adv-x="1536" d="M576 576 L576 768 L1152 768 L1152 576 L576 576 Z M384 768 L384 960 L576 960 L576 768 L384 768 Z M0 960 L0 1920 L192 1920 L192 960 L0 960 Z M1152 768 L1152 1920 L1344 1920 L1344 768 L1152 768 Z M0 2112 L0 2304 L192 2304 L192 2112 L0 2112 Z M1152 2112 L1152 2304 L1344 2304 L1344 2112 L1152 2112 Z " />
<glyph glyph-name="Jcircumflex" unicode="&#x134;" horiz-adv-x="1152" d="M192 960 L192 1152 L768 1152 L768 960 L192 960 Z M0 1152 L0 1344 L192 1344 L192 1152 L0 1152 Z M768 1152 L768 2304 L960 2304 L960 1152 L768 1152 Z M192 2304 L192 2496 L384 2496 L384 2304 L192 2304 Z M576 2304 L576 2496 L768 2496 L768 2304 L576 2304 Z M384 2496 L384 2688 L576 2688 L576 2496 L384 2496 Z " />
<glyph glyph-name="jcircumflex" unicode="&#x135;" horiz-adv-x="1344" d="M192 768 L192 960 L768 960 L768 768 L192 768 Z M0 960 L0 1152 L192 1152 L192 960 L0 960 Z M768 960 L768 1920 L960 1920 L960 960 L768 960 Z M576 2112 L576 2304 L768 2304 L768 2112 L576 2112 Z M960 2112 L960 2304 L1152 2304 L1152 2112 L960 2112 Z M768 2304 L768 2496 L960 2496 L960 2304 L768 2304 Z " />
<glyph glyph-name="Kcedilla" unicode="&#x136;" horiz-adv-x="1152" d="M384 576 L384 960 L576 960 L576 576 L384 576 Z M768 960 L768 1536 L960 1536 L960 960 L768 960 Z M576 1536 L576 1728 L768 1728 L768 1536 L576 1536 Z M576 1920 L576 2112 L768 2112 L768 1920 L576 1920 Z M0 960 L0 2304 L192 2304 L192 1920 L576 1920 L576 1728 L192 1728 L192 960 L0 960 Z M768 2112 L768 2304 L960 2304 L960 2112 L768 2112 Z " />
<glyph glyph-name="kcedilla" unicode="&#x137;" horiz-adv-x="960" d="M384 576 L384 960 L576 960 L576 576 L384 576 Z M576 960 L576 1152 L768 1152 L768 960 L576 960 Z M384 1152 L384 1344 L576 1344 L576 1152 L384 1152 Z M384 1536 L384 1728 L576 1728 L576 1536 L384 1536 Z M576 1728 L576 1920 L768 1920 L768 1728 L576 1728 Z M0 960 L0 2304 L192 2304 L192 1536 L384 1536 L384 1344 L192 1344 L192 960 L0 960 Z " />
<glyph glyph-name="kgreenlandic" unicode="&#x138;" horiz-adv-x="960" d="M576 960 L576 1152 L768 1152 L768 960 L576 960 Z M384 1152 L384 1344 L576 1344 L576 1152 L384 1152 Z M384 1536 L384 1728 L576 1728 L576 1536 L384 1536 Z M0 960 L0 1920 L192 1920 L192 1536 L384 1536 L384 1344 L192 1344 L192 960 L0 960 Z M576 1728 L576 1920 L768 1920 L768 1728 L576 1728 Z " />
<glyph glyph-name="Lacute" unicode="&#x139;" horiz-adv-x="1152" d="M0 960 L0 2304 L192 2304 L192 1152 L960 1152 L960 960 L0 960 Z M384 2304 L384 2496 L576 2496 L576 2304 L384 2304 Z M576 2496 L576 2688 L768 2688 L768 2496 L576 2496 Z " />
<glyph glyph-name="lacute" unicode="&#x13a;" horiz-adv-x="576" d="M192 960 L192 1152 L384 1152 L384 960 L192 960 Z M0 1152 L0 2496 L192 2496 L192 1152 L0 1152 Z M192 2496 L192 2688 L384 2688 L384 2496 L192 2496 Z " />
<glyph glyph-name="Lcedilla" unicode="&#x13b;" horiz-adv-x="1152" d="M384 576 L384 960 L0 960 L0 2304 L192 2304 L192 1152 L960 1152 L960 960 L576 960 L576 576 L384 576 Z " />
<glyph glyph-name="lcedilla" unicode="&#x13c;" horiz-adv-x="576" d="M0 576 L0 960 L192 960 L192 576 L0 576 Z M192 960 L192 1152 L384 1152 L384 960 L192 960 Z M0 1152 L0 2304 L192 2304 L192 1152 L0 1152 Z " />
<glyph glyph-name="Lcaron" unicode="&#x13d;" horiz-adv-x="1152" d="M0 960 L0 2304 L192 2304 L192 1152 L960 1152 L960 960 L0 960 Z M384 2112 L384 2496 L576 2496 L576 2112 L384 2112 Z " />
<glyph glyph-name="lcaron" unicode="&#x13e;" horiz-adv-x="768" d="M192 960 L192 1152 L384 1152 L384 960 L192 960 Z M0 1152 L0 2304 L192 2304 L192 1152 L0 1152 Z M384 2112 L384 2496 L576 2496 L576 2112 L384 2112 Z " />
<glyph glyph-name="Ldot" unicode="&#x13f;" horiz-adv-x="1152" d="M384 1536 L384 1728 L576 1728 L576 1536 L384 1536 Z M0 960 L0 2304 L192 2304 L192 1152 L960 1152 L960 960 L0 960 Z " />
<glyph glyph-name="ldot" unicode="&#x140;" horiz-adv-x="768" d="M192 960 L192 1152 L384 1152 L384 960 L192 960 Z M384 1536 L384 1728 L576 1728 L576 1536 L384 1536 Z M0 1152 L0 2304 L192 2304 L192 1152 L0 1152 Z " />
<glyph glyph-name="Lslash" unicode="&#x141;" horiz-adv-x="1344" d="M576 1728 L576 1920 L768 1920 L768 1728 L576 1728 Z M192 960 L192 1344 L0 1344 L0 1536 L192 1536 L192 2304 L384 2304 L384 1728 L576 1728 L576 1536 L384 1536 L384 1152 L1152 1152 L1152 960 L192 960 Z " />
<glyph glyph-name="lslash" unicode="&#x142;" horiz-adv-x="768" d="M384 960 L384 1152 L576 1152 L576 960 L384 960 Z M192 1152 L192 1344 L0 1344 L0 1536 L192 1536 L192 2304 L384 2304 L384 1920 L576 1920 L576 1728 L384 1728 L384 1152 L192 1152 Z " />
<glyph glyph-name="Nacute" unicode="&#x143;" horiz-adv-x="1152" d="M384 1728 L384 1920 L576 1920 L576 1728 L384 1728 Z M0 960 L0 2304 L192 2304 L192 2112 L384 2112 L384 1920 L192 1920 L192 960 L0 960 Z M768 960 L768 1536 L576 1536 L576 1728 L768 1728 L768 2304 L960 2304 L960 960 L768 960 Z M384 2304 L384 2496 L576 2496 L576 2304 L384 2304 Z M576 2496 L576 2688 L768 2688 L768 2496 L576 2496 Z " />
<glyph glyph-name="nacute" unicode="&#x144;" horiz-adv-x="1152" d="M768 960 L768 1728 L960 1728 L960 960 L768 960 Z M0 960 L0 1920 L768 1920 L768 1728 L192 1728 L192 960 L0 960 Z M384 2112 L384 2304 L576 2304 L576 2112 L384 2112 Z M576 2304 L576 2496 L768 2496 L768 2304 L576 2304 Z " />
<glyph glyph-name="Ncedilla" unicode="&#x145;" horiz-adv-x="1152" d="M384 576 L384 960 L576 960 L576 576 L384 576 Z M384 1728 L384 1920 L576 1920 L576 1728 L384 1728 Z M0 960 L0 2304 L192 2304 L192 2112 L384 2112 L384 1920 L192 1920 L192 960 L0 960 Z M768 960 L768 1536 L576 1536 L576 1728 L768 1728 L768 2304 L960 2304 L960 960 L768 960 Z " />
<glyph glyph-name="ncedilla" unicode="&#x146;" horiz-adv-x="1152" d="M384 576 L384 960 L576 960 L576 576 L384 576 Z M768 960 L768 1728 L960 1728 L960 960 L768 960 Z M0 960 L0 1920 L768 1920 L768 1728 L192 1728 L192 960 L0 960 Z " />
<glyph glyph-name="Ncaron" unicode="&#x147;" horiz-adv-x="1152" d="M384 1728 L384 1920 L576 1920 L576 1728 L384 1728 Z M0 960 L0 2304 L192 2304 L192 2112 L384 2112 L384 1920 L192 1920 L192 960 L0 960 Z M768 960 L768 1536 L576 1536 L576 1728 L768 1728 L768 2304 L960 2304 L960 960 L768 960 Z M384 2304 L384 2496 L576 2496 L576 2304 L384 2304 Z M192 2496 L192 2688 L384 2688 L384 2496 L192 2496 Z M576 2496 L576 2688 L768 2688 L768 2496 L576 2496 Z " />
<glyph glyph-name="ncaron" unicode="&#x148;" horiz-adv-x="1152" d="M768 960 L768 1728 L960 1728 L960 960 L768 960 Z M0 960 L0 1920 L768 1920 L768 1728 L192 1728 L192 960 L0 960 Z M384 2112 L384 2304 L576 2304 L576 2112 L384 2112 Z M192 2304 L192 2496 L384 2496 L384 2304 L192 2304 Z M576 2304 L576 2496 L768 2496 L768 2304 L576 2304 Z " />
<glyph glyph-name="napostrophe" unicode="&#x149;" horiz-adv-x="1536" d="M1152 960 L1152 1728 L1344 1728 L1344 960 L1152 960 Z M384 960 L384 1920 L1152 1920 L1152 1728 L576 1728 L576 960 L384 960 Z M0 1920 L0 2304 L192 2304 L192 1920 L0 1920 Z " />
<glyph glyph-name="Eng" unicode="&#x14a;" horiz-adv-x="1152" d="M384 768 L384 960 L768 960 L768 768 L384 768 Z M384 1728 L384 1920 L576 1920 L576 1728 L384 1728 Z M0 960 L0 2304 L192 2304 L192 2112 L384 2112 L384 1920 L192 1920 L192 960 L0 960 Z M768 960 L768 1536 L576 1536 L576 1728 L768 1728 L768 2304 L960 2304 L960 960 L768 960 Z " />
<glyph glyph-name="eng" unicode="&#x14b;" horiz-adv-x="1152" d="M384 768 L384 960 L768 960 L768 768 L384 768 Z M768 960 L768 1728 L960 1728 L960 960 L768 960 Z M0 960 L0 1920 L768 1920 L768 1728 L192 1728 L192 960 L0 960 Z " />
<glyph glyph-name="Omacron" unicode="&#x14c;" horiz-adv-x="1152" d="M192 960 L192 1152 L768 1152 L768 960 L192 960 Z M0 1152 L0 2112 L192 2112 L192 1152 L0 1152 Z M768 1152 L768 2112 L960 2112 L960 1152 L768 1152 Z M192 2112 L192 2304 L768 2304 L768 2112 L192 2112 Z M192 2496 L192 2688 L768 2688 L768 2496 L192 2496 Z " />
<glyph glyph-name="omacron" unicode="&#x14d;" horiz-adv-x="1152" d="M192 960 L192 1152 L768 1152 L768 960 L192 960 Z M0 1152 L0 1728 L192 1728 L192 1152 L0 1152 Z M768 1152 L768 1728 L960 1728 L960 1152 L768 1152 Z M192 1728 L192 1920 L768 1920 L768 1728 L192 1728 Z M192 2112 L192 2304 L768 2304 L768 2112 L192 2112 Z " />
<glyph glyph-name="Obreve" unicode="&#x14e;" horiz-adv-x="1152" d="M192 960 L192 1152 L768 1152 L768 960 L192 960 Z M0 1152 L0 2112 L192 2112 L192 1152 L0 1152 Z M768 1152 L768 2112 L960 2112 L960 1152 L768 1152 Z M192 2112 L192 2688 L384 2688 L384 2496 L576 2496 L576 2688 L768 2688 L768 2112 L192 2112 Z " />
<glyph glyph-name="obreve" unicode="&#x14f;" horiz-adv-x="1152" d="M192 960 L192 1152 L768 1152 L768 960 L192 960 Z M0 1152 L0 1728 L192 1728 L192 1152 L0 1152 Z M768 1152 L768 1728 L960 1728 L960 1152 L768 1152 Z M192 1728 L192 1920 L768 1920 L768 1728 L192 1728 Z M192 2112 L192 2496 L384 2496 L384 2304 L576 2304 L576 2496 L768 2496 L768 2112 L192 2112 Z " />
<glyph glyph-name="Odblacute" unicode="&#x150;" horiz-adv-x="1152" d="M192 960 L192 1152 L768 1152 L768 960 L192 960 Z M0 1152 L0 2112 L192 2112 L192 1152 L0 1152 Z M768 1152 L768 2112 L960 2112 L960 1152 L768 1152 Z M192 2112 L192 2496 L384 2496 L384 2304 L576 2304 L576 2496 L768 2496 L768 2112 L192 2112 Z M384 2496 L384 2688 L576 2688 L576 2496 L384 2496 Z M768 2496 L768 2688 L960 2688 L960 2496 L768 2496 Z " />
<glyph glyph-name="odblacute" unicode="&#x151;" horiz-adv-x="1152" d="M192 960 L192 1152 L768 1152 L768 960 L192 960 Z M0 1152 L0 1728 L192 1728 L192 1152 L0 1152 Z M768 1152 L768 1728 L960 1728 L960 1152 L768 1152 Z M192 1728 L192 1920 L768 1920 L768 1728 L192 1728 Z M192 2112 L192 2304 L384 2304 L384 2112 L192 2112 Z M576 2112 L576 2304 L768 2304 L768 2112 L576 2112 Z M384 2304 L384 2496 L576 2496 L576 2304 L384 2304 Z M768 2304 L768 2496 L960 2496 L960 2304 L768 2304 Z " />
<glyph glyph-name="OE" unicode="&#x152;" horiz-adv-x="1920" d="M0 1152 L0 2112 L192 2112 L192 1152 L0 1152 Z M192 960 L192 1152 L768 1152 L768 2112 L192 2112 L192 2304 L1728 2304 L1728 2112 L960 2112 L960 1920 L1344 1920 L1344 1728 L960 1728 L960 1152 L1728 1152 L1728 960 L192 960 Z " />
<glyph glyph-name="oe" unicode="&#x153;" horiz-adv-x="1920" d="M192 960 L192 1152 L768 1152 L768 960 L192 960 Z M960 960 L960 1152 L1728 1152 L1728 960 L960 960 Z M0 1152 L0 1728 L192 1728 L192 1152 L0 1152 Z M768 1152 L768 1728 L960 1728 L960 1536 L1536 1536 L1536 1728 L1728 1728 L1728 1344 L960 1344 L960 1152 L768 1152 Z M192 1728 L192 1920 L768 1920 L768 1728 L192 1728 Z M960 1728 L960 1920 L1536 1920 L1536 1728 L960 1728 Z " />
<glyph glyph-name="Racute" unicode="&#x154;" horiz-adv-x="1152" d="M768 960 L768 1728 L960 1728 L960 960 L768 960 Z M768 1920 L768 2112 L960 2112 L960 1920 L768 1920 Z M0 960 L0 2304 L384 2304 L384 2496 L576 2496 L576 2304 L768 2304 L768 2112 L192 2112 L192 1920 L768 1920 L768 1728 L192 1728 L192 960 L0 960 Z M576 2496 L576 2688 L768 2688 L768 2496 L576 2496 Z " />
<glyph glyph-name="racute" unicode="&#x155;" horiz-adv-x="1152" d="M768 1536 L768 1728 L960 1728 L960 1536 L768 1536 Z M0 960 L0 1920 L192 1920 L192 1728 L384 1728 L384 1536 L192 1536 L192 960 L0 960 Z M384 1728 L384 1920 L768 1920 L768 1728 L384 1728 Z M384 2112 L384 2304 L576 2304 L576 2112 L384 2112 Z M576 2304 L576 2496 L768 2496 L768 2304 L576 2304 Z " />
<glyph glyph-name="Rcedilla" unicode="&#x156;" horiz-adv-x="1152" d="M384 576 L384 960 L576 960 L576 576 L384 576 Z M768 960 L768 1728 L960 1728 L960 960 L768 960 Z M768 1920 L768 2112 L960 2112 L960 1920 L768 1920 Z M0 960 L0 2304 L768 2304 L768 2112 L192 2112 L192 1920 L768 1920 L768 1728 L192 1728 L192 960 L0 960 Z " />
<glyph glyph-name="rcedilla" unicode="&#x157;" horiz-adv-x="1152" d="M384 576 L384 960 L576 960 L576 576 L384 576 Z M768 1536 L768 1728 L960 1728 L960 1536 L768 1536 Z M0 960 L0 1920 L192 1920 L192 1728 L384 1728 L384 1536 L192 1536 L192 960 L0 960 Z M384 1728 L384 1920 L768 1920 L768 1728 L384 1728 Z " />
<glyph glyph-name="Rcaron" unicode="&#x158;" horiz-adv-x="1152" d="M768 960 L768 1728 L960 1728 L960 960 L768 960 Z M768 1920 L768 2112 L960 2112 L960 1920 L768 1920 Z M0 960 L0 2304 L384 2304 L384 2496 L576 2496 L576 2304 L768 2304 L768 2112 L192 2112 L192 1920 L768 1920 L768 1728 L192 1728 L192 960 L0 960 Z M192 2496 L192 2688 L384 2688 L384 2496 L192 2496 Z M576 2496 L576 2688 L768 2688 L768 2496 L576 2496 Z " />
<glyph glyph-name="rcaron" unicode="&#x159;" horiz-adv-x="1152" d="M768 1536 L768 1728 L960 1728 L960 1536 L768 1536 Z M0 960 L0 1920 L192 1920 L192 1728 L384 1728 L384 1536 L192 1536 L192 960 L0 960 Z M384 1728 L384 1920 L768 1920 L768 1728 L384 1728 Z M384 2112 L384 2304 L576 2304 L576 2112 L384 2112 Z M192 2304 L192 2496 L384 2496 L384 2304 L192 2304 Z M576 2304 L576 2496 L768 2496 L768 2304 L576 2304 Z " />
<glyph glyph-name="Sacute" unicode="&#x15a;" horiz-adv-x="1152" d="M192 960 L192 1152 L768 1152 L768 960 L192 960 Z M0 1152 L0 1344 L192 1344 L192 1152 L0 1152 Z M768 1152 L768 1728 L960 1728 L960 1152 L768 1152 Z M192 1728 L192 1920 L768 1920 L768 1728 L192 1728 Z M0 1920 L0 2112 L192 2112 L192 1920 L0 1920 Z M192 2112 L192 2304 L384 2304 L384 2496 L576 2496 L576 2304 L960 2304 L960 2112 L192 2112 Z M576 2496 L576 2688 L768 2688 L768 2496 L576 2496 Z " />
<glyph glyph-name="sacute" unicode="&#x15b;" horiz-adv-x="1152" d="M0 960 L0 1152 L768 1152 L768 960 L0 960 Z M768 1152 L768 1344 L960 1344 L960 1152 L768 1152 Z M192 1344 L192 1536 L768 1536 L768 1344 L192 1344 Z M0 1536 L0 1728 L192 1728 L192 1536 L0 1536 Z M192 1728 L192 1920 L960 1920 L960 1728 L192 1728 Z M384 2112 L384 2304 L576 2304 L576 2112 L384 2112 Z M576 2304 L576 2496 L768 2496 L768 2304 L576 2304 Z " />
<glyph glyph-name="Scircumflex" unicode="&#x15c;" horiz-adv-x="1152" d="M192 960 L192 1152 L768 1152 L768 960 L192 960 Z M0 1152 L0 1344 L192 1344 L192 1152 L0 1152 Z M768 1152 L768 1728 L960 1728 L960 1152 L768 1152 Z M192 1728 L192 1920 L768 1920 L768 1728 L192 1728 Z M0 1920 L0 2112 L192 2112 L192 1920 L0 1920 Z M192 2112 L192 2496 L384 2496 L384 2304 L576 2304 L576 2496 L768 2496 L768 2304 L960 2304 L960 2112 L192 2112 Z M384 2496 L384 2688 L576 2688 L576 2496 L384 2496 Z " />
<glyph glyph-name="scircumflex" unicode="&#x15d;" horiz-adv-x="1152" d="M0 960 L0 1152 L768 1152 L768 960 L0 960 Z M768 1152 L768 1344 L960 1344 L960 1152 L768 1152 Z M192 1344 L192 1536 L768 1536 L768 1344 L192 1344 Z M0 1536 L0 1728 L192 1728 L192 1536 L0 1536 Z M192 1728 L192 1920 L960 1920 L960 1728 L192 1728 Z M192 2112 L192 2304 L384 2304 L384 2112 L192 2112 Z M576 2112 L576 2304 L768 2304 L768 2112 L576 2112 Z M384 2304 L384 2496 L576 2496 L576 2304 L384 2304 Z " />
<glyph glyph-name="Scedilla" unicode="&#x15e;" horiz-adv-x="1152" d="M192 576 L192 768 L384 768 L384 960 L192 960 L192 1152 L768 1152 L768 960 L576 960 L576 576 L192 576 Z M0 1152 L0 1344 L192 1344 L192 1152 L0 1152 Z M768 1152 L768 1728 L960 1728 L960 1152 L768 1152 Z M192 1728 L192 1920 L768 1920 L768 1728 L192 1728 Z M0 1920 L0 2112 L192 2112 L192 1920 L0 1920 Z M192 2112 L192 2304 L960 2304 L960 2112 L192 2112 Z " />
<glyph glyph-name="scedilla" unicode="&#x15f;" horiz-adv-x="1152" d="M192 576 L192 768 L384 768 L384 960 L0 960 L0 1152 L768 1152 L768 960 L576 960 L576 576 L192 576 Z M768 1152 L768 1344 L960 1344 L960 1152 L768 1152 Z M192 1344 L192 1536 L768 1536 L768 1344 L192 1344 Z M0 1536 L0 1728 L192 1728 L192 1536 L0 1536 Z M192 1728 L192 1920 L960 1920 L960 1728 L192 1728 Z " />
<glyph glyph-name="Scaron" unicode="&#x160;" horiz-adv-x="1152" d="M192 960 L192 1152 L768 1152 L768 960 L192 960 Z M0 1152 L0 1344 L192 1344 L192 1152 L0 1152 Z M768 1152 L768 1728 L960 1728 L960 1152 L768 1152 Z M192 1728 L192 1920 L768 1920 L768 1728 L192 1728 Z M0 1920 L0 2112 L192 2112 L192 1920 L0 1920 Z M192 2112 L192 2304 L384 2304 L384 2496 L576 2496 L576 2304 L960 2304 L960 2112 L192 2112 Z M192 2496 L192 2688 L384 2688 L384 2496 L192 2496 Z M576 2496 L576 2688 L768 2688 L768 2496 L576 2496 Z " />
<glyph glyph-name="scaron" unicode="&#x161;" horiz-adv-x="1152" d="M0 960 L0 1152 L768 1152 L768 960 L0 960 Z M768 1152 L768 1344 L960 1344 L960 1152 L768 1152 Z M192 1344 L192 1536 L768 1536 L768 1344 L192 1344 Z M0 1536 L0 1728 L192 1728 L192 1536 L0 1536 Z M192 1728 L192 1920 L960 1920 L960 1728 L192 1728 Z M384 2112 L384 2304 L576 2304 L576 2112 L384 2112 Z M192 2304 L192 2496 L384 2496 L384 2304 L192 2304 Z M576 2304 L576 2496 L768 2496 L768 2304 L576 2304 Z " />
<glyph glyph-name="Tcedilla" unicode="&#x162;" horiz-adv-x="1152" d="M384 576 L384 768 L576 768 L576 960 L768 960 L768 576 L384 576 Z M384 960 L384 2112 L0 2112 L0 2304 L960 2304 L960 2112 L576 2112 L576 960 L384 960 Z " />
<glyph glyph-name="tcedilla" unicode="&#x163;" horiz-adv-x="768" d="M192 576 L192 768 L384 768 L384 1152 L576 1152 L576 576 L192 576 Z M192 1152 L192 1920 L0 1920 L0 2112 L192 2112 L192 2304 L384 2304 L384 2112 L576 2112 L576 1920 L384 1920 L384 1152 L192 1152 Z " />
<glyph glyph-name="Tcaron" unicode="&#x164;" horiz-adv-x="1152" d="M384 960 L384 2112 L0 2112 L0 2304 L384 2304 L384 2496 L576 2496 L576 2304 L960 2304 L960 2112 L576 2112 L576 960 L384 960 Z M192 2496 L192 2688 L384 2688 L384 2496 L192 2496 Z M576 2496 L576 2688 L768 2688 L768 2496 L576 2496 Z " />
<glyph glyph-name="tcaron" unicode="&#x165;" horiz-adv-x="1152" d="M384 960 L384 1152 L576 1152 L576 960 L384 960 Z M192 1152 L192 1920 L0 1920 L0 2112 L192 2112 L192 2304 L384 2304 L384 2112 L576 2112 L576 1920 L384 1920 L384 1152 L192 1152 Z M768 2112 L768 2496 L960 2496 L960 2112 L768 2112 Z " />
<glyph glyph-name="Tbar" unicode="&#x166;" horiz-adv-x="1152" d="M384 960 L384 1536 L192 1536 L192 1728 L384 1728 L384 2112 L0 2112 L0 2304 L960 2304 L960 2112 L576 2112 L576 1728 L768 1728 L768 1536 L576 1536 L576 960 L384 960 Z " />
<glyph glyph-name="tbar" unicode="&#x167;" horiz-adv-x="768" d="M384 960 L384 1152 L576 1152 L576 960 L384 960 Z M192 1152 L192 1536 L0 1536 L0 1728 L192 1728 L192 1920 L0 1920 L0 2112 L192 2112 L192 2304 L384 2304 L384 2112 L576 2112 L576 1920 L384 1920 L384 1728 L576 1728 L576 1536 L384 1536 L384 1152 L192 1152 Z " />
<glyph glyph-name="Utilde" unicode="&#x168;" horiz-adv-x="1152" d="M192 960 L192 1152 L768 1152 L768 960 L192 960 Z M768 1152 L768 2304 L960 2304 L960 1152 L768 1152 Z M0 1152 L0 2496 L192 2496 L192 1152 L0 1152 Z M384 2304 L384 2496 L192 2496 L192 2688 L576 2688 L576 2496 L768 2496 L768 2304 L384 2304 Z M768 2496 L768 2688 L960 2688 L960 2496 L768 2496 Z " />
<glyph glyph-name="utilde" unicode="&#x169;" horiz-adv-x="1152" d="M0 1152 L0 1920 L192 1920 L192 1152 L0 1152 Z M192 960 L192 1152 L768 1152 L768 1920 L960 1920 L960 960 L192 960 Z M0 2112 L0 2304 L192 2304 L192 2112 L0 2112 Z M384 2112 L384 2304 L192 2304 L192 2496 L576 2496 L576 2304 L768 2304 L768 2112 L384 2112 Z M768 2304 L768 2496 L960 2496 L960 2304 L768 2304 Z " />
<glyph glyph-name="Umacron" unicode="&#x16a;" horiz-adv-x="1152" d="M192 960 L192 1152 L768 1152 L768 960 L192 960 Z M0 1152 L0 2304 L192 2304 L192 1152 L0 1152 Z M768 1152 L768 2304 L960 2304 L960 1152 L768 1152 Z M192 2496 L192 2688 L768 2688 L768 2496 L192 2496 Z " />
<glyph glyph-name="umacron" unicode="&#x16b;" horiz-adv-x="1152" d="M0 1152 L0 1920 L192 1920 L192 1152 L0 1152 Z M192 960 L192 1152 L768 1152 L768 1920 L960 1920 L960 960 L192 960 Z M192 2112 L192 2304 L768 2304 L768 2112 L192 2112 Z " />
<glyph glyph-name="Ubreve" unicode="&#x16c;" horiz-adv-x="1152" d="M192 960 L192 1152 L768 1152 L768 960 L192 960 Z M0 1152 L0 2304 L192 2304 L192 1152 L0 1152 Z M768 1152 L768 2304 L960 2304 L960 1152 L768 1152 Z M192 2304 L192 2688 L384 2688 L384 2496 L576 2496 L576 2688 L768 2688 L768 2304 L192 2304 Z " />
<glyph glyph-name="ubreve" unicode="&#x16d;" horiz-adv-x="1152" d="M0 1152 L0 1920 L192 1920 L192 1152 L0 1152 Z M192 960 L192 1152 L768 1152 L768 1920 L960 1920 L960 960 L192 960 Z M192 2112 L192 2496 L384 2496 L384 2304 L576 2304 L576 2496 L768 2496 L768 2112 L192 2112 Z " />
<glyph glyph-name="Uring" unicode="&#x16e;" horiz-adv-x="1152" d="M192 960 L192 1152 L768 1152 L768 960 L192 960 Z M576 2304 L576 2496 L384 2496 L384 2304 L576 2304 Z M0 1152 L0 2304 L192 2304 L192 2688 L768 2688 L768 2304 L960 2304 L960 1152 L768 1152 L768 2112 L192 2112 L192 1152 L0 1152 Z " />
<glyph glyph-name="uring" unicode="&#x16f;" horiz-adv-x="1152" d="M0 1152 L0 1920 L192 1920 L192 1152 L0 1152 Z M192 960 L192 1152 L768 1152 L768 1920 L960 1920 L960 960 L192 960 Z M576 2304 L576 2496 L384 2496 L384 2304 L576 2304 Z M192 2112 L192 2688 L768 2688 L768 2112 L192 2112 Z " />
<glyph glyph-name="Udblacute" unicode="&#x170;" horiz-adv-x="1152" d="M192 960 L192 1152 L768 1152 L768 960 L192 960 Z M0 1152 L0 2304 L192 2304 L192 1152 L0 1152 Z M768 1152 L768 2304 L960 2304 L960 1152 L768 1152 Z M192 2304 L192 2496 L384 2496 L384 2304 L192 2304 Z M576 2304 L576 2496 L768 2496 L768 2304 L576 2304 Z M384 2496 L384 2688 L576 2688 L576 2496 L384 2496 Z M768 2496 L768 2688 L960 2688 L960 2496 L768 2496 Z " />
<glyph glyph-name="udblacute" unicode="&#x171;" horiz-adv-x="1152" d="M0 1152 L0 1920 L192 1920 L192 1152 L0 1152 Z M192 960 L192 1152 L768 1152 L768 1920 L960 1920 L960 960 L192 960 Z M192 2112 L192 2304 L384 2304 L384 2112 L192 2112 Z M576 2112 L576 2304 L768 2304 L768 2112 L576 2112 Z M384 2304 L384 2496 L576 2496 L576 2304 L384 2304 Z M768 2304 L768 2496 L960 2496 L960 2304 L768 2304 Z " />
<glyph glyph-name="Uogonek" unicode="&#x172;" horiz-adv-x="1152" d="M384 576 L384 960 L192 960 L192 1152 L768 1152 L768 960 L576 960 L576 768 L768 768 L768 576 L384 576 Z M0 1152 L0 2304 L192 2304 L192 1152 L0 1152 Z M768 1152 L768 2304 L960 2304 L960 1152 L768 1152 Z " />
<glyph glyph-name="uogonek" unicode="&#x173;" horiz-adv-x="1152" d="M0 1152 L0 1920 L192 1920 L192 1152 L0 1152 Z M576 576 L576 960 L192 960 L192 1152 L768 1152 L768 1920 L960 1920 L960 960 L768 960 L768 768 L960 768 L960 576 L576 576 Z " />
<glyph glyph-name="Wcircumflex" unicode="&#x174;" horiz-adv-x="1152" d="M384 1344 L384 1536 L576 1536 L576 1344 L384 1344 Z M0 960 L0 2304 L192 2304 L192 1344 L384 1344 L384 1152 L192 1152 L192 960 L0 960 Z M768 960 L768 1152 L576 1152 L576 1344 L768 1344 L768 2304 L960 2304 L960 960 L768 960 Z M192 2304 L192 2496 L384 2496 L384 2304 L192 2304 Z M576 2304 L576 2496 L768 2496 L768 2304 L576 2304 Z M384 2496 L384 2688 L576 2688 L576 2496 L384 2496 Z " />
<glyph glyph-name="wcircumflex" unicode="&#x175;" horiz-adv-x="1152" d="M0 1152 L0 1920 L192 1920 L192 1152 L0 1152 Z M192 960 L192 1152 L384 1152 L384 1536 L576 1536 L576 1152 L768 1152 L768 1920 L960 1920 L960 960 L192 960 Z M192 2112 L192 2304 L384 2304 L384 2112 L192 2112 Z M576 2112 L576 2304 L768 2304 L768 2112 L576 2112 Z M384 2304 L384 2496 L576 2496 L576 2304 L384 2304 Z " />
<glyph glyph-name="Ycircumflex" unicode="&#x176;" horiz-adv-x="1152" d="M384 960 L384 1920 L576 1920 L576 960 L384 960 Z M192 1920 L192 2112 L384 2112 L384 1920 L192 1920 Z M576 1920 L576 2112 L768 2112 L768 1920 L576 1920 Z M0 2112 L0 2304 L192 2304 L192 2112 L0 2112 Z M768 2112 L768 2304 L960 2304 L960 2112 L768 2112 Z M192 2304 L192 2496 L384 2496 L384 2304 L192 2304 Z M576 2304 L576 2496 L768 2496 L768 2304 L576 2304 Z M384 2496 L384 2688 L576 2688 L576 2496 L384 2496 Z " />
<glyph glyph-name="ycircumflex" unicode="&#x177;" horiz-adv-x="1152" d="M0 768 L0 960 L768 960 L768 768 L0 768 Z M0 1344 L0 1920 L192 1920 L192 1344 L0 1344 Z M768 960 L768 1152 L192 1152 L192 1344 L768 1344 L768 1920 L960 1920 L960 960 L768 960 Z M192 2112 L192 2304 L384 2304 L384 2112 L192 2112 Z M576 2112 L576 2304 L768 2304 L768 2112 L576 2112 Z M384 2304 L384 2496 L576 2496 L576 2304 L384 2304 Z " />
<glyph glyph-name="Ydieresis" unicode="&#x178;" horiz-adv-x="1152" d="M384 960 L384 1920 L576 1920 L576 960 L384 960 Z M192 1920 L192 2112 L384 2112 L384 1920 L192 1920 Z M576 1920 L576 2112 L768 2112 L768 1920 L576 1920 Z M0 2112 L0 2304 L192 2304 L192 2112 L0 2112 Z M768 2112 L768 2304 L960 2304 L960 2112 L768 2112 Z M192 2496 L192 2688 L384 2688 L384 2496 L192 2496 Z M576 2496 L576 2688 L768 2688 L768 2496 L576 2496 Z " />
<glyph glyph-name="Zacute" unicode="&#x179;" horiz-adv-x="1152" d="M0 960 L0 1344 L192 1344 L192 1152 L960 1152 L960 960 L0 960 Z M192 1344 L192 1536 L384 1536 L384 1344 L192 1344 Z M384 1536 L384 1728 L576 1728 L576 1536 L384 1536 Z M576 1728 L576 1920 L768 1920 L768 1728 L576 1728 Z M768 1920 L768 2112 L0 2112 L0 2304 L384 2304 L384 2496 L576 2496 L576 2304 L960 2304 L960 1920 L768 1920 Z M576 2496 L576 2688 L768 2688 L768 2496 L576 2496 Z " />
<glyph glyph-name="zacute" unicode="&#x17a;" horiz-adv-x="1152" d="M0 960 L0 1152 L192 1152 L192 1344 L384 1344 L384 1152 L960 1152 L960 960 L0 960 Z M384 1344 L384 1536 L576 1536 L576 1344 L384 1344 Z M576 1536 L576 1728 L0 1728 L0 1920 L960 1920 L960 1728 L768 1728 L768 1536 L576 1536 Z M384 2112 L384 2304 L576 2304 L576 2112 L384 2112 Z M576 2304 L576 2496 L768 2496 L768 2304 L576 2304 Z " />
<glyph glyph-name="Zdot" unicode="&#x17b;" horiz-adv-x="1152" d="M0 960 L0 1344 L192 1344 L192 1152 L960 1152 L960 960 L0 960 Z M192 1344 L192 1536 L384 1536 L384 1344 L192 1344 Z M384 1536 L384 1728 L576 1728 L576 1536 L384 1536 Z M576 1728 L576 1920 L768 1920 L768 1728 L576 1728 Z M768 1920 L768 2112 L0 2112 L0 2304 L960 2304 L960 1920 L768 1920 Z M384 2496 L384 2688 L576 2688 L576 2496 L384 2496 Z " />
<glyph glyph-name="zdot" unicode="&#x17c;" horiz-adv-x="1152" d="M0 960 L0 1152 L192 1152 L192 1344 L384 1344 L384 1152 L960 1152 L960 960 L0 960 Z M384 1344 L384 1536 L576 1536 L576 1344 L384 1344 Z M576 1536 L576 1728 L0 1728 L0 1920 L960 1920 L960 1728 L768 1728 L768 1536 L576 1536 Z M384 2112 L384 2304 L576 2304 L576 2112 L384 2112 Z " />
<glyph glyph-name="Zcaron" unicode="&#x17d;" horiz-adv-x="1152" d="M0 960 L0 1344 L192 1344 L192 1152 L960 1152 L960 960 L0 960 Z M192 1344 L192 1536 L384 1536 L384 1344 L192 1344 Z M384 1536 L384 1728 L576 1728 L576 1536 L384 1536 Z M576 1728 L576 1920 L768 1920 L768 1728 L576 1728 Z M768 1920 L768 2112 L0 2112 L0 2304 L384 2304 L384 2496 L576 2496 L576 2304 L960 2304 L960 1920 L768 1920 Z M192 2496 L192 2688 L384 2688 L384 2496 L192 2496 Z M576 2496 L576 2688 L768 2688 L768 2496 L576 2496 Z " />
<glyph glyph-name="zcaron" unicode="&#x17e;" horiz-adv-x="1152" d="M0 960 L0 1152 L192 1152 L192 1344 L384 1344 L384 1152 L960 1152 L960 960 L0 960 Z M384 1344 L384 1536 L576 1536 L576 1344 L384 1344 Z M576 1536 L576 1728 L0 1728 L0 1920 L960 1920 L960 1728 L768 1728 L768 1536 L576 1536 Z M384 2112 L384 2304 L576 2304 L576 2112 L384 2112 Z M192 2304 L192 2496 L384 2496 L384 2304 L192 2304 Z M576 2304 L576 2496 L768 2496 L768 2304 L576 2304 Z " />
<glyph glyph-name="longs" unicode="&#x17f;" horiz-adv-x="960" d="M192 960 L192 1728 L0 1728 L0 1920 L192 1920 L192 2112 L384 2112 L384 960 L192 960 Z M384 2112 L384 2304 L768 2304 L768 2112 L384 2112 Z " />
<glyph glyph-name="Btopbar" unicode="&#x182;" horiz-adv-x="1152" d="M0 960 L0 2304 L960 2304 L960 2112 L192 2112 L192 1728 L768 1728 L768 1536 L192 1536 L192 1152 L768 1152 L768 1536 L960 1536 L960 960 L0 960 Z " />
<glyph glyph-name="btopbar" unicode="&#x183;" horiz-adv-x="960" d="M576 1152 L576 1536 L768 1536 L768 1152 L576 1152 Z M0 960 L0 2304 L768 2304 L768 2112 L192 2112 L192 1728 L576 1728 L576 1536 L192 1536 L192 1152 L576 1152 L576 960 L0 960 Z " />
<glyph glyph-name="Schwa" unicode="&#x18f;" horiz-adv-x="1152" d="M192 960 L192 1152 L768 1152 L768 960 L192 960 Z M0 1152 L0 1920 L768 1920 L768 2112 L960 2112 L960 1152 L768 1152 L768 1728 L192 1728 L192 1152 L0 1152 Z M192 2112 L192 2304 L768 2304 L768 2112 L192 2112 Z " />
<glyph glyph-name="florin" unicode="&#x192;" horiz-adv-x="1152" d="M0 768 L0 960 L384 960 L384 768 L0 768 Z M384 960 L384 1728 L192 1728 L192 1920 L384 1920 L384 2112 L576 2112 L576 1920 L960 1920 L960 1728 L576 1728 L576 960 L384 960 Z M576 2112 L576 2304 L960 2304 L960 2112 L576 2112 Z " />
<glyph glyph-name="Zstroke" unicode="&#x1b5;" horiz-adv-x="1152" d="M0 960 L0 1344 L192 1344 L192 1152 L960 1152 L960 960 L0 960 Z M192 1344 L192 1536 L0 1536 L0 1728 L576 1728 L576 1920 L768 1920 L768 1728 L960 1728 L960 1536 L384 1536 L384 1344 L192 1344 Z M768 1920 L768 2112 L0 2112 L0 2304 L960 2304 L960 1920 L768 1920 Z " />
<glyph glyph-name="zstroke" unicode="&#x1b6;" horiz-adv-x="1152" d="M0 960 L0 1152 L192 1152 L192 1344 L0 1344 L0 1536 L576 1536 L576 1728 L0 1728 L0 1920 L960 1920 L960 1728 L768 1728 L768 1536 L960 1536 L960 1344 L384 1344 L384 1152 L960 1152 L960 960 L0 960 Z " />
<glyph glyph-name="Ezh" unicode="&#x1b7;" horiz-adv-x="1152" d="M192 960 L192 1152 L768 1152 L768 960 L192 960 Z M0 1152 L0 1344 L192 1344 L192 1152 L0 1152 Z M768 1152 L768 1728 L960 1728 L960 1152 L768 1152 Z M384 1728 L384 1920 L576 1920 L576 2112 L0 2112 L0 2304 L960 2304 L960 2112 L768 2112 L768 1728 L384 1728 Z " />
<glyph glyph-name="Gstroke" unicode="&#x1e4;" horiz-adv-x="1344" d="M192 960 L192 1152 L768 1152 L768 960 L192 960 Z M768 1152 L768 1344 L384 1344 L384 1536 L768 1536 L768 1728 L576 1728 L576 1920 L960 1920 L960 1536 L1152 1536 L1152 1344 L960 1344 L960 1152 L768 1152 Z M0 1152 L0 2112 L192 2112 L192 1152 L0 1152 Z M192 2112 L192 2304 L960 2304 L960 2112 L192 2112 Z " />
<glyph glyph-name="gstroke" unicode="&#x1e5;" horiz-adv-x="1344" d="M192 768 L192 960 L768 960 L768 768 L192 768 Z M0 1344 L0 1728 L192 1728 L192 1344 L0 1344 Z M768 960 L768 1152 L192 1152 L192 1344 L768 1344 L768 1536 L384 1536 L384 1728 L192 1728 L192 1920 L960 1920 L960 1728 L1152 1728 L1152 1536 L960 1536 L960 960 L768 960 Z " />
<glyph glyph-name="Gcaron" unicode="&#x1e6;" horiz-adv-x="1152" d="M192 960 L192 1152 L768 1152 L768 960 L192 960 Z M768 1152 L768 1728 L576 1728 L576 1920 L960 1920 L960 1152 L768 1152 Z M0 1152 L0 2112 L192 2112 L192 1152 L0 1152 Z M192 2112 L192 2304 L384 2304 L384 2496 L576 2496 L576 2304 L960 2304 L960 2112 L192 2112 Z M192 2496 L192 2688 L384 2688 L384 2496 L192 2496 Z M576 2496 L576 2688 L768 2688 L768 2496 L576 2496 Z " />
<glyph glyph-name="gcaron" unicode="&#x1e7;" horiz-adv-x="1152" d="M0 768 L0 960 L768 960 L768 768 L0 768 Z M0 1344 L0 1728 L192 1728 L192 1344 L0 1344 Z M768 960 L768 1152 L192 1152 L192 1344 L768 1344 L768 1728 L192 1728 L192 1920 L960 1920 L960 960 L768 960 Z M384 2112 L384 2304 L576 2304 L576 2112 L384 2112 Z M192 2304 L192 2496 L384 2496 L384 2304 L192 2304 Z M576 2304 L576 2496 L768 2496 L768 2304 L576 2304 Z " />
<glyph glyph-name="Kcaron" unicode="&#x1e8;" horiz-adv-x="1152" d="M768 960 L768 1536 L960 1536 L960 960 L768 960 Z M576 1536 L576 1728 L768 1728 L768 1536 L576 1536 Z M576 1920 L576 2112 L768 2112 L768 1920 L576 1920 Z M0 960 L0 2304 L192 2304 L192 1920 L576 1920 L576 1728 L192 1728 L192 960 L0 960 Z M768 2112 L768 2304 L960 2304 L960 2112 L768 2112 Z M384 2304 L384 2496 L576 2496 L576 2304 L384 2304 Z M192 2496 L192 2688 L384 2688 L384 2496 L192 2496 Z M576 2496 L576 2688 L768 2688 L768 2496 L576 2496 Z " />
<glyph glyph-name="kcaron" unicode="&#x1e9;" horiz-adv-x="960" d="M576 960 L576 1152 L768 1152 L768 960 L576 960 Z M384 1152 L384 1344 L576 1344 L576 1152 L384 1152 Z M384 1536 L384 1728 L576 1728 L576 1536 L384 1536 Z M576 1728 L576 1920 L768 1920 L768 1728 L576 1728 Z M0 960 L0 2304 L192 2304 L192 1536 L384 1536 L384 1344 L192 1344 L192 960 L0 960 Z M384 2304 L384 2496 L576 2496 L576 2304 L384 2304 Z M192 2496 L192 2688 L384 2688 L384 2496 L192 2496 Z M576 2496 L576 2688 L768 2688 L768 2496 L576 2496 Z " />
<glyph glyph-name="Oogonek" unicode="&#x1ea;" horiz-adv-x="1152" d="M384 576 L384 960 L192 960 L192 1152 L768 1152 L768 960 L576 960 L576 768 L768 768 L768 576 L384 576 Z M0 1152 L0 2112 L192 2112 L192 1152 L0 1152 Z M768 1152 L768 2112 L960 2112 L960 1152 L768 1152 Z M192 2112 L192 2304 L768 2304 L768 2112 L192 2112 Z " />
<glyph glyph-name="oogonek" unicode="&#x1eb;" horiz-adv-x="1152" d="M384 576 L384 960 L192 960 L192 1152 L768 1152 L768 960 L576 960 L576 768 L768 768 L768 576 L384 576 Z M0 1152 L0 1728 L192 1728 L192 1152 L0 1152 Z M768 1152 L768 1728 L960 1728 L960 1152 L768 1152 Z M192 1728 L192 1920 L768 1920 L768 1728 L192 1728 Z " />
<glyph glyph-name="Ezhcaron" unicode="&#x1ee;" horiz-adv-x="1152" d="M192 960 L192 1152 L768 1152 L768 960 L192 960 Z M0 1152 L0 1344 L192 1344 L192 1152 L0 1152 Z M768 1152 L768 1728 L960 1728 L960 1152 L768 1152 Z M384 1728 L384 1920 L576 1920 L576 2112 L0 2112 L0 2304 L384 2304 L384 2496 L576 2496 L576 2304 L960 2304 L960 2112 L768 2112 L768 1728 L384 1728 Z M192 2496 L192 2688 L384 2688 L384 2496 L192 2496 Z M576 2496 L576 2688 L768 2688 L768 2496 L576 2496 Z " />
<glyph glyph-name="ezhcaron" unicode="&#x1ef;" horiz-adv-x="1152" d="M0 768 L0 960 L768 960 L768 768 L0 768 Z M768 960 L768 1344 L960 1344 L960 960 L768 960 Z M384 1344 L384 1536 L576 1536 L576 1728 L0 1728 L0 1920 L960 1920 L960 1728 L768 1728 L768 1344 L384 1344 Z M384 2112 L384 2304 L576 2304 L576 2112 L384 2112 Z M192 2304 L192 2496 L384 2496 L384 2304 L192 2304 Z M576 2304 L576 2496 L768 2496 L768 2304 L576 2304 Z " />
<glyph glyph-name="Aringacute" unicode="&#x1fa;" horiz-adv-x="1152" d="M384 2304 L384 2496 L192 2496 L192 2304 L384 2304 Z M0 960 L0 2688 L576 2688 L576 2496 L768 2496 L768 2112 L192 2112 L192 1920 L768 1920 L768 2112 L960 2112 L960 960 L768 960 L768 1728 L192 1728 L192 960 L0 960 Z M768 2496 L768 2688 L960 2688 L960 2496 L768 2496 Z " />
<glyph glyph-name="aringacute" unicode="&#x1fb;" horiz-adv-x="1152" d="M0 1152 L0 1344 L192 1344 L192 1152 L0 1152 Z M192 960 L192 1152 L768 1152 L768 1344 L192 1344 L192 1536 L768 1536 L768 1728 L960 1728 L960 960 L192 960 Z M576 1920 L576 2112 L384 2112 L384 1920 L576 1920 Z M192 1728 L192 2304 L384 2304 L384 2496 L576 2496 L576 2304 L768 2304 L768 1728 L192 1728 Z M576 2496 L576 2688 L768 2688 L768 2496 L576 2496 Z " />
<glyph glyph-name="AEacute" unicode="&#x1fc;" horiz-adv-x="1920" d="M0 960 L0 2112 L192 2112 L192 1920 L768 1920 L768 2112 L192 2112 L192 2304 L768 2304 L768 2496 L960 2496 L960 2304 L1728 2304 L1728 2112 L960 2112 L960 1920 L1344 1920 L1344 1728 L960 1728 L960 1152 L1728 1152 L1728 960 L768 960 L768 1728 L192 1728 L192 960 L0 960 Z M960 2496 L960 2688 L1152 2688 L1152 2496 L960 2496 Z " />
<glyph glyph-name="aeacute" unicode="&#x1fd;" horiz-adv-x="1920" d="M192 960 L192 1152 L768 1152 L768 960 L192 960 Z M960 960 L960 1152 L1728 1152 L1728 960 L960 960 Z M0 1152 L0 1344 L192 1344 L192 1152 L0 1152 Z M768 1152 L768 1344 L192 1344 L192 1536 L768 1536 L768 1728 L960 1728 L960 1536 L1536 1536 L1536 1728 L1728 1728 L1728 1344 L960 1344 L960 1152 L768 1152 Z M192 1728 L192 1920 L768 1920 L768 1728 L192 1728 Z M960 1728 L960 1920 L1536 1920 L1536 1728 L960 1728 Z M768 2112 L768 2304 L960 2304 L960 2112 L768 2112 Z M960 2304 L960 2496 L1152 2496 L1152 2304 L960 2304 Z " />
<glyph glyph-name="Oslashacute" unicode="&#x1fe;" horiz-adv-x="1152" d="M0 960 L0 1152 L192 1152 L192 960 L0 960 Z M384 960 L384 1152 L768 1152 L768 960 L384 960 Z M192 1152 L192 1344 L384 1344 L384 1152 L192 1152 Z M384 1344 L384 1920 L576 1920 L576 1344 L384 1344 Z M768 1152 L768 1920 L960 1920 L960 1152 L768 1152 Z M0 1344 L0 2112 L192 2112 L192 1344 L0 1344 Z M576 1920 L576 2112 L768 2112 L768 1920 L576 1920 Z M768 2112 L768 2304 L960 2304 L960 2112 L768 2112 Z M192 2112 L192 2304 L384 2304 L384 2496 L576 2496 L576 2112 L192 2112 Z M576 2496 L576 2688 L768 2688 L768 2496 L576 2496 Z " />
<glyph glyph-name="oslashacute" unicode="&#x1ff;" horiz-adv-x="1152" d="M0 960 L0 1152 L192 1152 L192 960 L0 960 Z M384 960 L384 1152 L768 1152 L768 960 L384 960 Z M192 1152 L192 1344 L384 1344 L384 1152 L192 1152 Z M384 1344 L384 1536 L576 1536 L576 1344 L384 1344 Z M768 1152 L768 1536 L960 1536 L960 1152 L768 1152 Z M0 1344 L0 1728 L192 1728 L192 1344 L0 1344 Z M576 1536 L576 1728 L768 1728 L768 1536 L576 1536 Z M192 1728 L192 1920 L576 1920 L576 1728 L192 1728 Z M768 1728 L768 1920 L960 1920 L960 1728 L768 1728 Z M384 2112 L384 2304 L576 2304 L576 2112 L384 2112 Z M576 2304 L576 2496 L768 2496 L768 2304 L576 2304 Z " />
<glyph glyph-name="Scommaaccent" unicode="&#x218;" horiz-adv-x="1152" d="M384 576 L384 960 L192 960 L192 1152 L768 1152 L768 960 L576 960 L576 576 L384 576 Z M0 1152 L0 1344 L192 1344 L192 1152 L0 1152 Z M768 1152 L768 1728 L960 1728 L960 1152 L768 1152 Z M192 1728 L192 1920 L768 1920 L768 1728 L192 1728 Z M0 1920 L0 2112 L192 2112 L192 1920 L0 1920 Z M192 2112 L192 2304 L960 2304 L960 2112 L192 2112 Z " />
<glyph glyph-name="scommaaccent" unicode="&#x219;" horiz-adv-x="1152" d="M384 576 L384 960 L0 960 L0 1152 L768 1152 L768 960 L576 960 L576 576 L384 576 Z M768 1152 L768 1344 L960 1344 L960 1152 L768 1152 Z M192 1344 L192 1536 L768 1536 L768 1344 L192 1344 Z M0 1536 L0 1728 L192 1728 L192 1536 L0 1536 Z M192 1728 L192 1920 L960 1920 L960 1728 L192 1728 Z " />
<glyph glyph-name="Tcommabelow" unicode="&#x21a;" horiz-adv-x="1152" d="M576 576 L576 960 L768 960 L768 576 L576 576 Z M384 960 L384 2112 L0 2112 L0 2304 L960 2304 L960 2112 L576 2112 L576 960 L384 960 Z " />
<glyph glyph-name="tcommabelow" unicode="&#x21b;" horiz-adv-x="768" d="M192 576 L192 960 L384 960 L384 576 L192 576 Z M384 960 L384 1152 L576 1152 L576 960 L384 960 Z M192 1152 L192 1920 L0 1920 L0 2112 L192 2112 L192 2304 L384 2304 L384 2112 L576 2112 L576 1920 L384 1920 L384 1152 L192 1152 Z " />
<glyph glyph-name="dotlessj" unicode="&#x237;" horiz-adv-x="1152" d="M192 768 L192 960 L768 960 L768 768 L192 768 Z M0 960 L0 1152 L192 1152 L192 960 L0 960 Z M768 960 L768 1920 L960 1920 L960 960 L768 960 Z " />
<glyph glyph-name="schwa" unicode="&#x259;" horiz-adv-x="1152" d="M192 960 L192 1152 L768 1152 L768 960 L192 960 Z M0 1152 L0 1536 L768 1536 L768 1728 L960 1728 L960 1152 L768 1152 L768 1344 L192 1344 L192 1152 L0 1152 Z M0 1728 L0 1920 L768 1920 L768 1728 L0 1728 Z " />
<glyph glyph-name="ezh" unicode="&#x292;" horiz-adv-x="1152" d="M0 768 L0 960 L768 960 L768 768 L0 768 Z M768 960 L768 1344 L960 1344 L960 960 L768 960 Z M384 1344 L384 1536 L576 1536 L576 1728 L0 1728 L0 1920 L960 1920 L960 1728 L768 1728 L768 1344 L384 1344 Z " />
<glyph glyph-name="circumflex" unicode="&#x2c6;" horiz-adv-x="768" d="M0 2112 L0 2304 L192 2304 L192 2112 L0 2112 Z M384 2112 L384 2304 L576 2304 L576 2112 L384 2112 Z M192 2304 L192 2496 L384 2496 L384 2304 L192 2304 Z " />
<glyph glyph-name="caron" unicode="&#x2c7;" horiz-adv-x="768" d="M192 2112 L192 2304 L384 2304 L384 2112 L192 2112 Z M0 2304 L0 2496 L192 2496 L192 2304 L0 2304 Z M384 2304 L384 2496 L576 2496 L576 2304 L384 2304 Z " />
<glyph glyph-name="firsttonechinese" unicode="&#x2c9;" horiz-adv-x="768" d="M0 2112 L0 2304 L576 2304 L576 2112 L0 2112 Z " />
<glyph glyph-name="secondtonechinese" unicode="&#x2ca;" horiz-adv-x="576" d="M0 2112 L0 2304 L192 2304 L192 2112 L0 2112 Z M192 2304 L192 2496 L384 2496 L384 2304 L192 2304 Z " />
<glyph glyph-name="fourthtonechinese" unicode="&#x2cb;" horiz-adv-x="576" d="M192 2112 L192 2304 L384 2304 L384 2112 L192 2112 Z M0 2304 L0 2496 L192 2496 L192 2304 L0 2304 Z " />
<glyph glyph-name="breve" unicode="&#x2d8;" horiz-adv-x="768" d="M0 2112 L0 2496 L192 2496 L192 2304 L384 2304 L384 2496 L576 2496 L576 2112 L0 2112 Z " />
<glyph glyph-name="dotaccent" unicode="&#x2d9;" horiz-adv-x="576" d="M192 2112 L192 2304 L384 2304 L384 2112 L192 2112 Z " />
<glyph glyph-name="ring" unicode="&#x2da;" horiz-adv-x="768" d="M384 2304 L384 2496 L192 2496 L192 2304 L384 2304 Z M0 2112 L0 2688 L576 2688 L576 2112 L0 2112 Z " />
<glyph glyph-name="ogonek" unicode="&#x2db;" horiz-adv-x="576" d="M0 576 L0 960 L192 960 L192 768 L384 768 L384 576 L0 576 Z " />
<glyph glyph-name="tilde" unicode="&#x2dc;" horiz-adv-x="1152" d="M0 2112 L0 2304 L192 2304 L192 2112 L0 2112 Z M384 2112 L384 2304 L192 2304 L192 2496 L576 2496 L576 2304 L768 2304 L768 2112 L384 2112 Z M768 2304 L768 2496 L960 2496 L960 2304 L768 2304 Z " />
<glyph glyph-name="hungarumlaut" unicode="&#x2dd;" horiz-adv-x="960" d="M0 2112 L0 2304 L192 2304 L192 2112 L0 2112 Z M384 2112 L384 2304 L576 2304 L576 2112 L384 2112 Z M192 2304 L192 2496 L384 2496 L384 2304 L192 2304 Z M576 2304 L576 2496 L768 2496 L768 2304 L576 2304 Z " />
<glyph glyph-name="numeralsigngreek" unicode="&#x374;" horiz-adv-x="576" d="M0 1728 L0 1920 L192 1920 L192 1728 L0 1728 Z M192 1920 L192 2304 L384 2304 L384 1920 L192 1920 Z " />
<glyph glyph-name="numeralsignlowergreek" unicode="&#x375;" horiz-adv-x="576" d="M0 768 L0 960 L192 960 L192 768 L0 768 Z M192 960 L192 1344 L384 1344 L384 960 L192 960 Z " />
<glyph glyph-name="questiongreek" unicode="&#x37e;" horiz-adv-x="384" d="M0 768 L0 1344 L192 1344 L192 768 L0 768 Z M0 1536 L0 1920 L192 1920 L192 1536 L0 1536 Z " />
<glyph glyph-name="tonos" unicode="&#x384;" horiz-adv-x="384" d="M0 2112 L0 2496 L192 2496 L192 2112 L0 2112 Z " />
<glyph glyph-name="dialytikatonos" unicode="&#x385;" horiz-adv-x="1152" d="M0 2112 L0 2304 L192 2304 L192 2112 L0 2112 Z M768 2112 L768 2304 L960 2304 L960 2112 L768 2112 Z M384 2112 L384 2496 L576 2496 L576 2112 L384 2112 Z " />
<glyph glyph-name="Alphatonos" unicode="&#x386;" horiz-adv-x="1536" d="M384 960 L384 2112 L576 2112 L576 1920 L1152 1920 L1152 2112 L1344 2112 L1344 960 L1152 960 L1152 1728 L576 1728 L576 960 L384 960 Z M0 1920 L0 2304 L192 2304 L192 1920 L0 1920 Z M576 2112 L576 2304 L1152 2304 L1152 2112 L576 2112 Z " />
<glyph glyph-name="anoteleia" unicode="&#x387;" horiz-adv-x="384" d="M0 1344 L0 1536 L192 1536 L192 1344 L0 1344 Z " />
<glyph glyph-name="Epsilontonos" unicode="&#x388;" horiz-adv-x="1536" d="M0 1920 L0 2304 L192 2304 L192 1920 L0 1920 Z M384 960 L384 2304 L1344 2304 L1344 2112 L576 2112 L576 1920 L960 1920 L960 1728 L576 1728 L576 1152 L1344 1152 L1344 960 L384 960 Z " />
<glyph glyph-name="Etatonos" unicode="&#x389;" horiz-adv-x="1536" d="M0 1920 L0 2304 L192 2304 L192 1920 L0 1920 Z M384 960 L384 2304 L576 2304 L576 1920 L1152 1920 L1152 2304 L1344 2304 L1344 960 L1152 960 L1152 1728 L576 1728 L576 960 L384 960 Z " />
<glyph glyph-name="Iotatonos" unicode="&#x38a;" horiz-adv-x="1152" d="M0 1920 L0 2304 L192 2304 L192 1920 L0 1920 Z M384 960 L384 1152 L576 1152 L576 2112 L384 2112 L384 2304 L960 2304 L960 2112 L768 2112 L768 1152 L960 1152 L960 960 L384 960 Z " />
<glyph glyph-name="Omicrontonos" unicode="&#x38c;" horiz-adv-x="1536" d="M576 960 L576 1152 L1152 1152 L1152 960 L576 960 Z M384 1152 L384 2112 L576 2112 L576 1152 L384 1152 Z M1152 1152 L1152 2112 L1344 2112 L1344 1152 L1152 1152 Z M0 1920 L0 2304 L192 2304 L192 1920 L0 1920 Z M576 2112 L576 2304 L1152 2304 L1152 2112 L576 2112 Z " />
<glyph glyph-name="Upsilontonos" unicode="&#x38e;" horiz-adv-x="1536" d="M768 960 L768 1920 L960 1920 L960 960 L768 960 Z M576 1920 L576 2112 L768 2112 L768 1920 L576 1920 Z M960 1920 L960 2112 L1152 2112 L1152 1920 L960 1920 Z M0 1920 L0 2304 L192 2304 L192 1920 L0 1920 Z M384 2112 L384 2304 L576 2304 L576 2112 L384 2112 Z M1152 2112 L1152 2304 L1344 2304 L1344 2112 L1152 2112 Z " />
<glyph glyph-name="Omegatonos" unicode="&#x38f;" horiz-adv-x="1536" d="M384 960 L384 1152 L576 1152 L576 1344 L768 1344 L768 960 L384 960 Z M960 960 L960 1344 L1152 1344 L1152 1152 L1344 1152 L1344 960 L960 960 Z M384 1344 L384 2112 L576 2112 L576 1344 L384 1344 Z M1152 1344 L1152 2112 L1344 2112 L1344 1344 L1152 1344 Z M0 1920 L0 2304 L192 2304 L192 1920 L0 1920 Z M576 2112 L576 2304 L1152 2304 L1152 2112 L576 2112 Z " />
<glyph glyph-name="iotadieresistonos" unicode="&#x390;" horiz-adv-x="960" d="M192 960 L192 1920 L384 1920 L384 960 L192 960 Z M-192 2112 L-192 2304 L0 2304 L0 2112 L-192 2112 Z M576 2112 L576 2304 L768 2304 L768 2112 L576 2112 Z M192 2112 L192 2496 L384 2496 L384 2112 L192 2112 Z " />
<glyph glyph-name="Alpha" unicode="&#x391;" horiz-adv-x="1152" d="M0 960 L0 2112 L192 2112 L192 1920 L768 1920 L768 2112 L960 2112 L960 960 L768 960 L768 1728 L192 1728 L192 960 L0 960 Z M192 2112 L192 2304 L768 2304 L768 2112 L192 2112 Z " />
<glyph glyph-name="Beta" unicode="&#x392;" horiz-adv-x="1152" d="M768 1152 L768 1728 L960 1728 L960 1152 L768 1152 Z M768 1920 L768 2112 L960 2112 L960 1920 L768 1920 Z M0 960 L0 2304 L768 2304 L768 2112 L192 2112 L192 1920 L768 1920 L768 1728 L192 1728 L192 1152 L768 1152 L768 960 L0 960 Z " />
<glyph glyph-name="Gamma" unicode="&#x393;" horiz-adv-x="1152" d="M0 960 L0 2304 L960 2304 L960 2112 L192 2112 L192 960 L0 960 Z " />
<glyph glyph-name="Deltagreek" unicode="&#x394;" horiz-adv-x="1152" d="M0 960 L0 1728 L192 1728 L192 1152 L768 1152 L768 1728 L960 1728 L960 960 L0 960 Z M192 1728 L192 2112 L384 2112 L384 1728 L192 1728 Z M576 1728 L576 2112 L768 2112 L768 1728 L576 1728 Z M384 2112 L384 2304 L576 2304 L576 2112 L384 2112 Z " />
<glyph glyph-name="Epsilon" unicode="&#x395;" horiz-adv-x="1152" d="M0 960 L0 2304 L960 2304 L960 2112 L192 2112 L192 1920 L576 1920 L576 1728 L192 1728 L192 1152 L960 1152 L960 960 L0 960 Z " />
<glyph glyph-name="Zeta" unicode="&#x396;" horiz-adv-x="1152" d="M0 960 L0 1344 L192 1344 L192 1152 L960 1152 L960 960 L0 960 Z M192 1344 L192 1536 L384 1536 L384 1344 L192 1344 Z M384 1536 L384 1728 L576 1728 L576 1536 L384 1536 Z M576 1728 L576 1920 L768 1920 L768 1728 L576 1728 Z M768 1920 L768 2112 L0 2112 L0 2304 L960 2304 L960 1920 L768 1920 Z " />
<glyph glyph-name="Eta" unicode="&#x397;" horiz-adv-x="1152" d="M0 960 L0 2304 L192 2304 L192 1920 L768 1920 L768 2304 L960 2304 L960 960 L768 960 L768 1728 L192 1728 L192 960 L0 960 Z " />
<glyph glyph-name="Theta" unicode="&#x398;" horiz-adv-x="1152" d="M192 960 L192 1152 L768 1152 L768 960 L192 960 Z M384 1536 L384 1728 L576 1728 L576 1536 L384 1536 Z M0 1152 L0 2112 L192 2112 L192 1152 L0 1152 Z M768 1152 L768 2112 L960 2112 L960 1152 L768 1152 Z M192 2112 L192 2304 L768 2304 L768 2112 L192 2112 Z " />
<glyph glyph-name="Iota" unicode="&#x399;" horiz-adv-x="768" d="M0 960 L0 1152 L192 1152 L192 2112 L0 2112 L0 2304 L576 2304 L576 2112 L384 2112 L384 1152 L576 1152 L576 960 L0 960 Z " />
<glyph glyph-name="Kappa" unicode="&#x39a;" horiz-adv-x="1152" d="M768 960 L768 1536 L960 1536 L960 960 L768 960 Z M576 1536 L576 1728 L768 1728 L768 1536 L576 1536 Z M576 1920 L576 2112 L768 2112 L768 1920 L576 1920 Z M0 960 L0 2304 L192 2304 L192 1920 L576 1920 L576 1728 L192 1728 L192 960 L0 960 Z M768 2112 L768 2304 L960 2304 L960 2112 L768 2112 Z " />
<glyph glyph-name="Lambda" unicode="&#x39b;" horiz-adv-x="1152" d="M0 960 L0 1728 L192 1728 L192 960 L0 960 Z M768 960 L768 1728 L960 1728 L960 960 L768 960 Z M192 1728 L192 2112 L384 2112 L384 1728 L192 1728 Z M576 1728 L576 2112 L768 2112 L768 1728 L576 1728 Z M384 2112 L384 2304 L576 2304 L576 2112 L384 2112 Z " />
<glyph glyph-name="Mu" unicode="&#x39c;" horiz-adv-x="1152" d="M384 1728 L384 1920 L576 1920 L576 1728 L384 1728 Z M0 960 L0 2304 L192 2304 L192 2112 L384 2112 L384 1920 L192 1920 L192 960 L0 960 Z M768 960 L768 1920 L576 1920 L576 2112 L768 2112 L768 2304 L960 2304 L960 960 L768 960 Z " />
<glyph glyph-name="Nu" unicode="&#x39d;" horiz-adv-x="1152" d="M384 1728 L384 1920 L576 1920 L576 1728 L384 1728 Z M0 960 L0 2304 L192 2304 L192 2112 L384 2112 L384 1920 L192 1920 L192 960 L0 960 Z M768 960 L768 1536 L576 1536 L576 1728 L768 1728 L768 2304 L960 2304 L960 960 L768 960 Z " />
<glyph glyph-name="Xi" unicode="&#x39e;" horiz-adv-x="1152" d="M0 960 L0 1152 L384 1152 L384 1728 L192 1728 L192 1920 L384 1920 L384 2112 L0 2112 L0 2304 L960 2304 L960 2112 L576 2112 L576 1920 L768 1920 L768 1728 L576 1728 L576 1152 L960 1152 L960 960 L0 960 Z " />
<glyph glyph-name="Omicron" unicode="&#x39f;" horiz-adv-x="1152" d="M192 960 L192 1152 L768 1152 L768 960 L192 960 Z M0 1152 L0 2112 L192 2112 L192 1152 L0 1152 Z M768 1152 L768 2112 L960 2112 L960 1152 L768 1152 Z M192 2112 L192 2304 L768 2304 L768 2112 L192 2112 Z " />
<glyph glyph-name="Pi" unicode="&#x3a0;" horiz-adv-x="1152" d="M0 960 L0 2304 L960 2304 L960 960 L768 960 L768 2112 L192 2112 L192 960 L0 960 Z " />
<glyph glyph-name="Rho" unicode="&#x3a1;" horiz-adv-x="1152" d="M768 1920 L768 2112 L960 2112 L960 1920 L768 1920 Z M0 960 L0 2304 L768 2304 L768 2112 L192 2112 L192 1920 L768 1920 L768 1728 L192 1728 L192 960 L0 960 Z " />
<glyph glyph-name="Sigma" unicode="&#x3a3;" horiz-adv-x="1152" d="M0 960 L0 1344 L192 1344 L192 1152 L960 1152 L960 960 L0 960 Z M192 1344 L192 1536 L384 1536 L384 1344 L192 1344 Z M384 1536 L384 1728 L576 1728 L576 1536 L384 1536 Z M192 1728 L192 1920 L384 1920 L384 1728 L192 1728 Z M0 1920 L0 2304 L960 2304 L960 2112 L192 2112 L192 1920 L0 1920 Z " />
<glyph glyph-name="Tau" unicode="&#x3a4;" horiz-adv-x="1152" d="M384 960 L384 2112 L0 2112 L0 2304 L960 2304 L960 2112 L576 2112 L576 960 L384 960 Z " />
<glyph glyph-name="Upsilon" unicode="&#x3a5;" horiz-adv-x="1152" d="M384 960 L384 1920 L576 1920 L576 960 L384 960 Z M192 1920 L192 2112 L384 2112 L384 1920 L192 1920 Z M576 1920 L576 2112 L768 2112 L768 1920 L576 1920 Z M0 2112 L0 2304 L192 2304 L192 2112 L0 2112 Z M768 2112 L768 2304 L960 2304 L960 2112 L768 2112 Z " />
<glyph glyph-name="Phi" unicode="&#x3a6;" horiz-adv-x="1152" d="M0 1536 L0 1920 L192 1920 L192 1536 L0 1536 Z M768 1536 L768 1920 L960 1920 L960 1536 L768 1536 Z M384 960 L384 1344 L192 1344 L192 1536 L384 1536 L384 1920 L192 1920 L192 2112 L384 2112 L384 2304 L576 2304 L576 2112 L768 2112 L768 1920 L576 1920 L576 1536 L768 1536 L768 1344 L576 1344 L576 960 L384 960 Z " />
<glyph glyph-name="Chi" unicode="&#x3a7;" horiz-adv-x="1152" d="M0 960 L0 1536 L192 1536 L192 960 L0 960 Z M768 960 L768 1536 L960 1536 L960 960 L768 960 Z M192 1536 L192 1728 L384 1728 L384 1536 L192 1536 Z M576 1536 L576 1728 L768 1728 L768 1536 L576 1536 Z M384 1728 L384 1920 L576 1920 L576 1728 L384 1728 Z M192 1920 L192 2112 L384 2112 L384 1920 L192 1920 Z M576 1920 L576 2112 L768 2112 L768 1920 L576 1920 Z M0 2112 L0 2304 L192 2304 L192 2112 L0 2112 Z M768 2112 L768 2304 L960 2304 L960 2112 L768 2112 Z " />
<glyph glyph-name="Psi" unicode="&#x3a8;" horiz-adv-x="1152" d="M0 1920 L0 2304 L192 2304 L192 1920 L0 1920 Z M384 960 L384 1728 L192 1728 L192 1920 L384 1920 L384 2304 L576 2304 L576 1920 L768 1920 L768 1728 L576 1728 L576 960 L384 960 Z M768 1920 L768 2304 L960 2304 L960 1920 L768 1920 Z " />
<glyph glyph-name="Omega" unicode="&#x3a9;" horiz-adv-x="1152" d="M0 960 L0 1152 L192 1152 L192 1344 L384 1344 L384 960 L0 960 Z M576 960 L576 1344 L768 1344 L768 1152 L960 1152 L960 960 L576 960 Z M0 1344 L0 2112 L192 2112 L192 1344 L0 1344 Z M768 1344 L768 2112 L960 2112 L960 1344 L768 1344 Z M192 2112 L192 2304 L768 2304 L768 2112 L192 2112 Z " />
<glyph glyph-name="Iotadieresis" unicode="&#x3aa;" horiz-adv-x="768" d="M0 960 L0 1152 L192 1152 L192 2112 L0 2112 L0 2304 L576 2304 L576 2112 L384 2112 L384 1152 L576 1152 L576 960 L0 960 Z M0 2496 L0 2688 L192 2688 L192 2496 L0 2496 Z M384 2496 L384 2688 L576 2688 L576 2496 L384 2496 Z " />
<glyph glyph-name="Upsilondieresis" unicode="&#x3ab;" horiz-adv-x="1152" d="M384 960 L384 1920 L576 1920 L576 960 L384 960 Z M192 1920 L192 2112 L384 2112 L384 1920 L192 1920 Z M576 1920 L576 2112 L768 2112 L768 1920 L576 1920 Z M0 2112 L0 2304 L192 2304 L192 2112 L0 2112 Z M768 2112 L768 2304 L960 2304 L960 2112 L768 2112 Z M192 2496 L192 2688 L384 2688 L384 2496 L192 2496 Z M576 2496 L576 2688 L768 2688 L768 2496 L576 2496 Z " />
<glyph glyph-name="alphatonos" unicode="&#x3ac;" horiz-adv-x="1152" d="M192 960 L192 1152 L576 1152 L576 960 L192 960 Z M0 1152 L0 1728 L192 1728 L192 1152 L0 1152 Z M768 960 L768 1152 L576 1152 L576 1344 L768 1344 L768 1728 L192 1728 L192 1920 L960 1920 L960 960 L768 960 Z M384 2112 L384 2496 L576 2496 L576 2112 L384 2112 Z " />
<glyph glyph-name="epsilontonos" unicode="&#x3ad;" horiz-adv-x="1152" d="M192 960 L192 1152 L960 1152 L960 960 L192 960 Z M0 1152 L0 1344 L192 1344 L192 1152 L0 1152 Z M192 1344 L192 1536 L576 1536 L576 1344 L192 1344 Z M0 1536 L0 1728 L192 1728 L192 1536 L0 1536 Z M192 1728 L192 1920 L960 1920 L960 1728 L192 1728 Z M384 2112 L384 2496 L576 2496 L576 2112 L384 2112 Z " />
<glyph glyph-name="etatonos" unicode="&#x3ae;" horiz-adv-x="1152" d="M768 960 L768 1728 L960 1728 L960 960 L768 960 Z M0 960 L0 1920 L768 1920 L768 1728 L192 1728 L192 960 L0 960 Z M384 2112 L384 2496 L576 2496 L576 2112 L384 2112 Z " />
<glyph glyph-name="iotatonos" unicode="&#x3af;" horiz-adv-x="384" d="M0 960 L0 1920 L192 1920 L192 960 L0 960 Z M0 2112 L0 2496 L192 2496 L192 2112 L0 2112 Z " />
<glyph glyph-name="upsilondieresistonos" unicode="&#x3b0;" horiz-adv-x="1152" d="M192 960 L192 1152 L768 1152 L768 960 L192 960 Z M0 1152 L0 1920 L192 1920 L192 1152 L0 1152 Z M768 1152 L768 1920 L960 1920 L960 1152 L768 1152 Z M0 2112 L0 2304 L192 2304 L192 2112 L0 2112 Z M768 2112 L768 2304 L960 2304 L960 2112 L768 2112 Z M384 2112 L384 2496 L576 2496 L576 2112 L384 2112 Z " />
<glyph glyph-name="alpha" unicode="&#x3b1;" horiz-adv-x="1152" d="M192 960 L192 1152 L576 1152 L576 960 L192 960 Z M0 1152 L0 1728 L192 1728 L192 1152 L0 1152 Z M768 960 L768 1152 L576 1152 L576 1344 L768 1344 L768 1728 L192 1728 L192 1920 L960 1920 L960 960 L768 960 Z " />
<glyph glyph-name="beta" unicode="&#x3b2;" horiz-adv-x="1152" d="M384 960 L384 1152 L768 1152 L768 960 L384 960 Z M768 1152 L768 1728 L960 1728 L960 1152 L768 1152 Z M0 768 L0 2112 L192 2112 L192 768 L0 768 Z M384 1728 L384 1920 L576 1920 L576 2112 L768 2112 L768 1728 L384 1728 Z M192 2112 L192 2304 L576 2304 L576 2112 L192 2112 Z " />
<glyph glyph-name="gamma" unicode="&#x3b3;" horiz-adv-x="1152" d="M384 768 L384 1344 L576 1344 L576 768 L384 768 Z M192 1344 L192 1536 L384 1536 L384 1344 L192 1344 Z M576 1344 L576 1536 L768 1536 L768 1344 L576 1344 Z M0 1536 L0 1920 L192 1920 L192 1536 L0 1536 Z M768 1536 L768 1920 L960 1920 L960 1536 L768 1536 Z " />
<glyph glyph-name="delta" unicode="&#x3b4;" horiz-adv-x="1152" d="M192 960 L192 1152 L768 1152 L768 960 L192 960 Z M0 1152 L0 1728 L192 1728 L192 1152 L0 1152 Z M768 1152 L768 1728 L960 1728 L960 1152 L768 1152 Z M192 1728 L192 1920 L384 1920 L384 2112 L192 2112 L192 2304 L960 2304 L960 2112 L576 2112 L576 1920 L768 1920 L768 1728 L192 1728 Z " />
<glyph glyph-name="epsilon" unicode="&#x3b5;" horiz-adv-x="1152" d="M192 960 L192 1152 L960 1152 L960 960 L192 960 Z M0 1152 L0 1344 L192 1344 L192 1152 L0 1152 Z M192 1344 L192 1536 L576 1536 L576 1344 L192 1344 Z M0 1536 L0 1728 L192 1728 L192 1536 L0 1536 Z M192 1728 L192 1920 L960 1920 L960 1728 L192 1728 Z " />
<glyph glyph-name="zeta" unicode="&#x3b6;" horiz-adv-x="1152" d="M768 768 L768 1152 L960 1152 L960 768 L768 768 Z M192 1152 L192 1344 L768 1344 L768 1152 L192 1152 Z M0 1344 L0 1728 L192 1728 L192 1344 L0 1344 Z M192 1728 L192 1920 L576 1920 L576 1728 L192 1728 Z M576 1920 L576 2112 L0 2112 L0 2304 L960 2304 L960 2112 L768 2112 L768 1920 L576 1920 Z " />
<glyph glyph-name="eta" unicode="&#x3b7;" horiz-adv-x="1152" d="M768 960 L768 1728 L960 1728 L960 960 L768 960 Z M0 960 L0 1920 L768 1920 L768 1728 L192 1728 L192 960 L0 960 Z " />
<glyph glyph-name="theta" unicode="&#x3b8;" horiz-adv-x="960" d="M192 960 L192 1152 L576 1152 L576 960 L192 960 Z M0 1152 L0 2112 L192 2112 L192 1728 L576 1728 L576 2112 L768 2112 L768 1152 L576 1152 L576 1536 L192 1536 L192 1152 L0 1152 Z M192 2112 L192 2304 L576 2304 L576 2112 L192 2112 Z " />
<glyph glyph-name="iota" unicode="&#x3b9;" horiz-adv-x="384" d="M0 960 L0 1920 L192 1920 L192 960 L0 960 Z " />
<glyph glyph-name="kappa" unicode="&#x3ba;" horiz-adv-x="960" d="M576 960 L576 1152 L768 1152 L768 960 L576 960 Z M384 1152 L384 1344 L576 1344 L576 1152 L384 1152 Z M384 1536 L384 1728 L576 1728 L576 1536 L384 1536 Z M0 960 L0 1920 L192 1920 L192 1536 L384 1536 L384 1344 L192 1344 L192 960 L0 960 Z M576 1728 L576 1920 L768 1920 L768 1728 L576 1728 Z " />
<glyph glyph-name="lambda" unicode="&#x3bb;" horiz-adv-x="1152" d="M0 960 L0 1728 L192 1728 L192 960 L0 960 Z M768 960 L768 1728 L192 1728 L192 1920 L768 1920 L768 2112 L960 2112 L960 960 L768 960 Z M0 2112 L0 2304 L768 2304 L768 2112 L0 2112 Z " />
<glyph glyph-name="mugreek" unicode="&#x3bc;" horiz-adv-x="1152" d="M0 768 L0 1920 L192 1920 L192 1152 L576 1152 L576 960 L192 960 L192 768 L0 768 Z M768 960 L768 1152 L576 1152 L576 1344 L768 1344 L768 1920 L960 1920 L960 960 L768 960 Z " />
<glyph glyph-name="nu" unicode="&#x3bd;" horiz-adv-x="1152" d="M384 960 L384 1152 L576 1152 L576 960 L384 960 Z M576 1152 L576 1344 L768 1344 L768 1152 L576 1152 Z M192 1152 L192 1536 L384 1536 L384 1152 L192 1152 Z M0 1536 L0 1920 L192 1920 L192 1536 L0 1536 Z M768 1344 L768 1920 L960 1920 L960 1344 L768 1344 Z " />
<glyph glyph-name="xi" unicode="&#x3be;" horiz-adv-x="1152" d="M768 768 L768 1152 L960 1152 L960 768 L768 768 Z M192 1152 L192 1344 L768 1344 L768 1152 L192 1152 Z M0 1344 L0 1728 L192 1728 L192 1344 L0 1344 Z M192 1728 L192 1920 L768 1920 L768 1728 L192 1728 Z M0 1920 L0 2112 L192 2112 L192 1920 L0 1920 Z M192 2112 L192 2304 L960 2304 L960 2112 L192 2112 Z " />
<glyph glyph-name="omicron" unicode="&#x3bf;" horiz-adv-x="1152" d="M192 960 L192 1152 L768 1152 L768 960 L192 960 Z M0 1152 L0 1728 L192 1728 L192 1152 L0 1152 Z M768 1152 L768 1728 L960 1728 L960 1152 L768 1152 Z M192 1728 L192 1920 L768 1920 L768 1728 L192 1728 Z " />
<glyph glyph-name="pi" unicode="&#x3c0;" horiz-adv-x="1152" d="M0 960 L0 1920 L960 1920 L960 960 L768 960 L768 1728 L192 1728 L192 960 L0 960 Z " />
<glyph glyph-name="rho" unicode="&#x3c1;" horiz-adv-x="1152" d="M0 768 L0 1728 L192 1728 L192 1344 L768 1344 L768 1152 L192 1152 L192 768 L0 768 Z M768 1344 L768 1728 L960 1728 L960 1344 L768 1344 Z M192 1728 L192 1920 L768 1920 L768 1728 L192 1728 Z " />
<glyph glyph-name="sigma1" unicode="&#x3c2;" horiz-adv-x="1152" d="M768 768 L768 1152 L960 1152 L960 768 L768 768 Z M192 1152 L192 1344 L768 1344 L768 1152 L192 1152 Z M0 1344 L0 1728 L192 1728 L192 1344 L0 1344 Z M192 1728 L192 1920 L960 1920 L960 1728 L192 1728 Z " />
<glyph glyph-name="sigma" unicode="&#x3c3;" horiz-adv-x="1152" d="M192 960 L192 1152 L576 1152 L576 960 L192 960 Z M0 1152 L0 1728 L192 1728 L192 1152 L0 1152 Z M576 1152 L576 1728 L192 1728 L192 1920 L960 1920 L960 1728 L768 1728 L768 1152 L576 1152 Z " />
<glyph glyph-name="tau" unicode="&#x3c4;" horiz-adv-x="1152" d="M384 960 L384 1728 L0 1728 L0 1920 L960 1920 L960 1728 L576 1728 L576 960 L384 960 Z " />
<glyph glyph-name="upsilon" unicode="&#x3c5;" horiz-adv-x="1152" d="M192 960 L192 1152 L768 1152 L768 960 L192 960 Z M0 1152 L0 1920 L192 1920 L192 1152 L0 1152 Z M768 1152 L768 1920 L960 1920 L960 1152 L768 1152 Z " />
<glyph glyph-name="phi" unicode="&#x3c6;" horiz-adv-x="1152" d="M768 1344 L768 1728 L960 1728 L960 1344 L768 1344 Z M0 1344 L0 1920 L192 1920 L192 1344 L0 1344 Z M384 768 L384 1152 L192 1152 L192 1344 L384 1344 L384 1920 L768 1920 L768 1728 L576 1728 L576 1344 L768 1344 L768 1152 L576 1152 L576 768 L384 768 Z " />
<glyph glyph-name="chi" unicode="&#x3c7;" horiz-adv-x="1152" d="M0 768 L0 1152 L192 1152 L192 768 L0 768 Z M768 768 L768 1152 L960 1152 L960 768 L768 768 Z M192 1152 L192 1344 L384 1344 L384 1152 L192 1152 Z M576 1152 L576 1344 L768 1344 L768 1152 L576 1152 Z M384 1344 L384 1536 L576 1536 L576 1344 L384 1344 Z M192 1536 L192 1728 L384 1728 L384 1536 L192 1536 Z M576 1536 L576 1728 L768 1728 L768 1536 L576 1536 Z M0 1728 L0 1920 L192 1920 L192 1728 L0 1728 Z M768 1728 L768 1920 L960 1920 L960 1728 L768 1728 Z " />
<glyph glyph-name="psi" unicode="&#x3c8;" horiz-adv-x="1152" d="M0 1344 L0 1920 L192 1920 L192 1344 L0 1344 Z M384 768 L384 1152 L192 1152 L192 1344 L384 1344 L384 1920 L576 1920 L576 1344 L768 1344 L768 1152 L576 1152 L576 768 L384 768 Z M768 1344 L768 1920 L960 1920 L960 1344 L768 1344 Z " />
<glyph glyph-name="omega" unicode="&#x3c9;" horiz-adv-x="1152" d="M192 960 L192 1152 L384 1152 L384 960 L192 960 Z M576 960 L576 1152 L768 1152 L768 960 L576 960 Z M384 1152 L384 1536 L576 1536 L576 1152 L384 1152 Z M0 1152 L0 1920 L192 1920 L192 1152 L0 1152 Z M768 1152 L768 1920 L960 1920 L960 1152 L768 1152 Z " />
<glyph glyph-name="iotadieresis" unicode="&#x3ca;" horiz-adv-x="768" d="M192 960 L192 1920 L384 1920 L384 960 L192 960 Z M0 2112 L0 2304 L192 2304 L192 2112 L0 2112 Z M384 2112 L384 2304 L576 2304 L576 2112 L384 2112 Z " />
<glyph glyph-name="upsilondieresis" unicode="&#x3cb;" horiz-adv-x="1152" d="M192 960 L192 1152 L768 1152 L768 960 L192 960 Z M0 1152 L0 1920 L192 1920 L192 1152 L0 1152 Z M768 1152 L768 1920 L960 1920 L960 1152 L768 1152 Z M192 2112 L192 2304 L384 2304 L384 2112 L192 2112 Z M576 2112 L576 2304 L768 2304 L768 2112 L576 2112 Z " />
<glyph glyph-name="omicrontonos" unicode="&#x3cc;" horiz-adv-x="1152" d="M192 960 L192 1152 L768 1152 L768 960 L192 960 Z M0 1152 L0 1728 L192 1728 L192 1152 L0 1152 Z M768 1152 L768 1728 L960 1728 L960 1152 L768 1152 Z M192 1728 L192 1920 L768 1920 L768 1728 L192 1728 Z " />
<glyph glyph-name="upsilontonos" unicode="&#x3cd;" horiz-adv-x="1152" d="M192 960 L192 1152 L768 1152 L768 960 L192 960 Z M0 1152 L0 1920 L192 1920 L192 1152 L0 1152 Z M768 1152 L768 1920 L960 1920 L960 1152 L768 1152 Z M384 2112 L384 2496 L576 2496 L576 2112 L384 2112 Z " />
<glyph glyph-name="omegatonos" unicode="&#x3ce;" horiz-adv-x="1152" d="M192 960 L192 1152 L384 1152 L384 960 L192 960 Z M576 960 L576 1152 L768 1152 L768 960 L576 960 Z M384 1152 L384 1536 L576 1536 L576 1152 L384 1152 Z M0 1152 L0 1920 L192 1920 L192 1152 L0 1152 Z M768 1152 L768 1920 L960 1920 L960 1152 L768 1152 Z M384 2112 L384 2496 L576 2496 L576 2112 L384 2112 Z " />
<glyph glyph-name="uni03D7" unicode="&#x3d7;" horiz-adv-x="1152" d="M384 768 L384 960 L768 960 L768 768 L384 768 Z M768 960 L768 1344 L960 1344 L960 960 L768 960 Z M0 960 L0 1920 L192 1920 L192 1536 L384 1536 L384 1728 L576 1728 L576 1536 L768 1536 L768 1344 L192 1344 L192 960 L0 960 Z M576 1728 L576 1920 L768 1920 L768 1728 L576 1728 Z " />
<glyph glyph-name="uni0400" unicode="&#x400;" horiz-adv-x="1152" d="M0 960 L0 2304 L384 2304 L384 2496 L576 2496 L576 2304 L960 2304 L960 2112 L192 2112 L192 1920 L576 1920 L576 1728 L192 1728 L192 1152 L960 1152 L960 960 L0 960 Z M192 2496 L192 2688 L384 2688 L384 2496 L192 2496 Z " />
<glyph glyph-name="afii10023" unicode="&#x401;" horiz-adv-x="1152" d="M0 960 L0 2304 L960 2304 L960 2112 L192 2112 L192 1920 L576 1920 L576 1728 L192 1728 L192 1152 L960 1152 L960 960 L0 960 Z M192 2496 L192 2688 L384 2688 L384 2496 L192 2496 Z M576 2496 L576 2688 L768 2688 L768 2496 L576 2496 Z " />
<glyph glyph-name="afii10051" unicode="&#x402;" horiz-adv-x="1344" d="M576 768 L576 960 L960 960 L960 768 L576 768 Z M960 960 L960 1728 L1152 1728 L1152 960 L960 960 Z M192 960 L192 2112 L0 2112 L0 2304 L960 2304 L960 2112 L384 2112 L384 1920 L960 1920 L960 1728 L384 1728 L384 960 L192 960 Z " />
<glyph glyph-name="afii10052" unicode="&#x403;" horiz-adv-x="1152" d="M0 960 L0 2304 L384 2304 L384 2496 L576 2496 L576 2304 L960 2304 L960 2112 L192 2112 L192 960 L0 960 Z M576 2496 L576 2688 L768 2688 L768 2496 L576 2496 Z " />
<glyph glyph-name="afii10053" unicode="&#x404;" horiz-adv-x="1152" d="M192 960 L192 1152 L768 1152 L768 960 L192 960 Z M768 1152 L768 1344 L960 1344 L960 1152 L768 1152 Z M0 1152 L0 2112 L192 2112 L192 1920 L576 1920 L576 1728 L192 1728 L192 1152 L0 1152 Z M768 1920 L768 2112 L960 2112 L960 1920 L768 1920 Z M192 2112 L192 2304 L768 2304 L768 2112 L192 2112 Z " />
<glyph glyph-name="afii10054" unicode="&#x405;" horiz-adv-x="1152" d="M192 960 L192 1152 L768 1152 L768 960 L192 960 Z M0 1152 L0 1344 L192 1344 L192 1152 L0 1152 Z M768 1152 L768 1728 L960 1728 L960 1152 L768 1152 Z M192 1728 L192 1920 L768 1920 L768 1728 L192 1728 Z M0 1920 L0 2112 L192 2112 L192 1920 L0 1920 Z M192 2112 L192 2304 L960 2304 L960 2112 L192 2112 Z " />
<glyph glyph-name="afii10055" unicode="&#x406;" horiz-adv-x="768" d="M0 960 L0 1152 L192 1152 L192 2112 L0 2112 L0 2304 L576 2304 L576 2112 L384 2112 L384 1152 L576 1152 L576 960 L0 960 Z " />
<glyph glyph-name="afii10056" unicode="&#x407;" horiz-adv-x="768" d="M0 960 L0 1152 L192 1152 L192 2112 L0 2112 L0 2304 L576 2304 L576 2112 L384 2112 L384 1152 L576 1152 L576 960 L0 960 Z M0 2496 L0 2688 L192 2688 L192 2496 L0 2496 Z M384 2496 L384 2688 L576 2688 L576 2496 L384 2496 Z " />
<glyph glyph-name="afii10057" unicode="&#x408;" horiz-adv-x="1152" d="M192 960 L192 1152 L768 1152 L768 960 L192 960 Z M0 1152 L0 1344 L192 1344 L192 1152 L0 1152 Z M768 1152 L768 2304 L960 2304 L960 1152 L768 1152 Z " />
<glyph glyph-name="afii10058" unicode="&#x409;" horiz-adv-x="1920" d="M1536 1152 L1536 1728 L1728 1728 L1728 1152 L1536 1152 Z M0 960 L0 1152 L192 1152 L192 2304 L960 2304 L960 1920 L1536 1920 L1536 1728 L960 1728 L960 1152 L1536 1152 L1536 960 L768 960 L768 2112 L384 2112 L384 960 L0 960 Z " />
<glyph glyph-name="afii10059" unicode="&#x40a;" horiz-adv-x="1920" d="M1536 1152 L1536 1728 L1728 1728 L1728 1152 L1536 1152 Z M0 960 L0 2304 L192 2304 L192 1920 L768 1920 L768 2304 L960 2304 L960 1920 L1536 1920 L1536 1728 L960 1728 L960 1152 L1536 1152 L1536 960 L768 960 L768 1728 L192 1728 L192 960 L0 960 Z " />
<glyph glyph-name="afii10060" unicode="&#x40b;" horiz-adv-x="1344" d="M960 960 L960 1728 L1152 1728 L1152 960 L960 960 Z M192 960 L192 2112 L0 2112 L0 2304 L960 2304 L960 2112 L384 2112 L384 1920 L960 1920 L960 1728 L384 1728 L384 960 L192 960 Z " />
<glyph glyph-name="afii10061" unicode="&#x40c;" horiz-adv-x="1152" d="M768 960 L768 1536 L960 1536 L960 960 L768 960 Z M576 1536 L576 1728 L768 1728 L768 1536 L576 1536 Z M576 1920 L576 2112 L768 2112 L768 1920 L576 1920 Z M0 960 L0 2304 L192 2304 L192 1920 L576 1920 L576 1728 L192 1728 L192 960 L0 960 Z M768 2112 L768 2304 L960 2304 L960 2112 L768 2112 Z M384 2304 L384 2496 L576 2496 L576 2304 L384 2304 Z M576 2496 L576 2688 L768 2688 L768 2496 L576 2496 Z " />
<glyph glyph-name="uni040D" unicode="&#x40d;" horiz-adv-x="1152" d="M384 1728 L384 1920 L576 1920 L576 1728 L384 1728 Z M0 960 L0 2304 L192 2304 L192 1728 L384 1728 L384 1536 L192 1536 L192 960 L0 960 Z M768 960 L768 1920 L576 1920 L576 2112 L768 2112 L768 2304 L960 2304 L960 960 L768 960 Z M384 2304 L384 2496 L576 2496 L576 2304 L384 2304 Z M192 2496 L192 2688 L384 2688 L384 2496 L192 2496 Z " />
<glyph glyph-name="afii10062" unicode="&#x40e;" horiz-adv-x="1152" d="M0 960 L0 1152 L576 1152 L576 960 L0 960 Z M576 1152 L576 1344 L768 1344 L768 1152 L576 1152 Z M0 1920 L0 2304 L192 2304 L192 1920 L0 1920 Z M768 1344 L768 1728 L192 1728 L192 1920 L768 1920 L768 2304 L960 2304 L960 1344 L768 1344 Z " />
<glyph glyph-name="afii10145" unicode="&#x40f;" horiz-adv-x="1152" d="M384 768 L384 960 L0 960 L0 2304 L192 2304 L192 1152 L768 1152 L768 2304 L960 2304 L960 960 L576 960 L576 768 L384 768 Z " />
<glyph glyph-name="Acyrillic" unicode="&#x410;" horiz-adv-x="1152" d="M0 960 L0 2112 L192 2112 L192 1920 L768 1920 L768 2112 L960 2112 L960 960 L768 960 L768 1728 L192 1728 L192 960 L0 960 Z M192 2112 L192 2304 L768 2304 L768 2112 L192 2112 Z " />
<glyph glyph-name="afii10018" unicode="&#x411;" horiz-adv-x="1152" d="M768 1152 L768 1728 L960 1728 L960 1152 L768 1152 Z M0 960 L0 2304 L960 2304 L960 2112 L192 2112 L192 1920 L768 1920 L768 1728 L192 1728 L192 1152 L768 1152 L768 960 L0 960 Z " />
<glyph glyph-name="afii10019" unicode="&#x412;" horiz-adv-x="1152" d="M768 1152 L768 1728 L960 1728 L960 1152 L768 1152 Z M768 1920 L768 2112 L960 2112 L960 1920 L768 1920 Z M0 960 L0 2304 L768 2304 L768 2112 L192 2112 L192 1920 L768 1920 L768 1728 L192 1728 L192 1152 L768 1152 L768 960 L0 960 Z " />
<glyph glyph-name="afii10020" unicode="&#x413;" horiz-adv-x="1152" d="M0 960 L0 2304 L960 2304 L960 2112 L192 2112 L192 960 L0 960 Z " />
<glyph glyph-name="afii10021" unicode="&#x414;" horiz-adv-x="1152" d="M0 768 L0 1728 L192 1728 L192 1152 L768 1152 L768 1728 L960 1728 L960 768 L768 768 L768 960 L192 960 L192 768 L0 768 Z M192 1728 L192 2112 L384 2112 L384 1728 L192 1728 Z M576 1728 L576 2112 L768 2112 L768 1728 L576 1728 Z M384 2112 L384 2304 L576 2304 L576 2112 L384 2112 Z " />
<glyph glyph-name="afii10022" unicode="&#x415;" horiz-adv-x="1152" d="M0 960 L0 2304 L960 2304 L960 2112 L192 2112 L192 1920 L576 1920 L576 1728 L192 1728 L192 1152 L960 1152 L960 960 L0 960 Z " />
<glyph glyph-name="afii10024" unicode="&#x416;" horiz-adv-x="1152" d="M0 960 L0 1728 L192 1728 L192 960 L0 960 Z M768 960 L768 1728 L960 1728 L960 960 L768 960 Z M0 1920 L0 2304 L192 2304 L192 1920 L0 1920 Z M384 960 L384 1728 L192 1728 L192 1920 L384 1920 L384 2304 L576 2304 L576 1920 L768 1920 L768 1728 L576 1728 L576 960 L384 960 Z M768 1920 L768 2304 L960 2304 L960 1920 L768 1920 Z " />
<glyph glyph-name="afii10025" unicode="&#x417;" horiz-adv-x="1152" d="M192 960 L192 1152 L768 1152 L768 960 L192 960 Z M0 1152 L0 1344 L192 1344 L192 1152 L0 1152 Z M768 1152 L768 1728 L960 1728 L960 1152 L768 1152 Z M384 1728 L384 1920 L768 1920 L768 1728 L384 1728 Z M768 1920 L768 2112 L960 2112 L960 1920 L768 1920 Z M0 2112 L0 2304 L768 2304 L768 2112 L0 2112 Z " />
<glyph glyph-name="afii10026" unicode="&#x418;" horiz-adv-x="1152" d="M384 1728 L384 1920 L576 1920 L576 1728 L384 1728 Z M0 960 L0 2304 L192 2304 L192 1728 L384 1728 L384 1536 L192 1536 L192 960 L0 960 Z M768 960 L768 1920 L576 1920 L576 2112 L768 2112 L768 2304 L960 2304 L960 960 L768 960 Z " />
<glyph glyph-name="afii10027" unicode="&#x419;" horiz-adv-x="1152" d="M384 1728 L384 1920 L576 1920 L576 1728 L384 1728 Z M0 960 L0 2304 L192 2304 L192 1728 L384 1728 L384 1536 L192 1536 L192 960 L0 960 Z M768 960 L768 1920 L576 1920 L576 2112 L768 2112 L768 2304 L960 2304 L960 960 L768 960 Z M192 2304 L192 2688 L384 2688 L384 2496 L576 2496 L576 2688 L768 2688 L768 2304 L192 2304 Z " />
<glyph glyph-name="afii10028" unicode="&#x41a;" horiz-adv-x="1152" d="M768 960 L768 1536 L960 1536 L960 960 L768 960 Z M576 1536 L576 1728 L768 1728 L768 1536 L576 1536 Z M576 1920 L576 2112 L768 2112 L768 1920 L576 1920 Z M0 960 L0 2304 L192 2304 L192 1920 L576 1920 L576 1728 L192 1728 L192 960 L0 960 Z M768 2112 L768 2304 L960 2304 L960 2112 L768 2112 Z " />
<glyph glyph-name="afii10029" unicode="&#x41b;" horiz-adv-x="1152" d="M0 960 L0 1152 L192 1152 L192 2304 L960 2304 L960 960 L768 960 L768 2112 L384 2112 L384 960 L0 960 Z " />
<glyph glyph-name="afii10030" unicode="&#x41c;" horiz-adv-x="1152" d="M384 1728 L384 1920 L576 1920 L576 1728 L384 1728 Z M0 960 L0 2304 L192 2304 L192 2112 L384 2112 L384 1920 L192 1920 L192 960 L0 960 Z M768 960 L768 1920 L576 1920 L576 2112 L768 2112 L768 2304 L960 2304 L960 960 L768 960 Z " />
<glyph glyph-name="afii10031" unicode="&#x41d;" horiz-adv-x="1152" d="M0 960 L0 2304 L192 2304 L192 1920 L768 1920 L768 2304 L960 2304 L960 960 L768 960 L768 1728 L192 1728 L192 960 L0 960 Z " />
<glyph glyph-name="afii10032" unicode="&#x41e;" horiz-adv-x="1152" d="M192 960 L192 1152 L768 1152 L768 960 L192 960 Z M0 1152 L0 2112 L192 2112 L192 1152 L0 1152 Z M768 1152 L768 2112 L960 2112 L960 1152 L768 1152 Z M192 2112 L192 2304 L768 2304 L768 2112 L192 2112 Z " />
<glyph glyph-name="afii10033" unicode="&#x41f;" horiz-adv-x="1152" d="M0 960 L0 2304 L960 2304 L960 960 L768 960 L768 2112 L192 2112 L192 960 L0 960 Z " />
<glyph glyph-name="afii10034" unicode="&#x420;" horiz-adv-x="1152" d="M768 1920 L768 2112 L960 2112 L960 1920 L768 1920 Z M0 960 L0 2304 L768 2304 L768 2112 L192 2112 L192 1920 L768 1920 L768 1728 L192 1728 L192 960 L0 960 Z " />
<glyph glyph-name="afii10035" unicode="&#x421;" horiz-adv-x="1152" d="M192 960 L192 1152 L768 1152 L768 960 L192 960 Z M768 1152 L768 1344 L960 1344 L960 1152 L768 1152 Z M0 1152 L0 2112 L192 2112 L192 1152 L0 1152 Z M768 1920 L768 2112 L960 2112 L960 1920 L768 1920 Z M192 2112 L192 2304 L768 2304 L768 2112 L192 2112 Z " />
<glyph glyph-name="afii10036" unicode="&#x422;" horiz-adv-x="1152" d="M384 960 L384 2112 L0 2112 L0 2304 L960 2304 L960 2112 L576 2112 L576 960 L384 960 Z " />
<glyph glyph-name="afii10037" unicode="&#x423;" horiz-adv-x="1152" d="M0 960 L0 1152 L576 1152 L576 960 L0 960 Z M576 1152 L576 1344 L768 1344 L768 1152 L576 1152 Z M0 1920 L0 2304 L192 2304 L192 1920 L0 1920 Z M768 1344 L768 1728 L192 1728 L192 1920 L768 1920 L768 2304 L960 2304 L960 1344 L768 1344 Z " />
<glyph glyph-name="afii10038" unicode="&#x424;" horiz-adv-x="1152" d="M0 1536 L0 1920 L192 1920 L192 1536 L0 1536 Z M768 1536 L768 1920 L960 1920 L960 1536 L768 1536 Z M384 960 L384 1344 L192 1344 L192 1536 L384 1536 L384 1920 L192 1920 L192 2112 L384 2112 L384 2304 L576 2304 L576 2112 L768 2112 L768 1920 L576 1920 L576 1536 L768 1536 L768 1344 L576 1344 L576 960 L384 960 Z " />
<glyph glyph-name="afii10039" unicode="&#x425;" horiz-adv-x="1152" d="M0 960 L0 1536 L192 1536 L192 960 L0 960 Z M768 960 L768 1536 L960 1536 L960 960 L768 960 Z M192 1536 L192 1728 L384 1728 L384 1536 L192 1536 Z M576 1536 L576 1728 L768 1728 L768 1536 L576 1536 Z M384 1728 L384 1920 L576 1920 L576 1728 L384 1728 Z M192 1920 L192 2112 L384 2112 L384 1920 L192 1920 Z M576 1920 L576 2112 L768 2112 L768 1920 L576 1920 Z M0 2112 L0 2304 L192 2304 L192 2112 L0 2112 Z M768 2112 L768 2304 L960 2304 L960 2112 L768 2112 Z " />
<glyph glyph-name="afii10040" unicode="&#x426;" horiz-adv-x="1344" d="M960 768 L960 960 L0 960 L0 2304 L192 2304 L192 1152 L768 1152 L768 2304 L960 2304 L960 1152 L1152 1152 L1152 768 L960 768 Z " />
<glyph glyph-name="afii10041" unicode="&#x427;" horiz-adv-x="1152" d="M0 1920 L0 2304 L192 2304 L192 1920 L0 1920 Z M768 960 L768 1728 L192 1728 L192 1920 L768 1920 L768 2304 L960 2304 L960 960 L768 960 Z " />
<glyph glyph-name="afii10042" unicode="&#x428;" horiz-adv-x="1152" d="M0 960 L0 2304 L192 2304 L192 1152 L384 1152 L384 2304 L576 2304 L576 1152 L768 1152 L768 2304 L960 2304 L960 960 L0 960 Z " />
<glyph glyph-name="afii10043" unicode="&#x429;" horiz-adv-x="1344" d="M960 768 L960 960 L0 960 L0 2304 L192 2304 L192 1152 L384 1152 L384 2304 L576 2304 L576 1152 L768 1152 L768 2304 L960 2304 L960 1152 L1152 1152 L1152 768 L960 768 Z " />
<glyph glyph-name="afii10044" unicode="&#x42a;" horiz-adv-x="1344" d="M960 1152 L960 1728 L1152 1728 L1152 1152 L960 1152 Z M192 960 L192 2112 L0 2112 L0 2304 L384 2304 L384 1920 L960 1920 L960 1728 L384 1728 L384 1152 L960 1152 L960 960 L192 960 Z " />
<glyph glyph-name="afii10045" unicode="&#x42b;" horiz-adv-x="1536" d="M768 1152 L768 1728 L960 1728 L960 1152 L768 1152 Z M0 960 L0 2304 L192 2304 L192 1920 L768 1920 L768 1728 L192 1728 L192 1152 L768 1152 L768 960 L0 960 Z M1152 960 L1152 2304 L1344 2304 L1344 960 L1152 960 Z " />
<glyph glyph-name="afii10046" unicode="&#x42c;" horiz-adv-x="1152" d="M768 1152 L768 1728 L960 1728 L960 1152 L768 1152 Z M0 960 L0 2304 L192 2304 L192 1920 L768 1920 L768 1728 L192 1728 L192 1152 L768 1152 L768 960 L0 960 Z " />
<glyph glyph-name="afii10047" unicode="&#x42d;" horiz-adv-x="1152" d="M192 960 L192 1152 L768 1152 L768 960 L192 960 Z M0 1152 L0 1344 L192 1344 L192 1152 L0 1152 Z M0 1920 L0 2112 L192 2112 L192 1920 L0 1920 Z M768 1152 L768 1728 L384 1728 L384 1920 L768 1920 L768 2112 L960 2112 L960 1152 L768 1152 Z M192 2112 L192 2304 L768 2304 L768 2112 L192 2112 Z " />
<glyph glyph-name="afii10048" unicode="&#x42e;" horiz-adv-x="1152" d="M576 960 L576 1152 L768 1152 L768 960 L576 960 Z M768 1152 L768 2112 L960 2112 L960 1152 L768 1152 Z M0 960 L0 2304 L192 2304 L192 1920 L384 1920 L384 2112 L576 2112 L576 1152 L384 1152 L384 1728 L192 1728 L192 960 L0 960 Z M576 2112 L576 2304 L768 2304 L768 2112 L576 2112 Z " />
<glyph glyph-name="afii10049" unicode="&#x42f;" horiz-adv-x="1152" d="M0 960 L0 1728 L192 1728 L192 960 L0 960 Z M0 1920 L0 2112 L192 2112 L192 1920 L0 1920 Z M768 960 L768 1728 L192 1728 L192 1920 L768 1920 L768 2112 L192 2112 L192 2304 L960 2304 L960 960 L768 960 Z " />
<glyph glyph-name="acyrillic" unicode="&#x430;" horiz-adv-x="1152" d="M0 1152 L0 1344 L192 1344 L192 1152 L0 1152 Z M192 960 L192 1152 L768 1152 L768 1344 L192 1344 L192 1536 L768 1536 L768 1728 L960 1728 L960 960 L192 960 Z M192 1728 L192 1920 L768 1920 L768 1728 L192 1728 Z " />
<glyph glyph-name="afii10066" unicode="&#x431;" horiz-adv-x="1152" d="M192 960 L192 1152 L768 1152 L768 960 L192 960 Z M768 1152 L768 1728 L960 1728 L960 1152 L768 1152 Z M384 1728 L384 1920 L768 1920 L768 1728 L384 1728 Z M0 1152 L0 2112 L192 2112 L192 1728 L384 1728 L384 1536 L192 1536 L192 1152 L0 1152 Z M192 2112 L192 2304 L960 2304 L960 2112 L192 2112 Z " />
<glyph glyph-name="afii10067" unicode="&#x432;" horiz-adv-x="1152" d="M768 1152 L768 1344 L960 1344 L960 1152 L768 1152 Z M768 1536 L768 1728 L960 1728 L960 1536 L768 1536 Z M0 960 L0 1920 L768 1920 L768 1728 L192 1728 L192 1536 L768 1536 L768 1344 L192 1344 L192 1152 L768 1152 L768 960 L0 960 Z " />
<glyph glyph-name="afii10068" unicode="&#x433;" horiz-adv-x="1152" d="M0 960 L0 1920 L960 1920 L960 1728 L192 1728 L192 960 L0 960 Z " />
<glyph glyph-name="afii10069" unicode="&#x434;" horiz-adv-x="1152" d="M0 768 L0 1344 L192 1344 L192 1152 L768 1152 L768 1344 L960 1344 L960 768 L768 768 L768 960 L192 960 L192 768 L0 768 Z M192 1344 L192 1728 L384 1728 L384 1344 L192 1344 Z M576 1344 L576 1728 L768 1728 L768 1344 L576 1344 Z M384 1728 L384 1920 L576 1920 L576 1728 L384 1728 Z " />
<glyph glyph-name="afii10070" unicode="&#x435;" horiz-adv-x="1152" d="M192 960 L192 1152 L960 1152 L960 960 L192 960 Z M0 1152 L0 1728 L192 1728 L192 1536 L768 1536 L768 1728 L960 1728 L960 1344 L192 1344 L192 1152 L0 1152 Z M192 1728 L192 1920 L768 1920 L768 1728 L192 1728 Z " />
<glyph glyph-name="afii10072" unicode="&#x436;" horiz-adv-x="1152" d="M0 960 L0 1344 L192 1344 L192 960 L0 960 Z M768 960 L768 1344 L960 1344 L960 960 L768 960 Z M0 1536 L0 1920 L192 1920 L192 1536 L0 1536 Z M384 960 L384 1344 L192 1344 L192 1536 L384 1536 L384 1920 L576 1920 L576 1536 L768 1536 L768 1344 L576 1344 L576 960 L384 960 Z M768 1536 L768 1920 L960 1920 L960 1536 L768 1536 Z " />
<glyph glyph-name="afii10073" unicode="&#x437;" horiz-adv-x="1152" d="M0 960 L0 1152 L768 1152 L768 960 L0 960 Z M768 1152 L768 1344 L960 1344 L960 1152 L768 1152 Z M384 1344 L384 1536 L768 1536 L768 1344 L384 1344 Z M768 1536 L768 1728 L960 1728 L960 1536 L768 1536 Z M0 1728 L0 1920 L768 1920 L768 1728 L0 1728 Z " />
<glyph glyph-name="afii10074" unicode="&#x438;" horiz-adv-x="1152" d="M384 1344 L384 1536 L576 1536 L576 1344 L384 1344 Z M0 960 L0 1920 L192 1920 L192 1344 L384 1344 L384 1152 L192 1152 L192 960 L0 960 Z M768 960 L768 1536 L576 1536 L576 1728 L768 1728 L768 1920 L960 1920 L960 960 L768 960 Z " />
<glyph glyph-name="afii10075" unicode="&#x439;" horiz-adv-x="1152" d="M384 1344 L384 1536 L576 1536 L576 1344 L384 1344 Z M0 960 L0 1920 L192 1920 L192 1344 L384 1344 L384 1152 L192 1152 L192 960 L0 960 Z M768 960 L768 1536 L576 1536 L576 1728 L768 1728 L768 1920 L960 1920 L960 960 L768 960 Z M192 2112 L192 2496 L384 2496 L384 2304 L576 2304 L576 2496 L768 2496 L768 2112 L192 2112 Z " />
<glyph glyph-name="afii10076" unicode="&#x43a;" horiz-adv-x="960" d="M576 960 L576 1152 L768 1152 L768 960 L576 960 Z M384 1152 L384 1344 L576 1344 L576 1152 L384 1152 Z M384 1536 L384 1728 L576 1728 L576 1536 L384 1536 Z M0 960 L0 1920 L192 1920 L192 1536 L384 1536 L384 1344 L192 1344 L192 960 L0 960 Z M576 1728 L576 1920 L768 1920 L768 1728 L576 1728 Z " />
<glyph glyph-name="afii10077" unicode="&#x43b;" horiz-adv-x="1152" d="M0 960 L0 1152 L192 1152 L192 1920 L960 1920 L960 960 L768 960 L768 1728 L384 1728 L384 960 L0 960 Z " />
<glyph glyph-name="afii10078" unicode="&#x43c;" horiz-adv-x="1152" d="M384 1344 L384 1536 L576 1536 L576 1344 L384 1344 Z M0 960 L0 1920 L192 1920 L192 1728 L384 1728 L384 1536 L192 1536 L192 960 L0 960 Z M768 960 L768 1536 L576 1536 L576 1728 L768 1728 L768 1920 L960 1920 L960 960 L768 960 Z " />
<glyph glyph-name="afii10079" unicode="&#x43d;" horiz-adv-x="1152" d="M0 960 L0 1920 L192 1920 L192 1536 L768 1536 L768 1920 L960 1920 L960 960 L768 960 L768 1344 L192 1344 L192 960 L0 960 Z " />
<glyph glyph-name="afii10080" unicode="&#x43e;" horiz-adv-x="1152" d="M192 960 L192 1152 L768 1152 L768 960 L192 960 Z M0 1152 L0 1728 L192 1728 L192 1152 L0 1152 Z M768 1152 L768 1728 L960 1728 L960 1152 L768 1152 Z M192 1728 L192 1920 L768 1920 L768 1728 L192 1728 Z " />
<glyph glyph-name="afii10081" unicode="&#x43f;" horiz-adv-x="1152" d="M0 960 L0 1920 L960 1920 L960 960 L768 960 L768 1728 L192 1728 L192 960 L0 960 Z " />
<glyph glyph-name="afii10082" unicode="&#x440;" horiz-adv-x="1152" d="M768 1344 L768 1728 L960 1728 L960 1344 L768 1344 Z M0 768 L0 1920 L192 1920 L192 1728 L384 1728 L384 1536 L192 1536 L192 1344 L768 1344 L768 1152 L192 1152 L192 768 L0 768 Z M384 1728 L384 1920 L768 1920 L768 1728 L384 1728 Z " />
<glyph glyph-name="afii10083" unicode="&#x441;" horiz-adv-x="1152" d="M192 960 L192 1152 L768 1152 L768 960 L192 960 Z M768 1152 L768 1344 L960 1344 L960 1152 L768 1152 Z M0 1152 L0 1728 L192 1728 L192 1152 L0 1152 Z M768 1536 L768 1728 L960 1728 L960 1536 L768 1536 Z M192 1728 L192 1920 L768 1920 L768 1728 L192 1728 Z " />
<glyph glyph-name="afii10084" unicode="&#x442;" horiz-adv-x="1152" d="M384 960 L384 1728 L0 1728 L0 1920 L960 1920 L960 1728 L576 1728 L576 960 L384 960 Z " />
<glyph glyph-name="afii10085" unicode="&#x443;" horiz-adv-x="1152" d="M0 768 L0 960 L768 960 L768 768 L0 768 Z M0 1344 L0 1920 L192 1920 L192 1344 L0 1344 Z M768 960 L768 1152 L192 1152 L192 1344 L768 1344 L768 1920 L960 1920 L960 960 L768 960 Z " />
<glyph glyph-name="afii10086" unicode="&#x444;" horiz-adv-x="1536" d="M192 1152 L192 1344 L384 1344 L384 1152 L192 1152 Z M0 1344 L0 1728 L192 1728 L192 1344 L0 1344 Z M1152 1344 L1152 1728 L1344 1728 L1344 1344 L1152 1344 Z M960 1728 L960 1920 L1152 1920 L1152 1728 L960 1728 Z M576 768 L576 1344 L384 1344 L384 1536 L576 1536 L576 1728 L192 1728 L192 1920 L576 1920 L576 2304 L768 2304 L768 1728 L960 1728 L960 1536 L768 1536 L768 1344 L1152 1344 L1152 1152 L768 1152 L768 768 L576 768 Z " />
<glyph glyph-name="afii10087" unicode="&#x445;" horiz-adv-x="1152" d="M0 960 L0 1152 L192 1152 L192 960 L0 960 Z M768 960 L768 1152 L960 1152 L960 960 L768 960 Z M192 1152 L192 1344 L384 1344 L384 1152 L192 1152 Z M576 1152 L576 1344 L768 1344 L768 1152 L576 1152 Z M384 1344 L384 1536 L576 1536 L576 1344 L384 1344 Z M192 1536 L192 1728 L384 1728 L384 1536 L192 1536 Z M576 1536 L576 1728 L768 1728 L768 1536 L576 1536 Z M0 1728 L0 1920 L192 1920 L192 1728 L0 1728 Z M768 1728 L768 1920 L960 1920 L960 1728 L768 1728 Z " />
<glyph glyph-name="afii10088" unicode="&#x446;" horiz-adv-x="1344" d="M960 768 L960 960 L0 960 L0 1920 L192 1920 L192 1152 L768 1152 L768 1920 L960 1920 L960 1152 L1152 1152 L1152 768 L960 768 Z " />
<glyph glyph-name="afii10089" unicode="&#x447;" horiz-adv-x="1152" d="M0 1536 L0 1920 L192 1920 L192 1536 L0 1536 Z M768 960 L768 1344 L192 1344 L192 1536 L768 1536 L768 1920 L960 1920 L960 960 L768 960 Z " />
<glyph glyph-name="afii10090" unicode="&#x448;" horiz-adv-x="1152" d="M0 960 L0 1920 L192 1920 L192 1152 L384 1152 L384 1920 L576 1920 L576 1152 L768 1152 L768 1920 L960 1920 L960 960 L0 960 Z " />
<glyph glyph-name="afii10091" unicode="&#x449;" horiz-adv-x="1344" d="M960 768 L960 960 L0 960 L0 1920 L192 1920 L192 1152 L384 1152 L384 1920 L576 1920 L576 1152 L768 1152 L768 1920 L960 1920 L960 1152 L1152 1152 L1152 768 L960 768 Z " />
<glyph glyph-name="afii10092" unicode="&#x44a;" horiz-adv-x="1152" d="M768 1152 L768 1344 L960 1344 L960 1152 L768 1152 Z M192 960 L192 1728 L0 1728 L0 1920 L384 1920 L384 1536 L768 1536 L768 1344 L384 1344 L384 1152 L768 1152 L768 960 L192 960 Z " />
<glyph glyph-name="afii10093" unicode="&#x44b;" horiz-adv-x="1344" d="M576 1152 L576 1344 L768 1344 L768 1152 L576 1152 Z M0 960 L0 1920 L192 1920 L192 1536 L576 1536 L576 1344 L192 1344 L192 1152 L576 1152 L576 960 L0 960 Z M960 960 L960 1920 L1152 1920 L1152 960 L960 960 Z " />
<glyph glyph-name="afii10094" unicode="&#x44c;" horiz-adv-x="960" d="M576 1152 L576 1344 L768 1344 L768 1152 L576 1152 Z M0 960 L0 1920 L192 1920 L192 1536 L576 1536 L576 1344 L192 1344 L192 1152 L576 1152 L576 960 L0 960 Z " />
<glyph glyph-name="afii10095" unicode="&#x44d;" horiz-adv-x="1152" d="M192 960 L192 1152 L768 1152 L768 960 L192 960 Z M0 1152 L0 1344 L192 1344 L192 1152 L0 1152 Z M0 1536 L0 1728 L192 1728 L192 1536 L0 1536 Z M768 1152 L768 1344 L384 1344 L384 1536 L768 1536 L768 1728 L960 1728 L960 1152 L768 1152 Z M192 1728 L192 1920 L768 1920 L768 1728 L192 1728 Z " />
<glyph glyph-name="afii10096" unicode="&#x44e;" horiz-adv-x="1152" d="M576 960 L576 1152 L768 1152 L768 960 L576 960 Z M768 1152 L768 1728 L960 1728 L960 1152 L768 1152 Z M0 960 L0 1920 L192 1920 L192 1536 L384 1536 L384 1728 L576 1728 L576 1152 L384 1152 L384 1344 L192 1344 L192 960 L0 960 Z M576 1728 L576 1920 L768 1920 L768 1728 L576 1728 Z " />
<glyph glyph-name="afii10097" unicode="&#x44f;" horiz-adv-x="1152" d="M0 960 L0 1344 L192 1344 L192 960 L0 960 Z M0 1536 L0 1728 L192 1728 L192 1536 L0 1536 Z M768 960 L768 1344 L192 1344 L192 1536 L768 1536 L768 1728 L192 1728 L192 1920 L960 1920 L960 960 L768 960 Z " />
<glyph glyph-name="uni0450" unicode="&#x450;" horiz-adv-x="1152" d="M192 960 L192 1152 L960 1152 L960 960 L192 960 Z M0 1152 L0 1728 L192 1728 L192 1536 L768 1536 L768 1728 L960 1728 L960 1344 L192 1344 L192 1152 L0 1152 Z M192 1728 L192 1920 L768 1920 L768 1728 L192 1728 Z M384 2112 L384 2304 L576 2304 L576 2112 L384 2112 Z M192 2304 L192 2496 L384 2496 L384 2304 L192 2304 Z " />
<glyph glyph-name="afii10071" unicode="&#x451;" horiz-adv-x="1152" d="M192 960 L192 1152 L960 1152 L960 960 L192 960 Z M0 1152 L0 1728 L192 1728 L192 1536 L768 1536 L768 1728 L960 1728 L960 1344 L192 1344 L192 1152 L0 1152 Z M192 1728 L192 1920 L768 1920 L768 1728 L192 1728 Z M192 2112 L192 2304 L384 2304 L384 2112 L192 2112 Z M576 2112 L576 2304 L768 2304 L768 2112 L576 2112 Z " />
<glyph glyph-name="afii10099" unicode="&#x452;" horiz-adv-x="1344" d="M576 768 L576 960 L960 960 L960 768 L576 768 Z M960 960 L960 1728 L1152 1728 L1152 960 L960 960 Z M576 1728 L576 1920 L960 1920 L960 1728 L576 1728 Z M192 960 L192 1920 L0 1920 L0 2112 L192 2112 L192 2304 L384 2304 L384 2112 L576 2112 L576 1920 L384 1920 L384 1728 L576 1728 L576 1536 L384 1536 L384 960 L192 960 Z " />
<glyph glyph-name="afii10100" unicode="&#x453;" horiz-adv-x="1152" d="M0 960 L0 1920 L960 1920 L960 1728 L192 1728 L192 960 L0 960 Z M384 2112 L384 2304 L576 2304 L576 2112 L384 2112 Z M576 2304 L576 2496 L768 2496 L768 2304 L576 2304 Z " />
<glyph glyph-name="afii10101" unicode="&#x454;" horiz-adv-x="1152" d="M192 960 L192 1152 L768 1152 L768 960 L192 960 Z M768 1152 L768 1344 L960 1344 L960 1152 L768 1152 Z M0 1152 L0 1728 L192 1728 L192 1536 L576 1536 L576 1344 L192 1344 L192 1152 L0 1152 Z M768 1536 L768 1728 L960 1728 L960 1536 L768 1536 Z M192 1728 L192 1920 L768 1920 L768 1728 L192 1728 Z " />
<glyph glyph-name="afii10102" unicode="&#x455;" horiz-adv-x="1152" d="M0 960 L0 1152 L768 1152 L768 960 L0 960 Z M768 1152 L768 1344 L960 1344 L960 1152 L768 1152 Z M192 1344 L192 1536 L768 1536 L768 1344 L192 1344 Z M0 1536 L0 1728 L192 1728 L192 1536 L0 1536 Z M192 1728 L192 1920 L960 1920 L960 1728 L192 1728 Z " />
<glyph glyph-name="afii10103" unicode="&#x456;" horiz-adv-x="384" d="M0 960 L0 1920 L192 1920 L192 960 L0 960 Z M0 2112 L0 2304 L192 2304 L192 2112 L0 2112 Z " />
<glyph glyph-name="afii10104" unicode="&#x457;" horiz-adv-x="768" d="M192 960 L192 1920 L384 1920 L384 960 L192 960 Z M0 2112 L0 2304 L192 2304 L192 2112 L0 2112 Z M384 2112 L384 2304 L576 2304 L576 2112 L384 2112 Z " />
<glyph glyph-name="afii10105" unicode="&#x458;" horiz-adv-x="1152" d="M192 768 L192 960 L768 960 L768 768 L192 768 Z M0 960 L0 1152 L192 1152 L192 960 L0 960 Z M768 960 L768 1920 L960 1920 L960 960 L768 960 Z M768 2112 L768 2304 L960 2304 L960 2112 L768 2112 Z " />
<glyph glyph-name="afii10106" unicode="&#x459;" horiz-adv-x="1728" d="M1344 1152 L1344 1344 L1536 1344 L1536 1152 L1344 1152 Z M0 960 L0 1152 L192 1152 L192 1920 L960 1920 L960 1536 L1344 1536 L1344 1344 L960 1344 L960 1152 L1344 1152 L1344 960 L768 960 L768 1728 L384 1728 L384 960 L0 960 Z " />
<glyph glyph-name="afii10107" unicode="&#x45a;" horiz-adv-x="1728" d="M1344 1152 L1344 1344 L1536 1344 L1536 1152 L1344 1152 Z M0 960 L0 1920 L192 1920 L192 1536 L768 1536 L768 1920 L960 1920 L960 1536 L1344 1536 L1344 1344 L960 1344 L960 1152 L1344 1152 L1344 960 L768 960 L768 1344 L192 1344 L192 960 L0 960 Z " />
<glyph glyph-name="afii10108" unicode="&#x45b;" horiz-adv-x="1344" d="M960 960 L960 1728 L1152 1728 L1152 960 L960 960 Z M576 1728 L576 1920 L960 1920 L960 1728 L576 1728 Z M192 960 L192 1920 L0 1920 L0 2112 L192 2112 L192 2304 L384 2304 L384 2112 L576 2112 L576 1920 L384 1920 L384 1728 L576 1728 L576 1536 L384 1536 L384 960 L192 960 Z " />
<glyph glyph-name="afii10109" unicode="&#x45c;" horiz-adv-x="960" d="M576 960 L576 1152 L768 1152 L768 960 L576 960 Z M384 1152 L384 1344 L576 1344 L576 1152 L384 1152 Z M384 1536 L384 1728 L576 1728 L576 1536 L384 1536 Z M0 960 L0 1920 L192 1920 L192 1536 L384 1536 L384 1344 L192 1344 L192 960 L0 960 Z M576 1728 L576 1920 L768 1920 L768 1728 L576 1728 Z " />
<glyph glyph-name="uni045D" unicode="&#x45d;" horiz-adv-x="1152" d="M384 1344 L384 1536 L576 1536 L576 1344 L384 1344 Z M0 960 L0 1920 L192 1920 L192 1344 L384 1344 L384 1152 L192 1152 L192 960 L0 960 Z M768 960 L768 1536 L576 1536 L576 1728 L768 1728 L768 1920 L960 1920 L960 960 L768 960 Z M384 2112 L384 2304 L576 2304 L576 2112 L384 2112 Z M192 2304 L192 2496 L384 2496 L384 2304 L192 2304 Z " />
<glyph glyph-name="afii10110" unicode="&#x45e;" horiz-adv-x="1152" d="M0 768 L0 960 L768 960 L768 768 L0 768 Z M0 1344 L0 1920 L192 1920 L192 1344 L0 1344 Z M768 960 L768 1152 L192 1152 L192 1344 L768 1344 L768 1920 L960 1920 L960 960 L768 960 Z M192 2112 L192 2496 L384 2496 L384 2304 L576 2304 L576 2496 L768 2496 L768 2112 L192 2112 Z " />
<glyph glyph-name="afii10193" unicode="&#x45f;" horiz-adv-x="1152" d="M384 768 L384 960 L0 960 L0 1920 L192 1920 L192 1152 L768 1152 L768 1920 L960 1920 L960 960 L576 960 L576 768 L384 768 Z " />
<glyph glyph-name="afii10146" unicode="&#x462;" horiz-adv-x="1344" d="M960 1152 L960 1536 L1152 1536 L1152 1152 L960 1152 Z M192 960 L192 1920 L0 1920 L0 2112 L192 2112 L192 2304 L384 2304 L384 2112 L960 2112 L960 1920 L384 1920 L384 1728 L960 1728 L960 1536 L384 1536 L384 1152 L960 1152 L960 960 L192 960 Z " />
<glyph glyph-name="afii10194" unicode="&#x463;" horiz-adv-x="1344" d="M960 1152 L960 1536 L1152 1536 L1152 1152 L960 1152 Z M576 1536 L576 1728 L960 1728 L960 1536 L576 1536 Z M192 960 L192 1920 L0 1920 L0 2112 L192 2112 L192 2304 L384 2304 L384 2112 L960 2112 L960 1920 L384 1920 L384 1536 L576 1536 L576 1344 L384 1344 L384 1152 L960 1152 L960 960 L192 960 Z " />
<glyph glyph-name="afii10147" unicode="&#x472;" horiz-adv-x="1152" d="M192 960 L192 1152 L768 1152 L768 960 L192 960 Z M0 1152 L0 2112 L192 2112 L192 1728 L768 1728 L768 2112 L960 2112 L960 1152 L768 1152 L768 1536 L192 1536 L192 1152 L0 1152 Z M192 2112 L192 2304 L768 2304 L768 2112 L192 2112 Z " />
<glyph glyph-name="afii10195" unicode="&#x473;" horiz-adv-x="1152" d="M192 960 L192 1152 L768 1152 L768 960 L192 960 Z M0 1152 L0 1728 L192 1728 L192 1536 L768 1536 L768 1728 L960 1728 L960 1152 L768 1152 L768 1344 L192 1344 L192 1152 L0 1152 Z M192 1728 L192 1920 L768 1920 L768 1728 L192 1728 Z " />
<glyph glyph-name="afii10148" unicode="&#x474;" horiz-adv-x="1152" d="M384 960 L384 1152 L576 1152 L576 960 L384 960 Z M192 1152 L192 1536 L384 1536 L384 1152 L192 1152 Z M576 1152 L576 1728 L768 1728 L768 1152 L576 1152 Z M0 1536 L0 2304 L192 2304 L192 1536 L0 1536 Z M768 1728 L768 2304 L960 2304 L960 1728 L768 1728 Z " />
<glyph glyph-name="afii10196" unicode="&#x475;" horiz-adv-x="1152" d="M384 960 L384 1152 L576 1152 L576 960 L384 960 Z M192 1152 L192 1344 L384 1344 L384 1152 L192 1152 Z M576 1152 L576 1536 L768 1536 L768 1152 L576 1152 Z M0 1344 L0 1920 L192 1920 L192 1344 L0 1344 Z M768 1536 L768 1920 L960 1920 L960 1536 L768 1536 Z " />
<glyph glyph-name="uni048A" unicode="&#x48a;" horiz-adv-x="1344" d="M384 1728 L384 1920 L576 1920 L576 1728 L384 1728 Z M0 960 L0 2304 L192 2304 L192 1728 L384 1728 L384 1536 L192 1536 L192 960 L0 960 Z M768 768 L768 1920 L576 1920 L576 2112 L768 2112 L768 2304 L960 2304 L960 1152 L1152 1152 L1152 960 L960 960 L960 768 L768 768 Z M192 2304 L192 2688 L384 2688 L384 2496 L576 2496 L576 2688 L768 2688 L768 2304 L192 2304 Z " />
<glyph glyph-name="uni048B" unicode="&#x48b;" horiz-adv-x="1344" d="M384 1344 L384 1536 L576 1536 L576 1344 L384 1344 Z M0 960 L0 1920 L192 1920 L192 1344 L384 1344 L384 1152 L192 1152 L192 960 L0 960 Z M768 768 L768 1536 L576 1536 L576 1728 L768 1728 L768 1920 L960 1920 L960 1152 L1152 1152 L1152 960 L960 960 L960 768 L768 768 Z M192 2112 L192 2496 L384 2496 L384 2304 L576 2304 L576 2496 L768 2496 L768 2112 L192 2112 Z " />
<glyph glyph-name="uni048C" unicode="&#x48c;" horiz-adv-x="1344" d="M960 1152 L960 1728 L1152 1728 L1152 1152 L960 1152 Z M192 960 L192 2112 L0 2112 L0 2304 L576 2304 L576 2112 L384 2112 L384 1920 L960 1920 L960 1728 L384 1728 L384 1152 L960 1152 L960 960 L192 960 Z " />
<glyph glyph-name="uni048D" unicode="&#x48d;" horiz-adv-x="1152" d="M768 1152 L768 1344 L960 1344 L960 1152 L768 1152 Z M192 960 L192 1920 L0 1920 L0 2112 L192 2112 L192 2304 L384 2304 L384 2112 L576 2112 L576 1920 L384 1920 L384 1536 L768 1536 L768 1344 L384 1344 L384 1152 L768 1152 L768 960 L192 960 Z " />
<glyph glyph-name="uni048E" unicode="&#x48e;" horiz-adv-x="1152" d="M384 1920 L384 2112 L192 2112 L192 1920 L384 1920 Z M0 960 L0 2304 L768 2304 L768 2112 L576 2112 L576 1920 L768 1920 L768 2112 L960 2112 L960 1536 L768 1536 L768 1728 L192 1728 L192 960 L0 960 Z " />
<glyph glyph-name="uni048F" unicode="&#x48f;" horiz-adv-x="1152" d="M768 960 L768 1152 L960 1152 L960 960 L768 960 Z M768 1344 L768 1728 L960 1728 L960 1344 L768 1344 Z M0 768 L0 1920 L192 1920 L192 1728 L384 1728 L384 1536 L192 1536 L192 1344 L384 1344 L384 1536 L576 1536 L576 1344 L768 1344 L768 1152 L192 1152 L192 768 L0 768 Z M384 1728 L384 1920 L768 1920 L768 1728 L384 1728 Z " />
<glyph glyph-name="afii10050" unicode="&#x490;" horiz-adv-x="1152" d="M0 960 L0 2304 L768 2304 L768 2496 L960 2496 L960 2112 L192 2112 L192 960 L0 960 Z " />
<glyph glyph-name="afii10098" unicode="&#x491;" horiz-adv-x="1152" d="M0 960 L0 1920 L768 1920 L768 2112 L960 2112 L960 1728 L192 1728 L192 960 L0 960 Z " />
<glyph glyph-name="Ghestrokecyrillic" unicode="&#x492;" horiz-adv-x="1344" d="M192 960 L192 1536 L0 1536 L0 1728 L192 1728 L192 2304 L1152 2304 L1152 2112 L384 2112 L384 1728 L768 1728 L768 1536 L384 1536 L384 960 L192 960 Z " />
<glyph glyph-name="ghestrokecyrillic" unicode="&#x493;" horiz-adv-x="1344" d="M192 960 L192 1344 L0 1344 L0 1536 L192 1536 L192 1920 L1152 1920 L1152 1728 L384 1728 L384 1536 L768 1536 L768 1344 L384 1344 L384 960 L192 960 Z " />
<glyph glyph-name="Zhedescendercyrillic" unicode="&#x496;" horiz-adv-x="1344" d="M0 960 L0 1728 L192 1728 L192 960 L0 960 Z M960 768 L960 960 L768 960 L768 1728 L960 1728 L960 1152 L1152 1152 L1152 768 L960 768 Z M0 1920 L0 2304 L192 2304 L192 1920 L0 1920 Z M384 960 L384 1728 L192 1728 L192 1920 L384 1920 L384 2304 L576 2304 L576 1920 L768 1920 L768 1728 L576 1728 L576 960 L384 960 Z M768 1920 L768 2304 L960 2304 L960 1920 L768 1920 Z " />
<glyph glyph-name="zhedescendercyrillic" unicode="&#x497;" horiz-adv-x="1344" d="M0 960 L0 1344 L192 1344 L192 960 L0 960 Z M960 768 L960 960 L768 960 L768 1344 L960 1344 L960 1152 L1152 1152 L1152 768 L960 768 Z M0 1536 L0 1920 L192 1920 L192 1536 L0 1536 Z M384 960 L384 1344 L192 1344 L192 1536 L384 1536 L384 1920 L576 1920 L576 1536 L768 1536 L768 1344 L576 1344 L576 960 L384 960 Z M768 1536 L768 1920 L960 1920 L960 1536 L768 1536 Z " />
<glyph glyph-name="Zedescendercyrillic" unicode="&#x498;" horiz-adv-x="1152" d="M384 768 L384 960 L192 960 L192 1152 L768 1152 L768 960 L576 960 L576 768 L384 768 Z M0 1152 L0 1344 L192 1344 L192 1152 L0 1152 Z M768 1152 L768 1728 L960 1728 L960 1152 L768 1152 Z M384 1728 L384 1920 L768 1920 L768 1728 L384 1728 Z M768 1920 L768 2112 L960 2112 L960 1920 L768 1920 Z M0 2112 L0 2304 L768 2304 L768 2112 L0 2112 Z " />
<glyph glyph-name="zedescendercyrillic" unicode="&#x499;" horiz-adv-x="1152" d="M384 768 L384 960 L0 960 L0 1152 L768 1152 L768 960 L576 960 L576 768 L384 768 Z M768 1152 L768 1344 L960 1344 L960 1152 L768 1152 Z M384 1344 L384 1536 L768 1536 L768 1344 L384 1344 Z M768 1536 L768 1728 L960 1728 L960 1536 L768 1536 Z M0 1728 L0 1920 L768 1920 L768 1728 L0 1728 Z " />
<glyph glyph-name="Kadescendercyrillic" unicode="&#x49a;" horiz-adv-x="1344" d="M960 768 L960 960 L768 960 L768 1536 L960 1536 L960 1152 L1152 1152 L1152 768 L960 768 Z M576 1536 L576 1728 L768 1728 L768 1536 L576 1536 Z M576 1920 L576 2112 L768 2112 L768 1920 L576 1920 Z M0 960 L0 2304 L192 2304 L192 1920 L576 1920 L576 1728 L192 1728 L192 960 L0 960 Z M768 2112 L768 2304 L960 2304 L960 2112 L768 2112 Z " />
<glyph glyph-name="kadescendercyrillic" unicode="&#x49b;" horiz-adv-x="960" d="M576 960 L576 1152 L768 1152 L768 960 L576 960 Z M384 1152 L384 1344 L576 1344 L576 1152 L384 1152 Z M384 1536 L384 1728 L576 1728 L576 1536 L384 1536 Z M0 960 L0 1920 L192 1920 L192 1536 L384 1536 L384 1344 L192 1344 L192 960 L0 960 Z M576 1728 L576 1920 L768 1920 L768 1728 L576 1728 Z " />
<glyph glyph-name="Kaverticalstrokecyrillic" unicode="&#x49c;" horiz-adv-x="1152" d="M768 960 L768 1728 L960 1728 L960 960 L768 960 Z M0 960 L0 2304 L192 2304 L192 1920 L384 1920 L384 2112 L576 2112 L576 1920 L768 1920 L768 1728 L576 1728 L576 1536 L384 1536 L384 1728 L192 1728 L192 960 L0 960 Z M768 1920 L768 2304 L960 2304 L960 1920 L768 1920 Z " />
<glyph glyph-name="kaverticalstrokecyrillic" unicode="&#x49d;" horiz-adv-x="1152" d="M768 960 L768 1344 L960 1344 L960 960 L768 960 Z M0 960 L0 1920 L192 1920 L192 1536 L384 1536 L384 1728 L576 1728 L576 1536 L768 1536 L768 1344 L576 1344 L576 1152 L384 1152 L384 1344 L192 1344 L192 960 L0 960 Z M768 1536 L768 1920 L960 1920 L960 1536 L768 1536 Z " />
<glyph glyph-name="Kabashkircyrillic" unicode="&#x4a0;" horiz-adv-x="1344" d="M960 960 L960 1536 L1152 1536 L1152 960 L960 960 Z M768 1536 L768 1728 L960 1728 L960 1536 L768 1536 Z M768 1920 L768 2112 L960 2112 L960 1920 L768 1920 Z M192 960 L192 2112 L0 2112 L0 2304 L384 2304 L384 1920 L768 1920 L768 1728 L384 1728 L384 960 L192 960 Z M960 2112 L960 2304 L1152 2304 L1152 2112 L960 2112 Z " />
<glyph glyph-name="kabashkircyrillic" unicode="&#x4a1;" horiz-adv-x="1152" d="M768 960 L768 1152 L960 1152 L960 960 L768 960 Z M576 1152 L576 1344 L768 1344 L768 1152 L576 1152 Z M576 1536 L576 1728 L768 1728 L768 1536 L576 1536 Z M192 960 L192 1728 L0 1728 L0 1920 L384 1920 L384 1536 L576 1536 L576 1344 L384 1344 L384 960 L192 960 Z M768 1728 L768 1920 L960 1920 L960 1728 L768 1728 Z " />
<glyph glyph-name="Endescendercyrillic" unicode="&#x4a2;" horiz-adv-x="1344" d="M960 768 L960 960 L768 960 L768 1728 L192 1728 L192 960 L0 960 L0 2304 L192 2304 L192 1920 L768 1920 L768 2304 L960 2304 L960 1152 L1152 1152 L1152 768 L960 768 Z " />
<glyph glyph-name="endescendercyrillic" unicode="&#x4a3;" horiz-adv-x="1344" d="M960 768 L960 960 L768 960 L768 1344 L192 1344 L192 960 L0 960 L0 1920 L192 1920 L192 1536 L768 1536 L768 1920 L960 1920 L960 1152 L1152 1152 L1152 768 L960 768 Z " />
<glyph glyph-name="Esdescendercyrillic" unicode="&#x4aa;" horiz-adv-x="1152" d="M384 768 L384 960 L192 960 L192 1152 L768 1152 L768 960 L576 960 L576 768 L384 768 Z M768 1152 L768 1344 L960 1344 L960 1152 L768 1152 Z M0 1152 L0 2112 L192 2112 L192 1152 L0 1152 Z M768 1920 L768 2112 L960 2112 L960 1920 L768 1920 Z M192 2112 L192 2304 L768 2304 L768 2112 L192 2112 Z " />
<glyph glyph-name="esdescendercyrillic" unicode="&#x4ab;" horiz-adv-x="1152" d="M384 768 L384 960 L192 960 L192 1152 L768 1152 L768 960 L576 960 L576 768 L384 768 Z M768 1152 L768 1344 L960 1344 L960 1152 L768 1152 Z M0 1152 L0 1728 L192 1728 L192 1152 L0 1152 Z M768 1536 L768 1728 L960 1728 L960 1536 L768 1536 Z M192 1728 L192 1920 L768 1920 L768 1728 L192 1728 Z " />
<glyph glyph-name="Ustraightcyrillic" unicode="&#x4ae;" horiz-adv-x="1152" d="M384 960 L384 1920 L576 1920 L576 960 L384 960 Z M192 1920 L192 2112 L384 2112 L384 1920 L192 1920 Z M576 1920 L576 2112 L768 2112 L768 1920 L576 1920 Z M0 2112 L0 2304 L192 2304 L192 2112 L0 2112 Z M768 2112 L768 2304 L960 2304 L960 2112 L768 2112 Z " />
<glyph glyph-name="ustraightcyrillic" unicode="&#x4af;" horiz-adv-x="1152" d="M384 768 L384 1536 L576 1536 L576 768 L384 768 Z M192 1536 L192 1728 L384 1728 L384 1536 L192 1536 Z M576 1536 L576 1728 L768 1728 L768 1536 L576 1536 Z M0 1728 L0 1920 L192 1920 L192 1728 L0 1728 Z M768 1728 L768 1920 L960 1920 L960 1728 L768 1728 Z " />
<glyph glyph-name="Ustraightstrokecyrillic" unicode="&#x4b0;" horiz-adv-x="1152" d="M384 960 L384 1344 L192 1344 L192 1536 L384 1536 L384 1920 L576 1920 L576 1536 L768 1536 L768 1344 L576 1344 L576 960 L384 960 Z M192 1920 L192 2112 L384 2112 L384 1920 L192 1920 Z M576 1920 L576 2112 L768 2112 L768 1920 L576 1920 Z M0 2112 L0 2304 L192 2304 L192 2112 L0 2112 Z M768 2112 L768 2304 L960 2304 L960 2112 L768 2112 Z " />
<glyph glyph-name="ustraightstrokecyrillic" unicode="&#x4b1;" horiz-adv-x="1152" d="M384 768 L384 1152 L192 1152 L192 1344 L384 1344 L384 1536 L576 1536 L576 1344 L768 1344 L768 1152 L576 1152 L576 768 L384 768 Z M192 1536 L192 1728 L384 1728 L384 1536 L192 1536 Z M576 1536 L576 1728 L768 1728 L768 1536 L576 1536 Z M0 1728 L0 1920 L192 1920 L192 1728 L0 1728 Z M768 1728 L768 1920 L960 1920 L960 1728 L768 1728 Z " />
<glyph glyph-name="Hadescendercyrillic" unicode="&#x4b2;" horiz-adv-x="1344" d="M0 960 L0 1536 L192 1536 L192 960 L0 960 Z M960 768 L960 960 L768 960 L768 1536 L960 1536 L960 1152 L1152 1152 L1152 768 L960 768 Z M192 1536 L192 1728 L384 1728 L384 1536 L192 1536 Z M576 1536 L576 1728 L768 1728 L768 1536 L576 1536 Z M384 1728 L384 1920 L576 1920 L576 1728 L384 1728 Z M192 1920 L192 2112 L384 2112 L384 1920 L192 1920 Z M576 1920 L576 2112 L768 2112 L768 1920 L576 1920 Z M0 2112 L0 2304 L192 2304 L192 2112 L0 2112 Z M768 2112 L768 2304 L960 2304 L960 2112 L768 2112 Z " />
<glyph glyph-name="hadescendercyrillic" unicode="&#x4b3;" horiz-adv-x="1344" d="M0 960 L0 1152 L192 1152 L192 960 L0 960 Z M960 768 L960 960 L768 960 L768 1152 L1152 1152 L1152 768 L960 768 Z M192 1152 L192 1344 L384 1344 L384 1152 L192 1152 Z M576 1152 L576 1344 L768 1344 L768 1152 L576 1152 Z M384 1344 L384 1536 L576 1536 L576 1344 L384 1344 Z M192 1536 L192 1728 L384 1728 L384 1536 L192 1536 Z M576 1536 L576 1728 L768 1728 L768 1536 L576 1536 Z M0 1728 L0 1920 L192 1920 L192 1728 L0 1728 Z M768 1728 L768 1920 L960 1920 L960 1728 L768 1728 Z " />
<glyph glyph-name="Chedescendercyrillic" unicode="&#x4b6;" horiz-adv-x="1344" d="M0 1920 L0 2304 L192 2304 L192 1920 L0 1920 Z M960 768 L960 960 L768 960 L768 1728 L192 1728 L192 1920 L768 1920 L768 2304 L960 2304 L960 1152 L1152 1152 L1152 768 L960 768 Z " />
<glyph glyph-name="chedescendercyrillic" unicode="&#x4b7;" horiz-adv-x="1344" d="M0 1536 L0 1920 L192 1920 L192 1536 L0 1536 Z M960 768 L960 960 L768 960 L768 1344 L192 1344 L192 1536 L768 1536 L768 1920 L960 1920 L960 1152 L1152 1152 L1152 768 L960 768 Z " />
<glyph glyph-name="Cheverticalstrokecyrillic" unicode="&#x4b8;" horiz-adv-x="1152" d="M0 1920 L0 2304 L192 2304 L192 1920 L0 1920 Z M768 960 L768 1728 L576 1728 L576 1536 L384 1536 L384 1728 L192 1728 L192 1920 L384 1920 L384 2112 L576 2112 L576 1920 L768 1920 L768 2304 L960 2304 L960 960 L768 960 Z " />
<glyph glyph-name="cheverticalstrokecyrillic" unicode="&#x4b9;" horiz-adv-x="1152" d="M0 1536 L0 1920 L192 1920 L192 1536 L0 1536 Z M768 960 L768 1344 L576 1344 L576 1152 L384 1152 L384 1344 L192 1344 L192 1536 L384 1536 L384 1728 L576 1728 L576 1536 L768 1536 L768 1920 L960 1920 L960 960 L768 960 Z " />
<glyph glyph-name="Shhacyrillic" unicode="&#x4ba;" horiz-adv-x="1152" d="M768 960 L768 1728 L960 1728 L960 960 L768 960 Z M0 960 L0 2304 L192 2304 L192 1920 L768 1920 L768 1728 L192 1728 L192 960 L0 960 Z " />
<glyph glyph-name="shhacyrillic" unicode="&#x4bb;" horiz-adv-x="1152" d="M768 960 L768 1728 L960 1728 L960 960 L768 960 Z M384 1728 L384 1920 L768 1920 L768 1728 L384 1728 Z M0 960 L0 2304 L192 2304 L192 1728 L384 1728 L384 1536 L192 1536 L192 960 L0 960 Z " />
<glyph glyph-name="palochkacyrillic" unicode="&#x4c0;" horiz-adv-x="384" d="M0 960 L0 2304 L192 2304 L192 960 L0 960 Z " />
<glyph glyph-name="Zhebrevecyrillic" unicode="&#x4c1;" horiz-adv-x="1152" d="M0 960 L0 1728 L192 1728 L192 960 L0 960 Z M768 960 L768 1728 L960 1728 L960 960 L768 960 Z M0 1920 L0 2304 L192 2304 L192 1920 L0 1920 Z M768 1920 L768 2304 L960 2304 L960 1920 L768 1920 Z M384 960 L384 1728 L192 1728 L192 1920 L384 1920 L384 2304 L192 2304 L192 2688 L384 2688 L384 2496 L576 2496 L576 2688 L768 2688 L768 2304 L576 2304 L576 1920 L768 1920 L768 1728 L576 1728 L576 960 L384 960 Z " />
<glyph glyph-name="zhebrevecyrillic" unicode="&#x4c2;" horiz-adv-x="1152" d="M0 960 L0 1344 L192 1344 L192 960 L0 960 Z M768 960 L768 1344 L960 1344 L960 960 L768 960 Z M0 1536 L0 1920 L192 1920 L192 1536 L0 1536 Z M384 960 L384 1344 L192 1344 L192 1536 L384 1536 L384 1920 L576 1920 L576 1536 L768 1536 L768 1344 L576 1344 L576 960 L384 960 Z M768 1536 L768 1920 L960 1920 L960 1536 L768 1536 Z M192 2112 L192 2496 L384 2496 L384 2304 L576 2304 L576 2496 L768 2496 L768 2112 L192 2112 Z " />
<glyph glyph-name="uni04C5" unicode="&#x4c5;" horiz-adv-x="1344" d="M768 768 L768 2112 L384 2112 L384 960 L0 960 L0 1152 L192 1152 L192 2304 L960 2304 L960 1152 L1152 1152 L1152 960 L960 960 L960 768 L768 768 Z " />
<glyph glyph-name="uni04C6" unicode="&#x4c6;" horiz-adv-x="1344" d="M768 768 L768 1728 L384 1728 L384 960 L0 960 L0 1152 L192 1152 L192 1920 L960 1920 L960 1152 L1152 1152 L1152 960 L960 960 L960 768 L768 768 Z " />
<glyph glyph-name="Enhookcyrillic" unicode="&#x4c7;" horiz-adv-x="1152" d="M384 768 L384 960 L768 960 L768 768 L384 768 Z M0 960 L0 2304 L192 2304 L192 1920 L768 1920 L768 2304 L960 2304 L960 960 L768 960 L768 1728 L192 1728 L192 960 L0 960 Z " />
<glyph glyph-name="enhookcyrillic" unicode="&#x4c8;" horiz-adv-x="1152" d="M384 768 L384 960 L768 960 L768 768 L384 768 Z M0 960 L0 1920 L192 1920 L192 1536 L768 1536 L768 1920 L960 1920 L960 960 L768 960 L768 1344 L192 1344 L192 960 L0 960 Z " />
<glyph glyph-name="uni04C9" unicode="&#x4c9;" horiz-adv-x="1344" d="M768 768 L768 1728 L192 1728 L192 960 L0 960 L0 2304 L192 2304 L192 1920 L768 1920 L768 2304 L960 2304 L960 1152 L1152 1152 L1152 960 L960 960 L960 768 L768 768 Z " />
<glyph glyph-name="uni04CA" unicode="&#x4ca;" horiz-adv-x="1344" d="M768 768 L768 1344 L192 1344 L192 960 L0 960 L0 1920 L192 1920 L192 1536 L768 1536 L768 1920 L960 1920 L960 1152 L1152 1152 L1152 960 L960 960 L960 768 L768 768 Z " />
<glyph glyph-name="uni04CD" unicode="&#x4cd;" horiz-adv-x="1344" d="M384 1728 L384 1920 L576 1920 L576 1728 L384 1728 Z M0 960 L0 2304 L192 2304 L192 2112 L384 2112 L384 1920 L192 1920 L192 960 L0 960 Z M768 768 L768 1920 L576 1920 L576 2112 L768 2112 L768 2304 L960 2304 L960 1152 L1152 1152 L1152 960 L960 960 L960 768 L768 768 Z " />
<glyph glyph-name="uni04CE" unicode="&#x4ce;" horiz-adv-x="1152" d="M384 1344 L384 1536 L576 1536 L576 1344 L384 1344 Z M0 960 L0 1920 L192 1920 L192 1728 L384 1728 L384 1536 L192 1536 L192 960 L0 960 Z M768 960 L768 1536 L576 1536 L576 1728 L768 1728 L768 1920 L960 1920 L960 960 L768 960 Z " />
<glyph glyph-name="uni04CF" unicode="&#x4cf;" horiz-adv-x="384" d="M0 960 L0 1920 L192 1920 L192 960 L0 960 Z " />
<glyph glyph-name="Adieresiscyrillic" unicode="&#x4d2;" horiz-adv-x="1152" d="M0 960 L0 2112 L192 2112 L192 1920 L768 1920 L768 2112 L960 2112 L960 960 L768 960 L768 1728 L192 1728 L192 960 L0 960 Z M192 2112 L192 2304 L768 2304 L768 2112 L192 2112 Z M192 2496 L192 2688 L384 2688 L384 2496 L192 2496 Z M576 2496 L576 2688 L768 2688 L768 2496 L576 2496 Z " />
<glyph glyph-name="adieresiscyrillic" unicode="&#x4d3;" horiz-adv-x="1152" d="M0 1152 L0 1344 L192 1344 L192 1152 L0 1152 Z M192 960 L192 1152 L768 1152 L768 1344 L192 1344 L192 1536 L768 1536 L768 1728 L960 1728 L960 960 L192 960 Z M192 1728 L192 1920 L768 1920 L768 1728 L192 1728 Z M192 2112 L192 2304 L384 2304 L384 2112 L192 2112 Z M576 2112 L576 2304 L768 2304 L768 2112 L576 2112 Z " />
<glyph glyph-name="Aiecyrillic" unicode="&#x4d4;" horiz-adv-x="1920" d="M0 960 L0 2112 L192 2112 L192 1920 L768 1920 L768 2112 L192 2112 L192 2304 L1728 2304 L1728 2112 L960 2112 L960 1920 L1344 1920 L1344 1728 L960 1728 L960 1152 L1728 1152 L1728 960 L768 960 L768 1728 L192 1728 L192 960 L0 960 Z " />
<glyph glyph-name="aiecyrillic" unicode="&#x4d5;" horiz-adv-x="1920" d="M192 960 L192 1152 L768 1152 L768 960 L192 960 Z M960 960 L960 1152 L1728 1152 L1728 960 L960 960 Z M0 1152 L0 1344 L192 1344 L192 1152 L0 1152 Z M768 1152 L768 1344 L192 1344 L192 1536 L768 1536 L768 1728 L960 1728 L960 1536 L1536 1536 L1536 1728 L1728 1728 L1728 1344 L960 1344 L960 1152 L768 1152 Z M192 1728 L192 1920 L768 1920 L768 1728 L192 1728 Z M960 1728 L960 1920 L1536 1920 L1536 1728 L960 1728 Z " />
<glyph glyph-name="Schwacyrillic" unicode="&#x4d8;" horiz-adv-x="1152" d="M192 960 L192 1152 L768 1152 L768 960 L192 960 Z M0 1152 L0 1920 L768 1920 L768 2112 L960 2112 L960 1152 L768 1152 L768 1728 L192 1728 L192 1152 L0 1152 Z M192 2112 L192 2304 L768 2304 L768 2112 L192 2112 Z " />
<glyph glyph-name="afii10846" unicode="&#x4d9;" horiz-adv-x="1152" d="M192 960 L192 1152 L768 1152 L768 960 L192 960 Z M0 1152 L0 1536 L768 1536 L768 1728 L960 1728 L960 1152 L768 1152 L768 1344 L192 1344 L192 1152 L0 1152 Z M192 1728 L192 1920 L768 1920 L768 1728 L192 1728 Z " />
<glyph glyph-name="Imacroncyrillic" unicode="&#x4e2;" horiz-adv-x="1152" d="M384 1728 L384 1920 L576 1920 L576 1728 L384 1728 Z M0 960 L0 2304 L192 2304 L192 1728 L384 1728 L384 1536 L192 1536 L192 960 L0 960 Z M768 960 L768 1920 L576 1920 L576 2112 L768 2112 L768 2304 L960 2304 L960 960 L768 960 Z M192 2496 L192 2688 L768 2688 L768 2496 L192 2496 Z " />
<glyph glyph-name="imacroncyrillic" unicode="&#x4e3;" horiz-adv-x="1152" d="M384 1344 L384 1536 L576 1536 L576 1344 L384 1344 Z M0 960 L0 1920 L192 1920 L192 1344 L384 1344 L384 1152 L192 1152 L192 960 L0 960 Z M768 960 L768 1536 L576 1536 L576 1728 L768 1728 L768 1920 L960 1920 L960 960 L768 960 Z M192 2112 L192 2304 L768 2304 L768 2112 L192 2112 Z " />
<glyph glyph-name="Idieresiscyrillic" unicode="&#x4e4;" horiz-adv-x="1152" d="M384 1728 L384 1920 L576 1920 L576 1728 L384 1728 Z M0 960 L0 2304 L192 2304 L192 1728 L384 1728 L384 1536 L192 1536 L192 960 L0 960 Z M768 960 L768 1920 L576 1920 L576 2112 L768 2112 L768 2304 L960 2304 L960 960 L768 960 Z M192 2496 L192 2688 L384 2688 L384 2496 L192 2496 Z M576 2496 L576 2688 L768 2688 L768 2496 L576 2496 Z " />
<glyph glyph-name="idieresiscyrillic" unicode="&#x4e5;" horiz-adv-x="1152" d="M384 1344 L384 1536 L576 1536 L576 1344 L384 1344 Z M0 960 L0 1920 L192 1920 L192 1344 L384 1344 L384 1152 L192 1152 L192 960 L0 960 Z M768 960 L768 1536 L576 1536 L576 1728 L768 1728 L768 1920 L960 1920 L960 960 L768 960 Z M192 2112 L192 2304 L384 2304 L384 2112 L192 2112 Z M576 2112 L576 2304 L768 2304 L768 2112 L576 2112 Z " />
<glyph glyph-name="Odieresiscyrillic" unicode="&#x4e6;" horiz-adv-x="1152" d="M192 960 L192 1152 L768 1152 L768 960 L192 960 Z M0 1152 L0 2112 L192 2112 L192 1152 L0 1152 Z M768 1152 L768 2112 L960 2112 L960 1152 L768 1152 Z M192 2112 L192 2304 L768 2304 L768 2112 L192 2112 Z M192 2496 L192 2688 L384 2688 L384 2496 L192 2496 Z M576 2496 L576 2688 L768 2688 L768 2496 L576 2496 Z " />
<glyph glyph-name="odieresiscyrillic" unicode="&#x4e7;" horiz-adv-x="1152" d="M192 960 L192 1152 L768 1152 L768 960 L192 960 Z M0 1152 L0 1728 L192 1728 L192 1152 L0 1152 Z M768 1152 L768 1728 L960 1728 L960 1152 L768 1152 Z M192 1728 L192 1920 L768 1920 L768 1728 L192 1728 Z M192 2112 L192 2304 L384 2304 L384 2112 L192 2112 Z M576 2112 L576 2304 L768 2304 L768 2112 L576 2112 Z " />
<glyph glyph-name="Obarredcyrillic" unicode="&#x4e8;" horiz-adv-x="1152" d="M192 960 L192 1152 L768 1152 L768 960 L192 960 Z M0 1152 L0 2112 L192 2112 L192 1728 L768 1728 L768 2112 L960 2112 L960 1152 L768 1152 L768 1536 L192 1536 L192 1152 L0 1152 Z M192 2112 L192 2304 L768 2304 L768 2112 L192 2112 Z " />
<glyph glyph-name="obarredcyrillic" unicode="&#x4e9;" horiz-adv-x="1152" d="M192 960 L192 1152 L768 1152 L768 960 L192 960 Z M0 1152 L0 1728 L192 1728 L192 1536 L768 1536 L768 1728 L960 1728 L960 1152 L768 1152 L768 1344 L192 1344 L192 1152 L0 1152 Z M192 1728 L192 1920 L768 1920 L768 1728 L192 1728 Z " />
<glyph glyph-name="uni04EC" unicode="&#x4ec;" horiz-adv-x="1152" d="M192 960 L192 1152 L768 1152 L768 960 L192 960 Z M0 1152 L0 1344 L192 1344 L192 1152 L0 1152 Z M0 1920 L0 2112 L192 2112 L192 1920 L0 1920 Z M768 1152 L768 1728 L384 1728 L384 1920 L768 1920 L768 2112 L960 2112 L960 1152 L768 1152 Z M192 2112 L192 2304 L768 2304 L768 2112 L192 2112 Z M192 2496 L192 2688 L384 2688 L384 2496 L192 2496 Z M576 2496 L576 2688 L768 2688 L768 2496 L576 2496 Z " />
<glyph glyph-name="uni04ED" unicode="&#x4ed;" horiz-adv-x="1152" d="M192 960 L192 1152 L768 1152 L768 960 L192 960 Z M0 1152 L0 1344 L192 1344 L192 1152 L0 1152 Z M0 1536 L0 1728 L192 1728 L192 1536 L0 1536 Z M768 1152 L768 1344 L384 1344 L384 1536 L768 1536 L768 1728 L960 1728 L960 1152 L768 1152 Z M192 1728 L192 1920 L768 1920 L768 1728 L192 1728 Z " />
<glyph glyph-name="Umacroncyrillic" unicode="&#x4ee;" horiz-adv-x="1152" d="M0 960 L0 1152 L576 1152 L576 960 L0 960 Z M576 1152 L576 1344 L768 1344 L768 1152 L576 1152 Z M0 1920 L0 2304 L192 2304 L192 1920 L0 1920 Z M768 1344 L768 1728 L192 1728 L192 1920 L768 1920 L768 2304 L960 2304 L960 1344 L768 1344 Z M192 2496 L192 2688 L768 2688 L768 2496 L192 2496 Z " />
<glyph glyph-name="umacroncyrillic" unicode="&#x4ef;" horiz-adv-x="1152" d="M0 768 L0 960 L768 960 L768 768 L0 768 Z M0 1344 L0 1920 L192 1920 L192 1344 L0 1344 Z M768 960 L768 1152 L192 1152 L192 1344 L768 1344 L768 1920 L960 1920 L960 960 L768 960 Z M192 2112 L192 2304 L768 2304 L768 2112 L192 2112 Z " />
<glyph glyph-name="Udieresiscyrillic" unicode="&#x4f0;" horiz-adv-x="1152" d="M0 960 L0 1152 L576 1152 L576 960 L0 960 Z M576 1152 L576 1344 L768 1344 L768 1152 L576 1152 Z M0 1920 L0 2304 L192 2304 L192 1920 L0 1920 Z M768 1344 L768 1728 L192 1728 L192 1920 L768 1920 L768 2304 L960 2304 L960 1344 L768 1344 Z M192 2496 L192 2688 L384 2688 L384 2496 L192 2496 Z M576 2496 L576 2688 L768 2688 L768 2496 L576 2496 Z " />
<glyph glyph-name="udieresiscyrillic" unicode="&#x4f1;" horiz-adv-x="1152" d="M0 768 L0 960 L768 960 L768 768 L0 768 Z M0 1344 L0 1920 L192 1920 L192 1344 L0 1344 Z M768 960 L768 1152 L192 1152 L192 1344 L768 1344 L768 1920 L960 1920 L960 960 L768 960 Z M192 2112 L192 2304 L384 2304 L384 2112 L192 2112 Z M576 2112 L576 2304 L768 2304 L768 2112 L576 2112 Z " />
<glyph glyph-name="Wgrave" unicode="&#x1e80;" horiz-adv-x="1152" d="M384 1344 L384 1536 L576 1536 L576 1344 L384 1344 Z M0 960 L0 2304 L192 2304 L192 1344 L384 1344 L384 1152 L192 1152 L192 960 L0 960 Z M768 960 L768 1152 L576 1152 L576 1344 L768 1344 L768 2304 L960 2304 L960 960 L768 960 Z M384 2304 L384 2496 L576 2496 L576 2304 L384 2304 Z M192 2496 L192 2688 L384 2688 L384 2496 L192 2496 Z " />
<glyph glyph-name="wgrave" unicode="&#x1e81;" horiz-adv-x="1152" d="M0 1152 L0 1920 L192 1920 L192 1152 L0 1152 Z M192 960 L192 1152 L384 1152 L384 1536 L576 1536 L576 1152 L768 1152 L768 1920 L960 1920 L960 960 L192 960 Z M384 2112 L384 2304 L576 2304 L576 2112 L384 2112 Z M192 2304 L192 2496 L384 2496 L384 2304 L192 2304 Z " />
<glyph glyph-name="Wacute" unicode="&#x1e82;" horiz-adv-x="1152" d="M384 1344 L384 1536 L576 1536 L576 1344 L384 1344 Z M0 960 L0 2304 L192 2304 L192 1344 L384 1344 L384 1152 L192 1152 L192 960 L0 960 Z M768 960 L768 1152 L576 1152 L576 1344 L768 1344 L768 2304 L960 2304 L960 960 L768 960 Z M384 2304 L384 2496 L576 2496 L576 2304 L384 2304 Z M576 2496 L576 2688 L768 2688 L768 2496 L576 2496 Z " />
<glyph glyph-name="wacute" unicode="&#x1e83;" horiz-adv-x="1152" d="M0 1152 L0 1920 L192 1920 L192 1152 L0 1152 Z M192 960 L192 1152 L384 1152 L384 1536 L576 1536 L576 1152 L768 1152 L768 1920 L960 1920 L960 960 L192 960 Z M384 2112 L384 2304 L576 2304 L576 2112 L384 2112 Z M576 2304 L576 2496 L768 2496 L768 2304 L576 2304 Z " />
<glyph glyph-name="Wdieresis" unicode="&#x1e84;" horiz-adv-x="1152" d="M384 1344 L384 1536 L576 1536 L576 1344 L384 1344 Z M0 960 L0 2304 L192 2304 L192 1344 L384 1344 L384 1152 L192 1152 L192 960 L0 960 Z M768 960 L768 1152 L576 1152 L576 1344 L768 1344 L768 2304 L960 2304 L960 960 L768 960 Z M192 2496 L192 2688 L384 2688 L384 2496 L192 2496 Z M576 2496 L576 2688 L768 2688 L768 2496 L576 2496 Z " />
<glyph glyph-name="wdieresis" unicode="&#x1e85;" horiz-adv-x="1152" d="M0 1152 L0 1920 L192 1920 L192 1152 L0 1152 Z M192 960 L192 1152 L384 1152 L384 1536 L576 1536 L576 1152 L768 1152 L768 1920 L960 1920 L960 960 L192 960 Z M192 2112 L192 2304 L384 2304 L384 2112 L192 2112 Z M576 2112 L576 2304 L768 2304 L768 2112 L576 2112 Z " />
<glyph glyph-name="uni1E9E" unicode="&#x1e9e;" horiz-adv-x="1152" d="M384 960 L384 1152 L768 1152 L768 960 L384 960 Z M768 1152 L768 1728 L960 1728 L960 1152 L768 1152 Z M0 960 L0 2304 L960 2304 L960 2112 L768 2112 L768 1728 L384 1728 L384 1920 L576 1920 L576 2112 L192 2112 L192 960 L0 960 Z " />
<glyph glyph-name="Ygrave" unicode="&#x1ef2;" horiz-adv-x="1152" d="M384 960 L384 1920 L576 1920 L576 960 L384 960 Z M192 1920 L192 2112 L384 2112 L384 1920 L192 1920 Z M576 1920 L576 2112 L768 2112 L768 1920 L576 1920 Z M0 2112 L0 2304 L192 2304 L192 2112 L0 2112 Z M768 2112 L768 2304 L960 2304 L960 2112 L768 2112 Z M384 2304 L384 2496 L576 2496 L576 2304 L384 2304 Z M192 2496 L192 2688 L384 2688 L384 2496 L192 2496 Z " />
<glyph glyph-name="ygrave" unicode="&#x1ef3;" horiz-adv-x="1152" d="M0 768 L0 960 L768 960 L768 768 L0 768 Z M0 1344 L0 1920 L192 1920 L192 1344 L0 1344 Z M768 960 L768 1152 L192 1152 L192 1344 L768 1344 L768 1920 L960 1920 L960 960 L768 960 Z M384 2112 L384 2304 L576 2304 L576 2112 L384 2112 Z M192 2304 L192 2496 L384 2496 L384 2304 L192 2304 Z " />
<glyph glyph-name="quoteleft" unicode="&#x2018;" horiz-adv-x="576" d="M0 1728 L0 2112 L192 2112 L192 1728 L0 1728 Z M192 2112 L192 2304 L384 2304 L384 2112 L192 2112 Z " />
<glyph glyph-name="quoteright" unicode="&#x2019;" horiz-adv-x="576" d="M0 1728 L0 1920 L192 1920 L192 1728 L0 1728 Z M192 1920 L192 2304 L384 2304 L384 1920 L192 1920 Z " />
<glyph glyph-name="quotesinglbase" unicode="&#x201a;" horiz-adv-x="576" d="M0 768 L0 960 L192 960 L192 768 L0 768 Z M192 960 L192 1344 L384 1344 L384 960 L192 960 Z " />
<glyph glyph-name="quoteleftreversed" unicode="&#x201b;" horiz-adv-x="576" d="M192 1728 L192 1920 L384 1920 L384 1728 L192 1728 Z M0 1920 L0 2304 L192 2304 L192 1920 L0 1920 Z " />
<glyph glyph-name="quotedblleft" unicode="&#x201c;" horiz-adv-x="960" d="M0 1728 L0 2112 L192 2112 L192 1728 L0 1728 Z M384 1728 L384 2112 L576 2112 L576 1728 L384 1728 Z M192 2112 L192 2304 L384 2304 L384 2112 L192 2112 Z M576 2112 L576 2304 L768 2304 L768 2112 L576 2112 Z " />
<glyph glyph-name="quotedblright" unicode="&#x201d;" horiz-adv-x="960" d="M0 1728 L0 1920 L192 1920 L192 1728 L0 1728 Z M384 1728 L384 1920 L576 1920 L576 1728 L384 1728 Z M192 1920 L192 2304 L384 2304 L384 1920 L192 1920 Z M576 1920 L576 2304 L768 2304 L768 1920 L576 1920 Z " />
<glyph glyph-name="quotedblbase" unicode="&#x201e;" horiz-adv-x="960" d="M0 768 L0 960 L192 960 L192 768 L0 768 Z M384 768 L384 960 L576 960 L576 768 L384 768 Z M192 960 L192 1344 L384 1344 L384 960 L192 960 Z M576 960 L576 1344 L768 1344 L768 960 L576 960 Z " />
<glyph glyph-name="uni201F" unicode="&#x201f;" horiz-adv-x="960" d="M192 1728 L192 1920 L384 1920 L384 1728 L192 1728 Z M576 1728 L576 1920 L768 1920 L768 1728 L576 1728 Z M0 1920 L0 2304 L192 2304 L192 1920 L0 1920 Z M384 1920 L384 2304 L576 2304 L576 1920 L384 1920 Z " />
<glyph glyph-name="dagger" unicode="&#x2020;" horiz-adv-x="768" d="M192 1152 L192 1920 L0 1920 L0 2112 L192 2112 L192 2304 L384 2304 L384 2112 L576 2112 L576 1920 L384 1920 L384 1152 L192 1152 Z " />
<glyph glyph-name="daggerdbl" unicode="&#x2021;" horiz-adv-x="768" d="M192 1152 L192 1344 L0 1344 L0 1536 L192 1536 L192 1920 L0 1920 L0 2112 L192 2112 L192 2304 L384 2304 L384 2112 L576 2112 L576 1920 L384 1920 L384 1536 L576 1536 L576 1344 L384 1344 L384 1152 L192 1152 Z " />
<glyph glyph-name="bullet" unicode="&#x2022;" horiz-adv-x="576" d="M0 1344 L0 1728 L384 1728 L384 1344 L0 1344 Z " />
<glyph glyph-name="uni2023" unicode="&#x2023;" horiz-adv-x="768" d="M0 960 L0 1920 L192 1920 L192 1728 L384 1728 L384 1536 L576 1536 L576 1344 L384 1344 L384 1152 L192 1152 L192 960 L0 960 Z " />
<glyph glyph-name="ellipsis" unicode="&#x2026;" horiz-adv-x="1152" d="M0 960 L0 1344 L192 1344 L192 960 L0 960 Z M384 960 L384 1344 L576 1344 L576 960 L384 960 Z M768 960 L768 1344 L960 1344 L960 960 L768 960 Z " />
<glyph glyph-name="perthousand" unicode="&#x2030;" horiz-adv-x="1536" d="M0 960 L0 1152 L192 1152 L192 960 L0 960 Z M768 960 L768 1344 L960 1344 L960 960 L768 960 Z M1152 960 L1152 1344 L1344 1344 L1344 960 L1152 960 Z M192 1152 L192 1536 L384 1536 L384 1152 L192 1152 Z M384 1536 L384 1728 L576 1728 L576 1536 L384 1536 Z M576 1728 L576 2112 L768 2112 L768 1728 L576 1728 Z M0 1920 L0 2304 L192 2304 L192 1920 L0 1920 Z M768 2112 L768 2304 L960 2304 L960 2112 L768 2112 Z " />
<glyph glyph-name="minute" unicode="&#x2032;" horiz-adv-x="768" d="M0 1728 L0 1920 L192 1920 L192 1728 L0 1728 Z M192 1920 L192 2112 L384 2112 L384 1920 L192 1920 Z M384 2112 L384 2304 L576 2304 L576 2112 L384 2112 Z " />
<glyph glyph-name="second" unicode="&#x2033;" horiz-adv-x="1152" d="M0 1728 L0 1920 L192 1920 L192 1728 L0 1728 Z M384 1728 L384 1920 L576 1920 L576 1728 L384 1728 Z M192 1920 L192 2112 L384 2112 L384 1920 L192 1920 Z M576 1920 L576 2112 L768 2112 L768 1920 L576 1920 Z M384 2112 L384 2304 L576 2304 L576 2112 L384 2112 Z M768 2112 L768 2304 L960 2304 L960 2112 L768 2112 Z " />
<glyph glyph-name="primereversed" unicode="&#x2035;" horiz-adv-x="768" d="M384 1728 L384 1920 L576 1920 L576 1728 L384 1728 Z M192 1920 L192 2112 L384 2112 L384 1920 L192 1920 Z M0 2112 L0 2304 L192 2304 L192 2112 L0 2112 Z " />
<glyph glyph-name="uni2036" unicode="&#x2036;" horiz-adv-x="1152" d="M384 1728 L384 1920 L576 1920 L576 1728 L384 1728 Z M768 1728 L768 1920 L960 1920 L960 1728 L768 1728 Z M192 1920 L192 2112 L384 2112 L384 1920 L192 1920 Z M576 1920 L576 2112 L768 2112 L768 1920 L576 1920 Z M0 2112 L0 2304 L192 2304 L192 2112 L0 2112 Z M384 2112 L384 2304 L576 2304 L576 2112 L384 2112 Z " />
<glyph glyph-name="guilsinglleft" unicode="&#x2039;" horiz-adv-x="576" d="M192 960 L192 1152 L384 1152 L384 960 L192 960 Z M0 1152 L0 1536 L192 1536 L192 1152 L0 1152 Z M192 1536 L192 1728 L384 1728 L384 1536 L192 1536 Z " />
<glyph glyph-name="guilsinglright" unicode="&#x203a;" horiz-adv-x="576" d="M0 960 L0 1152 L192 1152 L192 960 L0 960 Z M192 1152 L192 1536 L384 1536 L384 1152 L192 1152 Z M0 1536 L0 1728 L192 1728 L192 1536 L0 1536 Z " />
<glyph glyph-name="fraction" unicode="&#x2044;" horiz-adv-x="768" d="M-384 960 L-384 1152 L-192 1152 L-192 960 L-384 960 Z M-192 1152 L-192 1536 L0 1536 L0 1152 L-192 1152 Z M0 1536 L0 1728 L192 1728 L192 1536 L0 1536 Z M192 1728 L192 2112 L384 2112 L384 1728 L192 1728 Z M384 2112 L384 2304 L576 2304 L576 2112 L384 2112 Z " />
<glyph glyph-name="zerosuperior" unicode="&#x2070;" horiz-adv-x="768" d="M192 1536 L192 1728 L384 1728 L384 1536 L192 1536 Z M0 1728 L0 2112 L192 2112 L192 1728 L0 1728 Z M384 1728 L384 2112 L576 2112 L576 1728 L384 1728 Z M192 2112 L192 2304 L384 2304 L384 2112 L192 2112 Z " />
<glyph glyph-name="uni2071" unicode="&#x2071;" horiz-adv-x="384" d="M0 1536 L0 1920 L192 1920 L192 1536 L0 1536 Z M0 2112 L0 2304 L192 2304 L192 2112 L0 2112 Z " />
<glyph glyph-name="foursuperior" unicode="&#x2074;" horiz-adv-x="768" d="M384 1536 L384 1728 L0 1728 L0 2112 L192 2112 L192 1920 L384 1920 L384 2112 L192 2112 L192 2304 L576 2304 L576 1536 L384 1536 Z " />
<glyph glyph-name="fivesuperior" unicode="&#x2075;" horiz-adv-x="768" d="M0 1536 L0 1728 L384 1728 L384 1536 L0 1536 Z M384 1728 L384 1920 L576 1920 L576 1728 L384 1728 Z M0 1920 L0 2304 L576 2304 L576 2112 L384 2112 L384 1920 L0 1920 Z " />
<glyph glyph-name="sixsuperior" unicode="&#x2076;" horiz-adv-x="768" d="M192 1536 L192 1728 L384 1728 L384 1536 L192 1536 Z M384 1728 L384 1920 L576 1920 L576 1728 L384 1728 Z M0 1728 L0 2112 L192 2112 L192 2304 L576 2304 L576 2112 L384 2112 L384 1920 L192 1920 L192 1728 L0 1728 Z " />
<glyph glyph-name="sevensuperior" unicode="&#x2077;" horiz-adv-x="768" d="M0 1536 L0 1728 L192 1728 L192 1536 L0 1536 Z M192 1728 L192 1920 L384 1920 L384 1728 L192 1728 Z M384 1920 L384 2112 L0 2112 L0 2304 L576 2304 L576 1920 L384 1920 Z " />
<glyph glyph-name="eightsuperior" unicode="&#x2078;" horiz-adv-x="768" d="M192 1536 L192 1728 L384 1728 L384 1536 L192 1536 Z M0 1728 L0 2112 L192 2112 L192 2304 L384 2304 L384 2112 L576 2112 L576 1728 L384 1728 L384 1920 L192 1920 L192 1728 L0 1728 Z " />
<glyph glyph-name="ninesuperior" unicode="&#x2079;" horiz-adv-x="768" d="M0 1920 L0 2112 L192 2112 L192 1920 L0 1920 Z M0 1536 L0 1728 L192 1728 L192 1920 L384 1920 L384 2112 L576 2112 L576 1728 L384 1728 L384 1536 L0 1536 Z M192 2112 L192 2304 L384 2304 L384 2112 L192 2112 Z " />
<glyph glyph-name="zeroinferior" unicode="&#x2080;" horiz-adv-x="768" d="M192 960 L192 1152 L384 1152 L384 960 L192 960 Z M0 1152 L0 1536 L192 1536 L192 1152 L0 1152 Z M384 1152 L384 1536 L576 1536 L576 1152 L384 1152 Z M192 1536 L192 1728 L384 1728 L384 1536 L192 1536 Z " />
<glyph glyph-name="oneinferior" unicode="&#x2081;" horiz-adv-x="768" d="M0 960 L0 1152 L192 1152 L192 1344 L0 1344 L0 1536 L192 1536 L192 1728 L384 1728 L384 1152 L576 1152 L576 960 L0 960 Z " />
<glyph glyph-name="twoinferior" unicode="&#x2082;" horiz-adv-x="768" d="M0 960 L0 1152 L192 1152 L192 1344 L384 1344 L384 1152 L576 1152 L576 960 L0 960 Z M384 1344 L384 1536 L576 1536 L576 1344 L384 1344 Z M0 1536 L0 1728 L384 1728 L384 1536 L0 1536 Z " />
<glyph glyph-name="threeinferior" unicode="&#x2083;" horiz-adv-x="768" d="M0 960 L0 1152 L384 1152 L384 960 L0 960 Z M384 1152 L384 1344 L192 1344 L192 1536 L0 1536 L0 1728 L384 1728 L384 1536 L576 1536 L576 1152 L384 1152 Z " />
<glyph glyph-name="fourinferior" unicode="&#x2084;" horiz-adv-x="768" d="M384 960 L384 1152 L0 1152 L0 1536 L192 1536 L192 1344 L384 1344 L384 1536 L192 1536 L192 1728 L576 1728 L576 960 L384 960 Z " />
<glyph glyph-name="fiveinferior" unicode="&#x2085;" horiz-adv-x="768" d="M0 960 L0 1152 L384 1152 L384 960 L0 960 Z M384 1152 L384 1344 L576 1344 L576 1152 L384 1152 Z M0 1344 L0 1728 L576 1728 L576 1536 L384 1536 L384 1344 L0 1344 Z " />
</font>
</svg>
